<?xml version="1.0" encoding="UTF-8" standalone="no"?>
<svg
   width="2.5in"
   height="3.5in"
   viewBox="-120 -168 240 336"
   preserveAspectRatio="none"
   class="card"
   face="5C"
   version="1.1"
   id="svg10"
   sodipodi:docname="five-of-clubs.svg"
   inkscape:version="1.3-alpha (4127b5831, 2023-04-12)"
   xmlns:inkscape="http://www.inkscape.org/namespaces/inkscape"
   xmlns:sodipodi="http://sodipodi.sourceforge.net/DTD/sodipodi-0.dtd"
   xmlns="http://www.w3.org/2000/svg"
   xmlns:svg="http://www.w3.org/2000/svg">
  <defs
     id="defs10" />
  <sodipodi:namedview
     id="namedview10"
     pagecolor="#ffffff"
     bordercolor="#000000"
     borderopacity="0.25"
     inkscape:showpageshadow="2"
     inkscape:pageopacity="0.0"
     inkscape:pagecheckerboard="true"
     inkscape:deskcolor="#d1d1d1"
     inkscape:document-units="in"
     showgrid="false"
     showborder="true"
     inkscape:zoom="2.1517857"
     inkscape:cx="119.90041"
     inkscape:cy="168"
     inkscape:window-width="1280"
     inkscape:window-height="961"
     inkscape:window-x="-8"
     inkscape:window-y="-8"
     inkscape:window-maximized="1"
     inkscape:current-layer="layer1" />
  <g
     inkscape:groupmode="layer"
     id="layer4"
     inkscape:label="Card Edge"
     style="display:inline">
    <rect
       width="239"
       height="335"
       x="-119.5"
       y="-167.5"
       rx="12"
       ry="12"
       fill="#ffffff"
       stroke="#000000"
       id="rect2"
       style="display:inline" />
  </g>
  <g
     inkscape:groupmode="layer"
     id="layer2"
     inkscape:label="Clubs"
     style="display:inline">
    <path
       d="m 30,150 c 5,235 55,250 100,350 H -130 C -85,400 -35,385 -30,150 a 10,10 0 0 0 -20,0 210,210 0 1 1 -74,-201 10,10 0 0 0 14,-14 230,230 0 1 1 220,0 10,10 0 0 0 14,14 210,210 0 1 1 -74,201 10,10 0 0 0 -20,0 z"
       fill="#000000"
       id="path12"
       transform="scale(0.05833333)"
       style="fill:#cc6600;fill-opacity:1" />
    <g
       id="use5"
       transform="matrix(0.05833333,0,0,0.05833333,-52.500999,-100.588)"
       style="fill:#cc6600;fill-opacity:1">
      <path
         d="m 30,150 c 5,235 55,250 100,350 H -130 C -85,400 -35,385 -30,150 a 10,10 0 0 0 -20,0 210,210 0 1 1 -74,-201 10,10 0 0 0 14,-14 230,230 0 1 1 220,0 10,10 0 0 0 14,14 210,210 0 1 1 -74,201 10,10 0 0 0 -20,0 z"
         fill="#000000"
         id="path10"
         style="fill:#cc6600;fill-opacity:1" />
    </g>
    <g
       id="use6"
       transform="matrix(0.05833333,0,0,0.05833333,52.501,-100.588)"
       style="fill:#cc6600;fill-opacity:1">
      <path
         d="m 30,150 c 5,235 55,250 100,350 H -130 C -85,400 -35,385 -30,150 a 10,10 0 0 0 -20,0 210,210 0 1 1 -74,-201 10,10 0 0 0 14,-14 230,230 0 1 1 220,0 10,10 0 0 0 14,14 210,210 0 1 1 -74,201 10,10 0 0 0 -20,0 z"
         fill="#000000"
         id="path11"
         style="fill:#cc6600;fill-opacity:1" />
    </g>
    <g
       id="use9"
       transform="matrix(-0.05833333,0,0,-0.05833333,52.501,100.588)"
       style="fill:#cc6600;fill-opacity:1">
      <path
         d="m 30,150 c 5,235 55,250 100,350 H -130 C -85,400 -35,385 -30,150 a 10,10 0 0 0 -20,0 210,210 0 1 1 -74,-201 10,10 0 0 0 14,-14 230,230 0 1 1 220,0 10,10 0 0 0 14,14 210,210 0 1 1 -74,201 10,10 0 0 0 -20,0 z"
         fill="#000000"
         id="path14"
         style="fill:#cc6600;fill-opacity:1" />
    </g>
    <g
       id="use10"
       transform="matrix(-0.05833333,0,0,-0.05833333,-52.500999,100.588)"
       style="display:inline;fill:#cc6600;fill-opacity:1">
      <path
         d="m 30,150 c 5,235 55,250 100,350 H -130 C -85,400 -35,385 -30,150 a 10,10 0 0 0 -20,0 210,210 0 1 1 -74,-201 10,10 0 0 0 14,-14 230,230 0 1 1 220,0 10,10 0 0 0 14,14 210,210 0 1 1 -74,201 10,10 0 0 0 -20,0 z"
         fill="#000000"
         id="path13"
         style="fill:#cc6600;fill-opacity:1" />
    </g>
  </g>
  <g
     inkscape:groupmode="layer"
     id="layer1"
     inkscape:label="Fives and Small Clubs"
     style="display:inline">
    <g
       id="use3"
       transform="matrix(0.032,0,0,0.032,-98.400002,-140)"
       style="display:inline;stroke:#cc6900;stroke-opacity:1"
       inkscape:label="Club (Bottom)">
      <path
         d="m 170,-460 h -345 l -35,345 c 0,0 10,-85 210,-85 100,0 255,120 255,320 0,200 -75,340 -275,340 -200,0 -235,-175 -235,-175"
         stroke="#000000"
         stroke-width="80"
         stroke-linecap="square"
         stroke-miterlimit="1.5"
         fill="none"
         id="path17"
         style="stroke:#cc6900;stroke-opacity:1" />
    </g>
    <g
       id="use7"
       transform="matrix(-0.032,0,0,-0.032,98.4,140)"
       style="display:inline;stroke:#cc6900;stroke-opacity:1"
       inkscape:label="Five (Bottom)">
      <path
         d="m 170,-460 h -345 l -35,345 c 0,0 10,-85 210,-85 100,0 255,120 255,320 0,200 -75,340 -275,340 -200,0 -235,-175 -235,-175"
         stroke="#000000"
         stroke-width="80"
         stroke-linecap="square"
         stroke-miterlimit="1.5"
         fill="none"
         id="path18"
         style="stroke:#cc6900;stroke-opacity:1" />
    </g>
    <g
       id="use4"
       transform="matrix(0.0223075,0,0,0.0223075,-98.399497,-105.6155)"
       style="display:inline;fill:#cc6600;fill-opacity:1"
       inkscape:label="Club (top)">
      <path
         d="m 30,150 c 5,235 55,250 100,350 H -130 C -85,400 -35,385 -30,150 a 10,10 0 0 0 -20,0 210,210 0 1 1 -74,-201 10,10 0 0 0 14,-14 230,230 0 1 1 220,0 10,10 0 0 0 14,14 210,210 0 1 1 -74,201 10,10 0 0 0 -20,0 z"
         fill="#000000"
         id="path15"
         style="fill:#cc6600;fill-opacity:1" />
    </g>
    <g
       id="use8"
       transform="matrix(-0.0223075,0,0,-0.0223075,98.3995,105.6155)"
       style="display:inline;fill:#cc6600;fill-opacity:1"
       inkscape:label="Club (bottom)">
      <path
         d="m 30,150 c 5,235 55,250 100,350 H -130 C -85,400 -35,385 -30,150 a 10,10 0 0 0 -20,0 210,210 0 1 1 -74,-201 10,10 0 0 0 14,-14 230,230 0 1 1 220,0 10,10 0 0 0 14,14 210,210 0 1 1 -74,201 10,10 0 0 0 -20,0 z"
         fill="#000000"
         id="path16"
         style="fill:#cc6600;fill-opacity:1" />
    </g>
  </g>
</svg>
