<?xml version="1.0" encoding="UTF-8" standalone="no"?>
<!-- Created with Inkscape (http://www.inkscape.org/) -->

<svg
   width="2.0179362in"
   height="1.3147157in"
   viewBox="0 0 51.25558 33.39378"
   version="1.1"
   id="svg1"
   inkscape:version="1.4 (86a8ad7, 2024-10-11)"
   sodipodi:docname="05_civilization-superimposed.svg"
   xmlns:inkscape="http://www.inkscape.org/namespaces/inkscape"
   xmlns:sodipodi="http://sodipodi.sourceforge.net/DTD/sodipodi-0.dtd"
   xmlns="http://www.w3.org/2000/svg"
   xmlns:svg="http://www.w3.org/2000/svg">
  <sodipodi:namedview
     id="namedview1"
     pagecolor="#ffffff"
     bordercolor="#000000"
     borderopacity="0.25"
     inkscape:showpageshadow="2"
     inkscape:pageopacity="0.0"
     inkscape:pagecheckerboard="true"
     inkscape:deskcolor="#d1d1d1"
     inkscape:document-units="in"
     inkscape:zoom="4.1790526"
     inkscape:cx="74.897358"
     inkscape:cy="58.14715"
     inkscape:window-width="1920"
     inkscape:window-height="1017"
     inkscape:window-x="-8"
     inkscape:window-y="-8"
     inkscape:window-maximized="1"
     inkscape:current-layer="svg1" />
  <defs
     id="defs1" />
  <g
     inkscape:groupmode="layer"
     id="g90"
     inkscape:label="age_eden"
     style="display:inline;opacity:0.576"
     transform="translate(-113.70294,-98.032251)"
     inkscape:highlight-color="#bfbf60">
    <path
       style="color:#000000;display:inline;opacity:1;fill:#ffffff;fill-opacity:1;stroke:#000000;stroke-width:0.17295;stroke-linecap:round;stroke-linejoin:round;stroke-dasharray:none;stroke-opacity:1"
       d="m 128.88351,100.49916 -7.4665,12.93172 -7.46621,12.93202 c -0.46221,0.80067 0.11555,1.80147 1.04006,1.8016 h 14.93272 14.93236 c 0.92452,-1.3e-4 1.50227,-1.00093 1.04006,-1.8016 l -7.46617,-12.93202 -7.46619,-12.93172 c -0.46785,-0.809987 -1.6275,-0.783627 -2.08013,0 z"
       id="path69"
       sodipodi:nodetypes="cccccccccc"
       inkscape:label="triangle" />
    <path
       style="display:inline;opacity:1;fill:none;stroke:#000000;stroke-width:0.0984506;stroke-linecap:butt;stroke-linejoin:miter;stroke-miterlimit:4;stroke-dasharray:1.18141, 1.18141;stroke-dashoffset:0.826983;stroke-opacity:1"
       d="m 117.04236,121.06517 h 25.7621"
       id="path70"
       inkscape:label="segregator (bottom)" />
    <path
       style="display:inline;opacity:1;fill:none;stroke:#000000;stroke-width:0.0987316;stroke-linecap:butt;stroke-linejoin:miter;stroke-miterlimit:4;stroke-dasharray:1.18478, 1.18478;stroke-dashoffset:0.227083;stroke-opacity:1"
       d="m 121.14228,113.98638 h 17.56228"
       id="path71"
       inkscape:label="segregator (middle)" />
    <path
       style="display:inline;opacity:1;fill:none;stroke:#000000;stroke-width:0.100489;stroke-linecap:butt;stroke-linejoin:miter;stroke-miterlimit:4;stroke-dasharray:1.20588, 1.20588;stroke-dashoffset:0.803917;stroke-opacity:1"
       d="m 125.21462,106.90756 h 9.41763"
       id="path72"
       inkscape:label="segregator (top)" />
    <g
       inkscape:groupmode="layer"
       id="g77"
       inkscape:label="fonts_as_objects"
       style="display:inline;opacity:1">
      <text
         xml:space="preserve"
         style="font-style:normal;font-variant:normal;font-weight:normal;font-stretch:normal;font-size:2.3974px;line-height:1.25;font-family:Merriweather;-inkscape-font-specification:Merriweather;display:inline;opacity:1;stroke-width:0.0421393"
         x="124.85666"
         y="126.75356"
         id="text73"
         inkscape:label="workers"><tspan
           sodipodi:role="line"
           id="tspan73"
           style="font-style:normal;font-variant:normal;font-weight:normal;font-stretch:normal;font-size:2.3974px;font-family:Merriweather;-inkscape-font-specification:Merriweather;stroke-width:0.0421393"
           x="124.85666"
           y="126.75356"
           dy="0.95560199">workers...</tspan></text>
      <text
         xml:space="preserve"
         style="font-style:normal;font-variant:normal;font-weight:normal;font-stretch:normal;font-size:2.3974px;line-height:1.25;font-family:Merriweather;-inkscape-font-specification:Merriweather;display:inline;opacity:1;stroke-width:0.0421393"
         x="126.04521"
         y="119.78121"
         id="text74"
         inkscape:label="experts"><tspan
           sodipodi:role="line"
           id="tspan74"
           style="font-style:normal;font-variant:normal;font-weight:normal;font-stretch:normal;font-size:2.3974px;font-family:Merriweather;-inkscape-font-specification:Merriweather;stroke-width:0.0421393"
           x="126.04521"
           y="119.78121"
           dy="0.95560199">experts</tspan></text>
      <text
         xml:space="preserve"
         style="font-style:normal;font-variant:normal;font-weight:normal;font-stretch:normal;font-size:2.3974px;line-height:1.25;font-family:Merriweather;-inkscape-font-specification:Merriweather;display:inline;opacity:1;stroke-width:0.0421393"
         x="126.71877"
         y="112.72053"
         id="text75"
         inkscape:label="elders"><tspan
           sodipodi:role="line"
           id="tspan75"
           style="font-style:normal;font-variant:normal;font-weight:normal;font-stretch:normal;font-size:2.3974px;font-family:Merriweather;-inkscape-font-specification:Merriweather;stroke-width:0.0421393"
           x="126.71877"
           y="112.72053"
           dy="0.95560199">elders</tspan></text>
      <text
         xml:space="preserve"
         style="font-style:normal;font-variant:normal;font-weight:normal;font-stretch:normal;font-size:2.3974px;line-height:1.25;font-family:Merriweather;-inkscape-font-specification:Merriweather;display:inline;opacity:1;stroke-width:0.0421393"
         x="129.81247"
         y="104.38416"
         id="text76"
         inkscape:label="chief"><tspan
           sodipodi:role="line"
           id="tspan76"
           style="font-style:normal;font-variant:normal;font-weight:normal;font-stretch:normal;font-size:2.3974px;font-family:Merriweather;-inkscape-font-specification:Merriweather;text-align:center;text-anchor:middle;stroke-width:0.0421393"
           x="129.81247"
           y="104.38416"
           dy="2.229738">chief</tspan></text>
      <text
         xml:space="preserve"
         style="font-style:normal;font-variant:normal;font-weight:normal;font-stretch:normal;font-size:0.899019px;font-family:Merriweather;-inkscape-font-specification:Merriweather;display:none;opacity:1;fill:#000000;fill-opacity:0.0724907;stroke-width:0.224755"
         x="127.15209"
         y="118.80424"
         id="text77"
         inkscape:label="Paradise Lost"><tspan
           sodipodi:role="line"
           id="tspan77"
           style="font-style:normal;font-variant:normal;font-weight:normal;font-stretch:normal;font-size:0.899019px;font-family:Merriweather;-inkscape-font-specification:Merriweather;stroke-width:0.224755"
           x="0.0633118"
           y="0">Paradise Lost</tspan></text>
    </g>
    <g
       id="g89"
       transform="matrix(0.99999999,0,-0.06992681,0.99999999,82.479571,98.089363)"
       style="display:none;opacity:1;fill:#000000;fill-opacity:0.09"
       inkscape:label="clock_eden">
      <path
         id="path83"
         style="display:inline;fill:#000000;fill-opacity:0.09;stroke-width:0.097265"
         d="m 15.119882,18.425555 h 1.160803 l 0.145968,0.132936 -0.145968,0.132936 H 15.119882 L 14.97071,18.558491 Z"
         sodipodi:nodetypes="ccccccc"
         inkscape:label="1_H_T" />
      <path
         id="use83"
         style="display:inline;fill:#000000;fill-opacity:0.09;stroke-width:0.097265"
         d="m 15.119882,19.483888 h 1.160803 l 0.145968,0.132936 -0.145968,0.132936 H 15.119882 L 14.97071,19.616824 Z"
         sodipodi:nodetypes="ccccccc"
         inkscape:label="1_H_T" />
      <path
         id="use84"
         style="display:inline;fill:#000000;fill-opacity:0.09;stroke-width:0.097265"
         d="m 15.119882,20.542221 h 1.160803 l 0.145968,0.132936 -0.145968,0.132936 H 15.119882 L 14.97071,20.675157 Z"
         sodipodi:nodetypes="ccccccc"
         inkscape:label="1_H_T" />
      <path
         id="use85"
         style="display:inline;fill:#000000;fill-opacity:0.09;stroke-width:0.097265"
         d="m 17.236549,19.483888 h 1.160803 l 0.145968,0.132936 -0.145968,0.132936 h -1.160803 l -0.149172,-0.132936 z"
         sodipodi:nodetypes="ccccccc"
         inkscape:label="1_H_T" />
      <path
         id="use86"
         style="display:inline;fill:#000000;fill-opacity:0.09;stroke-width:0.097265"
         d="m 17.236549,20.542221 h 1.160803 l 0.145968,0.132936 -0.145968,0.132936 h -1.160803 l -0.149172,-0.132936 z"
         sodipodi:nodetypes="ccccccc"
         inkscape:label="1_H_T" />
      <path
         id="path86"
         style="display:inline;fill:#000000;fill-opacity:0.09;stroke-width:0.097265"
         d="m 19.353215,18.425555 h 1.160803 l 0.145968,0.132936 -0.145968,0.132936 h -1.160803 l -0.149172,-0.132936 z"
         sodipodi:nodetypes="ccccccc"
         inkscape:label="1_H_T" />
      <path
         id="use87"
         style="display:inline;fill:#000000;fill-opacity:0.09;stroke-width:0.097265"
         d="m 19.353216,19.483888 h 1.160803 l 0.145968,0.132936 -0.145968,0.132936 h -1.160803 l -0.149172,-0.132936 z"
         sodipodi:nodetypes="ccccccc"
         inkscape:label="1_H_T" />
      <path
         id="use88"
         style="display:inline;fill:#000000;fill-opacity:0.09;stroke-width:0.097265"
         d="m 19.353216,20.542221 h 1.160803 l 0.145968,0.132936 -0.145968,0.132936 h -1.160803 l -0.149172,-0.132936 z"
         sodipodi:nodetypes="ccccccc"
         inkscape:label="1_H_T" />
      <path
         id="use89"
         style="display:inline;fill:#000000;fill-opacity:0.09;stroke-width:0.097265"
         d="m 21.469883,19.483888 h 1.160803 l 0.145968,0.132936 -0.145968,0.132936 h -1.160803 l -0.149172,-0.132936 z"
         sodipodi:nodetypes="ccccccc"
         inkscape:label="1_H_T" />
    </g>
  </g>
  <path
     style="display:inline;opacity:1;fill:none;stroke:#000000;stroke-width:0.1524;stroke-linecap:butt;stroke-linejoin:miter;stroke-miterlimit:4;stroke-dasharray:1.524, 1.524;stroke-dashoffset:2.667;stroke-opacity:1"
     d="M 12.586229,32.702123 1.8773888,30.663638"
     id="path58"
     inkscape:label="enlarger top" />
  <path
     style="display:inline;opacity:1;fill:none;stroke:#000000;stroke-width:0.1524;stroke-linecap:butt;stroke-linejoin:miter;stroke-miterlimit:4;stroke-dasharray:1.524, 1.524;stroke-dashoffset:0;stroke-opacity:1"
     d="M 18.654999,1.5417762 30.225139,0.32886621"
     id="path57"
     inkscape:label="enlarger top" />
  <path
     style="color:#000000;display:inline;opacity:1;fill:#ffffff;fill-opacity:1;stroke:#000000;stroke-width:0.2032;stroke-linecap:round;stroke-linejoin:round;stroke-dasharray:none;stroke-opacity:1"
     d="m 30.984212,0.80072521 -8.76896,15.18761379 -8.76862,15.18796 c -0.54284,0.94035 0.13571,2.11573 1.2215,2.11588 h 17.53757 17.53725 c 1.08579,-1.5e-4 1.76433,-1.17553 1.22149,-2.11588 l -8.76862,-15.18796 -8.76862,-15.18761379 c -0.54947,-0.95129 -1.91141,-0.92033 -2.44299,0 z"
     id="path69-4"
     sodipodi:nodetypes="cccccccccc"
     inkscape:label="triangle" />
  <g
     inkscape:groupmode="layer"
     id="layer1"
     inkscape:label="superimposed_heaven"
     transform="translate(-167.21676,-58.208295)"
     inkscape:highlight-color="#bf6060">
    <g
       id="g33"
       transform="translate(13.333601)"
       inkscape:label="right">
      <path
         sodipodi:type="star"
         style="fill:#ffffff;fill-opacity:1;stroke:#000000;stroke-width:0.264583;stroke-opacity:1"
         id="path30"
         inkscape:flatsided="false"
         sodipodi:sides="3"
         sodipodi:cx="60.273628"
         sodipodi:cy="67.21946"
         sodipodi:r1="8.5344391"
         sodipodi:r2="4.2672195"
         sodipodi:arg1="1.5707963"
         sodipodi:arg2="2.6179939"
         inkscape:rounded="0"
         inkscape:randomized="0"
         d="m 60.273628,75.753899 -3.69552,-6.40083 -3.695521,-6.400829 7.391041,0 7.391041,0 -3.69552,6.400829 z"
         inkscape:transform-center-y="1.8551929"
         transform="matrix(0.87584342,0,0,0.87584342,139.96524,25.012123)"
         inkscape:label="outside" />
      <path
         sodipodi:type="star"
         style="fill:#000000;fill-opacity:1;stroke:none;stroke-width:0.445411;stroke-dasharray:none;stroke-opacity:1"
         id="path31"
         inkscape:flatsided="false"
         sodipodi:sides="3"
         sodipodi:cx="60.273628"
         sodipodi:cy="67.21946"
         sodipodi:r1="8.5344391"
         sodipodi:r2="4.2672195"
         sodipodi:arg1="1.5707963"
         sodipodi:arg2="2.6179939"
         inkscape:rounded="0"
         inkscape:randomized="0"
         d="m 60.273628,75.753899 -3.69552,-6.40083 -3.695521,-6.400829 7.391041,0 7.391041,0 -3.69552,6.400829 z"
         inkscape:transform-center-y="0.92711482"
         transform="matrix(0.43849465,0,0,0.43849465,169.58648,52.550296)"
         inkscape:label="right" />
      <path
         sodipodi:type="star"
         style="fill:#000000;fill-opacity:1;stroke:#ffffff;stroke-width:0.445411;stroke-dasharray:none;stroke-opacity:1"
         id="path33"
         inkscape:flatsided="false"
         sodipodi:sides="3"
         sodipodi:cx="60.273628"
         sodipodi:cy="67.21946"
         sodipodi:r1="8.5344391"
         sodipodi:r2="4.2672195"
         sodipodi:arg1="1.5707963"
         sodipodi:arg2="2.6179939"
         inkscape:rounded="0"
         inkscape:randomized="0"
         d="m 60.273628,75.753899 -3.69552,-6.40083 -3.695521,-6.400829 7.391041,0 7.391041,0 -3.69552,6.400829 z"
         inkscape:transform-center-y="-0.92711715"
         transform="matrix(-0.43849465,0,0,-0.43849465,219.20488,113.37222)"
         inkscape:transform-center-x="-9.2453233e-06"
         inkscape:label="center" />
      <path
         sodipodi:type="star"
         style="fill:#000000;fill-opacity:1;stroke:none;stroke-width:0.445411;stroke-dasharray:none;stroke-opacity:1"
         id="path32"
         inkscape:flatsided="false"
         sodipodi:sides="3"
         sodipodi:cx="60.273628"
         sodipodi:cy="67.21946"
         sodipodi:r1="8.5344391"
         sodipodi:r2="4.2672195"
         sodipodi:arg1="1.5707963"
         sodipodi:arg2="2.6179939"
         inkscape:rounded="0"
         inkscape:randomized="0"
         d="m 60.273628,75.753899 -3.69552,-6.40083 -3.695521,-6.400829 7.391041,0 7.391041,0 -3.69552,6.400829 z"
         inkscape:transform-center-y="0.92711482"
         transform="matrix(0.43849465,0,0,0.43849465,163.01894,52.497583)"
         inkscape:transform-center-x="4.2251734e-06"
         inkscape:label="left" />
    </g>
    <g
       id="g29"
       inkscape:label="top">
      <path
         sodipodi:type="star"
         style="fill:#ffffff;fill-opacity:1;stroke:#000000;stroke-width:0.264583;stroke-opacity:1"
         id="path4"
         inkscape:flatsided="false"
         sodipodi:sides="3"
         sodipodi:cx="60.273628"
         sodipodi:cy="67.21946"
         sodipodi:r1="8.5344391"
         sodipodi:r2="4.2672195"
         sodipodi:arg1="1.5707963"
         sodipodi:arg2="2.6179939"
         inkscape:rounded="0"
         inkscape:randomized="0"
         d="m 60.273628,75.753899 -3.69552,-6.40083 -3.695521,-6.400829 7.391041,0 7.391041,0 -3.69552,6.400829 z"
         inkscape:transform-center-y="1.8551929"
         transform="matrix(0.87584342,0,0,0.87584342,146.63204,13.474497)"
         inkscape:label="outside" />
      <path
         sodipodi:type="star"
         style="fill:#000000;fill-opacity:0.924779;stroke:none;stroke-width:0.445411;stroke-dasharray:none;stroke-opacity:1"
         id="path6"
         inkscape:flatsided="false"
         sodipodi:sides="3"
         sodipodi:cx="60.273628"
         sodipodi:cy="67.21946"
         sodipodi:r1="8.5344391"
         sodipodi:r2="4.2672195"
         sodipodi:arg1="1.5707963"
         sodipodi:arg2="2.6179939"
         inkscape:rounded="0"
         inkscape:randomized="0"
         d="m 60.273628,75.753899 -3.69552,-6.40083 -3.695521,-6.400829 7.391041,0 7.391041,0 -3.69552,6.400829 z"
         inkscape:transform-center-y="0.92711482"
         transform="matrix(0.43849465,0,0,0.43849465,176.25328,41.01267)"
         inkscape:label="right" />
      <path
         sodipodi:type="star"
         style="fill:#000000;fill-opacity:1;stroke:#ffffff;stroke-width:0.445411;stroke-dasharray:none;stroke-opacity:1"
         id="path21"
         inkscape:flatsided="false"
         sodipodi:sides="3"
         sodipodi:cx="60.273628"
         sodipodi:cy="67.21946"
         sodipodi:r1="8.5344391"
         sodipodi:r2="4.2672195"
         sodipodi:arg1="1.5707963"
         sodipodi:arg2="2.6179939"
         inkscape:rounded="0"
         inkscape:randomized="0"
         d="m 60.273628,75.753899 -3.69552,-6.40083 -3.695521,-6.400829 7.391041,0 7.391041,0 -3.69552,6.400829 z"
         inkscape:transform-center-y="-0.92711715"
         transform="matrix(-0.43849465,0,0,-0.43849465,225.87168,101.83457)"
         inkscape:transform-center-x="-9.2453233e-06"
         inkscape:label="center" />
      <path
         sodipodi:type="star"
         style="fill:#000000;fill-opacity:1;stroke:none;stroke-width:0.445411;stroke-dasharray:none;stroke-opacity:1"
         id="path7"
         inkscape:flatsided="false"
         sodipodi:sides="3"
         sodipodi:cx="60.273628"
         sodipodi:cy="67.21946"
         sodipodi:r1="8.5344391"
         sodipodi:r2="4.2672195"
         sodipodi:arg1="1.5707963"
         sodipodi:arg2="2.6179939"
         inkscape:rounded="0"
         inkscape:randomized="0"
         d="m 60.273628,75.753899 -3.69552,-6.40083 -3.695521,-6.400829 7.391041,0 7.391041,0 -3.69552,6.400829 z"
         inkscape:transform-center-y="0.92711482"
         transform="matrix(0.43849465,0,0,0.43849465,169.68574,40.973137)"
         inkscape:transform-center-x="4.2251734e-06"
         inkscape:label="left" />
    </g>
    <g
       id="g30"
       inkscape:label="left">
      <path
         sodipodi:type="star"
         style="fill:#ffffff;fill-opacity:1;stroke:#000000;stroke-width:0.264583;stroke-opacity:1"
         id="path26"
         inkscape:flatsided="false"
         sodipodi:sides="3"
         sodipodi:cx="60.273628"
         sodipodi:cy="67.21946"
         sodipodi:r1="8.5344391"
         sodipodi:r2="4.2672195"
         sodipodi:arg1="1.5707963"
         sodipodi:arg2="2.6179939"
         inkscape:rounded="0"
         inkscape:randomized="0"
         d="m 60.273628,75.753899 -3.69552,-6.40083 -3.695521,-6.400829 7.391041,0 7.391041,0 -3.69552,6.400829 z"
         inkscape:transform-center-y="1.8551929"
         transform="matrix(0.87584342,0,0,0.87584342,139.96524,25.012123)"
         inkscape:label="outside" />
      <path
         sodipodi:type="star"
         style="fill:#000000;fill-opacity:1;stroke:none;stroke-width:0.445411;stroke-dasharray:none;stroke-opacity:1"
         id="path27"
         inkscape:flatsided="false"
         sodipodi:sides="3"
         sodipodi:cx="60.273628"
         sodipodi:cy="67.21946"
         sodipodi:r1="8.5344391"
         sodipodi:r2="4.2672195"
         sodipodi:arg1="1.5707963"
         sodipodi:arg2="2.6179939"
         inkscape:rounded="0"
         inkscape:randomized="0"
         d="m 60.273628,75.753899 -3.69552,-6.40083 -3.695521,-6.400829 7.391041,0 7.391041,0 -3.69552,6.400829 z"
         inkscape:transform-center-y="0.92711482"
         transform="matrix(0.43849465,0,0,0.43849465,169.58648,52.550296)"
         inkscape:label="right" />
      <path
         sodipodi:type="star"
         style="fill:#000000;fill-opacity:1;stroke:#ffffff;stroke-width:0.445411;stroke-dasharray:none;stroke-opacity:1"
         id="path29"
         inkscape:flatsided="false"
         sodipodi:sides="3"
         sodipodi:cx="60.273628"
         sodipodi:cy="67.21946"
         sodipodi:r1="8.5344391"
         sodipodi:r2="4.2672195"
         sodipodi:arg1="1.5707963"
         sodipodi:arg2="2.6179939"
         inkscape:rounded="0"
         inkscape:randomized="0"
         d="m 60.273628,75.753899 -3.69552,-6.40083 -3.695521,-6.400829 7.391041,0 7.391041,0 -3.69552,6.400829 z"
         inkscape:transform-center-y="-0.92711715"
         transform="matrix(-0.43849465,0,0,-0.43849465,219.20488,113.37222)"
         inkscape:transform-center-x="-9.2453233e-06"
         inkscape:label="center" />
      <path
         sodipodi:type="star"
         style="fill:#000000;fill-opacity:1;stroke:none;stroke-width:0.445411;stroke-dasharray:none;stroke-opacity:1"
         id="path28"
         inkscape:flatsided="false"
         sodipodi:sides="3"
         sodipodi:cx="60.273628"
         sodipodi:cy="67.21946"
         sodipodi:r1="8.5344391"
         sodipodi:r2="4.2672195"
         sodipodi:arg1="1.5707963"
         sodipodi:arg2="2.6179939"
         inkscape:rounded="0"
         inkscape:randomized="0"
         d="m 60.273628,75.753899 -3.69552,-6.40083 -3.695521,-6.400829 7.391041,0 7.391041,0 -3.69552,6.400829 z"
         inkscape:transform-center-y="0.92711482"
         transform="matrix(0.43849465,0,0,0.43849465,163.00576,52.537118)"
         inkscape:transform-center-x="4.2251734e-06"
         inkscape:label="left" />
    </g>
    <g
       inkscape:groupmode="layer"
       id="layer2"
       inkscape:label="fonts_as_objects"
       style="display:none">
      <text
         xml:space="preserve"
         style="font-style:normal;font-variant:normal;font-weight:normal;font-stretch:normal;font-size:2.82223px;font-family:Merriweather;-inkscape-font-specification:Merriweather;text-align:start;writing-mode:lr-tb;direction:ltr;text-anchor:start;fill:#000000;fill-opacity:1;stroke:none;stroke-width:0.2032;stroke-dasharray:none;stroke-opacity:1"
         x="205.32851"
         y="88.368752"
         id="text44"
         inkscape:label="c right"><tspan
           sodipodi:role="line"
           id="tspan44"
           style="stroke-width:0.2032"
           x="205.32851"
           y="88.368752">c</tspan></text>
      <text
         xml:space="preserve"
         style="font-style:normal;font-variant:normal;font-weight:normal;font-stretch:normal;font-size:2.82223px;font-family:Merriweather;-inkscape-font-specification:Merriweather;text-align:start;writing-mode:lr-tb;direction:ltr;text-anchor:start;fill:#000000;fill-opacity:1;stroke:none;stroke-width:0.2032;stroke-dasharray:none;stroke-opacity:1"
         x="198.68141"
         y="76.882126"
         id="text42"
         inkscape:label="c top"><tspan
           sodipodi:role="line"
           id="tspan42"
           style="stroke-width:0.2032"
           x="198.68141"
           y="76.882126">c</tspan></text>
      <text
         xml:space="preserve"
         style="font-style:normal;font-variant:normal;font-weight:normal;font-stretch:normal;font-size:2.82223px;font-family:Merriweather;-inkscape-font-specification:Merriweather;text-align:start;writing-mode:lr-tb;direction:ltr;text-anchor:start;fill:#000000;fill-opacity:1;stroke:none;stroke-width:0.2032;stroke-dasharray:none;stroke-opacity:1"
         x="191.9949"
         y="88.368752"
         id="text43"
         inkscape:label="c left"><tspan
           sodipodi:role="line"
           id="tspan43"
           style="stroke-width:0.2032"
           x="191.9949"
           y="88.368752">c</tspan></text>
      <g
         id="g35"
         inkscape:label="narcissistic men right">
        <text
           xml:space="preserve"
           style="font-size:3.175px;text-align:start;writing-mode:lr-tb;direction:ltr;text-anchor:start;fill:#ffffff;fill-opacity:1;stroke:none;stroke-width:0.2032;stroke-dasharray:none;stroke-opacity:1"
           x="195.22635"
           y="71.34845"
           id="text33"
           inkscape:label="n"><tspan
             sodipodi:role="line"
             id="tspan33"
             style="font-style:normal;font-variant:normal;font-weight:normal;font-stretch:normal;font-family:Merriweather;-inkscape-font-specification:Merriweather;stroke-width:0.2032"
             x="195.22635"
             y="71.34845">n</tspan></text>
        <text
           xml:space="preserve"
           style="font-size:3.175px;text-align:start;writing-mode:lr-tb;direction:ltr;text-anchor:start;fill:#ffffff;fill-opacity:1;stroke:none;stroke-width:0.2032;stroke-dasharray:none;stroke-opacity:1"
           x="201.70822"
           y="71.34845"
           id="text34"
           inkscape:label="n"><tspan
             sodipodi:role="line"
             id="tspan34"
             style="font-style:normal;font-variant:normal;font-weight:normal;font-stretch:normal;font-family:Merriweather;-inkscape-font-specification:Merriweather;stroke-width:0.2032"
             x="201.70822"
             y="71.34845">n</tspan></text>
        <text
           xml:space="preserve"
           style="font-size:3.175px;text-align:start;writing-mode:lr-tb;direction:ltr;text-anchor:start;fill:#ffffff;fill-opacity:1;stroke:none;stroke-width:0.2032;stroke-dasharray:none;stroke-opacity:1"
           x="198.46729"
           y="73.022972"
           id="text35"
           inkscape:label="n"><tspan
             sodipodi:role="line"
             id="tspan35"
             style="font-style:normal;font-variant:normal;font-weight:normal;font-stretch:normal;font-family:Merriweather;-inkscape-font-specification:Merriweather;stroke-width:0.2032"
             x="198.46729"
             y="73.022972">n</tspan></text>
      </g>
      <g
         id="g38"
         inkscape:label="narcissistic men top"
         transform="translate(6.6470914,11.641668)">
        <text
           xml:space="preserve"
           style="font-size:3.175px;text-align:start;writing-mode:lr-tb;direction:ltr;text-anchor:start;fill:#ffffff;fill-opacity:1;stroke:none;stroke-width:0.2032;stroke-dasharray:none;stroke-opacity:1"
           x="195.22635"
           y="71.34845"
           id="text36"
           inkscape:label="n"><tspan
             sodipodi:role="line"
             id="tspan36"
             style="font-style:normal;font-variant:normal;font-weight:normal;font-stretch:normal;font-family:Merriweather;-inkscape-font-specification:Merriweather;stroke-width:0.2032"
             x="195.22635"
             y="71.34845">n</tspan></text>
        <text
           xml:space="preserve"
           style="font-size:3.175px;text-align:start;writing-mode:lr-tb;direction:ltr;text-anchor:start;fill:#ffffff;fill-opacity:1;stroke:none;stroke-width:0.2032;stroke-dasharray:none;stroke-opacity:1"
           x="201.70822"
           y="71.34845"
           id="text37"
           inkscape:label="n"><tspan
             sodipodi:role="line"
             id="tspan37"
             style="font-style:normal;font-variant:normal;font-weight:normal;font-stretch:normal;font-family:Merriweather;-inkscape-font-specification:Merriweather;stroke-width:0.2032"
             x="201.70822"
             y="71.34845">n</tspan></text>
        <text
           xml:space="preserve"
           style="font-size:3.175px;text-align:start;writing-mode:lr-tb;direction:ltr;text-anchor:start;fill:#ffffff;fill-opacity:1;stroke:none;stroke-width:0.2032;stroke-dasharray:none;stroke-opacity:1"
           x="198.46729"
           y="73.022972"
           id="text38"
           inkscape:label="n"><tspan
             sodipodi:role="line"
             id="tspan38"
             style="font-style:normal;font-variant:normal;font-weight:normal;font-stretch:normal;font-family:Merriweather;-inkscape-font-specification:Merriweather;stroke-width:0.2032"
             x="198.46729"
             y="73.022972">n</tspan></text>
      </g>
      <g
         id="g41"
         inkscape:label="narcissistic men left"
         transform="translate(-6.6865096,11.641668)">
        <text
           xml:space="preserve"
           style="font-size:3.175px;text-align:start;writing-mode:lr-tb;direction:ltr;text-anchor:start;fill:#ffffff;fill-opacity:1;stroke:none;stroke-width:0.2032;stroke-dasharray:none;stroke-opacity:1"
           x="195.22635"
           y="71.34845"
           id="text39"
           inkscape:label="n"><tspan
             sodipodi:role="line"
             id="tspan39"
             style="font-style:normal;font-variant:normal;font-weight:normal;font-stretch:normal;font-family:Merriweather;-inkscape-font-specification:Merriweather;stroke-width:0.2032"
             x="195.22635"
             y="71.34845">n</tspan></text>
        <text
           xml:space="preserve"
           style="font-size:3.175px;text-align:start;writing-mode:lr-tb;direction:ltr;text-anchor:start;fill:#ffffff;fill-opacity:1;stroke:none;stroke-width:0.2032;stroke-dasharray:none;stroke-opacity:1"
           x="201.70822"
           y="71.34845"
           id="text40"
           inkscape:label="n"><tspan
             sodipodi:role="line"
             id="tspan40"
             style="font-style:normal;font-variant:normal;font-weight:normal;font-stretch:normal;font-family:Merriweather;-inkscape-font-specification:Merriweather;stroke-width:0.2032"
             x="201.70822"
             y="71.34845">n</tspan></text>
        <text
           xml:space="preserve"
           style="font-size:3.175px;text-align:start;writing-mode:lr-tb;direction:ltr;text-anchor:start;fill:#ffffff;fill-opacity:1;stroke:none;stroke-width:0.2032;stroke-dasharray:none;stroke-opacity:1"
           x="198.46729"
           y="73.022972"
           id="text41"
           inkscape:label="n"><tspan
             sodipodi:role="line"
             id="tspan41"
             style="font-style:normal;font-variant:normal;font-weight:normal;font-stretch:normal;font-family:Merriweather;-inkscape-font-specification:Merriweather;stroke-width:0.2032"
             x="198.46729"
             y="73.022972">n</tspan></text>
      </g>
      <text
         xml:space="preserve"
         style="font-style:normal;font-variant:normal;font-weight:normal;font-stretch:normal;font-size:2.82222px;line-height:1.25;font-family:Merriweather;-inkscape-font-specification:Merriweather;display:inline;opacity:1;stroke-width:0.0496066"
         x="199.3588"
         y="65.500824"
         id="text1"
         inkscape:label="seer"><tspan
           sodipodi:role="line"
           id="tspan1"
           style="font-style:normal;font-variant:normal;font-weight:normal;font-stretch:normal;font-size:2.82222px;font-family:Merriweather;-inkscape-font-specification:Merriweather;text-align:center;text-anchor:middle;stroke-width:0.0496066"
           x="199.3588"
           y="65.500824">seer</tspan></text>
    </g>
    <g
       inkscape:groupmode="layer"
       id="g57"
       inkscape:label="fonts_as_path">
      <path
         d="m 206.14131,88.413907 q -0.18909,0 -0.34996,-0.08467 -0.15804,-0.08749 -0.254,-0.248356 -0.0931,-0.163689 -0.0931,-0.39229 0,-0.146756 0.0536,-0.285045 0.0536,-0.138289 0.14958,-0.248356 0.0988,-0.11289 0.23424,-0.177801 0.13547,-0.06491 0.29916,-0.06491 0.15804,0 0.27376,0.04798 0.11853,0.04798 0.18344,0.127 0.0649,0.07902 0.0649,0.172156 0,0.06209 -0.0339,0.107245 -0.0339,0.04233 -0.0988,0.04233 -0.0706,0.0028 -0.1016,-0.04233 -0.0282,-0.04798 -0.0282,-0.08467 0,-0.02822 0.008,-0.05645 0.008,-0.03104 0.0339,-0.05644 -0.0226,-0.06773 -0.079,-0.09878 -0.0565,-0.03387 -0.11854,-0.04233 -0.0593,-0.01129 -0.0988,-0.01129 -0.19191,0 -0.32455,0.155223 -0.12982,0.1524 -0.12982,0.445912 0,0.18909 0.0593,0.335846 0.0621,0.146756 0.17216,0.231423 0.11007,0.08184 0.254,0.08184 0.13264,0 0.254,-0.07056 0.12136,-0.07055 0.18909,-0.172156 l 0.0734,0.05644 q -0.0734,0.118534 -0.1778,0.191912 -0.1016,0.07338 -0.21167,0.107244 -0.10725,0.03387 -0.2032,0.03387 z"
         id="text45"
         style="font-size:2.82223px;font-family:Merriweather;-inkscape-font-specification:Merriweather;stroke-width:0.2032"
         inkscape:label="c right"
         aria-label="c" />
      <path
         d="m 199.49421,76.927282 q -0.18909,0 -0.34995,-0.08467 -0.15805,-0.08749 -0.254,-0.248357 -0.0931,-0.163689 -0.0931,-0.39229 0,-0.146756 0.0536,-0.285045 0.0536,-0.138289 0.14957,-0.248356 0.0988,-0.112889 0.23425,-0.177801 0.13547,-0.06491 0.29916,-0.06491 0.15804,0 0.27375,0.04798 0.11854,0.04798 0.18345,0.127 0.0649,0.07902 0.0649,0.172156 0,0.06209 -0.0339,0.107245 -0.0339,0.04233 -0.0988,0.04233 -0.0705,0.0028 -0.1016,-0.04233 -0.0282,-0.04798 -0.0282,-0.08467 0,-0.02822 0.008,-0.05644 0.008,-0.03105 0.0339,-0.05645 -0.0226,-0.06773 -0.079,-0.09878 -0.0564,-0.03387 -0.11853,-0.04233 -0.0593,-0.01129 -0.0988,-0.01129 -0.19191,0 -0.32456,0.155222 -0.12982,0.152401 -0.12982,0.445913 0,0.189089 0.0593,0.335845 0.0621,0.146756 0.17215,0.231423 0.11007,0.08185 0.254,0.08185 0.13265,0 0.254,-0.07056 0.12136,-0.07056 0.18909,-0.172156 l 0.0734,0.05644 q -0.0734,0.118534 -0.1778,0.191912 -0.1016,0.07338 -0.21167,0.107245 -0.10724,0.03387 -0.2032,0.03387 z"
         id="text46"
         style="font-size:2.82223px;font-family:Merriweather;-inkscape-font-specification:Merriweather;stroke-width:0.2032"
         inkscape:label="c top"
         aria-label="c" />
      <path
         d="m 192.80771,88.413907 q -0.18909,0 -0.34996,-0.08467 -0.15805,-0.08749 -0.254,-0.248356 -0.0931,-0.163689 -0.0931,-0.39229 0,-0.146756 0.0536,-0.285045 0.0536,-0.138289 0.14958,-0.248356 0.0988,-0.11289 0.23424,-0.177801 0.13547,-0.06491 0.29916,-0.06491 0.15804,0 0.27375,0.04798 0.11854,0.04798 0.18345,0.127 0.0649,0.07902 0.0649,0.172156 0,0.06209 -0.0339,0.107245 -0.0339,0.04233 -0.0988,0.04233 -0.0705,0.0028 -0.1016,-0.04233 -0.0282,-0.04798 -0.0282,-0.08467 0,-0.02822 0.008,-0.05645 0.008,-0.03104 0.0339,-0.05644 -0.0226,-0.06773 -0.079,-0.09878 -0.0564,-0.03387 -0.11853,-0.04233 -0.0593,-0.01129 -0.0988,-0.01129 -0.19191,0 -0.32455,0.155223 -0.12983,0.1524 -0.12983,0.445912 0,0.18909 0.0593,0.335846 0.0621,0.146756 0.17216,0.231423 0.11006,0.08184 0.254,0.08184 0.13264,0 0.254,-0.07056 0.12135,-0.07055 0.18909,-0.172156 l 0.0734,0.05644 q -0.0734,0.118534 -0.1778,0.191912 -0.1016,0.07338 -0.21166,0.107244 -0.10725,0.03387 -0.2032,0.03387 z"
         id="text47"
         style="font-size:2.82223px;font-family:Merriweather;-inkscape-font-specification:Merriweather;stroke-width:0.2032"
         inkscape:label="c left"
         aria-label="c" />
      <g
         id="g50"
         inkscape:label="narcissistic men right">
        <path
           style="font-size:3.175px;font-family:Merriweather;-inkscape-font-specification:Merriweather;fill:#ffffff;stroke-width:0.2032"
           d="M 195.36605,71.34845 V 71.2532 q 0.0984,0 0.13652,-0.04763 0.0381,-0.0508 0.0445,-0.136525 0.006,-0.0889 0.006,-0.2032 l 0.003,-0.7239 q 0,-0.0508 0,-0.1016 0.003,-0.0508 0.0127,-0.104775 -0.0572,0.0032 -0.1143,0.0063 -0.054,0.0032 -0.11113,0.0063 v -0.13335 q 0.1397,0 0.20955,-0.0127 0.073,-0.0127 0.10795,-0.03175 0.0349,-0.01905 0.0572,-0.04127 h 0.0921 q 0.006,0.03493 0.006,0.08255 0.003,0.04445 0.006,0.111125 0.1016,-0.09208 0.2413,-0.1524 0.1397,-0.06033 0.27622,-0.06033 0.27623,0 0.40323,0.174625 0.127,0.17145 0.127,0.536575 v 0.59055 q 0,0.0635 -0.003,0.1143 0,0.04762 -0.01,0.1016 0.0508,-0.0032 0.0984,-0.0032 0.0508,-0.0032 0.1016,-0.0063 v 0.130175 h -0.6477 V 71.2532 q 0.0984,0 0.13653,-0.04763 0.0381,-0.0508 0.0445,-0.136525 0.006,-0.0889 0.006,-0.2032 v -0.4445 q -0.003,-0.27305 -0.0921,-0.41275 -0.0857,-0.1397 -0.27305,-0.136525 -0.1143,0.0032 -0.22542,0.06033 -0.10795,0.05715 -0.18098,0.14605 0.003,0.0254 0.003,0.05715 0,0.03175 0,0.06668 l -0.003,0.809625 q 0,0.0635 -0.003,0.1143 0,0.04762 -0.01,0.1016 0.0508,-0.0032 0.0984,-0.0032 0.0508,-0.0032 0.1016,-0.0063 v 0.130175 z"
           id="text48"
           inkscape:label="n"
           aria-label="n" />
        <path
           style="font-size:3.175px;font-family:Merriweather;-inkscape-font-specification:Merriweather;fill:#ffffff;stroke-width:0.2032"
           d="M 201.84792,71.34845 V 71.2532 q 0.0984,0 0.13653,-0.04763 0.0381,-0.0508 0.0444,-0.136525 0.006,-0.0889 0.006,-0.2032 l 0.003,-0.7239 q 0,-0.0508 0,-0.1016 0.003,-0.0508 0.0127,-0.104775 -0.0572,0.0032 -0.1143,0.0063 -0.054,0.0032 -0.11112,0.0063 v -0.13335 q 0.1397,0 0.20955,-0.0127 0.073,-0.0127 0.10795,-0.03175 0.0349,-0.01905 0.0571,-0.04127 h 0.0921 q 0.006,0.03493 0.006,0.08255 0.003,0.04445 0.006,0.111125 0.1016,-0.09208 0.2413,-0.1524 0.1397,-0.06033 0.27623,-0.06033 0.27622,0 0.40322,0.174625 0.127,0.17145 0.127,0.536575 v 0.59055 q 0,0.0635 -0.003,0.1143 0,0.04762 -0.01,0.1016 0.0508,-0.0032 0.0984,-0.0032 0.0508,-0.0032 0.1016,-0.0063 v 0.130175 h -0.6477 V 71.2532 q 0.0984,0 0.13652,-0.04763 0.0381,-0.0508 0.0444,-0.136525 0.006,-0.0889 0.006,-0.2032 v -0.4445 q -0.003,-0.27305 -0.0921,-0.41275 -0.0857,-0.1397 -0.27305,-0.136525 -0.1143,0.0032 -0.22543,0.06033 -0.10795,0.05715 -0.18097,0.14605 0.003,0.0254 0.003,0.05715 0,0.03175 0,0.06668 l -0.003,0.809625 q 0,0.0635 -0.003,0.1143 0,0.04762 -0.01,0.1016 0.0508,-0.0032 0.0984,-0.0032 0.0508,-0.0032 0.1016,-0.0063 v 0.130175 z"
           id="text49"
           inkscape:label="n"
           aria-label="n" />
        <path
           style="font-size:3.175px;font-family:Merriweather;-inkscape-font-specification:Merriweather;fill:#ffffff;stroke-width:0.2032"
           d="m 198.60699,73.022972 v -0.09525 q 0.0984,0 0.13652,-0.04762 0.0381,-0.0508 0.0445,-0.136525 0.006,-0.0889 0.006,-0.2032 l 0.003,-0.7239 q 0,-0.0508 0,-0.1016 0.003,-0.0508 0.0127,-0.104775 -0.0572,0.0032 -0.1143,0.0063 -0.054,0.0032 -0.11113,0.0064 v -0.13335 q 0.1397,0 0.20955,-0.0127 0.073,-0.0127 0.10795,-0.03175 0.0349,-0.01905 0.0571,-0.04127 h 0.0921 q 0.006,0.03493 0.006,0.08255 0.003,0.04445 0.006,0.111125 0.1016,-0.09207 0.2413,-0.1524 0.1397,-0.06033 0.27622,-0.06033 0.27623,0 0.40323,0.174625 0.127,0.17145 0.127,0.536575 v 0.59055 q 0,0.0635 -0.003,0.1143 0,0.04763 -0.01,0.1016 0.0508,-0.0032 0.0984,-0.0032 0.0508,-0.0032 0.1016,-0.0063 v 0.130175 h -0.6477 v -0.09525 q 0.0984,0 0.13653,-0.04762 0.0381,-0.0508 0.0444,-0.136525 0.006,-0.0889 0.006,-0.2032 v -0.4445 q -0.003,-0.27305 -0.0921,-0.41275 -0.0857,-0.1397 -0.27305,-0.136525 -0.1143,0.0032 -0.22542,0.06032 -0.10795,0.05715 -0.18098,0.14605 0.003,0.0254 0.003,0.05715 0,0.03175 0,0.06667 l -0.003,0.809625 q 0,0.0635 -0.003,0.1143 0,0.04763 -0.01,0.1016 0.0508,-0.0032 0.0984,-0.0032 0.0508,-0.0032 0.1016,-0.0063 v 0.130175 z"
           id="text50"
           inkscape:label="n"
           aria-label="n" />
      </g>
      <g
         id="g53"
         inkscape:label="narcissistic men top"
         transform="translate(6.6470914,11.641668)">
        <path
           style="font-size:3.175px;font-family:Merriweather;-inkscape-font-specification:Merriweather;fill:#ffffff;stroke-width:0.2032"
           d="M 195.36605,71.34845 V 71.2532 q 0.0984,0 0.13652,-0.04763 0.0381,-0.0508 0.0445,-0.136525 0.006,-0.0889 0.006,-0.2032 l 0.003,-0.7239 q 0,-0.0508 0,-0.1016 0.003,-0.0508 0.0127,-0.104775 -0.0572,0.0032 -0.1143,0.0063 -0.054,0.0032 -0.11113,0.0063 v -0.13335 q 0.1397,0 0.20955,-0.0127 0.073,-0.0127 0.10795,-0.03175 0.0349,-0.01905 0.0572,-0.04127 h 0.0921 q 0.006,0.03493 0.006,0.08255 0.003,0.04445 0.006,0.111125 0.1016,-0.09208 0.2413,-0.1524 0.1397,-0.06033 0.27622,-0.06033 0.27623,0 0.40323,0.174625 0.127,0.17145 0.127,0.536575 v 0.59055 q 0,0.0635 -0.003,0.1143 0,0.04762 -0.01,0.1016 0.0508,-0.0032 0.0984,-0.0032 0.0508,-0.0032 0.1016,-0.0063 v 0.130175 h -0.6477 V 71.2532 q 0.0984,0 0.13653,-0.04763 0.0381,-0.0508 0.0445,-0.136525 0.006,-0.0889 0.006,-0.2032 v -0.4445 q -0.003,-0.27305 -0.0921,-0.41275 -0.0857,-0.1397 -0.27305,-0.136525 -0.1143,0.0032 -0.22542,0.06033 -0.10795,0.05715 -0.18098,0.14605 0.003,0.0254 0.003,0.05715 0,0.03175 0,0.06668 l -0.003,0.809625 q 0,0.0635 -0.003,0.1143 0,0.04762 -0.01,0.1016 0.0508,-0.0032 0.0984,-0.0032 0.0508,-0.0032 0.1016,-0.0063 v 0.130175 z"
           id="text51"
           inkscape:label="n"
           aria-label="n" />
        <path
           style="font-size:3.175px;font-family:Merriweather;-inkscape-font-specification:Merriweather;fill:#ffffff;stroke-width:0.2032"
           d="M 201.84792,71.34845 V 71.2532 q 0.0984,0 0.13653,-0.04763 0.0381,-0.0508 0.0444,-0.136525 0.006,-0.0889 0.006,-0.2032 l 0.003,-0.7239 q 0,-0.0508 0,-0.1016 0.003,-0.0508 0.0127,-0.104775 -0.0572,0.0032 -0.1143,0.0063 -0.054,0.0032 -0.11112,0.0063 v -0.13335 q 0.1397,0 0.20955,-0.0127 0.073,-0.0127 0.10795,-0.03175 0.0349,-0.01905 0.0571,-0.04127 h 0.0921 q 0.006,0.03493 0.006,0.08255 0.003,0.04445 0.006,0.111125 0.1016,-0.09208 0.2413,-0.1524 0.1397,-0.06033 0.27623,-0.06033 0.27622,0 0.40322,0.174625 0.127,0.17145 0.127,0.536575 v 0.59055 q 0,0.0635 -0.003,0.1143 0,0.04762 -0.01,0.1016 0.0508,-0.0032 0.0984,-0.0032 0.0508,-0.0032 0.1016,-0.0063 v 0.130175 h -0.6477 V 71.2532 q 0.0984,0 0.13652,-0.04763 0.0381,-0.0508 0.0444,-0.136525 0.006,-0.0889 0.006,-0.2032 v -0.4445 q -0.003,-0.27305 -0.0921,-0.41275 -0.0857,-0.1397 -0.27305,-0.136525 -0.1143,0.0032 -0.22543,0.06033 -0.10795,0.05715 -0.18097,0.14605 0.003,0.0254 0.003,0.05715 0,0.03175 0,0.06668 l -0.003,0.809625 q 0,0.0635 -0.003,0.1143 0,0.04762 -0.01,0.1016 0.0508,-0.0032 0.0984,-0.0032 0.0508,-0.0032 0.1016,-0.0063 v 0.130175 z"
           id="text52"
           inkscape:label="n"
           aria-label="n" />
        <path
           style="font-size:3.175px;font-family:Merriweather;-inkscape-font-specification:Merriweather;fill:#ffffff;stroke-width:0.2032"
           d="m 198.60699,73.022972 v -0.09525 q 0.0984,0 0.13652,-0.04762 0.0381,-0.0508 0.0445,-0.136525 0.006,-0.0889 0.006,-0.2032 l 0.003,-0.7239 q 0,-0.0508 0,-0.1016 0.003,-0.0508 0.0127,-0.104775 -0.0572,0.0032 -0.1143,0.0063 -0.054,0.0032 -0.11113,0.0064 v -0.13335 q 0.1397,0 0.20955,-0.0127 0.073,-0.0127 0.10795,-0.03175 0.0349,-0.01905 0.0571,-0.04127 h 0.0921 q 0.006,0.03493 0.006,0.08255 0.003,0.04445 0.006,0.111125 0.1016,-0.09207 0.2413,-0.1524 0.1397,-0.06033 0.27622,-0.06033 0.27623,0 0.40323,0.174625 0.127,0.17145 0.127,0.536575 v 0.59055 q 0,0.0635 -0.003,0.1143 0,0.04763 -0.01,0.1016 0.0508,-0.0032 0.0984,-0.0032 0.0508,-0.0032 0.1016,-0.0063 v 0.130175 h -0.6477 v -0.09525 q 0.0984,0 0.13653,-0.04762 0.0381,-0.0508 0.0444,-0.136525 0.006,-0.0889 0.006,-0.2032 v -0.4445 q -0.003,-0.27305 -0.0921,-0.41275 -0.0857,-0.1397 -0.27305,-0.136525 -0.1143,0.0032 -0.22542,0.06032 -0.10795,0.05715 -0.18098,0.14605 0.003,0.0254 0.003,0.05715 0,0.03175 0,0.06667 l -0.003,0.809625 q 0,0.0635 -0.003,0.1143 0,0.04763 -0.01,0.1016 0.0508,-0.0032 0.0984,-0.0032 0.0508,-0.0032 0.1016,-0.0063 v 0.130175 z"
           id="text53"
           inkscape:label="n"
           aria-label="n" />
      </g>
      <g
         id="g56"
         inkscape:label="narcissistic men left"
         transform="translate(-6.6865096,11.641668)">
        <path
           style="font-size:3.175px;font-family:Merriweather;-inkscape-font-specification:Merriweather;fill:#ffffff;stroke-width:0.2032"
           d="M 195.36605,71.34845 V 71.2532 q 0.0984,0 0.13652,-0.04763 0.0381,-0.0508 0.0445,-0.136525 0.006,-0.0889 0.006,-0.2032 l 0.003,-0.7239 q 0,-0.0508 0,-0.1016 0.003,-0.0508 0.0127,-0.104775 -0.0572,0.0032 -0.1143,0.0063 -0.054,0.0032 -0.11113,0.0063 v -0.13335 q 0.1397,0 0.20955,-0.0127 0.073,-0.0127 0.10795,-0.03175 0.0349,-0.01905 0.0572,-0.04127 h 0.0921 q 0.006,0.03493 0.006,0.08255 0.003,0.04445 0.006,0.111125 0.1016,-0.09208 0.2413,-0.1524 0.1397,-0.06033 0.27622,-0.06033 0.27623,0 0.40323,0.174625 0.127,0.17145 0.127,0.536575 v 0.59055 q 0,0.0635 -0.003,0.1143 0,0.04762 -0.01,0.1016 0.0508,-0.0032 0.0984,-0.0032 0.0508,-0.0032 0.1016,-0.0063 v 0.130175 h -0.6477 V 71.2532 q 0.0984,0 0.13653,-0.04763 0.0381,-0.0508 0.0445,-0.136525 0.006,-0.0889 0.006,-0.2032 v -0.4445 q -0.003,-0.27305 -0.0921,-0.41275 -0.0857,-0.1397 -0.27305,-0.136525 -0.1143,0.0032 -0.22542,0.06033 -0.10795,0.05715 -0.18098,0.14605 0.003,0.0254 0.003,0.05715 0,0.03175 0,0.06668 l -0.003,0.809625 q 0,0.0635 -0.003,0.1143 0,0.04762 -0.01,0.1016 0.0508,-0.0032 0.0984,-0.0032 0.0508,-0.0032 0.1016,-0.0063 v 0.130175 z"
           id="text54"
           inkscape:label="n"
           aria-label="n" />
        <path
           style="font-size:3.175px;font-family:Merriweather;-inkscape-font-specification:Merriweather;fill:#ffffff;stroke-width:0.2032"
           d="M 201.84792,71.34845 V 71.2532 q 0.0984,0 0.13653,-0.04763 0.0381,-0.0508 0.0444,-0.136525 0.006,-0.0889 0.006,-0.2032 l 0.003,-0.7239 q 0,-0.0508 0,-0.1016 0.003,-0.0508 0.0127,-0.104775 -0.0572,0.0032 -0.1143,0.0063 -0.054,0.0032 -0.11112,0.0063 v -0.13335 q 0.1397,0 0.20955,-0.0127 0.073,-0.0127 0.10795,-0.03175 0.0349,-0.01905 0.0571,-0.04127 h 0.0921 q 0.006,0.03493 0.006,0.08255 0.003,0.04445 0.006,0.111125 0.1016,-0.09208 0.2413,-0.1524 0.1397,-0.06033 0.27623,-0.06033 0.27622,0 0.40322,0.174625 0.127,0.17145 0.127,0.536575 v 0.59055 q 0,0.0635 -0.003,0.1143 0,0.04762 -0.01,0.1016 0.0508,-0.0032 0.0984,-0.0032 0.0508,-0.0032 0.1016,-0.0063 v 0.130175 h -0.6477 V 71.2532 q 0.0984,0 0.13652,-0.04763 0.0381,-0.0508 0.0444,-0.136525 0.006,-0.0889 0.006,-0.2032 v -0.4445 q -0.003,-0.27305 -0.0921,-0.41275 -0.0857,-0.1397 -0.27305,-0.136525 -0.1143,0.0032 -0.22543,0.06033 -0.10795,0.05715 -0.18097,0.14605 0.003,0.0254 0.003,0.05715 0,0.03175 0,0.06668 l -0.003,0.809625 q 0,0.0635 -0.003,0.1143 0,0.04762 -0.01,0.1016 0.0508,-0.0032 0.0984,-0.0032 0.0508,-0.0032 0.1016,-0.0063 v 0.130175 z"
           id="text55"
           inkscape:label="n"
           aria-label="n" />
        <path
           style="font-size:3.175px;font-family:Merriweather;-inkscape-font-specification:Merriweather;fill:#ffffff;stroke-width:0.2032"
           d="m 198.60699,73.022972 v -0.09525 q 0.0984,0 0.13652,-0.04762 0.0381,-0.0508 0.0445,-0.136525 0.006,-0.0889 0.006,-0.2032 l 0.003,-0.7239 q 0,-0.0508 0,-0.1016 0.003,-0.0508 0.0127,-0.104775 -0.0572,0.0032 -0.1143,0.0063 -0.054,0.0032 -0.11113,0.0064 v -0.13335 q 0.1397,0 0.20955,-0.0127 0.073,-0.0127 0.10795,-0.03175 0.0349,-0.01905 0.0571,-0.04127 h 0.0921 q 0.006,0.03493 0.006,0.08255 0.003,0.04445 0.006,0.111125 0.1016,-0.09207 0.2413,-0.1524 0.1397,-0.06033 0.27622,-0.06033 0.27623,0 0.40323,0.174625 0.127,0.17145 0.127,0.536575 v 0.59055 q 0,0.0635 -0.003,0.1143 0,0.04763 -0.01,0.1016 0.0508,-0.0032 0.0984,-0.0032 0.0508,-0.0032 0.1016,-0.0063 v 0.130175 h -0.6477 v -0.09525 q 0.0984,0 0.13653,-0.04762 0.0381,-0.0508 0.0444,-0.136525 0.006,-0.0889 0.006,-0.2032 v -0.4445 q -0.003,-0.27305 -0.0921,-0.41275 -0.0857,-0.1397 -0.27305,-0.136525 -0.1143,0.0032 -0.22542,0.06032 -0.10795,0.05715 -0.18098,0.14605 0.003,0.0254 0.003,0.05715 0,0.03175 0,0.06667 l -0.003,0.809625 q 0,0.0635 -0.003,0.1143 0,0.04763 -0.01,0.1016 0.0508,-0.0032 0.0984,-0.0032 0.0508,-0.0032 0.1016,-0.0063 v 0.130175 z"
           id="text56"
           inkscape:label="n"
           aria-label="n" />
      </g>
      <path
         style="font-size:2.82222px;line-height:1.25;font-family:Merriweather;-inkscape-font-specification:Merriweather;text-align:center;text-anchor:middle;stroke-width:0.0496066"
         d="m 197.27459,65.545979 q -0.14112,0 -0.25118,-0.03951 -0.11007,-0.03669 -0.18062,-0.08467 l 0.0113,0.09878 h -0.11853 l -0.0169,-0.485422 h 0.0875 q 0.006,0.115711 0.0649,0.208844 0.0593,0.09031 0.1524,0.141111 0.0931,0.0508 0.20038,0.0508 0.0734,0 0.14393,-0.02258 0.0705,-0.0254 0.11853,-0.07338 0.048,-0.0508 0.048,-0.126999 0,-0.07902 -0.048,-0.129823 -0.0452,-0.05362 -0.12135,-0.09313 -0.0762,-0.03951 -0.16369,-0.07338 -0.11289,-0.04515 -0.22578,-0.09596 -0.11007,-0.05362 -0.18344,-0.138289 -0.0734,-0.08749 -0.0734,-0.2286 0,-0.05927 0.0226,-0.129822 0.0226,-0.07055 0.0762,-0.132644 0.0536,-0.06491 0.14675,-0.104422 0.0931,-0.04233 0.23707,-0.04233 0.0762,0 0.16933,0.0254 0.0931,0.0254 0.18062,0.09596 l -0.006,-0.107244 h 0.11853 v 0.493888 h -0.0903 q -0.006,-0.09878 -0.0452,-0.189089 -0.0395,-0.09313 -0.11571,-0.1524 -0.0762,-0.06209 -0.19755,-0.06209 -0.12982,0 -0.2032,0.06491 -0.0734,0.06491 -0.0734,0.149577 0,0.08749 0.0536,0.146756 0.0565,0.05644 0.14394,0.09878 0.0875,0.04233 0.18626,0.08185 0.10725,0.04515 0.20885,0.09878 0.1016,0.05362 0.16651,0.135466 0.0649,0.07902 0.0649,0.206022 0,0.141111 -0.0734,0.234244 -0.0705,0.09313 -0.18344,0.135467 -0.11007,0.04516 -0.23142,0.04516 z m 1.4111,0 q -0.19473,0 -0.35277,-0.09031 -0.15523,-0.09313 -0.24554,-0.259644 -0.0903,-0.169333 -0.0903,-0.397933 0,-0.197555 0.0875,-0.369711 0.0903,-0.172155 0.25118,-0.276577 0.16086,-0.107245 0.37253,-0.107245 0.15805,0 0.28787,0.06773 0.12982,0.06773 0.20602,0.206022 0.079,0.138289 0.079,0.349955 l -0.99342,0.01693 q -0.003,0.324556 0.10724,0.522111 0.11007,0.194733 0.35843,0.194733 0.0875,0 0.1778,-0.03104 0.0931,-0.03105 0.17215,-0.08467 0.079,-0.05362 0.127,-0.118533 l 0.0677,0.05644 q -0.0762,0.118534 -0.18345,0.189089 -0.10724,0.07056 -0.22013,0.1016 -0.11289,0.03104 -0.20885,0.03104 z m -0.38946,-0.97931 h 0.71966 q 0,-0.1016 -0.031,-0.194733 -0.0282,-0.09596 -0.096,-0.155222 -0.0677,-0.06209 -0.1778,-0.06209 -0.16369,0 -0.27375,0.09878 -0.10725,0.09595 -0.14111,0.313266 z m 1.905,0.97931 q -0.19474,0 -0.35278,-0.09031 -0.15522,-0.09313 -0.24553,-0.259644 -0.0903,-0.169333 -0.0903,-0.397933 0,-0.197555 0.0875,-0.369711 0.0903,-0.172155 0.25118,-0.276577 0.16087,-0.107245 0.37254,-0.107245 0.15804,0 0.28786,0.06773 0.12982,0.06773 0.20602,0.206022 0.079,0.138289 0.079,0.349955 l -0.99343,0.01693 q -0.003,0.324556 0.10725,0.522111 0.11007,0.194733 0.35842,0.194733 0.0875,0 0.1778,-0.03104 0.0931,-0.03105 0.17216,-0.08467 0.079,-0.05362 0.127,-0.118533 l 0.0677,0.05644 q -0.0762,0.118534 -0.18345,0.189089 -0.10724,0.07056 -0.22013,0.1016 -0.11289,0.03104 -0.20884,0.03104 z m -0.38947,-0.97931 h 0.71967 q 0,-0.1016 -0.031,-0.194733 -0.0282,-0.09596 -0.096,-0.155222 -0.0677,-0.06209 -0.1778,-0.06209 -0.16369,0 -0.27376,0.09878 -0.10724,0.09595 -0.14111,0.313266 z m 1.23613,0.849488 q 0.0875,0 0.12136,-0.04233 0.0339,-0.04515 0.0395,-0.121355 0.006,-0.07902 0.006,-0.180622 v -0.64347 q 0,-0.04516 0,-0.09031 0.003,-0.04516 0.0113,-0.09313 -0.0508,0.0028 -0.1016,0.0056 -0.048,0 -0.0988,0.0028 v -0.115711 h 0.0875 q 0.12136,0 0.16651,-0.02258 0.048,-0.0254 0.079,-0.05362 h 0.0818 q 0.006,0.04515 0.008,0.112889 0.003,0.06491 0.006,0.166511 0.0423,-0.07056 0.11571,-0.138289 0.0734,-0.06773 0.16369,-0.112889 0.0931,-0.04516 0.19474,-0.04516 0.079,0 0.13828,0.04233 0.0593,0.04233 0.0593,0.135466 0,0.03669 -0.0339,0.08749 -0.031,0.0508 -0.10724,0.04798 -0.0621,-0.0028 -0.0988,-0.04798 -0.0367,-0.04798 -0.0282,-0.110066 -0.10724,-0.0056 -0.21731,0.08184 -0.11007,0.08749 -0.18345,0.225778 l 0.003,0.694266 q 0,0.05644 -0.003,0.1016 0,0.04233 -0.008,0.09031 0.0452,-0.0028 0.0875,-0.0028 0.0452,-0.0028 0.0903,-0.0056 v 0.115711 h -0.57856 z"
         id="text57"
         inkscape:label="seer"
         aria-label="seer" />
    </g>
  </g>
</svg>
