<?xml version="1.0" encoding="UTF-8" standalone="no"?>
<!-- Created with Inkscape (http://www.inkscape.org/) -->

<svg
   width="8.5in"
   height="11in"
   viewBox="0 0 215.9 279.4"
   version="1.1"
   id="svg1"
   inkscape:version="1.4 (86a8ad7, 2024-10-11)"
   sodipodi:docname="07_superimposed-leadership.svg"
   xmlns:inkscape="http://www.inkscape.org/namespaces/inkscape"
   xmlns:sodipodi="http://sodipodi.sourceforge.net/DTD/sodipodi-0.dtd"
   xmlns="http://www.w3.org/2000/svg"
   xmlns:svg="http://www.w3.org/2000/svg">
  <sodipodi:namedview
     id="namedview1"
     pagecolor="#ffffff"
     bordercolor="#000000"
     borderopacity="0.25"
     inkscape:showpageshadow="2"
     inkscape:pageopacity="0.0"
     inkscape:pagecheckerboard="true"
     inkscape:deskcolor="#d1d1d1"
     inkscape:document-units="in"
     inkscape:zoom="3.0404907"
     inkscape:cx="690.0202"
     inkscape:cy="305.87168"
     inkscape:window-width="1920"
     inkscape:window-height="1017"
     inkscape:window-x="-8"
     inkscape:window-y="-8"
     inkscape:window-maximized="1"
     inkscape:current-layer="g57" />
  <defs
     id="defs1" />
  <g
     inkscape:groupmode="layer"
     id="g90"
     inkscape:label="age_eden"
     style="display:inline"
     transform="translate(53.513823,-39.823956)"
     inkscape:highlight-color="#d554d5">
    <path
       style="color:#000000;display:inline;opacity:1;fill:#ffffff;fill-opacity:1;stroke:#000000;stroke-width:0.20312;stroke-linecap:round;stroke-linejoin:round;stroke-dasharray:none;stroke-opacity:1"
       d="m 98.723183,98.832974 -8.768955,15.187616 -8.768621,15.18796 c -0.54284,0.94035 0.135708,2.11573 1.221492,2.11588 h 17.537574 17.537247 c 1.08579,-1.5e-4 1.76433,-1.17553 1.22149,-2.11588 l -8.76862,-15.18796 -8.76862,-15.187616 c -0.54947,-0.951287 -1.911407,-0.920329 -2.442987,0 z"
       id="path69"
       sodipodi:nodetypes="cccccccccc"
       inkscape:label="triangle" />
    <path
       style="color:#000000;display:inline;fill:#ffffff;fill-opacity:1;stroke:#000000;stroke-width:0.2032;stroke-linecap:round;stroke-linejoin:round;stroke-dasharray:none;stroke-opacity:1"
       d="m 144.68715,98.832976 -8.76896,15.187614 -8.76862,15.18796 c -0.54284,0.94035 0.13571,2.11573 1.2215,2.11588 h 17.53757 17.53725 c 1.08579,-1.5e-4 1.76433,-1.17553 1.22149,-2.11588 l -8.76862,-15.18796 -8.76862,-15.187614 c -0.54947,-0.95129 -1.91141,-0.92033 -2.44299,0 z"
       id="path69-4"
       sodipodi:nodetypes="cccccccccc"
       inkscape:label="triangle" />
    <path
       style="display:inline;opacity:1;fill:none;stroke:#000000;stroke-width:0.115625;stroke-linecap:butt;stroke-linejoin:miter;stroke-miterlimit:4;stroke-dasharray:1.3875, 1.3875;stroke-dashoffset:0.971247;stroke-opacity:1"
       d="M 84.816453,122.98665 H 115.07256"
       id="path70"
       inkscape:label="segregator (bottom)" />
    <path
       style="display:inline;opacity:1;fill:none;stroke:#000000;stroke-width:0.115955;stroke-linecap:butt;stroke-linejoin:miter;stroke-miterlimit:4;stroke-dasharray:1.39146, 1.39146;stroke-dashoffset:0.266697;stroke-opacity:1"
       d="M 89.631569,114.67299 H 110.25745"
       id="path71"
       inkscape:label="segregator (middle)" />
    <path
       style="display:inline;opacity:1;fill:none;stroke:#000000;stroke-width:0.118019;stroke-linecap:butt;stroke-linejoin:miter;stroke-miterlimit:4;stroke-dasharray:1.41624, 1.41624;stroke-dashoffset:0.944157;stroke-opacity:1"
       d="M 94.414283,106.3593 H 105.47474"
       id="path72"
       inkscape:label="segregator (top)" />
    <g
       inkscape:groupmode="layer"
       id="g77"
       inkscape:label="fonts_as_objects"
       style="display:none;opacity:1">
      <text
         xml:space="preserve"
         style="font-style:normal;font-variant:normal;font-weight:normal;font-stretch:normal;font-size:2.82222px;line-height:1.05;font-family:Lora;-inkscape-font-specification:Lora;display:inline;opacity:1;fill:#8c8c8c;fill-opacity:1;stroke:#000000;stroke-width:0.0496066;stroke-opacity:1"
         x="99.898346"
         y="134.18692"
         id="text72"
         inkscape:label="caption—Civilization's natural order"><tspan
           sodipodi:role="line"
           style="font-style:normal;font-variant:normal;font-weight:normal;font-stretch:normal;font-size:2.82222px;font-family:Lora;-inkscape-font-specification:Lora;text-align:center;text-anchor:middle;fill:#8c8c8c;fill-opacity:1;stroke:none;stroke-width:0.0496066;stroke-opacity:1"
           x="99.898346"
           y="134.18692"
           id="tspan72">Civilization's Natural Order</tspan></text>
      <text
         xml:space="preserve"
         style="font-style:normal;font-variant:normal;font-weight:normal;font-stretch:normal;font-size:2.82222px;line-height:1.25;font-family:Lora;-inkscape-font-specification:Lora;display:inline;opacity:1;stroke-width:0.0496066"
         x="93.900642"
         y="129.18159"
         id="text73"
         inkscape:label="workers"><tspan
           sodipodi:role="line"
           id="tspan73"
           style="font-style:normal;font-variant:normal;font-weight:normal;font-stretch:normal;font-size:2.82222px;font-family:Lora;-inkscape-font-specification:Lora;stroke-width:0.0496066"
           x="93.900642"
           y="129.18159"
           dy="1.1249388">workers...</tspan></text>
      <text
         xml:space="preserve"
         style="font-style:normal;font-variant:normal;font-weight:normal;font-stretch:normal;font-size:2.82222px;line-height:1.25;font-family:Lora;-inkscape-font-specification:Lora;display:inline;opacity:1;stroke-width:0.0496066"
         x="95.299835"
         y="120.97373"
         id="text74"
         inkscape:label="experts"><tspan
           sodipodi:role="line"
           id="tspan74"
           style="font-style:normal;font-variant:normal;font-weight:normal;font-stretch:normal;font-size:2.82222px;font-family:Lora;-inkscape-font-specification:Lora;stroke-width:0.0496066"
           x="95.299835"
           y="120.97373"
           dy="1.1249388">experts</tspan></text>
      <text
         xml:space="preserve"
         style="font-style:normal;font-variant:normal;font-weight:normal;font-stretch:normal;font-size:2.82222px;line-height:1.25;font-family:Lora;-inkscape-font-specification:Lora;display:inline;opacity:1;stroke-width:0.0496066"
         x="96.092758"
         y="112.66186"
         id="text75"
         inkscape:label="elders"><tspan
           sodipodi:role="line"
           id="tspan75"
           style="font-style:normal;font-variant:normal;font-weight:normal;font-stretch:normal;font-size:2.82222px;font-family:Lora;-inkscape-font-specification:Lora;stroke-width:0.0496066"
           x="96.092758"
           y="112.66186"
           dy="1.1249388">elders</tspan></text>
      <text
         xml:space="preserve"
         style="font-style:normal;font-variant:normal;font-weight:normal;font-stretch:normal;font-size:2.82222px;line-height:1.25;font-family:Lora;-inkscape-font-specification:Lora;display:inline;opacity:1;stroke-width:0.0496066"
         x="99.734703"
         y="102.84825"
         id="text76"
         inkscape:label="chief"><tspan
           sodipodi:role="line"
           id="tspan76"
           style="font-style:normal;font-variant:normal;font-weight:normal;font-stretch:normal;font-size:2.82222px;font-family:Lora;-inkscape-font-specification:Lora;text-align:center;text-anchor:middle;stroke-width:0.0496066"
           x="99.734703"
           y="102.84825"
           dy="2.6248572">chief</tspan></text>
      <text
         xml:space="preserve"
         style="font-style:normal;font-variant:normal;font-weight:normal;font-stretch:normal;font-size:1.05833px;font-family:Lora;-inkscape-font-specification:Lora;display:none;opacity:1;fill:#000000;fill-opacity:0.0724907;stroke-width:0.264583"
         x="96.602859"
         y="119.82365"
         id="text77"
         inkscape:label="Paradise Lost"><tspan
           sodipodi:role="line"
           id="tspan77"
           style="font-style:normal;font-variant:normal;font-weight:normal;font-stretch:normal;font-size:1.05833px;font-family:Lora;-inkscape-font-specification:Lora;stroke-width:0.264583"
           x="0"
           y="0">Paradise Lost</tspan></text>
    </g>
    <g
       inkscape:groupmode="layer"
       id="g23"
       inkscape:label="fonts_as_path"
       style="display:inline;opacity:1">
      <path
         style="font-size:2.82222px;line-height:1.05;font-family:Lora;-inkscape-font-specification:Lora;text-align:center;text-anchor:middle;display:none;fill:#8c8c8c;stroke-width:0.0496066"
         d="m 83.768677,132.83424 q -0.02822,-0.26529 -0.186267,-0.41204 -0.155222,-0.14676 -0.400755,-0.14676 -0.149578,0 -0.282222,0.0649 -0.129822,0.0621 -0.2286,0.18062 -0.09878,0.11854 -0.155222,0.28505 -0.05644,0.16651 -0.05644,0.37535 0,0.26529 0.101599,0.46849 0.1016,0.2032 0.273756,0.31609 0.172155,0.11289 0.381,0.11289 0.183444,0 0.361244,-0.0818 0.1778,-0.0847 0.290688,-0.24272 l 0.07338,0.0593 q -0.121355,0.16651 -0.262466,0.25682 -0.141111,0.0903 -0.282222,0.12136 -0.138289,0.0339 -0.254,0.0339 -0.211667,0 -0.389467,-0.0762 -0.174977,-0.0762 -0.304799,-0.21167 -0.127,-0.13829 -0.197556,-0.31891 -0.06773,-0.18345 -0.06773,-0.39511 0,-0.20038 0.05927,-0.38947 0.06209,-0.18909 0.183444,-0.34149 0.121355,-0.1524 0.3048,-0.24271 0.186266,-0.0903 0.431799,-0.0903 0.158045,0 0.299156,0.0423 0.141111,0.0423 0.270933,0.12983 l -0.01411,-0.1524 h 0.1524 v 0.65475 z m 0.380998,1.26153 q 0.08749,0 0.121355,-0.0423 0.03387,-0.0452 0.03951,-0.12136 0.0056,-0.079 0.0056,-0.18062 v -0.64346 q 0,-0.0452 0.0028,-0.0847 0.0028,-0.0423 0.0085,-0.0988 -0.0508,0.003 -0.1016,0.006 -0.04798,0.003 -0.09878,0.006 V 132.818 q 0.124178,0 0.191911,-0.0113 0.06773,-0.0113 0.1016,-0.0282 0.03669,-0.0169 0.05644,-0.0367 h 0.08185 v 1.14017 q 0,0.0565 -0.0028,0.1016 0,0.0423 -0.0085,0.0903 0.04515,-0.003 0.08749,-0.003 0.04516,-0.003 0.09031,-0.006 v 0.11571 h -0.575733 z m 0.270933,-1.63406 q -0.05927,0 -0.104422,-0.048 -0.04516,-0.048 -0.04516,-0.11853 0,-0.0706 0.04516,-0.11854 0.04798,-0.0508 0.107244,-0.0508 0.06491,0 0.107244,0.0508 0.04516,0.048 0.04516,0.11854 0,0.0705 -0.04798,0.11853 -0.04516,0.048 -0.107244,0.048 z m 1.058333,1.7272 -0.403578,-0.92005 q -0.04516,-0.10724 -0.07055,-0.18344 -0.0254,-0.0762 -0.03669,-0.127 -0.0085,-0.0508 -0.01129,-0.0819 l -0.121356,0.008 v -0.11571 h 0.519289 v 0.0847 q -0.08467,0 -0.110067,0.0452 -0.02258,0.0423 -0.0056,0.11571 0.01693,0.0706 0.0508,0.1524 l 0.217311,0.49671 q 0.02258,0.048 0.04233,0.1016 0.02258,0.0508 0.04233,0.10725 h 0.0028 q 0.01411,-0.0423 0.03104,-0.0903 0.01976,-0.048 0.03387,-0.0931 l 0.225777,-0.61806 q 0.02258,-0.0677 0.04798,-0.11854 0.0254,-0.0508 0.03669,-0.0762 l -0.180622,0.008 v -0.11571 h 0.445911 v 0.0847 q -0.06209,0 -0.104423,0.0423 -0.04233,0.0423 -0.08184,0.127 -0.03669,0.0847 -0.08749,0.21167 l -0.369711,0.95391 z m 0.888997,-0.0931 q 0.08749,0 0.121355,-0.0423 0.03387,-0.0452 0.03951,-0.12136 0.0056,-0.079 0.0056,-0.18062 v -0.64346 q 0,-0.0452 0.0028,-0.0847 0.0028,-0.0423 0.0085,-0.0988 -0.0508,0.003 -0.1016,0.006 -0.04798,0.003 -0.09878,0.006 v -0.11853 q 0.124178,0 0.191911,-0.0113 0.06773,-0.0113 0.1016,-0.0282 0.03669,-0.0169 0.05644,-0.0367 h 0.08185 v 1.14017 q 0,0.0565 -0.0028,0.1016 0,0.0423 -0.0085,0.0903 0.04516,-0.003 0.08749,-0.003 0.04515,-0.003 0.09031,-0.006 v 0.11571 h -0.575733 z m 0.270933,-1.63406 q -0.05927,0 -0.104422,-0.048 -0.04516,-0.048 -0.04516,-0.11853 0,-0.0706 0.04516,-0.11854 0.04798,-0.0508 0.107244,-0.0508 0.06491,0 0.107245,0.0508 0.04515,0.048 0.04515,0.11854 0,0.0705 -0.04798,0.11853 -0.04515,0.048 -0.107244,0.048 z m 0.493889,1.63406 q 0.08749,0 0.121355,-0.0423 0.03387,-0.0452 0.03951,-0.12136 0.0056,-0.079 0.0056,-0.18062 v -1.33491 q 0,-0.0452 0,-0.0847 0.0028,-0.0423 0.0085,-0.0988 -0.0508,0.003 -0.1016,0.006 -0.04798,0.003 -0.09878,0.006 v -0.11854 q 0.124177,0 0.191911,-0.0113 0.07055,-0.0113 0.104422,-0.0282 0.03669,-0.0169 0.05644,-0.0367 h 0.08185 l 0.0028,1.83162 q 0,0.0565 -0.0028,0.1016 -0.0028,0.0423 -0.01129,0.0903 0.04516,-0.003 0.08749,-0.003 0.04516,-0.003 0.09031,-0.006 v 0.11571 h -0.575733 z m 0.795864,0 q 0.08749,0 0.121355,-0.0423 0.03387,-0.0452 0.03951,-0.12136 0.0056,-0.079 0.0056,-0.18062 v -0.64346 q 0,-0.0452 0.0028,-0.0847 0.0028,-0.0423 0.0085,-0.0988 -0.0508,0.003 -0.1016,0.006 -0.04798,0.003 -0.09878,0.006 v -0.11853 q 0.124178,0 0.191911,-0.0113 0.06773,-0.0113 0.1016,-0.0282 0.03669,-0.0169 0.05644,-0.0367 h 0.08185 v 1.14017 q 0,0.0565 -0.0028,0.1016 0,0.0423 -0.0085,0.0903 0.04516,-0.003 0.08749,-0.003 0.04515,-0.003 0.09031,-0.006 v 0.11571 h -0.575733 z m 0.270933,-1.63406 q -0.05927,0 -0.104422,-0.048 -0.04516,-0.048 -0.04516,-0.11853 0,-0.0706 0.04516,-0.11854 0.04798,-0.0508 0.107244,-0.0508 0.06491,0 0.107245,0.0508 0.04516,0.048 0.04516,0.11854 0,0.0705 -0.04798,0.11853 -0.04515,0.048 -0.107244,0.048 z m 0.510822,1.71873 v -0.11571 l 0.7874,-1.01318 q 0.04515,-0.0564 0.08749,-0.11006 0.04516,-0.0564 0.07338,-0.0734 l -0.530577,0.008 q -0.104422,0 -0.163689,0.0565 -0.05644,0.0536 -0.08184,0.14393 -0.0254,0.0875 -0.04233,0.19756 h -0.08749 l 0.03387,-0.50518 h 1.10631 v 0.0903 l -0.795866,1.04704 q -0.03669,0.0452 -0.06491,0.079 -0.02822,0.0339 -0.08184,0.079 l 0.544688,0.008 q 0.118534,0 0.186267,-0.0536 0.06773,-0.0536 0.1016,-0.14675 0.03387,-0.0931 0.0508,-0.20602 h 0.08184 l -0.03387,0.51364 z m 2.311398,0 q -0.0085,-0.048 -0.01129,-0.0847 -0.0028,-0.0367 -0.0085,-0.0762 -0.09596,0.096 -0.208844,0.1524 -0.110067,0.0536 -0.234244,0.0536 -0.214489,0 -0.318911,-0.096 -0.104422,-0.0988 -0.104422,-0.23989 0,-0.12982 0.07902,-0.22295 0.08184,-0.096 0.208844,-0.15523 0.129822,-0.0621 0.2794,-0.0903 0.1524,-0.031 0.293511,-0.0282 v -0.17498 q 0,-0.0988 -0.01693,-0.18626 -0.01693,-0.0875 -0.07338,-0.14394 -0.05644,-0.0564 -0.180622,-0.0593 -0.08185,-0.003 -0.169333,0.031 -0.08467,0.0339 -0.124178,0.11571 0.02258,0.0226 0.02822,0.0536 0.0085,0.0282 0.0085,0.0536 0,0.0339 -0.02822,0.079 -0.02822,0.0423 -0.09878,0.0395 -0.05927,0 -0.09031,-0.0395 -0.03104,-0.0423 -0.03104,-0.0988 0,-0.096 0.07056,-0.17215 0.07338,-0.0762 0.200378,-0.12136 0.126999,-0.0452 0.287866,-0.0452 0.237066,0 0.349955,0.127 0.112889,0.12418 0.110067,0.39512 0,0.10442 0,0.21166 0,0.10442 -0.0028,0.21167 0,0.10442 0,0.21166 0,0.0452 -0.0028,0.0903 -0.0028,0.0452 -0.0085,0.1016 0.0508,-0.003 0.09878,-0.006 0.0508,-0.003 0.1016,-0.006 v 0.11853 z m -0.0254,-0.69144 q -0.09596,0.003 -0.2032,0.0254 -0.104422,0.0197 -0.194733,0.0621 -0.08749,0.0423 -0.143933,0.11288 -0.05362,0.0677 -0.0508,0.16651 0.0056,0.10443 0.06773,0.15805 0.06491,0.0508 0.1524,0.0508 0.115711,0 0.200377,-0.0423 0.08749,-0.0452 0.172156,-0.12418 -0.0028,-0.031 -0.0028,-0.0677 0,-0.0367 0,-0.0762 0,-0.0141 0,-0.0903 0.0028,-0.0762 0.0028,-0.17497 z m 1.134534,0.7366 q -0.06491,0 -0.132644,-0.0198 -0.06773,-0.0169 -0.127,-0.0706 -0.05644,-0.0536 -0.09031,-0.15522 -0.03387,-0.10442 -0.03387,-0.27375 l 0.0056,-0.81845 -0.217311,0.003 v -0.12136 q 0.07338,-0.003 0.149578,-0.0536 0.0762,-0.0536 0.135466,-0.14394 0.06209,-0.0903 0.08467,-0.19755 h 0.09596 v 0.39511 h 0.474133 v 0.11007 l -0.474133,0.006 -0.0056,0.78458 q 0,0.127 0.01976,0.21731 0.02258,0.0875 0.07056,0.13264 0.04798,0.0452 0.124178,0.0452 0.07902,0 0.146755,-0.0452 0.07055,-0.0452 0.124178,-0.12417 l 0.0762,0.0621 q -0.06209,0.0931 -0.124178,0.14676 -0.05927,0.0536 -0.115711,0.079 -0.05645,0.0282 -0.104422,0.0339 -0.04798,0.008 -0.08185,0.008 z m 0.561619,-0.12983 q 0.08749,0 0.121356,-0.0423 0.03387,-0.0452 0.03951,-0.12136 0.0056,-0.079 0.0056,-0.18062 v -0.64346 q 0,-0.0452 0.0028,-0.0847 0.0028,-0.0423 0.0085,-0.0988 -0.0508,0.003 -0.1016,0.006 -0.04798,0.003 -0.09878,0.006 v -0.11853 q 0.124177,0 0.191911,-0.0113 0.06773,-0.0113 0.1016,-0.0282 0.03669,-0.0169 0.05644,-0.0367 h 0.08184 v 1.14017 q 0,0.0565 -0.0028,0.1016 0,0.0423 -0.0085,0.0903 0.04516,-0.003 0.08749,-0.003 0.04516,-0.003 0.09031,-0.006 v 0.11571 h -0.575733 z m 0.270934,-1.63406 q -0.05927,0 -0.104423,-0.048 -0.04515,-0.048 -0.04515,-0.11853 0,-0.0706 0.04515,-0.11854 0.04798,-0.0508 0.107245,-0.0508 0.06491,0 0.107244,0.0508 0.04516,0.048 0.04516,0.11854 0,0.0705 -0.04798,0.11853 -0.04516,0.048 -0.107244,0.048 z m 1.222021,1.76389 q -0.197555,0 -0.358422,-0.0903 -0.160866,-0.0931 -0.256822,-0.254 -0.09313,-0.16368 -0.09313,-0.37253 0,-0.22295 0.09313,-0.40075 0.09313,-0.1778 0.254,-0.2794 0.160866,-0.10443 0.361244,-0.10443 0.197556,0 0.358422,0.096 0.160867,0.0931 0.256822,0.254 0.09596,0.16087 0.09596,0.36689 0,0.21731 -0.09596,0.39793 -0.09313,0.1778 -0.254,0.28222 -0.160866,0.10443 -0.361244,0.10443 z m 0.02258,-0.11289 q 0.149578,0 0.237066,-0.0847 0.08749,-0.0847 0.124178,-0.22013 0.03951,-0.13547 0.03951,-0.28505 0,-0.127 -0.0254,-0.24835 -0.02258,-0.12418 -0.07338,-0.22296 -0.0508,-0.1016 -0.132644,-0.16086 -0.07902,-0.0593 -0.191911,-0.0593 -0.146755,0 -0.239889,0.0847 -0.09313,0.0847 -0.138288,0.22013 -0.04233,0.13547 -0.04233,0.29069 0,0.17498 0.04798,0.33302 0.04798,0.15522 0.146756,0.254 0.09878,0.0988 0.248355,0.0988 z m 0.928508,0.0677 v -0.0847 q 0.08749,0 0.121355,-0.0423 0.03387,-0.0452 0.03951,-0.12136 0.0056,-0.079 0.0056,-0.18062 l 0.0028,-0.64346 q 0,-0.0452 0,-0.0903 0.0028,-0.0452 0.01129,-0.0931 -0.0508,0.003 -0.1016,0.006 -0.04798,0.003 -0.09878,0.006 v -0.11853 q 0.124178,0 0.186267,-0.0113 0.06491,-0.0113 0.09596,-0.0282 0.03105,-0.0169 0.0508,-0.0367 h 0.08185 q 0.0028,0.0197 0.0028,0.0452 0.0028,0.0254 0.0056,0.0564 0.0028,0.031 0.0028,0.0705 0.06209,-0.0536 0.135467,-0.0959 0.0762,-0.0423 0.158044,-0.0677 0.08467,-0.0254 0.166511,-0.0254 0.245533,0 0.358422,0.15523 0.112889,0.1524 0.112889,0.47695 v 0.52493 q 0,0.0565 -0.0028,0.1016 0,0.0423 -0.0085,0.0903 0.04516,-0.003 0.08749,-0.003 0.04516,-0.003 0.09031,-0.006 v 0.11571 h -0.575577 v -0.0847 q 0.08749,0 0.121356,-0.0423 0.03387,-0.0452 0.03951,-0.12136 0.0056,-0.079 0.0056,-0.18062 v -0.39511 q -0.0028,-0.24271 -0.08184,-0.36689 -0.0762,-0.12417 -0.242711,-0.12135 -0.1016,0.003 -0.200378,0.0536 -0.09595,0.0508 -0.160866,0.12982 0.0028,0.0226 0.0028,0.0508 0,0.0282 0,0.0593 l -0.0028,0.71966 q 0,0.0565 -0.0028,0.1016 0,0.0423 -0.0085,0.0903 0.04515,-0.003 0.08749,-0.003 0.04516,-0.003 0.09031,-0.006 v 0.11571 z m 1.752599,-1.38571 -0.0254,-0.635 h 0.237066 l -0.0254,0.635 z m 1.089377,1.43087 q -0.141111,0 -0.251178,-0.0395 -0.110066,-0.0367 -0.180622,-0.0847 l 0.01129,0.0988 h -0.118533 l -0.01693,-0.48543 h 0.08749 q 0.0056,0.11571 0.06491,0.20885 0.05927,0.0903 0.1524,0.14111 0.09313,0.0508 0.200378,0.0508 0.07338,0 0.143933,-0.0226 0.07056,-0.0254 0.118533,-0.0734 0.04798,-0.0508 0.04798,-0.127 0,-0.079 -0.04798,-0.12982 -0.04515,-0.0536 -0.121355,-0.0931 -0.0762,-0.0395 -0.163689,-0.0734 -0.08467,-0.0339 -0.169333,-0.0705 -0.08467,-0.0367 -0.158044,-0.0875 -0.07056,-0.0508 -0.112889,-0.12418 -0.04233,-0.0734 -0.04233,-0.18062 0,-0.0593 0.02258,-0.12983 0.02258,-0.0705 0.0762,-0.13264 0.05362,-0.0649 0.146756,-0.10442 0.09313,-0.0423 0.237066,-0.0423 0.0762,0 0.169333,0.0254 0.09313,0.0254 0.180622,0.096 l -0.0056,-0.10724 h 0.118533 v 0.49388 h -0.09031 q -0.0056,-0.0988 -0.04515,-0.18908 -0.03951,-0.0931 -0.115711,-0.1524 -0.0762,-0.0621 -0.197556,-0.0621 -0.129822,0 -0.2032,0.0649 -0.07338,0.0649 -0.07338,0.14958 0,0.0875 0.05362,0.14675 0.05644,0.0565 0.143933,0.0988 0.08749,0.0423 0.186267,0.0818 0.107244,0.0452 0.208844,0.0988 0.1016,0.0536 0.166511,0.13547 0.06491,0.079 0.06491,0.20602 0,0.14111 -0.07338,0.23424 -0.07055,0.0931 -0.183444,0.13547 -0.110067,0.0452 -0.231422,0.0452 z m 3.045171,0 -1.126062,-1.51271 q -0.0254,-0.0339 -0.0508,-0.0649 -0.02258,-0.0339 -0.04798,-0.0677 h -0.0028 l 0.0085,1.20791 q 0,0.0706 0,0.14111 0,0.0706 -0.0056,0.13829 0.0508,-0.003 0.1016,-0.006 0.0508,-0.003 0.101602,-0.006 v 0.12418 h -0.516468 v -0.0931 q 0.08749,0 0.124177,-0.0367 0.03951,-0.0395 0.0508,-0.0903 0.01129,-0.0536 0.01129,-0.096 l 0.0028,-1.35749 q 0,-0.048 0,-0.0959 0,-0.048 0,-0.0931 -0.04516,0.003 -0.09313,0.006 -0.04798,0.003 -0.09596,0.006 v -0.12417 h 0.335844 l 1.058337,1.41675 q 0.0367,0.048 0.0705,0.096 0.0367,0.048 0.0734,0.096 h 0.003 l 0.003,-1.29258 q 0,-0.0564 0.003,-0.10724 0.003,-0.0536 0.006,-0.096 -0.0508,0.003 -0.1016,0.006 -0.0508,0.003 -0.1016,0.006 v -0.12417 h 0.51929 v 0.0931 q -0.10442,0.003 -0.14393,0.048 -0.0395,0.0451 -0.0423,0.12135 -0.003,0.0762 -0.003,0.1778 l -0.006,1.58045 z m 1.41958,-0.0452 q -0.008,-0.048 -0.0113,-0.0847 -0.003,-0.0367 -0.008,-0.0762 -0.0959,0.096 -0.20884,0.1524 -0.11007,0.0536 -0.23425,0.0536 -0.21448,0 -0.31891,-0.096 -0.10442,-0.0988 -0.10442,-0.23989 0,-0.12982 0.079,-0.22295 0.0819,-0.096 0.20885,-0.15523 0.12982,-0.0621 0.2794,-0.0903 0.1524,-0.031 0.29351,-0.0282 v -0.17498 q 0,-0.0988 -0.0169,-0.18626 -0.0169,-0.0875 -0.0734,-0.14394 -0.0565,-0.0564 -0.18063,-0.0593 -0.0818,-0.003 -0.16933,0.031 -0.0847,0.0339 -0.12418,0.11571 0.0226,0.0226 0.0282,0.0536 0.008,0.0282 0.008,0.0536 0,0.0339 -0.0282,0.079 -0.0282,0.0423 -0.0988,0.0395 -0.0593,0 -0.0903,-0.0395 -0.031,-0.0423 -0.031,-0.0988 0,-0.096 0.0705,-0.17215 0.0734,-0.0762 0.20038,-0.12136 0.127,-0.0452 0.28787,-0.0452 0.23706,0 0.34995,0.127 0.11289,0.12418 0.11007,0.39512 0,0.10442 0,0.21166 0,0.10442 -0.003,0.21167 0,0.10442 0,0.21166 0,0.0452 -0.003,0.0903 -0.003,0.0452 -0.008,0.1016 0.0508,-0.003 0.0988,-0.006 0.0508,-0.003 0.1016,-0.006 v 0.11853 z m -0.0254,-0.69144 q -0.096,0.003 -0.2032,0.0254 -0.10442,0.0197 -0.19473,0.0621 -0.0875,0.0423 -0.14394,0.11288 -0.0536,0.0677 -0.0508,0.16651 0.006,0.10443 0.0677,0.15805 0.0649,0.0508 0.15239,0.0508 0.11572,0 0.20038,-0.0423 0.0875,-0.0452 0.17216,-0.12418 -0.003,-0.031 -0.003,-0.0677 0,-0.0367 0,-0.0762 0,-0.0141 0,-0.0903 0.003,-0.0762 0.003,-0.17497 z m 1.13453,0.7366 q -0.0649,0 -0.13264,-0.0198 -0.0677,-0.0169 -0.127,-0.0706 -0.0564,-0.0536 -0.0903,-0.15522 -0.0339,-0.10442 -0.0339,-0.27375 l 0.006,-0.81845 -0.21732,0.003 v -0.12136 q 0.0734,-0.003 0.14958,-0.0536 0.0762,-0.0536 0.13547,-0.14394 0.0621,-0.0903 0.0847,-0.19755 h 0.096 v 0.39511 h 0.47413 v 0.11007 l -0.47413,0.006 -0.006,0.78458 q 0,0.127 0.0198,0.21731 0.0226,0.0875 0.0706,0.13264 0.048,0.0452 0.12417,0.0452 0.079,0 0.14676,-0.0452 0.0706,-0.0452 0.12418,-0.12417 l 0.0762,0.0621 q -0.0621,0.0931 -0.12418,0.14676 -0.0593,0.0536 -0.11571,0.079 -0.0564,0.0282 -0.10442,0.0339 -0.048,0.008 -0.0818,0.008 z m 1.15711,0 q -0.1524,0 -0.25682,-0.0564 -0.1016,-0.0564 -0.15523,-0.19191 -0.0508,-0.13547 -0.0508,-0.36689 v -0.50235 q 0,-0.0452 0,-0.0903 0.003,-0.0452 0.0113,-0.0931 -0.048,0.003 -0.0988,0.006 -0.048,0 -0.096,0.003 v -0.11571 h 0.0875 q 0.12135,0 0.17498,-0.0226 0.0564,-0.0254 0.0875,-0.0536 h 0.0818 v 0.86078 q 0,0.24271 0.0677,0.36406 0.0706,0.11853 0.23707,0.11571 0.10724,-0.003 0.2032,-0.0649 0.0988,-0.0649 0.15804,-0.1524 v -0.72531 q 0,-0.0677 0.003,-0.11571 0.003,-0.0508 0.0113,-0.0988 -0.0508,0.003 -0.1016,0.006 -0.0508,0 -0.1016,0.003 v -0.11571 h 0.0875 q 0.12136,0 0.17498,-0.0226 0.0564,-0.0254 0.0875,-0.0536 h 0.0819 l -0.003,1.0668 q 0,0.0452 -0.003,0.127 -0.003,0.0818 -0.008,0.13829 0.0508,-0.003 0.1016,-0.006 0.0508,-0.003 0.1016,-0.006 v 0.11853 h -0.40357 q -0.008,-0.048 -0.0141,-0.0903 -0.003,-0.0423 -0.006,-0.079 -0.0875,0.0875 -0.21167,0.1524 -0.12417,0.0621 -0.24835,0.0621 z m 1.08938,-0.12983 q 0.0875,0 0.12135,-0.0423 0.0339,-0.0452 0.0395,-0.12136 0.006,-0.079 0.006,-0.18062 V 133.108 q 0,-0.0452 0,-0.0903 0.003,-0.0452 0.0113,-0.0931 -0.0508,0.003 -0.1016,0.006 -0.048,0 -0.0988,0.003 v -0.11571 h 0.0875 q 0.12135,0 0.16651,-0.0226 0.048,-0.0254 0.079,-0.0536 h 0.0819 q 0.006,0.0452 0.008,0.11289 0.003,0.0649 0.006,0.16651 0.0423,-0.0706 0.11571,-0.13829 0.0734,-0.0677 0.16369,-0.11289 0.0931,-0.0452 0.19473,-0.0452 0.079,0 0.13829,0.0423 0.0593,0.0423 0.0593,0.13546 0,0.0226 -0.0141,0.0565 -0.0141,0.031 -0.0451,0.0564 -0.0311,0.0226 -0.0819,0.0226 -0.0621,-0.003 -0.0988,-0.048 -0.0367,-0.048 -0.0282,-0.11006 -0.0705,-0.003 -0.14675,0.0367 -0.0734,0.0395 -0.13829,0.11006 -0.0649,0.0677 -0.11571,0.16087 l 0.003,0.69426 q 0,0.0565 -0.003,0.1016 0,0.0423 -0.008,0.0903 0.0452,-0.003 0.0875,-0.003 0.0452,-0.003 0.0903,-0.006 v 0.11571 h -0.57855 z m 2.06022,0.0847 q -0.008,-0.048 -0.0113,-0.0847 -0.003,-0.0367 -0.008,-0.0762 -0.096,0.096 -0.20884,0.1524 -0.11007,0.0536 -0.23424,0.0536 -0.21449,0 -0.31891,-0.096 -0.10443,-0.0988 -0.10443,-0.23989 0,-0.12982 0.079,-0.22295 0.0818,-0.096 0.20884,-0.15523 0.12982,-0.0621 0.2794,-0.0903 0.1524,-0.031 0.29351,-0.0282 v -0.17498 q 0,-0.0988 -0.0169,-0.18626 -0.0169,-0.0875 -0.0734,-0.14394 -0.0564,-0.0564 -0.18062,-0.0593 -0.0819,-0.003 -0.16934,0.031 -0.0847,0.0339 -0.12417,0.11571 0.0226,0.0226 0.0282,0.0536 0.008,0.0282 0.008,0.0536 0,0.0339 -0.0282,0.079 -0.0282,0.0423 -0.0988,0.0395 -0.0593,0 -0.0903,-0.0395 -0.031,-0.0423 -0.031,-0.0988 0,-0.096 0.0706,-0.17215 0.0734,-0.0762 0.20037,-0.12136 0.127,-0.0452 0.28787,-0.0452 0.23707,0 0.34995,0.127 0.11289,0.12418 0.11007,0.39512 0,0.10442 0,0.21166 0,0.10442 -0.003,0.21167 0,0.10442 0,0.21166 0,0.0452 -0.003,0.0903 -0.003,0.0452 -0.008,0.1016 0.0508,-0.003 0.0988,-0.006 0.0508,-0.003 0.1016,-0.006 v 0.11853 z m -0.0254,-0.69144 q -0.096,0.003 -0.2032,0.0254 -0.10442,0.0197 -0.19473,0.0621 -0.0875,0.0423 -0.14394,0.11288 -0.0536,0.0677 -0.0508,0.16651 0.006,0.10443 0.0677,0.15805 0.0649,0.0508 0.1524,0.0508 0.11571,0 0.20037,-0.0423 0.0875,-0.0452 0.17216,-0.12418 -0.003,-0.031 -0.003,-0.0677 0,-0.0367 0,-0.0762 0,-0.0141 0,-0.0903 0.003,-0.0762 0.003,-0.17497 z m 0.59549,0.60677 q 0.0875,0 0.12135,-0.0423 0.0339,-0.0452 0.0395,-0.12136 0.006,-0.079 0.006,-0.18062 v -1.33491 q 0,-0.0452 0,-0.0847 0.003,-0.0423 0.008,-0.0988 -0.0508,0.003 -0.1016,0.006 -0.048,0.003 -0.0988,0.006 v -0.11854 q 0.12418,0 0.19191,-0.0113 0.0706,-0.0113 0.10442,-0.0282 0.0367,-0.0169 0.0564,-0.0367 h 0.0818 l 0.003,1.83162 q 0,0.0565 -0.003,0.1016 -0.003,0.0423 -0.0113,0.0903 0.0452,-0.003 0.0875,-0.003 0.0452,-0.003 0.0903,-0.006 v 0.11571 h -0.57573 z m 2.54846,0.12983 q -0.26811,0 -0.46002,-0.0903 -0.19191,-0.0903 -0.31326,-0.23988 -0.11854,-0.1524 -0.17498,-0.33585 -0.0564,-0.18344 -0.0564,-0.36689 0,-0.1778 0.0593,-0.35842 0.0593,-0.18344 0.18062,-0.33584 0.12418,-0.1524 0.30762,-0.24554 0.18627,-0.0931 0.43463,-0.0931 0.25964,0 0.44873,0.0931 0.18909,0.0931 0.31044,0.24836 0.12418,0.1524 0.18345,0.33302 0.0621,0.18062 0.0621,0.35842 0,0.17498 -0.0593,0.35843 -0.0593,0.18062 -0.18344,0.33584 -0.12136,0.1524 -0.3048,0.24553 -0.18345,0.0931 -0.43463,0.0931 z m 0.006,-0.11572 q 0.17498,0 0.3048,-0.0734 0.12982,-0.0762 0.21449,-0.20038 0.0875,-0.127 0.12982,-0.2794 0.0452,-0.15522 0.0452,-0.31044 0,-0.17498 -0.048,-0.34714 -0.048,-0.17215 -0.14111,-0.31326 -0.0931,-0.14112 -0.23143,-0.22578 -0.13546,-0.0875 -0.31044,-0.0875 -0.17498,0 -0.30762,0.0762 -0.12982,0.0762 -0.21731,0.2032 -0.0847,0.12418 -0.12983,0.2794 -0.0423,0.1524 -0.0423,0.31044 0,0.15523 0.0423,0.32456 0.0452,0.16933 0.13547,0.31609 0.0903,0.14675 0.2286,0.23706 0.13829,0.0903 0.32738,0.0903 z m 1.22484,-0.0141 q 0.0875,0 0.12136,-0.0423 0.0339,-0.0452 0.0395,-0.12136 0.006,-0.079 0.006,-0.18062 v -0.64346 q 0,-0.0452 0,-0.0903 0.003,-0.0452 0.0113,-0.0931 -0.0508,0.003 -0.1016,0.006 -0.048,0 -0.0988,0.003 v -0.11571 h 0.0875 q 0.12135,0 0.16651,-0.0226 0.048,-0.0254 0.079,-0.0536 h 0.0818 q 0.006,0.0452 0.008,0.11289 0.003,0.0649 0.006,0.16651 0.0423,-0.0706 0.11571,-0.13829 0.0734,-0.0677 0.16369,-0.11289 0.0931,-0.0452 0.19474,-0.0452 0.079,0 0.13829,0.0423 0.0593,0.0423 0.0593,0.13546 0,0.0226 -0.0141,0.0565 -0.0141,0.031 -0.0452,0.0564 -0.031,0.0226 -0.0819,0.0226 -0.0621,-0.003 -0.0988,-0.048 -0.0367,-0.048 -0.0282,-0.11006 -0.0705,-0.003 -0.14675,0.0367 -0.0734,0.0395 -0.13829,0.11006 -0.0649,0.0677 -0.11571,0.16087 l 0.003,0.69426 q 0,0.0565 -0.003,0.1016 0,0.0423 -0.008,0.0903 0.0452,-0.003 0.0875,-0.003 0.0452,-0.003 0.0903,-0.006 v 0.11571 h -0.57856 z m 1.80623,0.12983 q -0.17216,0 -0.31045,-0.0847 -0.13829,-0.0875 -0.22013,-0.24836 -0.079,-0.16086 -0.079,-0.37817 0,-0.23143 0.0931,-0.40923 0.0931,-0.1778 0.25682,-0.2794 0.16651,-0.1016 0.37536,-0.1016 0.0931,0 0.18344,0.0254 0.0931,0.0226 0.14676,0.0536 v -0.38665 q 0,-0.0452 0,-0.0847 0.003,-0.0423 0.008,-0.0988 -0.0508,0.003 -0.1016,0.006 -0.048,0.003 -0.0988,0.006 v -0.11854 q 0.12418,0 0.19191,-0.0113 0.0677,-0.0113 0.1016,-0.0282 0.0367,-0.0169 0.0564,-0.0367 h 0.0819 v 1.83162 q 0,0.0452 -0.003,0.0903 -0.003,0.0452 -0.008,0.1016 0.0508,-0.003 0.0988,-0.006 0.0508,-0.003 0.1016,-0.006 v 0.11853 h -0.40358 q -0.008,-0.0423 -0.0141,-0.0762 -0.003,-0.0367 -0.006,-0.0706 -0.079,0.0875 -0.19473,0.14112 -0.11571,0.0508 -0.25682,0.0508 z m 0.1016,-0.13829 q 0.0931,0 0.18626,-0.0536 0.096,-0.0536 0.15805,-0.13264 -0.003,-0.0339 -0.003,-0.0706 0,-0.0395 0,-0.0847 l 0.003,-0.8128 q -0.0677,-0.0508 -0.14958,-0.0734 -0.079,-0.0254 -0.16369,-0.0254 -0.14111,0 -0.24553,0.0819 -0.10442,0.0818 -0.15805,0.2286 -0.0536,0.14675 -0.048,0.34431 0.006,0.17215 0.0536,0.30762 0.0508,0.13546 0.14111,0.21449 0.0931,0.0762 0.22578,0.0762 z m 1.66511,0.13829 q -0.19474,0 -0.35278,-0.0903 -0.15522,-0.0931 -0.24553,-0.25964 -0.0903,-0.16933 -0.0903,-0.39793 0,-0.19756 0.0875,-0.36971 0.0903,-0.17216 0.25118,-0.27658 0.16087,-0.10725 0.37253,-0.10725 0.11854,0 0.22014,0.0395 0.10442,0.0367 0.18344,0.11571 0.079,0.0762 0.12418,0.19473 0.0452,0.11571 0.0452,0.27376 l -0.99343,0.0169 q 0,0.21449 0.0452,0.37818 0.048,0.16086 0.1524,0.25117 0.10442,0.0875 0.26811,0.0875 0.0875,0 0.1778,-0.031 0.0931,-0.031 0.17216,-0.0847 0.079,-0.0536 0.127,-0.11853 l 0.0677,0.0564 q -0.0762,0.11854 -0.18345,0.18909 -0.10724,0.0706 -0.22013,0.1016 -0.11289,0.031 -0.20884,0.031 z M 115.392,133.2463 h 0.71967 q 0,-0.1016 -0.031,-0.19474 -0.0282,-0.096 -0.096,-0.15522 -0.0677,-0.0621 -0.1778,-0.0621 -0.16369,0 -0.27376,0.0988 -0.10724,0.0959 -0.14111,0.31327 z m 1.23613,0.84948 q 0.0875,0 0.12136,-0.0423 0.0339,-0.0452 0.0395,-0.12136 0.006,-0.079 0.006,-0.18062 v -0.64346 q 0,-0.0452 0,-0.0903 0.003,-0.0452 0.0113,-0.0931 -0.0508,0.003 -0.1016,0.006 -0.048,0 -0.0988,0.003 v -0.11571 h 0.0875 q 0.12136,0 0.16651,-0.0226 0.048,-0.0254 0.079,-0.0536 h 0.0818 q 0.006,0.0452 0.008,0.11289 0.003,0.0649 0.006,0.16651 0.0423,-0.0706 0.11571,-0.13829 0.0734,-0.0677 0.16369,-0.11289 0.0931,-0.0452 0.19473,-0.0452 0.079,0 0.13829,0.0423 0.0593,0.0423 0.0593,0.13546 0,0.0226 -0.0141,0.0565 -0.0141,0.031 -0.0452,0.0564 -0.031,0.0226 -0.0818,0.0226 -0.0621,-0.003 -0.0988,-0.048 -0.0367,-0.048 -0.0282,-0.11006 -0.0706,-0.003 -0.14676,0.0367 -0.0734,0.0395 -0.13829,0.11006 -0.0649,0.0677 -0.11571,0.16087 l 0.003,0.69426 q 0,0.0565 -0.003,0.1016 0,0.0423 -0.008,0.0903 0.0452,-0.003 0.0875,-0.003 0.0452,-0.003 0.0903,-0.006 v 0.11571 h -0.57855 z"
         id="text6"
         inkscape:label="caption—Civilization's natural order"
         aria-label="Civilization's Natural Order" />
      <path
         d="m 94.501093,130.315 -0.369711,-1.08373 q -0.01975,-0.0593 -0.03669,-0.1016 -0.01411,-0.0423 -0.02258,-0.0734 -0.0085,-0.031 -0.01411,-0.0536 l -0.149577,0.008 v -0.11571 h 0.59831 v 0.0847 q -0.127,0.003 -0.141111,0.0875 -0.01129,0.0818 0.03387,0.21731 l 0.129822,0.39511 q 0.02258,0.0677 0.04516,0.13829 0.02258,0.0677 0.04516,0.13547 0.0254,-0.0762 0.0508,-0.1524 0.02822,-0.079 0.05362,-0.15805 l 0.251178,-0.74789 h 0.115711 l 0.285044,0.82127 q 0.02258,0.0621 0.04516,0.127 0.02258,0.0649 0.04516,0.12982 0.02258,-0.0621 0.04233,-0.12135 0.02258,-0.0621 0.04233,-0.12418 l 0.186266,-0.53622 q 0.01976,-0.0564 0.03951,-0.10725 0.01976,-0.0508 0.04516,-0.0818 l -0.163689,0.008 v -0.11571 h 0.491066 v 0.0847 q -0.07338,0.003 -0.121355,0.0198 -0.04516,0.0169 -0.0762,0.0451 -0.03104,0.0282 -0.0508,0.0677 -0.01975,0.0395 -0.03669,0.0903 l -0.406399,1.11195 h -0.112889 l -0.268111,-0.77047 q -0.01693,-0.0508 -0.03387,-0.0988 -0.01693,-0.0508 -0.03387,-0.0988 -0.01693,-0.0508 -0.03387,-0.0988 -0.01693,0.048 -0.03387,0.0988 -0.01693,0.048 -0.03387,0.0988 -0.01693,0.048 -0.03387,0.0988 l -0.265289,0.77047 z m 2.441224,0.0367 q -0.197555,0 -0.358421,-0.0903 -0.160867,-0.0931 -0.256822,-0.254 -0.09313,-0.16369 -0.09313,-0.37253 0,-0.22296 0.09313,-0.40076 0.09313,-0.1778 0.253999,-0.2794 0.160867,-0.10442 0.361244,-0.10442 0.197556,0 0.358422,0.096 0.160867,0.0931 0.256822,0.254 0.09596,0.16087 0.09596,0.36689 0,0.21731 -0.09596,0.39794 -0.09313,0.17779 -0.253999,0.28222 -0.160867,0.10442 -0.361245,0.10442 z m 0.02258,-0.11289 q 0.149578,0 0.237067,-0.0847 0.08749,-0.0847 0.124177,-0.22013 0.03951,-0.13547 0.03951,-0.28504 0,-0.127 -0.0254,-0.24836 -0.02258,-0.12418 -0.07338,-0.22295 -0.0508,-0.1016 -0.132645,-0.16087 -0.07902,-0.0593 -0.191911,-0.0593 -0.146755,0 -0.239888,0.0847 -0.09313,0.0847 -0.138289,0.22013 -0.04233,0.13547 -0.04233,0.29069 0,0.17498 0.04798,0.33302 0.04798,0.15523 0.146756,0.254 0.09878,0.0988 0.248355,0.0988 z m 0.928508,-0.0169 q 0.08749,0 0.121356,-0.0423 0.03387,-0.0452 0.03951,-0.12135 0.0056,-0.079 0.0056,-0.18062 v -0.64347 q 0,-0.0452 0,-0.0903 0.0028,-0.0452 0.01129,-0.0931 -0.0508,0.003 -0.1016,0.006 -0.04798,0 -0.09878,0.003 v -0.11571 h 0.08749 q 0.121356,0 0.166511,-0.0226 0.04798,-0.0254 0.07902,-0.0536 h 0.08185 q 0.0056,0.0452 0.0085,0.11289 0.0028,0.0649 0.0056,0.16651 0.04233,-0.0705 0.115711,-0.13829 0.07338,-0.0677 0.163689,-0.11289 0.09313,-0.0452 0.194733,-0.0452 0.07902,0 0.138289,0.0423 0.05927,0.0423 0.05927,0.13547 0,0.0226 -0.01411,0.0564 -0.01411,0.031 -0.04515,0.0565 -0.03105,0.0226 -0.08185,0.0226 -0.06209,-0.003 -0.09878,-0.048 -0.03669,-0.048 -0.02822,-0.11007 -0.07055,-0.003 -0.146755,0.0367 -0.07338,0.0395 -0.138289,0.11007 -0.06491,0.0677 -0.115711,0.16086 l 0.0028,0.69427 q 0,0.0564 -0.0028,0.1016 0,0.0423 -0.0085,0.0903 0.04516,-0.003 0.08749,-0.003 0.04516,-0.003 0.09031,-0.006 v 0.11571 h -0.578555 z m 1.185335,0.0847 v -0.0847 q 0.08749,0 0.118533,-0.0423 0.03387,-0.0452 0.03951,-0.12135 0.0056,-0.079 0.0056,-0.18062 l 0.0028,-1.33491 q 0,-0.0452 0,-0.0847 0.0028,-0.0423 0.0085,-0.0988 -0.0508,0.003 -0.1016,0.006 -0.04798,0.003 -0.09878,0.006 v -0.11853 q 0.124177,0 0.191911,-0.0113 0.06773,-0.0113 0.1016,-0.0282 0.03669,-0.0169 0.05644,-0.0367 h 0.08184 v 1.33491 h 0.112889 l 0.344311,-0.36125 q 0.04798,-0.048 0.08748,-0.0847 0.0395,-0.0395 0.079,-0.0649 l -0.19171,0.008 v -0.11289 h 0.51344 v 0.0847 q -0.096,0.008 -0.18062,0.0621 -0.0819,0.0508 -0.1524,0.11571 -0.0677,0.0649 -0.118331,0.11853 L 99.759,129.50814 q 0.05644,0.0254 0.09596,0.0649 0.03951,0.0395 0.07902,0.0875 l 0.2002,0.25682 q 0.0141,0.0169 0.048,0.0649 0.0367,0.048 0.0847,0.10442 0.0508,0.0564 0.10442,0.096 0.0564,0.0395 0.10443,0.0395 v 0.0847 h -0.25683 q -0.079,0 -0.14957,-0.0818 -0.0706,-0.0819 -0.149401,-0.18344 -0.07338,-0.1016 -0.132644,-0.18345 -0.05644,-0.0847 -0.104422,-0.14675 -0.04516,-0.0621 -0.08184,-0.096 l -0.115711,0.006 v 0.38665 q 0,0.0564 -0.0028,0.1016 0,0.0423 -0.0085,0.0903 0.04516,-0.003 0.09031,-0.003 0.04516,-0.003 0.09031,-0.006 v 0.11571 z m 2.20415,0.0452 q -0.19473,0 -0.35277,-0.0903 -0.15523,-0.0931 -0.24554,-0.25965 -0.0903,-0.16933 -0.0903,-0.39793 0,-0.19755 0.0875,-0.36971 0.0903,-0.17216 0.25118,-0.27658 0.16086,-0.10724 0.37253,-0.10724 0.11853,0 0.22013,0.0395 0.10443,0.0367 0.18345,0.11571 0.079,0.0762 0.12418,0.19473 0.0451,0.11571 0.0451,0.27376 l -0.99342,0.0169 q 0,0.21449 0.0452,0.37818 0.048,0.16087 0.1524,0.25118 0.10442,0.0875 0.26811,0.0875 0.0875,0 0.1778,-0.031 0.0931,-0.031 0.17215,-0.0847 0.079,-0.0536 0.127,-0.11853 l 0.0677,0.0564 q -0.0762,0.11853 -0.18344,0.18908 -0.10724,0.0706 -0.22013,0.1016 -0.11289,0.031 -0.20885,0.031 z m -0.38946,-0.97931 h 0.71966 q 0,-0.1016 -0.031,-0.19473 -0.0282,-0.096 -0.096,-0.15523 -0.0677,-0.0621 -0.1778,-0.0621 -0.16369,0 -0.27375,0.0988 -0.10725,0.096 -0.14111,0.31327 z m 1.23613,0.84949 q 0.0875,0 0.12135,-0.0423 0.0339,-0.0452 0.0395,-0.12135 0.006,-0.079 0.006,-0.18062 v -0.64347 q 0,-0.0452 0,-0.0903 0.003,-0.0452 0.0113,-0.0931 -0.0508,0.003 -0.1016,0.006 -0.048,0 -0.0988,0.003 v -0.11571 h 0.0875 q 0.12135,0 0.16651,-0.0226 0.048,-0.0254 0.079,-0.0536 h 0.0819 q 0.006,0.0452 0.008,0.11289 0.003,0.0649 0.006,0.16651 0.0423,-0.0705 0.11571,-0.13829 0.0734,-0.0677 0.16369,-0.11289 0.0931,-0.0452 0.19473,-0.0452 0.079,0 0.13829,0.0423 0.0593,0.0423 0.0593,0.13547 0,0.0226 -0.0141,0.0564 -0.0141,0.031 -0.0452,0.0565 -0.031,0.0226 -0.0818,0.0226 -0.0621,-0.003 -0.0988,-0.048 -0.0367,-0.048 -0.0282,-0.11007 -0.0706,-0.003 -0.14676,0.0367 -0.0734,0.0395 -0.13829,0.11007 -0.0649,0.0677 -0.11571,0.16086 l 0.003,0.69427 q 0,0.0564 -0.003,0.1016 0,0.0423 -0.008,0.0903 0.0452,-0.003 0.0875,-0.003 0.0452,-0.003 0.0903,-0.006 v 0.11571 h -0.57855 z m 1.80058,0.12982 q -0.14112,0 -0.25118,-0.0395 -0.11007,-0.0367 -0.18062,-0.0847 l 0.0113,0.0988 h -0.11854 l -0.0169,-0.48542 h 0.0875 q 0.006,0.11571 0.0649,0.20884 0.0593,0.0903 0.1524,0.14111 0.0931,0.0508 0.20038,0.0508 0.0734,0 0.14393,-0.0226 0.0705,-0.0254 0.11853,-0.0734 0.048,-0.0508 0.048,-0.127 0,-0.079 -0.048,-0.12982 -0.0451,-0.0536 -0.12135,-0.0931 -0.0762,-0.0395 -0.16369,-0.0734 -0.0847,-0.0339 -0.16933,-0.0705 -0.0847,-0.0367 -0.15805,-0.0875 -0.0705,-0.0508 -0.11289,-0.12418 -0.0423,-0.0734 -0.0423,-0.18062 0,-0.0593 0.0226,-0.12982 0.0226,-0.0706 0.0762,-0.13265 0.0536,-0.0649 0.14675,-0.10442 0.0931,-0.0423 0.23707,-0.0423 0.0762,0 0.16933,0.0254 0.0931,0.0254 0.18062,0.0959 l -0.006,-0.10724 h 0.11853 v 0.49389 h -0.0903 q -0.006,-0.0988 -0.0451,-0.18909 -0.0395,-0.0931 -0.11572,-0.1524 -0.0762,-0.0621 -0.19755,-0.0621 -0.12982,0 -0.2032,0.0649 -0.0734,0.0649 -0.0734,0.14958 0,0.0875 0.0536,0.14675 0.0564,0.0564 0.14394,0.0988 0.0875,0.0423 0.18626,0.0818 0.10725,0.0452 0.20885,0.0988 0.1016,0.0536 0.16651,0.13547 0.0649,0.079 0.0649,0.20602 0,0.14111 -0.0734,0.23425 -0.0705,0.0931 -0.18344,0.13546 -0.11007,0.0452 -0.23142,0.0452 z m 0.94826,0 q -0.0649,0 -0.11571,-0.0508 -0.048,-0.0536 -0.048,-0.12982 0,-0.0762 0.0508,-0.12982 0.0508,-0.0536 0.11571,-0.0536 0.0706,0 0.11571,0.0536 0.048,0.0536 0.048,0.12982 0,0.0762 -0.0508,0.12982 -0.0508,0.0508 -0.11571,0.0508 z m 0.69427,0 q -0.0649,0 -0.11571,-0.0508 -0.048,-0.0536 -0.048,-0.12982 0,-0.0762 0.0508,-0.12982 0.0508,-0.0536 0.11571,-0.0536 0.0706,0 0.11571,0.0536 0.048,0.0536 0.048,0.12982 0,0.0762 -0.0508,0.12982 -0.0508,0.0508 -0.11571,0.0508 z m 0.69426,0 q -0.0649,0 -0.11571,-0.0508 -0.048,-0.0536 -0.048,-0.12982 0,-0.0762 0.0508,-0.12982 0.0508,-0.0536 0.11571,-0.0536 0.0705,0 0.11571,0.0536 0.048,0.0536 0.048,0.12982 0,0.0762 -0.0508,0.12982 -0.0508,0.0508 -0.11572,0.0508 z"
         id="text11"
         style="font-size:2.82222px;line-height:1.25;font-family:Lora;-inkscape-font-specification:Lora;stroke-width:0.0496066"
         inkscape:label="workers"
         aria-label="workers..." />
      <path
         d="m 96.097841,122.14383 q -0.194733,0 -0.352777,-0.0903 -0.155222,-0.0931 -0.245534,-0.25965 -0.09031,-0.16933 -0.09031,-0.39793 0,-0.19756 0.08749,-0.36971 0.09031,-0.17216 0.251178,-0.27658 0.160866,-0.10724 0.372533,-0.10724 0.118533,0 0.220133,0.0395 0.104422,0.0367 0.183444,0.11571 0.07902,0.0762 0.124178,0.19473 0.04516,0.11571 0.04516,0.27376 l -0.993422,0.0169 q 0,0.21449 0.04516,0.37818 0.04798,0.16086 0.1524,0.25117 0.104422,0.0875 0.26811,0.0875 0.08749,0 0.1778,-0.031 0.09313,-0.0311 0.172156,-0.0847 0.07902,-0.0536 0.127,-0.11853 l 0.06773,0.0564 q -0.0762,0.11854 -0.183444,0.18909 -0.107245,0.0706 -0.220134,0.1016 -0.112888,0.031 -0.208844,0.031 z m -0.389466,-0.97931 h 0.719666 q 0,-0.1016 -0.03105,-0.19474 -0.02822,-0.096 -0.09595,-0.15522 -0.06773,-0.0621 -0.1778,-0.0621 -0.163689,0 -0.273755,0.0988 -0.107245,0.096 -0.141111,0.31327 z m 1.165579,0.93415 v -0.0847 q 0.08749,-0.0226 0.138288,-0.0734 0.0508,-0.0536 0.129822,-0.15523 l 0.282222,-0.36688 q -0.03951,-0.0536 -0.09596,-0.127 -0.05644,-0.0762 -0.107244,-0.14394 -0.04798,-0.0706 -0.0762,-0.10442 -0.06773,-0.0903 -0.09878,-0.14958 -0.03104,-0.0593 -0.04516,-0.096 l -0.132644,0.006 v -0.11571 h 0.581377 v 0.0847 q -0.126999,0.003 -0.143933,0.0593 -0.01411,0.0536 0.09031,0.19756 l 0.163689,0.22295 0.256822,-0.31044 q 0.04233,-0.0508 0.07056,-0.0847 0.02822,-0.0367 0.05644,-0.0649 l -0.194733,0.0113 v -0.11571 h 0.462844 v 0.0847 q -0.0762,0.0226 -0.129822,0.0593 -0.05362,0.0339 -0.107245,0.0931 -0.0508,0.0564 -0.127,0.14957 l -0.21731,0.25965 0.389466,0.4826 q 0.03104,0.0423 0.06209,0.0818 0.03104,0.0395 0.06209,0.0931 l 0.126999,-0.008 v 0.11571 h -0.544688 v -0.0847 q 0.06773,0 0.09596,-0.031 0.03105,-0.0339 -0.02822,-0.10724 l -0.296333,-0.36689 -0.237066,0.32455 q -0.04233,0.0564 -0.06491,0.0847 -0.02258,0.0282 -0.06491,0.0734 l 0.217311,-0.008 v 0.11571 z m 1.526822,0.71967 v -0.0847 q 0.08749,0 0.121356,-0.0452 0.03387,-0.0423 0.03951,-0.12135 0.0056,-0.0762 0.0056,-0.1778 l 0.0056,-1.36313 q 0,-0.0452 0,-0.0903 0.0028,-0.0452 0.01129,-0.0931 -0.0508,0.003 -0.1016,0.006 -0.04798,0.003 -0.09878,0.006 v -0.11853 q 0.124178,0 0.186267,-0.0113 0.06491,-0.0113 0.09313,-0.0282 0.03104,-0.0169 0.0508,-0.0367 h 0.08467 q 0.0028,0.0282 0.0056,0.0677 0.0028,0.0367 0.0056,0.0847 0.08467,-0.0762 0.200378,-0.12136 0.118533,-0.048 0.237066,-0.048 0.163689,0 0.3048,0.0847 0.141111,0.0847 0.2286,0.24271 0.08749,0.15522 0.08749,0.37254 0,0.23988 -0.1016,0.42051 -0.09878,0.18062 -0.262467,0.28222 -0.163688,0.0988 -0.355599,0.0988 -0.09878,0 -0.183445,-0.0254 -0.08184,-0.0226 -0.155222,-0.0677 v 0.46849 q 0,0.0564 -0.0028,0.0988 0,0.0452 -0.0085,0.0931 0.04516,-0.003 0.08749,-0.006 0.04516,0 0.09031,-0.003 v 0.11571 z m 0.742244,-0.7874 q 0.135467,0 0.231422,-0.0819 0.09878,-0.0847 0.149578,-0.2286 0.05362,-0.14675 0.05362,-0.33302 0,-0.1524 -0.04516,-0.29069 -0.04233,-0.14111 -0.138289,-0.2286 -0.09313,-0.0875 -0.248356,-0.0875 -0.09595,0 -0.186266,0.048 -0.08749,0.0452 -0.146755,0.11007 0,0.0113 0,0.0339 0.0028,0.0198 0.0028,0.0734 0,0.0508 0,0.15522 0,0.1016 -0.0028,0.27658 0,0.17498 0,0.44309 0.07056,0.0536 0.152399,0.0819 0.08467,0.0282 0.1778,0.0282 z m 1.651,0.11289 q -0.19473,0 -0.35278,-0.0903 -0.15522,-0.0931 -0.24553,-0.25965 -0.0903,-0.16933 -0.0903,-0.39793 0,-0.19756 0.0875,-0.36971 0.0903,-0.17216 0.25117,-0.27658 0.16087,-0.10724 0.37254,-0.10724 0.11853,0 0.22013,0.0395 0.10442,0.0367 0.18344,0.11571 0.079,0.0762 0.12418,0.19473 0.0452,0.11571 0.0452,0.27376 l -0.99342,0.0169 q 0,0.21449 0.0451,0.37818 0.048,0.16086 0.1524,0.25117 0.10442,0.0875 0.26811,0.0875 0.0875,0 0.1778,-0.031 0.0931,-0.0311 0.17216,-0.0847 0.079,-0.0536 0.127,-0.11853 l 0.0677,0.0564 q -0.0762,0.11854 -0.18344,0.18909 -0.10725,0.0706 -0.22014,0.1016 -0.11289,0.031 -0.20884,0.031 z m -0.38947,-0.97931 h 0.71967 q 0,-0.1016 -0.031,-0.19474 -0.0282,-0.096 -0.096,-0.15522 -0.0677,-0.0621 -0.1778,-0.0621 -0.16369,0 -0.27376,0.0988 -0.10724,0.096 -0.14111,0.31327 z m 1.23613,0.84948 q 0.0875,0 0.12136,-0.0423 0.0339,-0.0452 0.0395,-0.12135 0.006,-0.079 0.006,-0.18063 v -0.64346 q 0,-0.0452 0,-0.0903 0.003,-0.0452 0.0113,-0.0931 -0.0508,0.003 -0.1016,0.006 -0.048,0 -0.0988,0.003 v -0.11571 h 0.0875 q 0.12136,0 0.16652,-0.0226 0.048,-0.0254 0.079,-0.0536 h 0.0818 q 0.006,0.0452 0.008,0.11289 0.003,0.0649 0.006,0.16651 0.0423,-0.0706 0.11571,-0.13829 0.0734,-0.0677 0.16369,-0.11289 0.0931,-0.0452 0.19474,-0.0452 0.079,0 0.13829,0.0423 0.0593,0.0423 0.0593,0.13547 0,0.0226 -0.0141,0.0564 -0.0141,0.031 -0.0451,0.0564 -0.0311,0.0226 -0.0819,0.0226 -0.0621,-0.003 -0.0988,-0.048 -0.0367,-0.048 -0.0282,-0.11006 -0.0706,-0.003 -0.14675,0.0367 -0.0734,0.0395 -0.13829,0.11006 -0.0649,0.0677 -0.11571,0.16087 l 0.003,0.69427 q 0,0.0564 -0.003,0.1016 0,0.0423 -0.008,0.0903 0.0452,-0.003 0.0875,-0.003 0.0451,-0.003 0.0903,-0.006 v 0.11571 h -0.57856 z m 1.77236,0.12983 q -0.0649,0 -0.13264,-0.0198 -0.0677,-0.0169 -0.127,-0.0705 -0.0564,-0.0536 -0.0903,-0.15523 -0.0339,-0.10442 -0.0339,-0.27375 l 0.006,-0.81845 -0.21731,0.003 v -0.12136 q 0.0734,-0.003 0.14958,-0.0536 0.0762,-0.0536 0.13547,-0.14393 0.0621,-0.0903 0.0847,-0.19756 h 0.096 v 0.39511 h 0.47413 v 0.11007 l -0.47413,0.006 -0.006,0.78458 q 0,0.127 0.0198,0.21731 0.0226,0.0875 0.0706,0.13264 0.048,0.0452 0.12418,0.0452 0.079,0 0.14676,-0.0452 0.0705,-0.0451 0.12417,-0.12417 l 0.0762,0.0621 q -0.0621,0.0931 -0.12417,0.14675 -0.0593,0.0536 -0.11571,0.079 -0.0564,0.0282 -0.10443,0.0339 -0.048,0.008 -0.0818,0.008 z m 1.14017,0 q -0.14111,0 -0.25117,-0.0395 -0.11007,-0.0367 -0.18063,-0.0847 l 0.0113,0.0988 h -0.11853 l -0.0169,-0.48543 h 0.0875 q 0.006,0.11572 0.0649,0.20885 0.0593,0.0903 0.1524,0.14111 0.0931,0.0508 0.20037,0.0508 0.0734,0 0.14394,-0.0226 0.0705,-0.0254 0.11853,-0.0734 0.048,-0.0508 0.048,-0.127 0,-0.079 -0.048,-0.12982 -0.0451,-0.0536 -0.12135,-0.0931 -0.0762,-0.0395 -0.16369,-0.0734 -0.0847,-0.0339 -0.16934,-0.0705 -0.0847,-0.0367 -0.15804,-0.0875 -0.0706,-0.0508 -0.11289,-0.12418 -0.0423,-0.0734 -0.0423,-0.18062 0,-0.0593 0.0226,-0.12982 0.0226,-0.0706 0.0762,-0.13265 0.0536,-0.0649 0.14676,-0.10442 0.0931,-0.0423 0.23707,-0.0423 0.0762,0 0.16933,0.0254 0.0931,0.0254 0.18062,0.096 l -0.006,-0.10724 h 0.11853 v 0.49388 h -0.0903 q -0.006,-0.0988 -0.0452,-0.18908 -0.0395,-0.0931 -0.11571,-0.1524 -0.0762,-0.0621 -0.19755,-0.0621 -0.12982,0 -0.2032,0.0649 -0.0734,0.0649 -0.0734,0.14958 0,0.0875 0.0536,0.14675 0.0564,0.0564 0.14394,0.0988 0.0875,0.0423 0.18626,0.0818 0.10725,0.0452 0.20885,0.0988 0.1016,0.0536 0.16651,0.13547 0.0649,0.079 0.0649,0.20602 0,0.14111 -0.0734,0.23424 -0.0706,0.0931 -0.18344,0.13547 -0.11007,0.0452 -0.23143,0.0452 z"
         id="text13"
         style="font-size:2.82222px;line-height:1.25;font-family:Lora;-inkscape-font-specification:Lora;stroke-width:0.0496066"
         inkscape:label="experts"
         aria-label="experts" />
      <path
         d="m 96.890764,113.83195 q -0.194733,0 -0.352777,-0.0903 -0.155222,-0.0931 -0.245534,-0.25964 -0.09031,-0.16934 -0.09031,-0.39794 0,-0.19755 0.08749,-0.36971 0.09031,-0.17215 0.251178,-0.27657 0.160866,-0.10725 0.372533,-0.10725 0.118533,0 0.220133,0.0395 0.104422,0.0367 0.183444,0.11571 0.07902,0.0762 0.124178,0.19474 0.04516,0.11571 0.04516,0.27375 l -0.993422,0.0169 q 0,0.21449 0.04516,0.37818 0.04798,0.16087 0.152399,0.25118 0.104423,0.0875 0.268111,0.0875 0.08749,0 0.1778,-0.031 0.09313,-0.031 0.172156,-0.0847 0.07902,-0.0536 0.127,-0.11854 l 0.06773,0.0564 q -0.0762,0.11853 -0.183444,0.18909 -0.107245,0.0705 -0.220134,0.1016 -0.112888,0.031 -0.208844,0.031 z m -0.389466,-0.97931 h 0.719666 q 0,-0.1016 -0.03105,-0.19473 -0.02822,-0.096 -0.09596,-0.15522 -0.06773,-0.0621 -0.1778,-0.0621 -0.163689,0 -0.273755,0.0988 -0.107245,0.096 -0.141111,0.31326 z m 1.207909,0.84949 q 0.08749,0 0.121356,-0.0423 0.03387,-0.0452 0.03951,-0.12136 0.0056,-0.079 0.0056,-0.18062 v -1.33491 q 0,-0.0452 0,-0.0847 0.0028,-0.0423 0.0085,-0.0988 -0.0508,0.003 -0.1016,0.006 -0.04798,0.003 -0.09878,0.006 v -0.11853 q 0.124177,0 0.19191,-0.0113 0.07056,-0.0113 0.104423,-0.0282 0.03669,-0.0169 0.05644,-0.0367 h 0.08184 l 0.0028,1.83162 q 0,0.0564 -0.0028,0.1016 -0.0028,0.0423 -0.01129,0.0903 0.04515,-0.003 0.08749,-0.003 0.04516,-0.003 0.09031,-0.006 v 0.11571 h -0.575733 z m 1.39982,0.12982 q -0.172156,0 -0.310444,-0.0847 -0.138289,-0.0875 -0.220134,-0.24836 -0.07902,-0.16087 -0.07902,-0.37818 0,-0.23142 0.09313,-0.40922 0.09313,-0.1778 0.256822,-0.2794 0.166511,-0.1016 0.375355,-0.1016 0.09313,0 0.183444,0.0254 0.09313,0.0226 0.146756,0.0536 v -0.38664 q 0,-0.0452 0,-0.0847 0.0028,-0.0423 0.0085,-0.0988 -0.0508,0.003 -0.1016,0.006 -0.04798,0.003 -0.09878,0.006 v -0.11853 q 0.124177,0 0.191911,-0.0113 0.06773,-0.0113 0.101599,-0.0282 0.03669,-0.0169 0.05645,-0.0367 h 0.08184 v 1.83162 q 0,0.0452 -0.0028,0.0903 -0.0028,0.0452 -0.0085,0.1016 0.0508,-0.003 0.09878,-0.006 0.0508,-0.003 0.1016,-0.006 v 0.11854 h -0.403577 q -0.0085,-0.0423 -0.01411,-0.0762 -0.0028,-0.0367 -0.0056,-0.0706 -0.07902,0.0875 -0.194733,0.14111 -0.115711,0.0508 -0.256822,0.0508 z m 0.1016,-0.13829 q 0.09313,0 0.186266,-0.0536 0.09596,-0.0536 0.158045,-0.13264 -0.0028,-0.0339 -0.0028,-0.0706 0,-0.0395 0,-0.0847 l 0.0028,-0.81279 q -0.06773,-0.0508 -0.149578,-0.0734 -0.07902,-0.0254 -0.163689,-0.0254 -0.141111,0 -0.245533,0.0818 -0.104422,0.0819 -0.158044,0.2286 -0.05362,0.14676 -0.04798,0.34431 0.0056,0.17216 0.05362,0.30762 0.0508,0.13547 0.141111,0.21449 0.09313,0.0762 0.225778,0.0762 z m 1.665103,0.13829 q -0.19473,0 -0.35277,-0.0903 -0.15523,-0.0931 -0.24554,-0.25964 -0.0903,-0.16934 -0.0903,-0.39794 0,-0.19755 0.0875,-0.36971 0.0903,-0.17215 0.25118,-0.27657 0.16087,-0.10725 0.37253,-0.10725 0.11854,0 0.22014,0.0395 0.10442,0.0367 0.18344,0.11571 0.079,0.0762 0.12418,0.19474 0.0451,0.11571 0.0451,0.27375 l -0.99342,0.0169 q 0,0.21449 0.0452,0.37818 0.048,0.16087 0.1524,0.25118 0.10442,0.0875 0.26811,0.0875 0.0875,0 0.1778,-0.031 0.0931,-0.031 0.17215,-0.0847 0.079,-0.0536 0.127,-0.11854 l 0.0677,0.0564 q -0.0762,0.11853 -0.18345,0.18909 -0.10724,0.0705 -0.22013,0.1016 -0.11289,0.031 -0.20885,0.031 z m -0.38946,-0.97931 h 0.71966 q 0,-0.1016 -0.031,-0.19473 -0.0282,-0.096 -0.096,-0.15522 -0.0677,-0.0621 -0.1778,-0.0621 -0.16368,0 -0.27375,0.0988 -0.10725,0.096 -0.14111,0.31326 z m 1.23613,0.84949 q 0.0875,0 0.12136,-0.0423 0.0339,-0.0452 0.0395,-0.12136 0.006,-0.079 0.006,-0.18062 v -0.64347 q 0,-0.0451 0,-0.0903 0.003,-0.0451 0.0113,-0.0931 -0.0508,0.003 -0.1016,0.006 -0.048,0 -0.0988,0.003 v -0.11572 h 0.0875 q 0.12136,0 0.16651,-0.0226 0.048,-0.0254 0.079,-0.0536 h 0.0819 q 0.006,0.0452 0.008,0.11289 0.003,0.0649 0.006,0.16651 0.0423,-0.0705 0.11571,-0.13828 0.0734,-0.0677 0.16369,-0.11289 0.0931,-0.0452 0.19473,-0.0452 0.079,0 0.13829,0.0423 0.0593,0.0423 0.0593,0.13547 0,0.0226 -0.0141,0.0564 -0.0141,0.031 -0.0452,0.0564 -0.031,0.0226 -0.0818,0.0226 -0.0621,-0.003 -0.0988,-0.048 -0.0367,-0.048 -0.0282,-0.11007 -0.0706,-0.003 -0.14676,0.0367 -0.0734,0.0395 -0.13829,0.11007 -0.0649,0.0677 -0.11571,0.16086 l 0.003,0.69427 q 0,0.0564 -0.003,0.1016 0,0.0423 -0.008,0.0903 0.0451,-0.003 0.0875,-0.003 0.0452,-0.003 0.0903,-0.006 v 0.11571 h -0.57856 z m 1.80058,0.12982 q -0.14111,0 -0.25118,-0.0395 -0.11007,-0.0367 -0.18062,-0.0847 l 0.0113,0.0988 h -0.11854 l -0.0169,-0.48542 h 0.0875 q 0.006,0.11571 0.0649,0.20884 0.0593,0.0903 0.1524,0.14112 0.0931,0.0508 0.20038,0.0508 0.0734,0 0.14393,-0.0226 0.0706,-0.0254 0.11853,-0.0734 0.048,-0.0508 0.048,-0.127 0,-0.079 -0.048,-0.12982 -0.0452,-0.0536 -0.12135,-0.0931 -0.0762,-0.0395 -0.16369,-0.0734 -0.0847,-0.0339 -0.16933,-0.0706 -0.0847,-0.0367 -0.15805,-0.0875 -0.0705,-0.0508 -0.11289,-0.12418 -0.0423,-0.0734 -0.0423,-0.18062 0,-0.0593 0.0226,-0.12982 0.0226,-0.0706 0.0762,-0.13264 0.0536,-0.0649 0.14675,-0.10443 0.0931,-0.0423 0.23707,-0.0423 0.0762,0 0.16933,0.0254 0.0931,0.0254 0.18063,0.096 l -0.006,-0.10725 h 0.11853 v 0.49389 h -0.0903 q -0.006,-0.0988 -0.0452,-0.18909 -0.0395,-0.0931 -0.11571,-0.1524 -0.0762,-0.0621 -0.19756,-0.0621 -0.12982,0 -0.2032,0.0649 -0.0734,0.0649 -0.0734,0.14958 0,0.0875 0.0536,0.14676 0.0564,0.0564 0.14393,0.0988 0.0875,0.0423 0.18627,0.0819 0.10724,0.0451 0.20884,0.0988 0.1016,0.0536 0.16651,0.13546 0.0649,0.079 0.0649,0.20603 0,0.14111 -0.0734,0.23424 -0.0705,0.0931 -0.18344,0.13547 -0.11007,0.0452 -0.23142,0.0452 z"
         id="text14"
         style="font-size:2.82222px;line-height:1.25;font-family:Lora;-inkscape-font-specification:Lora;stroke-width:0.0496066"
         inkscape:label="elders"
         aria-label="elders" />
      <path
         style="font-size:2.82222px;line-height:1.25;font-family:Lora;-inkscape-font-specification:Lora;text-align:center;text-anchor:middle;stroke-width:0.0496066"
         d="m 97.304089,105.51826 q -0.189088,0 -0.349955,-0.0847 -0.158044,-0.0875 -0.254,-0.24836 -0.09313,-0.16369 -0.09313,-0.39229 0,-0.14675 0.05362,-0.28504 0.05362,-0.13829 0.149578,-0.24836 0.09878,-0.11288 0.234244,-0.1778 0.135467,-0.0649 0.299156,-0.0649 0.158044,0 0.273755,0.048 0.118533,0.048 0.183444,0.127 0.06491,0.079 0.06491,0.17216 0,0.0621 -0.03387,0.10724 -0.03387,0.0423 -0.09878,0.0423 -0.07056,0.003 -0.1016,-0.0423 -0.02822,-0.048 -0.02822,-0.0847 0,-0.0282 0.0085,-0.0564 0.0085,-0.0311 0.03387,-0.0564 -0.02258,-0.0677 -0.07902,-0.0988 -0.05644,-0.0339 -0.118533,-0.0423 -0.05927,-0.0113 -0.09878,-0.0113 -0.191911,0 -0.324555,0.15522 -0.129822,0.1524 -0.129822,0.44591 0,0.18909 0.05927,0.33584 0.06209,0.14676 0.172156,0.23142 0.110066,0.0819 0.253999,0.0819 0.132645,0 0.254,-0.0706 0.121356,-0.0705 0.189089,-0.17215 l 0.07338,0.0564 q -0.07338,0.11854 -0.1778,0.19191 -0.1016,0.0734 -0.211667,0.10725 -0.107244,0.0339 -0.2032,0.0339 z m 1.718731,-0.12982 q 0.08749,0 0.121356,-0.0423 0.03387,-0.0452 0.03951,-0.12136 0.0056,-0.079 0.0056,-0.18062 v -0.39511 q 0,-0.24271 -0.07902,-0.36407 -0.0762,-0.12135 -0.242711,-0.11853 -0.104422,0.003 -0.206022,0.0508 -0.09878,0.048 -0.160866,0.12418 v 0.83255 q 0,0.0564 -0.0028,0.1016 -0.0028,0.0423 -0.01129,0.0903 0.04515,-0.003 0.08749,-0.003 0.04516,-0.003 0.09031,-0.006 v 0.11571 h -0.575733 v -0.0847 q 0.08749,0 0.121356,-0.0423 0.03387,-0.0452 0.03951,-0.12136 0.0085,-0.079 0.0085,-0.18062 v -1.33491 q 0,-0.0452 0,-0.0847 0.0028,-0.0423 0.0085,-0.0988 -0.0508,0.003 -0.1016,0.006 -0.04798,0.003 -0.09878,0.006 v -0.11854 q 0.124177,0 0.191911,-0.0113 0.07055,-0.0113 0.104422,-0.0282 0.03669,-0.0169 0.05644,-0.0367 h 0.08185 v 0.86078 q 0.06209,-0.0536 0.138288,-0.0931 0.07902,-0.0423 0.160867,-0.0677 0.08467,-0.0254 0.163689,-0.0254 0.245533,0 0.352777,0.15523 0.110067,0.15239 0.112889,0.47695 l 0.0028,0.52493 q 0,0.0564 -0.0028,0.1016 0,0.0423 -0.0085,0.0903 0.04516,-0.003 0.08749,-0.003 0.04516,-0.003 0.09031,-0.006 v 0.11571 H 99.02283 Z m 0.78458,0 q 0.08749,0 0.121355,-0.0423 0.03387,-0.0452 0.03951,-0.12136 0.0056,-0.079 0.0056,-0.18062 v -0.64347 q 0,-0.0452 0.0028,-0.0847 0.0028,-0.0423 0.0085,-0.0988 -0.0508,0.003 -0.1016,0.006 -0.04798,0.003 -0.09878,0.006 v -0.11853 q 0.124178,0 0.191911,-0.0113 0.06772,-0.0113 0.101594,-0.0282 0.0367,-0.0169 0.0564,-0.0367 h 0.0818 v 1.14017 q 0,0.0564 -0.003,0.1016 0,0.0423 -0.008,0.0903 0.0452,-0.003 0.0875,-0.003 0.0452,-0.003 0.0903,-0.006 v 0.11571 h -0.575727 z m 0.27093,-1.63406 q -0.0593,0 -0.104419,-0.048 -0.04516,-0.048 -0.04516,-0.11853 0,-0.0706 0.04516,-0.11854 0.04798,-0.0508 0.107239,-0.0508 0.0649,0 0.10725,0.0508 0.0451,0.048 0.0451,0.11854 0,0.0706 -0.048,0.11853 -0.0452,0.048 -0.10725,0.048 z m 1.20509,1.76388 q -0.19473,0 -0.35278,-0.0903 -0.15522,-0.0931 -0.24553,-0.25964 -0.0903,-0.16933 -0.0903,-0.39793 0,-0.19756 0.0875,-0.36972 0.0903,-0.17215 0.25118,-0.27657 0.16086,-0.10725 0.37253,-0.10725 0.11853,0 0.22013,0.0395 0.10442,0.0367 0.18345,0.11572 0.079,0.0762 0.12417,0.19473 0.0452,0.11571 0.0452,0.27375 l -0.99342,0.0169 q 0,0.21449 0.0452,0.37817 0.048,0.16087 0.1524,0.25118 0.10443,0.0875 0.26811,0.0875 0.0875,0 0.1778,-0.031 0.0931,-0.031 0.17216,-0.0847 0.079,-0.0536 0.127,-0.11853 l 0.0677,0.0564 q -0.0762,0.11853 -0.18344,0.18909 -0.10725,0.0706 -0.22014,0.1016 -0.11288,0.031 -0.20884,0.031 z m -0.38947,-0.97931 h 0.71967 q 0,-0.1016 -0.031,-0.19473 -0.0282,-0.096 -0.096,-0.15522 -0.0677,-0.0621 -0.1778,-0.0621 -0.16369,0 -0.27375,0.0988 -0.10725,0.096 -0.14112,0.31326 z m 1.41394,-0.53622 q 0,-0.31326 0.11288,-0.49389 0.11572,-0.18062 0.39512,-0.18062 0.0621,0 0.12982,0.0226 0.0705,0.0197 0.12135,0.0677 0.0508,0.0452 0.0508,0.11854 0,0.0536 -0.031,0.0903 -0.0282,0.0367 -0.0847,0.0367 -0.0677,0.003 -0.096,-0.0395 -0.0254,-0.0451 -0.0254,-0.0762 0,-0.0169 0.003,-0.0339 0.003,-0.0169 0.0113,-0.0367 -0.0198,-0.0254 -0.0564,-0.0367 -0.0339,-0.0113 -0.0649,-0.0113 -0.0875,0 -0.13546,0.0508 -0.048,0.0508 -0.0677,0.127 -0.0198,0.0762 -0.0198,0.15805 v 0.29633 h 0.381 v 0.11007 l -0.381,0.008 0.003,0.99342 q 0,0.0564 -0.003,0.1016 0,0.0423 -0.008,0.0903 0.0452,-0.003 0.0875,-0.003 0.0452,-0.003 0.0903,-0.006 v 0.11571 h -0.57573 v -0.0847 q 0.0875,0 0.12135,-0.0423 0.0339,-0.0452 0.0395,-0.12136 0.006,-0.079 0.006,-0.18062 l -0.003,-0.86078 -0.23143,0.006 v -0.127 h 0.23143 z"
         id="text15"
         inkscape:label="chief"
         aria-label="chief" />
      <text
         xml:space="preserve"
         style="font-style:normal;font-variant:normal;font-weight:normal;font-stretch:normal;font-size:1.05833px;font-family:Lora;-inkscape-font-specification:Lora;display:none;opacity:1;fill:#000000;fill-opacity:0.0724907;stroke-width:0.264583"
         x="96.593712"
         y="119.82365"
         id="text23"
         inkscape:label="Paradise Lost"><tspan
           sodipodi:role="line"
           id="tspan15"
           style="font-style:normal;font-variant:normal;font-weight:normal;font-stretch:normal;font-size:1.05833px;font-family:Lora;-inkscape-font-specification:Lora;stroke-width:0.264583"
           x="0"
           y="0">Paradise Lost</tspan></text>
    </g>
    <g
       id="g89"
       transform="matrix(0.99999999,0,-0.06992681,0.99999999,82.479571,98.089363)"
       style="display:none;opacity:1;fill:#000000;fill-opacity:0.09"
       inkscape:label="clock_eden">
      <path
         id="path83"
         style="display:inline;fill:#000000;fill-opacity:0.09;stroke-width:0.097265"
         d="m 15.119882,18.425555 h 1.160803 l 0.145968,0.132936 -0.145968,0.132936 H 15.119882 L 14.97071,18.558491 Z"
         sodipodi:nodetypes="ccccccc"
         inkscape:label="1_H_T" />
      <path
         id="use83"
         style="display:inline;fill:#000000;fill-opacity:0.09;stroke-width:0.097265"
         d="m 15.119882,19.483888 h 1.160803 l 0.145968,0.132936 -0.145968,0.132936 H 15.119882 L 14.97071,19.616824 Z"
         sodipodi:nodetypes="ccccccc"
         inkscape:label="1_H_T" />
      <path
         id="use84"
         style="display:inline;fill:#000000;fill-opacity:0.09;stroke-width:0.097265"
         d="m 15.119882,20.542221 h 1.160803 l 0.145968,0.132936 -0.145968,0.132936 H 15.119882 L 14.97071,20.675157 Z"
         sodipodi:nodetypes="ccccccc"
         inkscape:label="1_H_T" />
      <path
         id="use85"
         style="display:inline;fill:#000000;fill-opacity:0.09;stroke-width:0.097265"
         d="m 17.236549,19.483888 h 1.160803 l 0.145968,0.132936 -0.145968,0.132936 h -1.160803 l -0.149172,-0.132936 z"
         sodipodi:nodetypes="ccccccc"
         inkscape:label="1_H_T" />
      <path
         id="use86"
         style="display:inline;fill:#000000;fill-opacity:0.09;stroke-width:0.097265"
         d="m 17.236549,20.542221 h 1.160803 l 0.145968,0.132936 -0.145968,0.132936 h -1.160803 l -0.149172,-0.132936 z"
         sodipodi:nodetypes="ccccccc"
         inkscape:label="1_H_T" />
      <path
         id="path86"
         style="display:inline;fill:#000000;fill-opacity:0.09;stroke-width:0.097265"
         d="m 19.353215,18.425555 h 1.160803 l 0.145968,0.132936 -0.145968,0.132936 h -1.160803 l -0.149172,-0.132936 z"
         sodipodi:nodetypes="ccccccc"
         inkscape:label="1_H_T" />
      <path
         id="use87"
         style="display:inline;fill:#000000;fill-opacity:0.09;stroke-width:0.097265"
         d="m 19.353216,19.483888 h 1.160803 l 0.145968,0.132936 -0.145968,0.132936 h -1.160803 l -0.149172,-0.132936 z"
         sodipodi:nodetypes="ccccccc"
         inkscape:label="1_H_T" />
      <path
         id="use88"
         style="display:inline;fill:#000000;fill-opacity:0.09;stroke-width:0.097265"
         d="m 19.353216,20.542221 h 1.160803 l 0.145968,0.132936 -0.145968,0.132936 h -1.160803 l -0.149172,-0.132936 z"
         sodipodi:nodetypes="ccccccc"
         inkscape:label="1_H_T" />
      <path
         id="use89"
         style="display:inline;fill:#000000;fill-opacity:0.09;stroke-width:0.097265"
         d="m 21.469883,19.483888 h 1.160803 l 0.145968,0.132936 -0.145968,0.132936 h -1.160803 l -0.149172,-0.132936 z"
         sodipodi:nodetypes="ccccccc"
         inkscape:label="1_H_T" />
    </g>
  </g>
  <g
     inkscape:groupmode="layer"
     id="layer1"
     inkscape:label="superimposed_heaven">
    <g
       id="g33"
       transform="translate(13.333601)"
       inkscape:label="right">
      <path
         sodipodi:type="star"
         style="fill:#ffffff;fill-opacity:1;stroke:#000000;stroke-width:0.264583;stroke-opacity:1"
         id="path30"
         inkscape:flatsided="false"
         sodipodi:sides="3"
         sodipodi:cx="60.273628"
         sodipodi:cy="67.21946"
         sodipodi:r1="8.5344391"
         sodipodi:r2="4.2672195"
         sodipodi:arg1="1.5707963"
         sodipodi:arg2="2.6179939"
         inkscape:rounded="0"
         inkscape:randomized="0"
         d="m 60.273628,75.753899 -3.69552,-6.40083 -3.695521,-6.400829 7.391041,0 7.391041,0 -3.69552,6.400829 z"
         inkscape:transform-center-y="1.8551929"
         transform="matrix(0.87584342,0,0,0.87584342,139.96524,25.012123)"
         inkscape:label="outside" />
      <path
         sodipodi:type="star"
         style="fill:#000000;fill-opacity:1;stroke:none;stroke-width:0.445411;stroke-dasharray:none;stroke-opacity:1"
         id="path31"
         inkscape:flatsided="false"
         sodipodi:sides="3"
         sodipodi:cx="60.273628"
         sodipodi:cy="67.21946"
         sodipodi:r1="8.5344391"
         sodipodi:r2="4.2672195"
         sodipodi:arg1="1.5707963"
         sodipodi:arg2="2.6179939"
         inkscape:rounded="0"
         inkscape:randomized="0"
         d="m 60.273628,75.753899 -3.69552,-6.40083 -3.695521,-6.400829 7.391041,0 7.391041,0 -3.69552,6.400829 z"
         inkscape:transform-center-y="0.92711482"
         transform="matrix(0.43849465,0,0,0.43849465,169.58648,52.550296)"
         inkscape:label="right" />
      <path
         sodipodi:type="star"
         style="fill:#000000;fill-opacity:1;stroke:#ffffff;stroke-width:0.445411;stroke-dasharray:none;stroke-opacity:1"
         id="path33"
         inkscape:flatsided="false"
         sodipodi:sides="3"
         sodipodi:cx="60.273628"
         sodipodi:cy="67.21946"
         sodipodi:r1="8.5344391"
         sodipodi:r2="4.2672195"
         sodipodi:arg1="1.5707963"
         sodipodi:arg2="2.6179939"
         inkscape:rounded="0"
         inkscape:randomized="0"
         d="m 60.273628,75.753899 -3.69552,-6.40083 -3.695521,-6.400829 7.391041,0 7.391041,0 -3.69552,6.400829 z"
         inkscape:transform-center-y="-0.92711715"
         transform="matrix(-0.43849465,0,0,-0.43849465,219.20488,113.37222)"
         inkscape:transform-center-x="-9.2453233e-06"
         inkscape:label="center" />
      <path
         sodipodi:type="star"
         style="fill:#000000;fill-opacity:1;stroke:none;stroke-width:0.445411;stroke-dasharray:none;stroke-opacity:1"
         id="path32"
         inkscape:flatsided="false"
         sodipodi:sides="3"
         sodipodi:cx="60.273628"
         sodipodi:cy="67.21946"
         sodipodi:r1="8.5344391"
         sodipodi:r2="4.2672195"
         sodipodi:arg1="1.5707963"
         sodipodi:arg2="2.6179939"
         inkscape:rounded="0"
         inkscape:randomized="0"
         d="m 60.273628,75.753899 -3.69552,-6.40083 -3.695521,-6.400829 7.391041,0 7.391041,0 -3.69552,6.400829 z"
         inkscape:transform-center-y="0.92711482"
         transform="matrix(0.43849465,0,0,0.43849465,163.01894,52.497583)"
         inkscape:transform-center-x="4.2251734e-06"
         inkscape:label="left" />
    </g>
    <g
       id="g29"
       inkscape:label="top">
      <path
         sodipodi:type="star"
         style="fill:#ffffff;fill-opacity:1;stroke:#000000;stroke-width:0.264583;stroke-opacity:1"
         id="path4"
         inkscape:flatsided="false"
         sodipodi:sides="3"
         sodipodi:cx="60.273628"
         sodipodi:cy="67.21946"
         sodipodi:r1="8.5344391"
         sodipodi:r2="4.2672195"
         sodipodi:arg1="1.5707963"
         sodipodi:arg2="2.6179939"
         inkscape:rounded="0"
         inkscape:randomized="0"
         d="m 60.273628,75.753899 -3.69552,-6.40083 -3.695521,-6.400829 7.391041,0 7.391041,0 -3.69552,6.400829 z"
         inkscape:transform-center-y="1.8551929"
         transform="matrix(0.87584342,0,0,0.87584342,146.63204,13.474497)"
         inkscape:label="outside" />
      <path
         sodipodi:type="star"
         style="fill:#000000;fill-opacity:0.924779;stroke:none;stroke-width:0.445411;stroke-dasharray:none;stroke-opacity:1"
         id="path6"
         inkscape:flatsided="false"
         sodipodi:sides="3"
         sodipodi:cx="60.273628"
         sodipodi:cy="67.21946"
         sodipodi:r1="8.5344391"
         sodipodi:r2="4.2672195"
         sodipodi:arg1="1.5707963"
         sodipodi:arg2="2.6179939"
         inkscape:rounded="0"
         inkscape:randomized="0"
         d="m 60.273628,75.753899 -3.69552,-6.40083 -3.695521,-6.400829 7.391041,0 7.391041,0 -3.69552,6.400829 z"
         inkscape:transform-center-y="0.92711482"
         transform="matrix(0.43849465,0,0,0.43849465,176.25328,41.01267)"
         inkscape:label="right" />
      <path
         sodipodi:type="star"
         style="fill:#000000;fill-opacity:1;stroke:#ffffff;stroke-width:0.445411;stroke-dasharray:none;stroke-opacity:1"
         id="path21"
         inkscape:flatsided="false"
         sodipodi:sides="3"
         sodipodi:cx="60.273628"
         sodipodi:cy="67.21946"
         sodipodi:r1="8.5344391"
         sodipodi:r2="4.2672195"
         sodipodi:arg1="1.5707963"
         sodipodi:arg2="2.6179939"
         inkscape:rounded="0"
         inkscape:randomized="0"
         d="m 60.273628,75.753899 -3.69552,-6.40083 -3.695521,-6.400829 7.391041,0 7.391041,0 -3.69552,6.400829 z"
         inkscape:transform-center-y="-0.92711715"
         transform="matrix(-0.43849465,0,0,-0.43849465,225.87168,101.83457)"
         inkscape:transform-center-x="-9.2453233e-06"
         inkscape:label="center" />
      <path
         sodipodi:type="star"
         style="fill:#000000;fill-opacity:1;stroke:none;stroke-width:0.445411;stroke-dasharray:none;stroke-opacity:1"
         id="path7"
         inkscape:flatsided="false"
         sodipodi:sides="3"
         sodipodi:cx="60.273628"
         sodipodi:cy="67.21946"
         sodipodi:r1="8.5344391"
         sodipodi:r2="4.2672195"
         sodipodi:arg1="1.5707963"
         sodipodi:arg2="2.6179939"
         inkscape:rounded="0"
         inkscape:randomized="0"
         d="m 60.273628,75.753899 -3.69552,-6.40083 -3.695521,-6.400829 7.391041,0 7.391041,0 -3.69552,6.400829 z"
         inkscape:transform-center-y="0.92711482"
         transform="matrix(0.43849465,0,0,0.43849465,169.68574,40.973137)"
         inkscape:transform-center-x="4.2251734e-06"
         inkscape:label="left" />
    </g>
    <g
       id="g30"
       inkscape:label="left">
      <path
         sodipodi:type="star"
         style="fill:#ffffff;fill-opacity:1;stroke:#000000;stroke-width:0.264583;stroke-opacity:1"
         id="path26"
         inkscape:flatsided="false"
         sodipodi:sides="3"
         sodipodi:cx="60.273628"
         sodipodi:cy="67.21946"
         sodipodi:r1="8.5344391"
         sodipodi:r2="4.2672195"
         sodipodi:arg1="1.5707963"
         sodipodi:arg2="2.6179939"
         inkscape:rounded="0"
         inkscape:randomized="0"
         d="m 60.273628,75.753899 -3.69552,-6.40083 -3.695521,-6.400829 7.391041,0 7.391041,0 -3.69552,6.400829 z"
         inkscape:transform-center-y="1.8551929"
         transform="matrix(0.87584342,0,0,0.87584342,139.96524,25.012123)"
         inkscape:label="outside" />
      <path
         sodipodi:type="star"
         style="fill:#000000;fill-opacity:1;stroke:none;stroke-width:0.445411;stroke-dasharray:none;stroke-opacity:1"
         id="path27"
         inkscape:flatsided="false"
         sodipodi:sides="3"
         sodipodi:cx="60.273628"
         sodipodi:cy="67.21946"
         sodipodi:r1="8.5344391"
         sodipodi:r2="4.2672195"
         sodipodi:arg1="1.5707963"
         sodipodi:arg2="2.6179939"
         inkscape:rounded="0"
         inkscape:randomized="0"
         d="m 60.273628,75.753899 -3.69552,-6.40083 -3.695521,-6.400829 7.391041,0 7.391041,0 -3.69552,6.400829 z"
         inkscape:transform-center-y="0.92711482"
         transform="matrix(0.43849465,0,0,0.43849465,169.58648,52.550296)"
         inkscape:label="right" />
      <path
         sodipodi:type="star"
         style="fill:#000000;fill-opacity:1;stroke:#ffffff;stroke-width:0.445411;stroke-dasharray:none;stroke-opacity:1"
         id="path29"
         inkscape:flatsided="false"
         sodipodi:sides="3"
         sodipodi:cx="60.273628"
         sodipodi:cy="67.21946"
         sodipodi:r1="8.5344391"
         sodipodi:r2="4.2672195"
         sodipodi:arg1="1.5707963"
         sodipodi:arg2="2.6179939"
         inkscape:rounded="0"
         inkscape:randomized="0"
         d="m 60.273628,75.753899 -3.69552,-6.40083 -3.695521,-6.400829 7.391041,0 7.391041,0 -3.69552,6.400829 z"
         inkscape:transform-center-y="-0.92711715"
         transform="matrix(-0.43849465,0,0,-0.43849465,219.20488,113.37222)"
         inkscape:transform-center-x="-9.2453233e-06"
         inkscape:label="center" />
      <path
         sodipodi:type="star"
         style="fill:#000000;fill-opacity:1;stroke:none;stroke-width:0.445411;stroke-dasharray:none;stroke-opacity:1"
         id="path28"
         inkscape:flatsided="false"
         sodipodi:sides="3"
         sodipodi:cx="60.273628"
         sodipodi:cy="67.21946"
         sodipodi:r1="8.5344391"
         sodipodi:r2="4.2672195"
         sodipodi:arg1="1.5707963"
         sodipodi:arg2="2.6179939"
         inkscape:rounded="0"
         inkscape:randomized="0"
         d="m 60.273628,75.753899 -3.69552,-6.40083 -3.695521,-6.400829 7.391041,0 7.391041,0 -3.69552,6.400829 z"
         inkscape:transform-center-y="0.92711482"
         transform="matrix(0.43849465,0,0,0.43849465,163.00576,52.537118)"
         inkscape:transform-center-x="4.2251734e-06"
         inkscape:label="left" />
    </g>
    <g
       inkscape:groupmode="layer"
       id="layer2"
       inkscape:label="fonts_as_objects"
       style="display:none">
      <text
         xml:space="preserve"
         style="font-style:normal;font-variant:normal;font-weight:normal;font-stretch:normal;font-size:2.82223px;font-family:Lora;-inkscape-font-specification:Lora;text-align:start;writing-mode:lr-tb;direction:ltr;text-anchor:start;fill:#000000;fill-opacity:1;stroke:none;stroke-width:0.2032;stroke-dasharray:none;stroke-opacity:1"
         x="205.32851"
         y="88.368752"
         id="text44"
         inkscape:label="c right"><tspan
           sodipodi:role="line"
           id="tspan44"
           style="stroke-width:0.2032"
           x="205.32851"
           y="88.368752">c</tspan></text>
      <text
         xml:space="preserve"
         style="font-style:normal;font-variant:normal;font-weight:normal;font-stretch:normal;font-size:2.82223px;font-family:Lora;-inkscape-font-specification:Lora;text-align:start;writing-mode:lr-tb;direction:ltr;text-anchor:start;fill:#000000;fill-opacity:1;stroke:none;stroke-width:0.2032;stroke-dasharray:none;stroke-opacity:1"
         x="198.68141"
         y="76.882126"
         id="text42"
         inkscape:label="c top"><tspan
           sodipodi:role="line"
           id="tspan42"
           style="stroke-width:0.2032"
           x="198.68141"
           y="76.882126">c</tspan></text>
      <text
         xml:space="preserve"
         style="font-style:normal;font-variant:normal;font-weight:normal;font-stretch:normal;font-size:2.82223px;font-family:Lora;-inkscape-font-specification:Lora;text-align:start;writing-mode:lr-tb;direction:ltr;text-anchor:start;fill:#000000;fill-opacity:1;stroke:none;stroke-width:0.2032;stroke-dasharray:none;stroke-opacity:1"
         x="191.9949"
         y="88.368752"
         id="text43"
         inkscape:label="c left"><tspan
           sodipodi:role="line"
           id="tspan43"
           style="stroke-width:0.2032"
           x="191.9949"
           y="88.368752">c</tspan></text>
      <g
         id="g35"
         inkscape:label="narcissistic men right">
        <text
           xml:space="preserve"
           style="font-size:3.175px;text-align:start;writing-mode:lr-tb;direction:ltr;text-anchor:start;fill:#ffffff;fill-opacity:1;stroke:none;stroke-width:0.2032;stroke-dasharray:none;stroke-opacity:1"
           x="195.22635"
           y="71.34845"
           id="text33"
           inkscape:label="n"><tspan
             sodipodi:role="line"
             id="tspan33"
             style="font-style:normal;font-variant:normal;font-weight:normal;font-stretch:normal;font-family:Lora;-inkscape-font-specification:Lora;stroke-width:0.2032"
             x="195.22635"
             y="71.34845">n</tspan></text>
        <text
           xml:space="preserve"
           style="font-size:3.175px;text-align:start;writing-mode:lr-tb;direction:ltr;text-anchor:start;fill:#ffffff;fill-opacity:1;stroke:none;stroke-width:0.2032;stroke-dasharray:none;stroke-opacity:1"
           x="201.70822"
           y="71.34845"
           id="text34"
           inkscape:label="n"><tspan
             sodipodi:role="line"
             id="tspan34"
             style="font-style:normal;font-variant:normal;font-weight:normal;font-stretch:normal;font-family:Lora;-inkscape-font-specification:Lora;stroke-width:0.2032"
             x="201.70822"
             y="71.34845">n</tspan></text>
        <text
           xml:space="preserve"
           style="font-size:3.175px;text-align:start;writing-mode:lr-tb;direction:ltr;text-anchor:start;fill:#ffffff;fill-opacity:1;stroke:none;stroke-width:0.2032;stroke-dasharray:none;stroke-opacity:1"
           x="198.46729"
           y="73.022972"
           id="text35"
           inkscape:label="n"><tspan
             sodipodi:role="line"
             id="tspan35"
             style="font-style:normal;font-variant:normal;font-weight:normal;font-stretch:normal;font-family:Lora;-inkscape-font-specification:Lora;stroke-width:0.2032"
             x="198.46729"
             y="73.022972">n</tspan></text>
      </g>
      <g
         id="g38"
         inkscape:label="narcissistic men top"
         transform="translate(6.6470914,11.641668)">
        <text
           xml:space="preserve"
           style="font-size:3.175px;text-align:start;writing-mode:lr-tb;direction:ltr;text-anchor:start;fill:#ffffff;fill-opacity:1;stroke:none;stroke-width:0.2032;stroke-dasharray:none;stroke-opacity:1"
           x="195.22635"
           y="71.34845"
           id="text36"
           inkscape:label="n"><tspan
             sodipodi:role="line"
             id="tspan36"
             style="font-style:normal;font-variant:normal;font-weight:normal;font-stretch:normal;font-family:Lora;-inkscape-font-specification:Lora;stroke-width:0.2032"
             x="195.22635"
             y="71.34845">n</tspan></text>
        <text
           xml:space="preserve"
           style="font-size:3.175px;text-align:start;writing-mode:lr-tb;direction:ltr;text-anchor:start;fill:#ffffff;fill-opacity:1;stroke:none;stroke-width:0.2032;stroke-dasharray:none;stroke-opacity:1"
           x="201.70822"
           y="71.34845"
           id="text37"
           inkscape:label="n"><tspan
             sodipodi:role="line"
             id="tspan37"
             style="font-style:normal;font-variant:normal;font-weight:normal;font-stretch:normal;font-family:Lora;-inkscape-font-specification:Lora;stroke-width:0.2032"
             x="201.70822"
             y="71.34845">n</tspan></text>
        <text
           xml:space="preserve"
           style="font-size:3.175px;text-align:start;writing-mode:lr-tb;direction:ltr;text-anchor:start;fill:#ffffff;fill-opacity:1;stroke:none;stroke-width:0.2032;stroke-dasharray:none;stroke-opacity:1"
           x="198.46729"
           y="73.022972"
           id="text38"
           inkscape:label="n"><tspan
             sodipodi:role="line"
             id="tspan38"
             style="font-style:normal;font-variant:normal;font-weight:normal;font-stretch:normal;font-family:Lora;-inkscape-font-specification:Lora;stroke-width:0.2032"
             x="198.46729"
             y="73.022972">n</tspan></text>
      </g>
      <g
         id="g41"
         inkscape:label="narcissistic men left"
         transform="translate(-6.6865096,11.641668)">
        <text
           xml:space="preserve"
           style="font-size:3.175px;text-align:start;writing-mode:lr-tb;direction:ltr;text-anchor:start;fill:#ffffff;fill-opacity:1;stroke:none;stroke-width:0.2032;stroke-dasharray:none;stroke-opacity:1"
           x="195.22635"
           y="71.34845"
           id="text39"
           inkscape:label="n"><tspan
             sodipodi:role="line"
             id="tspan39"
             style="font-style:normal;font-variant:normal;font-weight:normal;font-stretch:normal;font-family:Lora;-inkscape-font-specification:Lora;stroke-width:0.2032"
             x="195.22635"
             y="71.34845">n</tspan></text>
        <text
           xml:space="preserve"
           style="font-size:3.175px;text-align:start;writing-mode:lr-tb;direction:ltr;text-anchor:start;fill:#ffffff;fill-opacity:1;stroke:none;stroke-width:0.2032;stroke-dasharray:none;stroke-opacity:1"
           x="201.70822"
           y="71.34845"
           id="text40"
           inkscape:label="n"><tspan
             sodipodi:role="line"
             id="tspan40"
             style="font-style:normal;font-variant:normal;font-weight:normal;font-stretch:normal;font-family:Lora;-inkscape-font-specification:Lora;stroke-width:0.2032"
             x="201.70822"
             y="71.34845">n</tspan></text>
        <text
           xml:space="preserve"
           style="font-size:3.175px;text-align:start;writing-mode:lr-tb;direction:ltr;text-anchor:start;fill:#ffffff;fill-opacity:1;stroke:none;stroke-width:0.2032;stroke-dasharray:none;stroke-opacity:1"
           x="198.46729"
           y="73.022972"
           id="text41"
           inkscape:label="n"><tspan
             sodipodi:role="line"
             id="tspan41"
             style="font-style:normal;font-variant:normal;font-weight:normal;font-stretch:normal;font-family:Lora;-inkscape-font-specification:Lora;stroke-width:0.2032"
             x="198.46729"
             y="73.022972">n</tspan></text>
      </g>
      <text
         xml:space="preserve"
         style="font-style:normal;font-variant:normal;font-weight:normal;font-stretch:normal;font-size:2.82222px;line-height:1.25;font-family:Lora;-inkscape-font-specification:Lora;display:inline;opacity:1;stroke-width:0.0496066"
         x="199.3588"
         y="65.500824"
         id="text1"
         inkscape:label="seer"><tspan
           sodipodi:role="line"
           id="tspan1"
           style="font-style:normal;font-variant:normal;font-weight:normal;font-stretch:normal;font-size:2.82222px;font-family:Lora;-inkscape-font-specification:Lora;text-align:center;text-anchor:middle;stroke-width:0.0496066"
           x="199.3588"
           y="65.500824">seer</tspan></text>
    </g>
    <g
       inkscape:groupmode="layer"
       id="g57"
       inkscape:label="fonts_as_path">
      <path
         d="m 206.14131,88.413907 q -0.18909,0 -0.34996,-0.08467 -0.15804,-0.08749 -0.254,-0.248356 -0.0931,-0.163689 -0.0931,-0.39229 0,-0.146756 0.0536,-0.285045 0.0536,-0.138289 0.14958,-0.248356 0.0988,-0.11289 0.23424,-0.177801 0.13547,-0.06491 0.29916,-0.06491 0.15804,0 0.27376,0.04798 0.11853,0.04798 0.18344,0.127 0.0649,0.07902 0.0649,0.172156 0,0.06209 -0.0339,0.107245 -0.0339,0.04233 -0.0988,0.04233 -0.0706,0.0028 -0.1016,-0.04233 -0.0282,-0.04798 -0.0282,-0.08467 0,-0.02822 0.008,-0.05645 0.008,-0.03104 0.0339,-0.05644 -0.0226,-0.06773 -0.079,-0.09878 -0.0565,-0.03387 -0.11854,-0.04233 -0.0593,-0.01129 -0.0988,-0.01129 -0.19191,0 -0.32455,0.155223 -0.12982,0.1524 -0.12982,0.445912 0,0.18909 0.0593,0.335846 0.0621,0.146756 0.17216,0.231423 0.11007,0.08184 0.254,0.08184 0.13264,0 0.254,-0.07056 0.12136,-0.07055 0.18909,-0.172156 l 0.0734,0.05644 q -0.0734,0.118534 -0.1778,0.191912 -0.1016,0.07338 -0.21167,0.107244 -0.10725,0.03387 -0.2032,0.03387 z"
         id="text45"
         style="font-size:2.82223px;font-family:Lora;-inkscape-font-specification:Lora;stroke-width:0.2032"
         inkscape:label="c right"
         aria-label="c" />
      <path
         d="m 199.49421,76.927282 q -0.18909,0 -0.34995,-0.08467 -0.15805,-0.08749 -0.254,-0.248357 -0.0931,-0.163689 -0.0931,-0.39229 0,-0.146756 0.0536,-0.285045 0.0536,-0.138289 0.14957,-0.248356 0.0988,-0.112889 0.23425,-0.177801 0.13547,-0.06491 0.29916,-0.06491 0.15804,0 0.27375,0.04798 0.11854,0.04798 0.18345,0.127 0.0649,0.07902 0.0649,0.172156 0,0.06209 -0.0339,0.107245 -0.0339,0.04233 -0.0988,0.04233 -0.0705,0.0028 -0.1016,-0.04233 -0.0282,-0.04798 -0.0282,-0.08467 0,-0.02822 0.008,-0.05644 0.008,-0.03105 0.0339,-0.05645 -0.0226,-0.06773 -0.079,-0.09878 -0.0564,-0.03387 -0.11853,-0.04233 -0.0593,-0.01129 -0.0988,-0.01129 -0.19191,0 -0.32456,0.155222 -0.12982,0.152401 -0.12982,0.445913 0,0.189089 0.0593,0.335845 0.0621,0.146756 0.17215,0.231423 0.11007,0.08185 0.254,0.08185 0.13265,0 0.254,-0.07056 0.12136,-0.07056 0.18909,-0.172156 l 0.0734,0.05644 q -0.0734,0.118534 -0.1778,0.191912 -0.1016,0.07338 -0.21167,0.107245 -0.10724,0.03387 -0.2032,0.03387 z"
         id="text46"
         style="font-size:2.82223px;font-family:Lora;-inkscape-font-specification:Lora;stroke-width:0.2032"
         inkscape:label="c top"
         aria-label="c" />
      <path
         d="m 192.80771,88.413907 q -0.18909,0 -0.34996,-0.08467 -0.15805,-0.08749 -0.254,-0.248356 -0.0931,-0.163689 -0.0931,-0.39229 0,-0.146756 0.0536,-0.285045 0.0536,-0.138289 0.14958,-0.248356 0.0988,-0.11289 0.23424,-0.177801 0.13547,-0.06491 0.29916,-0.06491 0.15804,0 0.27375,0.04798 0.11854,0.04798 0.18345,0.127 0.0649,0.07902 0.0649,0.172156 0,0.06209 -0.0339,0.107245 -0.0339,0.04233 -0.0988,0.04233 -0.0705,0.0028 -0.1016,-0.04233 -0.0282,-0.04798 -0.0282,-0.08467 0,-0.02822 0.008,-0.05645 0.008,-0.03104 0.0339,-0.05644 -0.0226,-0.06773 -0.079,-0.09878 -0.0564,-0.03387 -0.11853,-0.04233 -0.0593,-0.01129 -0.0988,-0.01129 -0.19191,0 -0.32455,0.155223 -0.12983,0.1524 -0.12983,0.445912 0,0.18909 0.0593,0.335846 0.0621,0.146756 0.17216,0.231423 0.11006,0.08184 0.254,0.08184 0.13264,0 0.254,-0.07056 0.12135,-0.07055 0.18909,-0.172156 l 0.0734,0.05644 q -0.0734,0.118534 -0.1778,0.191912 -0.1016,0.07338 -0.21166,0.107244 -0.10725,0.03387 -0.2032,0.03387 z"
         id="text47"
         style="font-size:2.82223px;font-family:Lora;-inkscape-font-specification:Lora;stroke-width:0.2032"
         inkscape:label="c left"
         aria-label="c" />
      <g
         id="g50"
         inkscape:label="narcissistic men right">
        <path
           style="font-size:3.175px;font-family:Lora;-inkscape-font-specification:Lora;fill:#ffffff;stroke-width:0.2032"
           d="M 195.36605,71.34845 V 71.2532 q 0.0984,0 0.13652,-0.04763 0.0381,-0.0508 0.0445,-0.136525 0.006,-0.0889 0.006,-0.2032 l 0.003,-0.7239 q 0,-0.0508 0,-0.1016 0.003,-0.0508 0.0127,-0.104775 -0.0572,0.0032 -0.1143,0.0063 -0.054,0.0032 -0.11113,0.0063 v -0.13335 q 0.1397,0 0.20955,-0.0127 0.073,-0.0127 0.10795,-0.03175 0.0349,-0.01905 0.0572,-0.04127 h 0.0921 q 0.006,0.03493 0.006,0.08255 0.003,0.04445 0.006,0.111125 0.1016,-0.09208 0.2413,-0.1524 0.1397,-0.06033 0.27622,-0.06033 0.27623,0 0.40323,0.174625 0.127,0.17145 0.127,0.536575 v 0.59055 q 0,0.0635 -0.003,0.1143 0,0.04762 -0.01,0.1016 0.0508,-0.0032 0.0984,-0.0032 0.0508,-0.0032 0.1016,-0.0063 v 0.130175 h -0.6477 V 71.2532 q 0.0984,0 0.13653,-0.04763 0.0381,-0.0508 0.0445,-0.136525 0.006,-0.0889 0.006,-0.2032 v -0.4445 q -0.003,-0.27305 -0.0921,-0.41275 -0.0857,-0.1397 -0.27305,-0.136525 -0.1143,0.0032 -0.22542,0.06033 -0.10795,0.05715 -0.18098,0.14605 0.003,0.0254 0.003,0.05715 0,0.03175 0,0.06668 l -0.003,0.809625 q 0,0.0635 -0.003,0.1143 0,0.04762 -0.01,0.1016 0.0508,-0.0032 0.0984,-0.0032 0.0508,-0.0032 0.1016,-0.0063 v 0.130175 z"
           id="text48"
           inkscape:label="n"
           aria-label="n" />
        <path
           style="font-size:3.175px;font-family:Lora;-inkscape-font-specification:Lora;fill:#ffffff;stroke-width:0.2032"
           d="M 201.84792,71.34845 V 71.2532 q 0.0984,0 0.13653,-0.04763 0.0381,-0.0508 0.0444,-0.136525 0.006,-0.0889 0.006,-0.2032 l 0.003,-0.7239 q 0,-0.0508 0,-0.1016 0.003,-0.0508 0.0127,-0.104775 -0.0572,0.0032 -0.1143,0.0063 -0.054,0.0032 -0.11112,0.0063 v -0.13335 q 0.1397,0 0.20955,-0.0127 0.073,-0.0127 0.10795,-0.03175 0.0349,-0.01905 0.0571,-0.04127 h 0.0921 q 0.006,0.03493 0.006,0.08255 0.003,0.04445 0.006,0.111125 0.1016,-0.09208 0.2413,-0.1524 0.1397,-0.06033 0.27623,-0.06033 0.27622,0 0.40322,0.174625 0.127,0.17145 0.127,0.536575 v 0.59055 q 0,0.0635 -0.003,0.1143 0,0.04762 -0.01,0.1016 0.0508,-0.0032 0.0984,-0.0032 0.0508,-0.0032 0.1016,-0.0063 v 0.130175 h -0.6477 V 71.2532 q 0.0984,0 0.13652,-0.04763 0.0381,-0.0508 0.0444,-0.136525 0.006,-0.0889 0.006,-0.2032 v -0.4445 q -0.003,-0.27305 -0.0921,-0.41275 -0.0857,-0.1397 -0.27305,-0.136525 -0.1143,0.0032 -0.22543,0.06033 -0.10795,0.05715 -0.18097,0.14605 0.003,0.0254 0.003,0.05715 0,0.03175 0,0.06668 l -0.003,0.809625 q 0,0.0635 -0.003,0.1143 0,0.04762 -0.01,0.1016 0.0508,-0.0032 0.0984,-0.0032 0.0508,-0.0032 0.1016,-0.0063 v 0.130175 z"
           id="text49"
           inkscape:label="n"
           aria-label="n" />
        <path
           style="font-size:3.175px;font-family:Lora;-inkscape-font-specification:Lora;fill:#ffffff;stroke-width:0.2032"
           d="m 198.60699,73.022972 v -0.09525 q 0.0984,0 0.13652,-0.04762 0.0381,-0.0508 0.0445,-0.136525 0.006,-0.0889 0.006,-0.2032 l 0.003,-0.7239 q 0,-0.0508 0,-0.1016 0.003,-0.0508 0.0127,-0.104775 -0.0572,0.0032 -0.1143,0.0063 -0.054,0.0032 -0.11113,0.0064 v -0.13335 q 0.1397,0 0.20955,-0.0127 0.073,-0.0127 0.10795,-0.03175 0.0349,-0.01905 0.0571,-0.04127 h 0.0921 q 0.006,0.03493 0.006,0.08255 0.003,0.04445 0.006,0.111125 0.1016,-0.09207 0.2413,-0.1524 0.1397,-0.06033 0.27622,-0.06033 0.27623,0 0.40323,0.174625 0.127,0.17145 0.127,0.536575 v 0.59055 q 0,0.0635 -0.003,0.1143 0,0.04763 -0.01,0.1016 0.0508,-0.0032 0.0984,-0.0032 0.0508,-0.0032 0.1016,-0.0063 v 0.130175 h -0.6477 v -0.09525 q 0.0984,0 0.13653,-0.04762 0.0381,-0.0508 0.0444,-0.136525 0.006,-0.0889 0.006,-0.2032 v -0.4445 q -0.003,-0.27305 -0.0921,-0.41275 -0.0857,-0.1397 -0.27305,-0.136525 -0.1143,0.0032 -0.22542,0.06032 -0.10795,0.05715 -0.18098,0.14605 0.003,0.0254 0.003,0.05715 0,0.03175 0,0.06667 l -0.003,0.809625 q 0,0.0635 -0.003,0.1143 0,0.04763 -0.01,0.1016 0.0508,-0.0032 0.0984,-0.0032 0.0508,-0.0032 0.1016,-0.0063 v 0.130175 z"
           id="text50"
           inkscape:label="n"
           aria-label="n" />
      </g>
      <g
         id="g53"
         inkscape:label="narcissistic men top"
         transform="translate(6.6470914,11.641668)">
        <path
           style="font-size:3.175px;font-family:Lora;-inkscape-font-specification:Lora;fill:#ffffff;stroke-width:0.2032"
           d="M 195.36605,71.34845 V 71.2532 q 0.0984,0 0.13652,-0.04763 0.0381,-0.0508 0.0445,-0.136525 0.006,-0.0889 0.006,-0.2032 l 0.003,-0.7239 q 0,-0.0508 0,-0.1016 0.003,-0.0508 0.0127,-0.104775 -0.0572,0.0032 -0.1143,0.0063 -0.054,0.0032 -0.11113,0.0063 v -0.13335 q 0.1397,0 0.20955,-0.0127 0.073,-0.0127 0.10795,-0.03175 0.0349,-0.01905 0.0572,-0.04127 h 0.0921 q 0.006,0.03493 0.006,0.08255 0.003,0.04445 0.006,0.111125 0.1016,-0.09208 0.2413,-0.1524 0.1397,-0.06033 0.27622,-0.06033 0.27623,0 0.40323,0.174625 0.127,0.17145 0.127,0.536575 v 0.59055 q 0,0.0635 -0.003,0.1143 0,0.04762 -0.01,0.1016 0.0508,-0.0032 0.0984,-0.0032 0.0508,-0.0032 0.1016,-0.0063 v 0.130175 h -0.6477 V 71.2532 q 0.0984,0 0.13653,-0.04763 0.0381,-0.0508 0.0445,-0.136525 0.006,-0.0889 0.006,-0.2032 v -0.4445 q -0.003,-0.27305 -0.0921,-0.41275 -0.0857,-0.1397 -0.27305,-0.136525 -0.1143,0.0032 -0.22542,0.06033 -0.10795,0.05715 -0.18098,0.14605 0.003,0.0254 0.003,0.05715 0,0.03175 0,0.06668 l -0.003,0.809625 q 0,0.0635 -0.003,0.1143 0,0.04762 -0.01,0.1016 0.0508,-0.0032 0.0984,-0.0032 0.0508,-0.0032 0.1016,-0.0063 v 0.130175 z"
           id="text51"
           inkscape:label="n"
           aria-label="n" />
        <path
           style="font-size:3.175px;font-family:Lora;-inkscape-font-specification:Lora;fill:#ffffff;stroke-width:0.2032"
           d="M 201.84792,71.34845 V 71.2532 q 0.0984,0 0.13653,-0.04763 0.0381,-0.0508 0.0444,-0.136525 0.006,-0.0889 0.006,-0.2032 l 0.003,-0.7239 q 0,-0.0508 0,-0.1016 0.003,-0.0508 0.0127,-0.104775 -0.0572,0.0032 -0.1143,0.0063 -0.054,0.0032 -0.11112,0.0063 v -0.13335 q 0.1397,0 0.20955,-0.0127 0.073,-0.0127 0.10795,-0.03175 0.0349,-0.01905 0.0571,-0.04127 h 0.0921 q 0.006,0.03493 0.006,0.08255 0.003,0.04445 0.006,0.111125 0.1016,-0.09208 0.2413,-0.1524 0.1397,-0.06033 0.27623,-0.06033 0.27622,0 0.40322,0.174625 0.127,0.17145 0.127,0.536575 v 0.59055 q 0,0.0635 -0.003,0.1143 0,0.04762 -0.01,0.1016 0.0508,-0.0032 0.0984,-0.0032 0.0508,-0.0032 0.1016,-0.0063 v 0.130175 h -0.6477 V 71.2532 q 0.0984,0 0.13652,-0.04763 0.0381,-0.0508 0.0444,-0.136525 0.006,-0.0889 0.006,-0.2032 v -0.4445 q -0.003,-0.27305 -0.0921,-0.41275 -0.0857,-0.1397 -0.27305,-0.136525 -0.1143,0.0032 -0.22543,0.06033 -0.10795,0.05715 -0.18097,0.14605 0.003,0.0254 0.003,0.05715 0,0.03175 0,0.06668 l -0.003,0.809625 q 0,0.0635 -0.003,0.1143 0,0.04762 -0.01,0.1016 0.0508,-0.0032 0.0984,-0.0032 0.0508,-0.0032 0.1016,-0.0063 v 0.130175 z"
           id="text52"
           inkscape:label="n"
           aria-label="n" />
        <path
           style="font-size:3.175px;font-family:Lora;-inkscape-font-specification:Lora;fill:#ffffff;stroke-width:0.2032"
           d="m 198.60699,73.022972 v -0.09525 q 0.0984,0 0.13652,-0.04762 0.0381,-0.0508 0.0445,-0.136525 0.006,-0.0889 0.006,-0.2032 l 0.003,-0.7239 q 0,-0.0508 0,-0.1016 0.003,-0.0508 0.0127,-0.104775 -0.0572,0.0032 -0.1143,0.0063 -0.054,0.0032 -0.11113,0.0064 v -0.13335 q 0.1397,0 0.20955,-0.0127 0.073,-0.0127 0.10795,-0.03175 0.0349,-0.01905 0.0571,-0.04127 h 0.0921 q 0.006,0.03493 0.006,0.08255 0.003,0.04445 0.006,0.111125 0.1016,-0.09207 0.2413,-0.1524 0.1397,-0.06033 0.27622,-0.06033 0.27623,0 0.40323,0.174625 0.127,0.17145 0.127,0.536575 v 0.59055 q 0,0.0635 -0.003,0.1143 0,0.04763 -0.01,0.1016 0.0508,-0.0032 0.0984,-0.0032 0.0508,-0.0032 0.1016,-0.0063 v 0.130175 h -0.6477 v -0.09525 q 0.0984,0 0.13653,-0.04762 0.0381,-0.0508 0.0444,-0.136525 0.006,-0.0889 0.006,-0.2032 v -0.4445 q -0.003,-0.27305 -0.0921,-0.41275 -0.0857,-0.1397 -0.27305,-0.136525 -0.1143,0.0032 -0.22542,0.06032 -0.10795,0.05715 -0.18098,0.14605 0.003,0.0254 0.003,0.05715 0,0.03175 0,0.06667 l -0.003,0.809625 q 0,0.0635 -0.003,0.1143 0,0.04763 -0.01,0.1016 0.0508,-0.0032 0.0984,-0.0032 0.0508,-0.0032 0.1016,-0.0063 v 0.130175 z"
           id="text53"
           inkscape:label="n"
           aria-label="n" />
      </g>
      <g
         id="g56"
         inkscape:label="narcissistic men left"
         transform="translate(-6.6865096,11.641668)">
        <path
           style="font-size:3.175px;font-family:Lora;-inkscape-font-specification:Lora;fill:#ffffff;stroke-width:0.2032"
           d="M 195.36605,71.34845 V 71.2532 q 0.0984,0 0.13652,-0.04763 0.0381,-0.0508 0.0445,-0.136525 0.006,-0.0889 0.006,-0.2032 l 0.003,-0.7239 q 0,-0.0508 0,-0.1016 0.003,-0.0508 0.0127,-0.104775 -0.0572,0.0032 -0.1143,0.0063 -0.054,0.0032 -0.11113,0.0063 v -0.13335 q 0.1397,0 0.20955,-0.0127 0.073,-0.0127 0.10795,-0.03175 0.0349,-0.01905 0.0572,-0.04127 h 0.0921 q 0.006,0.03493 0.006,0.08255 0.003,0.04445 0.006,0.111125 0.1016,-0.09208 0.2413,-0.1524 0.1397,-0.06033 0.27622,-0.06033 0.27623,0 0.40323,0.174625 0.127,0.17145 0.127,0.536575 v 0.59055 q 0,0.0635 -0.003,0.1143 0,0.04762 -0.01,0.1016 0.0508,-0.0032 0.0984,-0.0032 0.0508,-0.0032 0.1016,-0.0063 v 0.130175 h -0.6477 V 71.2532 q 0.0984,0 0.13653,-0.04763 0.0381,-0.0508 0.0445,-0.136525 0.006,-0.0889 0.006,-0.2032 v -0.4445 q -0.003,-0.27305 -0.0921,-0.41275 -0.0857,-0.1397 -0.27305,-0.136525 -0.1143,0.0032 -0.22542,0.06033 -0.10795,0.05715 -0.18098,0.14605 0.003,0.0254 0.003,0.05715 0,0.03175 0,0.06668 l -0.003,0.809625 q 0,0.0635 -0.003,0.1143 0,0.04762 -0.01,0.1016 0.0508,-0.0032 0.0984,-0.0032 0.0508,-0.0032 0.1016,-0.0063 v 0.130175 z"
           id="text54"
           inkscape:label="n"
           aria-label="n" />
        <path
           style="font-size:3.175px;font-family:Lora;-inkscape-font-specification:Lora;fill:#ffffff;stroke-width:0.2032"
           d="M 201.84792,71.34845 V 71.2532 q 0.0984,0 0.13653,-0.04763 0.0381,-0.0508 0.0444,-0.136525 0.006,-0.0889 0.006,-0.2032 l 0.003,-0.7239 q 0,-0.0508 0,-0.1016 0.003,-0.0508 0.0127,-0.104775 -0.0572,0.0032 -0.1143,0.0063 -0.054,0.0032 -0.11112,0.0063 v -0.13335 q 0.1397,0 0.20955,-0.0127 0.073,-0.0127 0.10795,-0.03175 0.0349,-0.01905 0.0571,-0.04127 h 0.0921 q 0.006,0.03493 0.006,0.08255 0.003,0.04445 0.006,0.111125 0.1016,-0.09208 0.2413,-0.1524 0.1397,-0.06033 0.27623,-0.06033 0.27622,0 0.40322,0.174625 0.127,0.17145 0.127,0.536575 v 0.59055 q 0,0.0635 -0.003,0.1143 0,0.04762 -0.01,0.1016 0.0508,-0.0032 0.0984,-0.0032 0.0508,-0.0032 0.1016,-0.0063 v 0.130175 h -0.6477 V 71.2532 q 0.0984,0 0.13652,-0.04763 0.0381,-0.0508 0.0444,-0.136525 0.006,-0.0889 0.006,-0.2032 v -0.4445 q -0.003,-0.27305 -0.0921,-0.41275 -0.0857,-0.1397 -0.27305,-0.136525 -0.1143,0.0032 -0.22543,0.06033 -0.10795,0.05715 -0.18097,0.14605 0.003,0.0254 0.003,0.05715 0,0.03175 0,0.06668 l -0.003,0.809625 q 0,0.0635 -0.003,0.1143 0,0.04762 -0.01,0.1016 0.0508,-0.0032 0.0984,-0.0032 0.0508,-0.0032 0.1016,-0.0063 v 0.130175 z"
           id="text55"
           inkscape:label="n"
           aria-label="n" />
        <path
           style="font-size:3.175px;font-family:Lora;-inkscape-font-specification:Lora;fill:#ffffff;stroke-width:0.2032"
           d="m 198.60699,73.022972 v -0.09525 q 0.0984,0 0.13652,-0.04762 0.0381,-0.0508 0.0445,-0.136525 0.006,-0.0889 0.006,-0.2032 l 0.003,-0.7239 q 0,-0.0508 0,-0.1016 0.003,-0.0508 0.0127,-0.104775 -0.0572,0.0032 -0.1143,0.0063 -0.054,0.0032 -0.11113,0.0064 v -0.13335 q 0.1397,0 0.20955,-0.0127 0.073,-0.0127 0.10795,-0.03175 0.0349,-0.01905 0.0571,-0.04127 h 0.0921 q 0.006,0.03493 0.006,0.08255 0.003,0.04445 0.006,0.111125 0.1016,-0.09207 0.2413,-0.1524 0.1397,-0.06033 0.27622,-0.06033 0.27623,0 0.40323,0.174625 0.127,0.17145 0.127,0.536575 v 0.59055 q 0,0.0635 -0.003,0.1143 0,0.04763 -0.01,0.1016 0.0508,-0.0032 0.0984,-0.0032 0.0508,-0.0032 0.1016,-0.0063 v 0.130175 h -0.6477 v -0.09525 q 0.0984,0 0.13653,-0.04762 0.0381,-0.0508 0.0444,-0.136525 0.006,-0.0889 0.006,-0.2032 v -0.4445 q -0.003,-0.27305 -0.0921,-0.41275 -0.0857,-0.1397 -0.27305,-0.136525 -0.1143,0.0032 -0.22542,0.06032 -0.10795,0.05715 -0.18098,0.14605 0.003,0.0254 0.003,0.05715 0,0.03175 0,0.06667 l -0.003,0.809625 q 0,0.0635 -0.003,0.1143 0,0.04763 -0.01,0.1016 0.0508,-0.0032 0.0984,-0.0032 0.0508,-0.0032 0.1016,-0.0063 v 0.130175 z"
           id="text56"
           inkscape:label="n"
           aria-label="n" />
      </g>
      <path
         style="font-size:2.82222px;line-height:1.25;font-family:Lora;-inkscape-font-specification:Lora;text-align:center;text-anchor:middle;stroke-width:0.0496066"
         d="m 197.27459,65.545979 q -0.14112,0 -0.25118,-0.03951 -0.11007,-0.03669 -0.18062,-0.08467 l 0.0113,0.09878 h -0.11853 l -0.0169,-0.485422 h 0.0875 q 0.006,0.115711 0.0649,0.208844 0.0593,0.09031 0.1524,0.141111 0.0931,0.0508 0.20038,0.0508 0.0734,0 0.14393,-0.02258 0.0705,-0.0254 0.11853,-0.07338 0.048,-0.0508 0.048,-0.126999 0,-0.07902 -0.048,-0.129823 -0.0452,-0.05362 -0.12135,-0.09313 -0.0762,-0.03951 -0.16369,-0.07338 -0.11289,-0.04515 -0.22578,-0.09596 -0.11007,-0.05362 -0.18344,-0.138289 -0.0734,-0.08749 -0.0734,-0.2286 0,-0.05927 0.0226,-0.129822 0.0226,-0.07055 0.0762,-0.132644 0.0536,-0.06491 0.14675,-0.104422 0.0931,-0.04233 0.23707,-0.04233 0.0762,0 0.16933,0.0254 0.0931,0.0254 0.18062,0.09596 l -0.006,-0.107244 h 0.11853 v 0.493888 h -0.0903 q -0.006,-0.09878 -0.0452,-0.189089 -0.0395,-0.09313 -0.11571,-0.1524 -0.0762,-0.06209 -0.19755,-0.06209 -0.12982,0 -0.2032,0.06491 -0.0734,0.06491 -0.0734,0.149577 0,0.08749 0.0536,0.146756 0.0565,0.05644 0.14394,0.09878 0.0875,0.04233 0.18626,0.08185 0.10725,0.04515 0.20885,0.09878 0.1016,0.05362 0.16651,0.135466 0.0649,0.07902 0.0649,0.206022 0,0.141111 -0.0734,0.234244 -0.0705,0.09313 -0.18344,0.135467 -0.11007,0.04516 -0.23142,0.04516 z m 1.4111,0 q -0.19473,0 -0.35277,-0.09031 -0.15523,-0.09313 -0.24554,-0.259644 -0.0903,-0.169333 -0.0903,-0.397933 0,-0.197555 0.0875,-0.369711 0.0903,-0.172155 0.25118,-0.276577 0.16086,-0.107245 0.37253,-0.107245 0.15805,0 0.28787,0.06773 0.12982,0.06773 0.20602,0.206022 0.079,0.138289 0.079,0.349955 l -0.99342,0.01693 q -0.003,0.324556 0.10724,0.522111 0.11007,0.194733 0.35843,0.194733 0.0875,0 0.1778,-0.03104 0.0931,-0.03105 0.17215,-0.08467 0.079,-0.05362 0.127,-0.118533 l 0.0677,0.05644 q -0.0762,0.118534 -0.18345,0.189089 -0.10724,0.07056 -0.22013,0.1016 -0.11289,0.03104 -0.20885,0.03104 z m -0.38946,-0.97931 h 0.71966 q 0,-0.1016 -0.031,-0.194733 -0.0282,-0.09596 -0.096,-0.155222 -0.0677,-0.06209 -0.1778,-0.06209 -0.16369,0 -0.27375,0.09878 -0.10725,0.09595 -0.14111,0.313266 z m 1.905,0.97931 q -0.19474,0 -0.35278,-0.09031 -0.15522,-0.09313 -0.24553,-0.259644 -0.0903,-0.169333 -0.0903,-0.397933 0,-0.197555 0.0875,-0.369711 0.0903,-0.172155 0.25118,-0.276577 0.16087,-0.107245 0.37254,-0.107245 0.15804,0 0.28786,0.06773 0.12982,0.06773 0.20602,0.206022 0.079,0.138289 0.079,0.349955 l -0.99343,0.01693 q -0.003,0.324556 0.10725,0.522111 0.11007,0.194733 0.35842,0.194733 0.0875,0 0.1778,-0.03104 0.0931,-0.03105 0.17216,-0.08467 0.079,-0.05362 0.127,-0.118533 l 0.0677,0.05644 q -0.0762,0.118534 -0.18345,0.189089 -0.10724,0.07056 -0.22013,0.1016 -0.11289,0.03104 -0.20884,0.03104 z m -0.38947,-0.97931 h 0.71967 q 0,-0.1016 -0.031,-0.194733 -0.0282,-0.09596 -0.096,-0.155222 -0.0677,-0.06209 -0.1778,-0.06209 -0.16369,0 -0.27376,0.09878 -0.10724,0.09595 -0.14111,0.313266 z m 1.23613,0.849488 q 0.0875,0 0.12136,-0.04233 0.0339,-0.04515 0.0395,-0.121355 0.006,-0.07902 0.006,-0.180622 V 64.42838 q 0,-0.04516 0,-0.09031 0.003,-0.04516 0.0113,-0.09313 -0.0508,0.0028 -0.1016,0.0056 -0.048,0 -0.0988,0.0028 v -0.115711 h 0.0875 q 0.12136,0 0.16651,-0.02258 0.048,-0.0254 0.079,-0.05362 h 0.0818 q 0.006,0.04515 0.008,0.112889 0.003,0.06491 0.006,0.166511 0.0423,-0.07056 0.11571,-0.138289 0.0734,-0.06773 0.16369,-0.112889 0.0931,-0.04516 0.19474,-0.04516 0.079,0 0.13828,0.04233 0.0593,0.04233 0.0593,0.135466 0,0.03669 -0.0339,0.08749 -0.031,0.0508 -0.10724,0.04798 -0.0621,-0.0028 -0.0988,-0.04798 -0.0367,-0.04798 -0.0282,-0.110066 -0.10724,-0.0056 -0.21731,0.08184 -0.11007,0.08749 -0.18345,0.225778 l 0.003,0.694266 q 0,0.05644 -0.003,0.1016 0,0.04233 -0.008,0.09031 0.0452,-0.0028 0.0875,-0.0028 0.0452,-0.0028 0.0903,-0.0056 v 0.115711 h -0.57856 z"
         id="text57"
         inkscape:label="seer"
         aria-label="seer" />
    </g>
  </g>
</svg>
