<?xml version="1.0" encoding="UTF-8" standalone="no"?>
<!-- Created with Inkscape (http://www.inkscape.org/) -->

<svg
   width="1.4489728in"
   height="1.4455516in"
   viewBox="0 0 36.803912 36.71701"
   version="1.1"
   id="svg532"
   inkscape:version="1.3 (0e150ed6c4, 2023-07-21)"
   sodipodi:docname="10_ages-of-heaven.svg"
   inkscape:export-filename="C:\Users\libpubuser\Documents\Downloads\eras-of-civilization.png"
   inkscape:export-xdpi="95.958824"
   inkscape:export-ydpi="95.958824"
   xmlns:inkscape="http://www.inkscape.org/namespaces/inkscape"
   xmlns:sodipodi="http://sodipodi.sourceforge.net/DTD/sodipodi-0.dtd"
   xmlns:xlink="http://www.w3.org/1999/xlink"
   xmlns="http://www.w3.org/2000/svg"
   xmlns:svg="http://www.w3.org/2000/svg">
  <sodipodi:namedview
     id="namedview534"
     pagecolor="#ffffff"
     bordercolor="#666666"
     borderopacity="1.0"
     inkscape:pageshadow="2"
     inkscape:pageopacity="0.0"
     inkscape:pagecheckerboard="0"
     inkscape:document-units="in"
     showgrid="false"
     units="in"
     guidecolor="#4040bf"
     guideopacity="0.49803922"
     inkscape:showpageshadow="false"
     showguides="false"
     inkscape:guide-bbox="true"
     inkscape:lockguides="false"
     inkscape:zoom="5.9161383"
     inkscape:cx="69.470993"
     inkscape:cy="69.386478"
     inkscape:window-width="1920"
     inkscape:window-height="1017"
     inkscape:window-x="-8"
     inkscape:window-y="-8"
     inkscape:window-maximized="1"
     inkscape:current-layer="g25"
     fit-margin-top="0"
     fit-margin-left="0"
     fit-margin-right="0"
     fit-margin-bottom="0"
     height="3in"
     width="8in"
     inkscape:deskcolor="#d1d1d1">
    <sodipodi:guide
       position="-64.1061,262.34896"
       orientation="0,1"
       id="guide903"
       inkscape:label=""
       inkscape:locked="false"
       inkscape:color="rgb(64,64,191)" />
    <sodipodi:guide
       position="-88.751643,218.00692"
       orientation="0,1"
       id="guide905"
       inkscape:label=""
       inkscape:locked="false"
       inkscape:color="rgb(64,64,191)" />
    <sodipodi:guide
       position="-70.896198,173.66487"
       orientation="0,1"
       id="guide907"
       inkscape:label=""
       inkscape:locked="false"
       inkscape:color="rgb(64,64,191)" />
    <sodipodi:guide
       position="-108.61896,151.49448"
       orientation="0,1"
       id="guide2201"
       inkscape:label=""
       inkscape:locked="false"
       inkscape:color="rgb(64,64,191)" />
    <sodipodi:guide
       position="-101.3259,195.83932"
       orientation="0,1"
       id="guide2203"
       inkscape:label=""
       inkscape:locked="false"
       inkscape:color="rgb(64,64,191)" />
    <sodipodi:guide
       position="-62.597189,240.17857"
       orientation="0,1"
       id="guide2205"
       inkscape:label=""
       inkscape:locked="false"
       inkscape:color="rgb(64,64,191)" />
    <sodipodi:guide
       position="-96.296199,284.52012"
       orientation="0,1"
       id="guide2207"
       inkscape:label=""
       inkscape:locked="false"
       inkscape:color="rgb(64,64,191)" />
    <sodipodi:guide
       position="15.048076,40.458438"
       orientation="0,-1"
       id="guide5"
       inkscape:locked="false" />
    <sodipodi:guide
       position="18.737417,42.385814"
       orientation="-1,0"
       id="guide6"
       inkscape:locked="false"
       inkscape:label=""
       inkscape:color="rgb(64,64,191)" />
    <sodipodi:guide
       position="32.771611,27.189341"
       orientation="0,-1"
       id="guide9"
       inkscape:locked="false" />
  </sodipodi:namedview>
  <defs
     id="defs529">
    <inkscape:path-effect
       effect="fillet_chamfer"
       id="path-effect22"
       is_visible="true"
       lpeversion="1"
       satellites_param="F,0,0,1,0,8,0,1 @ F,0,0,1,0,0,0,1 @ F,0,0,1,0,8,0,1 @ F,0,0,1,0,0,0,1 @ F,0,0,1,0,8,0,1 @ F,0,0,1,0,0,0,1"
       unit="px"
       method="auto"
       mode="F"
       radius="0"
       chamfer_steps="1"
       flexible="false"
       use_knot_distance="true"
       apply_no_radius="true"
       apply_with_radius="true"
       only_selected="false"
       hide_knots="false"
       nodesatellites_param="F,0,0,1,0,8,0,1 @ F,0,0,1,0,0,0,1 @ F,0,0,1,0,8,0,1 @ F,0,0,1,0,0,0,1 @ F,0,0,1,0,8,0,1 @ F,0,0,1,0,0,0,1" />
    <inkscape:path-effect
       effect="fillet_chamfer"
       id="path-effect10"
       is_visible="true"
       lpeversion="1"
       satellites_param="F,0,0,1,0,8,0,1 @ F,0,0,1,0,0,0,1 @ F,0,0,1,0,8,0,1 @ F,0,0,1,0,0,0,1 @ F,0,0,1,0,8,0,1 @ F,0,0,1,0,0,0,1"
       unit="px"
       method="auto"
       mode="F"
       radius="0"
       chamfer_steps="1"
       flexible="false"
       use_knot_distance="true"
       apply_no_radius="true"
       apply_with_radius="true"
       only_selected="false"
       hide_knots="false"
       nodesatellites_param="F,0,0,1,0,8,0,1 @ F,0,0,1,0,0,0,1 @ F,0,0,1,0,8,0,1 @ F,0,0,1,0,0,0,1 @ F,0,0,1,0,8,0,1 @ F,0,0,1,0,0,0,1" />
    <inkscape:path-effect
       effect="fillet_chamfer"
       id="path-effect13"
       is_visible="true"
       lpeversion="1"
       satellites_param="F,0,0,1,0,8,0,1 @ F,0,0,1,0,0,0,1 @ F,0,0,1,0,8,0,1 @ F,0,0,1,0,0,0,1 @ F,0,0,1,0,8,0,1 @ F,0,0,1,0,0,0,1"
       unit="px"
       method="auto"
       mode="F"
       radius="0"
       chamfer_steps="1"
       flexible="false"
       use_knot_distance="true"
       apply_no_radius="true"
       apply_with_radius="true"
       only_selected="false"
       hide_knots="false"
       nodesatellites_param="F,0,0,1,0,8,0,1 @ F,0,0,1,0,0,0,1 @ F,0,0,1,0,8,0,1 @ F,0,0,1,0,0,0,1 @ F,0,0,1,0,8,0,1 @ F,0,0,1,0,0,0,1" />
    <inkscape:path-effect
       effect="fillet_chamfer"
       id="path-effect32402"
       is_visible="true"
       lpeversion="1"
       satellites_param="F,0,0,1,0,8,0,1 @ F,0,0,1,0,0,0,1 @ F,0,0,1,0,8,0,1 @ F,0,0,1,0,0,0,1 @ F,0,0,1,0,8,0,1 @ F,0,0,1,0,0,0,1"
       unit="px"
       method="auto"
       mode="F"
       radius="0"
       chamfer_steps="1"
       flexible="false"
       use_knot_distance="true"
       apply_no_radius="true"
       apply_with_radius="true"
       only_selected="false"
       hide_knots="false"
       nodesatellites_param="F,0,0,1,0,8,0,1 @ F,0,0,1,0,0,0,1 @ F,0,0,1,0,8,0,1 @ F,0,0,1,0,0,0,1 @ F,0,0,1,0,8,0,1 @ F,0,0,1,0,0,0,1" />
    <inkscape:path-effect
       effect="fillet_chamfer"
       id="path-effect32361"
       is_visible="true"
       lpeversion="1"
       satellites_param="F,0,0,1,0,8,0,1 @ F,0,0,1,0,0,0,1 @ F,0,0,1,0,8,0,1 @ F,0,0,1,0,0,0,1 @ F,0,0,1,0,8,0,1 @ F,0,0,1,0,0,0,1"
       unit="px"
       method="auto"
       mode="F"
       radius="0"
       chamfer_steps="1"
       flexible="false"
       use_knot_distance="true"
       apply_no_radius="true"
       apply_with_radius="true"
       only_selected="false"
       hide_knots="false"
       nodesatellites_param="F,0,0,1,0,8,0,1 @ F,0,0,1,0,0,0,1 @ F,0,0,1,0,8,0,1 @ F,0,0,1,0,0,0,1 @ F,0,0,1,0,8,0,1 @ F,0,0,1,0,0,0,1" />
    <inkscape:path-effect
       effect="fillet_chamfer"
       id="path-effect32357"
       is_visible="true"
       lpeversion="1"
       satellites_param="F,0,0,1,0,8,0,1 @ F,0,0,1,0,0,0,1 @ F,0,0,1,0,8,0,1 @ F,0,0,1,0,0,0,1 @ F,0,0,1,0,8,0,1 @ F,0,0,1,0,0,0,1"
       unit="px"
       method="auto"
       mode="F"
       radius="0"
       chamfer_steps="1"
       flexible="false"
       use_knot_distance="true"
       apply_no_radius="true"
       apply_with_radius="true"
       only_selected="false"
       hide_knots="false"
       nodesatellites_param="F,0,0,1,0,8,0,1 @ F,0,0,1,0,0,0,1 @ F,0,0,1,0,8,0,1 @ F,0,0,1,0,0,0,1 @ F,0,0,1,0,8,0,1 @ F,0,0,1,0,0,0,1" />
    <inkscape:path-effect
       effect="fillet_chamfer"
       id="path-effect1944"
       is_visible="true"
       lpeversion="1"
       satellites_param="F,0,0,1,0,8,0,1 @ F,0,0,1,0,0,0,1 @ F,0,0,1,0,8,0,1 @ F,0,0,1,0,0,0,1 @ F,0,0,1,0,8,0,1 @ F,0,0,1,0,0,0,1"
       unit="px"
       method="auto"
       mode="F"
       radius="0"
       chamfer_steps="1"
       flexible="false"
       use_knot_distance="true"
       apply_no_radius="true"
       apply_with_radius="true"
       only_selected="false"
       hide_knots="false"
       nodesatellites_param="F,0,0,1,0,8,0,1 @ F,0,0,1,0,0,0,1 @ F,0,0,1,0,8,0,1 @ F,0,0,1,0,0,0,1 @ F,0,0,1,0,8,0,1 @ F,0,0,1,0,0,0,1" />
    <inkscape:path-effect
       effect="fillet_chamfer"
       id="path-effect26986"
       is_visible="true"
       lpeversion="1"
       satellites_param="F,0,0,1,0,0,0,1 @ F,0,0,1,0,8,0,1 @ F,0,0,1,0,0,0,1"
       unit="px"
       method="auto"
       mode="F"
       radius="0"
       chamfer_steps="1"
       flexible="false"
       use_knot_distance="true"
       apply_no_radius="true"
       apply_with_radius="true"
       only_selected="false"
       hide_knots="false"
       nodesatellites_param="F,0,0,1,0,0,0,1 @ F,0,0,1,0,8,0,1 @ F,0,0,1,0,0,0,1" />
    <inkscape:path-effect
       effect="fillet_chamfer"
       id="path-effect373"
       is_visible="true"
       lpeversion="1"
       satellites_param="F,0,0,1,0,0,0,1 @ F,0,0,1,0,8,0,1 @ F,0,0,1,0,0,0,1"
       unit="px"
       method="auto"
       mode="F"
       radius="0"
       chamfer_steps="1"
       flexible="false"
       use_knot_distance="true"
       apply_no_radius="true"
       apply_with_radius="true"
       only_selected="false"
       hide_knots="false"
       nodesatellites_param="F,0,0,1,0,0,0,1 @ F,0,0,1,0,8,0,1 @ F,0,0,1,0,0,0,1" />
    <inkscape:path-effect
       effect="fillet_chamfer"
       id="path-effect267"
       is_visible="true"
       lpeversion="1"
       satellites_param="F,0,0,1,0,0,0,1 @ F,0,0,1,0,8,0,1 @ F,0,0,1,0,0,0,1"
       unit="px"
       method="auto"
       mode="F"
       radius="0"
       chamfer_steps="1"
       flexible="false"
       use_knot_distance="true"
       apply_no_radius="true"
       apply_with_radius="true"
       only_selected="false"
       hide_knots="false"
       nodesatellites_param="F,0,0,1,0,0,0,1 @ F,0,0,1,0,8,0,1 @ F,0,0,1,0,0,0,1" />
    <inkscape:path-effect
       effect="fillet_chamfer"
       id="path-effect1677"
       is_visible="true"
       lpeversion="1"
       satellites_param="F,0,0,1,0,8,0,1 @ F,0,0,1,0,0,0,1 @ F,0,0,1,0,8,0,1 @ F,0,0,1,0,0,0,1 @ F,0,0,1,0,8,0,1 @ F,0,0,1,0,0,0,1"
       unit="px"
       method="auto"
       mode="F"
       radius="0"
       chamfer_steps="1"
       flexible="false"
       use_knot_distance="true"
       apply_no_radius="true"
       apply_with_radius="true"
       only_selected="false"
       hide_knots="false"
       nodesatellites_param="F,0,0,1,0,8,0,1 @ F,0,0,1,0,0,0,1 @ F,0,0,1,0,8,0,1 @ F,0,0,1,0,0,0,1 @ F,0,0,1,0,8,0,1 @ F,0,0,1,0,0,0,1" />
    <inkscape:path-effect
       effect="fillet_chamfer"
       id="path-effect1669"
       is_visible="true"
       lpeversion="1"
       satellites_param="F,0,0,1,0,8,0,1 @ F,0,0,1,0,0,0,1 @ F,0,0,1,0,8,0,1 @ F,0,0,1,0,0,0,1 @ F,0,0,1,0,8,0,1 @ F,0,0,1,0,0,0,1"
       unit="px"
       method="auto"
       mode="F"
       radius="0"
       chamfer_steps="1"
       flexible="false"
       use_knot_distance="true"
       apply_no_radius="true"
       apply_with_radius="true"
       only_selected="false"
       hide_knots="false"
       nodesatellites_param="F,0,0,1,0,8,0,1 @ F,0,0,1,0,0,0,1 @ F,0,0,1,0,8,0,1 @ F,0,0,1,0,0,0,1 @ F,0,0,1,0,8,0,1 @ F,0,0,1,0,0,0,1" />
    <inkscape:path-effect
       effect="fillet_chamfer"
       id="path-effect2694"
       is_visible="true"
       lpeversion="1"
       satellites_param="F,0,0,1,0,0,0,1 @ F,0,0,1,0,8,0,1 @ F,0,0,1,0,0,0,1"
       unit="px"
       method="auto"
       mode="F"
       radius="0"
       chamfer_steps="1"
       flexible="false"
       use_knot_distance="true"
       apply_no_radius="true"
       apply_with_radius="true"
       only_selected="false"
       hide_knots="false"
       nodesatellites_param="F,0,0,1,0,0,0,1 @ F,0,0,1,0,8,0,1 @ F,0,0,1,0,0,0,1" />
    <inkscape:path-effect
       effect="fillet_chamfer"
       id="path-effect2056"
       is_visible="true"
       lpeversion="1"
       satellites_param="F,0,0,1,0,0,0,1 @ F,0,0,1,0,0,0,1 @ F,0,0,1,0,0,0,1"
       unit="px"
       method="auto"
       mode="F"
       radius="0"
       chamfer_steps="1"
       flexible="false"
       use_knot_distance="true"
       apply_no_radius="true"
       apply_with_radius="true"
       only_selected="false"
       hide_knots="false"
       nodesatellites_param="F,0,0,1,0,0,0,1 @ F,0,0,1,0,0,0,1 @ F,0,0,1,0,0,0,1" />
    <marker
       style="overflow:visible"
       id="TriangleOutL"
       refX="0"
       refY="0"
       orient="auto"
       inkscape:stockid="TriangleOutL"
       inkscape:isstock="true">
      <path
         transform="scale(0.8)"
         style="fill:context-stroke;fill-rule:evenodd;stroke:context-stroke;stroke-width:1pt"
         d="M 5.77,0 -2.88,5 V -5 Z"
         id="path28414" />
    </marker>
    <marker
       style="overflow:visible"
       id="marker543"
       refX="0"
       refY="0"
       orient="auto"
       inkscape:stockid="TriangleOutL"
       inkscape:isstock="true">
      <path
         transform="scale(0.8)"
         style="fill:context-stroke;fill-rule:evenodd;stroke:context-stroke;stroke-width:1pt"
         d="M 5.77,0 -2.88,5 V -5 Z"
         id="path541" />
    </marker>
    <marker
       style="overflow:visible"
       id="marker547"
       refX="0"
       refY="0"
       orient="auto"
       inkscape:stockid="TriangleOutL"
       inkscape:isstock="true">
      <path
         transform="scale(0.8)"
         style="fill:context-stroke;fill-rule:evenodd;stroke:context-stroke;stroke-width:1pt"
         d="M 5.77,0 -2.88,5 V -5 Z"
         id="path545" />
    </marker>
    <marker
       style="overflow:visible"
       id="marker551"
       refX="0"
       refY="0"
       orient="auto"
       inkscape:stockid="TriangleOutL"
       inkscape:isstock="true"
       viewBox="0 0 8.519053 9.8486161"
       markerWidth="8.5190525"
       markerHeight="9.8486156"
       preserveAspectRatio="xMidYMid">
      <path
         transform="scale(0.8)"
         style="fill:context-stroke;fill-rule:evenodd;stroke:context-stroke;stroke-width:1pt"
         d="M 5.77,0 -2.88,5 V -5 Z"
         id="path549" />
    </marker>
    <marker
       style="overflow:visible"
       id="marker555"
       refX="0"
       refY="0"
       orient="auto"
       inkscape:stockid="TriangleOutL"
       inkscape:isstock="true">
      <path
         transform="scale(0.8)"
         style="fill:context-stroke;fill-rule:evenodd;stroke:context-stroke;stroke-width:1pt"
         d="M 5.77,0 -2.88,5 V -5 Z"
         id="path553" />
    </marker>
    <marker
       style="overflow:visible"
       id="marker559"
       refX="0"
       refY="0"
       orient="auto"
       inkscape:stockid="TriangleOutL"
       inkscape:isstock="true">
      <path
         transform="scale(0.8)"
         style="fill:context-stroke;fill-rule:evenodd;stroke:context-stroke;stroke-width:1pt"
         d="M 5.77,0 -2.88,5 V -5 Z"
         id="path557" />
    </marker>
    <marker
       style="overflow:visible"
       id="marker22815"
       refX="0"
       refY="0"
       orient="auto"
       inkscape:stockid="Arrow2Lend"
       inkscape:isstock="true">
      <path
         transform="matrix(-1.1,0,0,-1.1,-1.1,0)"
         d="M 8.7185878,4.0337352 -2.2072895,0.01601326 8.7185884,-4.0017078 c -1.7454984,2.3720609 -1.7354408,5.6174519 -6e-7,8.035443 z"
         style="fill:context-stroke;fill-rule:evenodd;stroke:context-stroke;stroke-width:0.625;stroke-linejoin:round"
         id="path22813" />
    </marker>
    <marker
       style="overflow:visible"
       id="Arrow2Lend"
       refX="0"
       refY="0"
       orient="auto"
       inkscape:stockid="Arrow2Lend"
       inkscape:isstock="true">
      <path
         transform="matrix(-1.1,0,0,-1.1,-1.1,0)"
         d="M 8.7185878,4.0337352 -2.2072895,0.01601326 8.7185884,-4.0017078 c -1.7454984,2.3720609 -1.7354408,5.6174519 -6e-7,8.035443 z"
         style="fill:context-stroke;fill-rule:evenodd;stroke:context-stroke;stroke-width:0.625;stroke-linejoin:round"
         id="path7011" />
    </marker>
    <marker
       style="overflow:visible"
       id="Arrow1Lend"
       refX="0"
       refY="0"
       orient="auto"
       inkscape:stockid="Arrow1Lend"
       inkscape:isstock="true">
      <path
         transform="matrix(-0.8,0,0,-0.8,-10,0)"
         style="fill:context-stroke;fill-rule:evenodd;stroke:context-stroke;stroke-width:1pt"
         d="M 0,0 5,-5 -12.5,0 5,5 Z"
         id="path6993" />
    </marker>
    <inkscape:path-effect
       effect="fillet_chamfer"
       id="path-effect373-6"
       is_visible="true"
       lpeversion="1"
       satellites_param="F,0,0,1,0,0,0,1 @ F,0,0,1,0,8,0,1 @ F,0,0,1,0,0,0,1"
       unit="px"
       method="auto"
       mode="F"
       radius="0"
       chamfer_steps="1"
       flexible="false"
       use_knot_distance="true"
       apply_no_radius="true"
       apply_with_radius="true"
       only_selected="false"
       hide_knots="false"
       nodesatellites_param="F,0,0,1,0,0,0,1 @ F,0,0,1,0,8,0,1 @ F,0,0,1,0,0,0,1" />
    <inkscape:path-effect
       effect="fillet_chamfer"
       id="path-effect267-0"
       is_visible="true"
       lpeversion="1"
       satellites_param="F,0,0,1,0,0,0,1 @ F,0,0,1,0,8,0,1 @ F,0,0,1,0,0,0,1"
       unit="px"
       method="auto"
       mode="F"
       radius="0"
       chamfer_steps="1"
       flexible="false"
       use_knot_distance="true"
       apply_no_radius="true"
       apply_with_radius="true"
       only_selected="false"
       hide_knots="false"
       nodesatellites_param="F,0,0,1,0,0,0,1 @ F,0,0,1,0,8,0,1 @ F,0,0,1,0,0,0,1" />
    <inkscape:path-effect
       effect="fillet_chamfer"
       id="path-effect1677-8"
       is_visible="true"
       lpeversion="1"
       satellites_param="F,0,0,1,0,8,0,1 @ F,0,0,1,0,0,0,1 @ F,0,0,1,0,8,0,1 @ F,0,0,1,0,0,0,1 @ F,0,0,1,0,8,0,1 @ F,0,0,1,0,0,0,1"
       unit="px"
       method="auto"
       mode="F"
       radius="0"
       chamfer_steps="1"
       flexible="false"
       use_knot_distance="true"
       apply_no_radius="true"
       apply_with_radius="true"
       only_selected="false"
       hide_knots="false"
       nodesatellites_param="F,0,0,1,0,8,0,1 @ F,0,0,1,0,0,0,1 @ F,0,0,1,0,8,0,1 @ F,0,0,1,0,0,0,1 @ F,0,0,1,0,8,0,1 @ F,0,0,1,0,0,0,1" />
    <inkscape:path-effect
       effect="fillet_chamfer"
       id="path-effect1669-2"
       is_visible="true"
       lpeversion="1"
       satellites_param="F,0,0,1,0,8,0,1 @ F,0,0,1,0,0,0,1 @ F,0,0,1,0,8,0,1 @ F,0,0,1,0,0,0,1 @ F,0,0,1,0,8,0,1 @ F,0,0,1,0,0,0,1"
       unit="px"
       method="auto"
       mode="F"
       radius="0"
       chamfer_steps="1"
       flexible="false"
       use_knot_distance="true"
       apply_no_radius="true"
       apply_with_radius="true"
       only_selected="false"
       hide_knots="false"
       nodesatellites_param="F,0,0,1,0,8,0,1 @ F,0,0,1,0,0,0,1 @ F,0,0,1,0,8,0,1 @ F,0,0,1,0,0,0,1 @ F,0,0,1,0,8,0,1 @ F,0,0,1,0,0,0,1" />
    <inkscape:path-effect
       effect="fillet_chamfer"
       id="path-effect2694-0"
       is_visible="true"
       lpeversion="1"
       satellites_param="F,0,0,1,0,0,0,1 @ F,0,0,1,0,8,0,1 @ F,0,0,1,0,0,0,1"
       unit="px"
       method="auto"
       mode="F"
       radius="0"
       chamfer_steps="1"
       flexible="false"
       use_knot_distance="true"
       apply_no_radius="true"
       apply_with_radius="true"
       only_selected="false"
       hide_knots="false"
       nodesatellites_param="F,0,0,1,0,0,0,1 @ F,0,0,1,0,8,0,1 @ F,0,0,1,0,0,0,1" />
    <inkscape:path-effect
       effect="fillet_chamfer"
       id="path-effect2056-1"
       is_visible="true"
       lpeversion="1"
       satellites_param="F,0,0,1,0,0,0,1 @ F,0,0,1,0,0,0,1 @ F,0,0,1,0,0,0,1"
       unit="px"
       method="auto"
       mode="F"
       radius="0"
       chamfer_steps="1"
       flexible="false"
       use_knot_distance="true"
       apply_no_radius="true"
       apply_with_radius="true"
       only_selected="false"
       hide_knots="false"
       nodesatellites_param="F,0,0,1,0,0,0,1 @ F,0,0,1,0,0,0,1 @ F,0,0,1,0,0,0,1" />
    <marker
       style="overflow:visible"
       id="TriangleOutL-7"
       refX="0"
       refY="0"
       orient="auto"
       inkscape:stockid="TriangleOutL"
       inkscape:isstock="true">
      <path
         transform="scale(0.8)"
         style="fill:context-stroke;fill-rule:evenodd;stroke:context-stroke;stroke-width:1pt"
         d="M 5.77,0 -2.88,5 V -5 Z"
         id="path28414-55" />
    </marker>
    <marker
       style="overflow:visible"
       id="marker28855"
       refX="0"
       refY="0"
       orient="auto"
       inkscape:stockid="TriangleOutL"
       inkscape:isstock="true">
      <path
         transform="scale(0.8)"
         style="fill:context-stroke;fill-rule:evenodd;stroke:context-stroke;stroke-width:1pt"
         d="M 5.77,0 -2.88,5 V -5 Z"
         id="path28853" />
    </marker>
    <marker
       style="overflow:visible"
       id="marker28859"
       refX="0"
       refY="0"
       orient="auto"
       inkscape:stockid="TriangleOutL"
       inkscape:isstock="true">
      <path
         transform="scale(0.8)"
         style="fill:context-stroke;fill-rule:evenodd;stroke:context-stroke;stroke-width:1pt"
         d="M 5.77,0 -2.88,5 V -5 Z"
         id="path28857" />
    </marker>
    <marker
       style="overflow:visible"
       id="TriangleOutL-0"
       refX="0"
       refY="0"
       orient="auto"
       inkscape:stockid="TriangleOutL"
       inkscape:isstock="true">
      <path
         transform="scale(0.8)"
         style="fill:context-stroke;fill-rule:evenodd;stroke:context-stroke;stroke-width:1pt"
         d="M 5.77,0 -2.88,5 V -5 Z"
         id="path28414-5" />
    </marker>
    <marker
       style="overflow:visible"
       id="marker28855-1"
       refX="0"
       refY="0"
       orient="auto"
       inkscape:stockid="TriangleOutL"
       inkscape:isstock="true">
      <path
         transform="scale(0.8)"
         style="fill:context-stroke;fill-rule:evenodd;stroke:context-stroke;stroke-width:1pt"
         d="M 5.77,0 -2.88,5 V -5 Z"
         id="path28853-0" />
    </marker>
    <marker
       style="overflow:visible"
       id="marker28859-7"
       refX="0"
       refY="0"
       orient="auto"
       inkscape:stockid="TriangleOutL"
       inkscape:isstock="true">
      <path
         transform="scale(0.8)"
         style="fill:context-stroke;fill-rule:evenodd;stroke:context-stroke;stroke-width:1pt"
         d="M 5.77,0 -2.88,5 V -5 Z"
         id="path28857-5" />
    </marker>
    <marker
       style="overflow:visible"
       id="TriangleOutL-4"
       refX="0"
       refY="0"
       orient="auto"
       inkscape:stockid="TriangleOutL"
       inkscape:isstock="true">
      <path
         transform="scale(0.8)"
         style="fill:context-stroke;fill-rule:evenodd;stroke:context-stroke;stroke-width:1pt"
         d="M 5.77,0 -2.88,5 V -5 Z"
         id="path28414-1" />
    </marker>
    <marker
       style="overflow:visible"
       id="marker29508"
       refX="0"
       refY="0"
       orient="auto"
       inkscape:stockid="TriangleOutL"
       inkscape:isstock="true">
      <path
         transform="scale(0.8)"
         style="fill:context-stroke;fill-rule:evenodd;stroke:context-stroke;stroke-width:1pt"
         d="M 5.77,0 -2.88,5 V -5 Z"
         id="path29506" />
    </marker>
    <marker
       style="overflow:visible"
       id="marker29512"
       refX="0"
       refY="0"
       orient="auto"
       inkscape:stockid="TriangleOutL"
       inkscape:isstock="true">
      <path
         transform="scale(0.8)"
         style="fill:context-stroke;fill-rule:evenodd;stroke:context-stroke;stroke-width:1pt"
         d="M 5.77,0 -2.88,5 V -5 Z"
         id="path29510" />
    </marker>
    <marker
       style="overflow:visible"
       id="TriangleOutL-4-6"
       refX="0"
       refY="0"
       orient="auto"
       inkscape:stockid="TriangleOutL"
       inkscape:isstock="true">
      <path
         transform="scale(0.8)"
         style="fill:context-stroke;fill-rule:evenodd;stroke:context-stroke;stroke-width:1pt"
         d="M 5.77,0 -2.88,5 V -5 Z"
         id="path28414-1-0" />
    </marker>
    <marker
       style="overflow:visible"
       id="marker29653"
       refX="0"
       refY="0"
       orient="auto"
       inkscape:stockid="TriangleOutL"
       inkscape:isstock="true">
      <path
         transform="scale(0.8)"
         style="fill:context-stroke;fill-rule:evenodd;stroke:context-stroke;stroke-width:1pt"
         d="M 5.77,0 -2.88,5 V -5 Z"
         id="path29651" />
    </marker>
    <marker
       style="overflow:visible"
       id="marker29657"
       refX="0"
       refY="0"
       orient="auto"
       inkscape:stockid="TriangleOutL"
       inkscape:isstock="true">
      <path
         transform="scale(0.8)"
         style="fill:context-stroke;fill-rule:evenodd;stroke:context-stroke;stroke-width:1pt"
         d="M 5.77,0 -2.88,5 V -5 Z"
         id="path29655" />
    </marker>
    <marker
       style="overflow:visible"
       id="marker22815-0"
       refX="0"
       refY="0"
       orient="auto"
       inkscape:stockid="Arrow2Lend"
       inkscape:isstock="true">
      <path
         transform="matrix(-1.1,0,0,-1.1,-1.1,0)"
         d="M 8.7185878,4.0337352 -2.2072895,0.01601326 8.7185884,-4.0017078 c -1.7454984,2.3720609 -1.7354408,5.6174519 -6e-7,8.035443 z"
         style="fill:context-stroke;fill-rule:evenodd;stroke:context-stroke;stroke-width:0.625;stroke-linejoin:round"
         id="path22813-1" />
    </marker>
    <marker
       style="overflow:visible"
       id="Arrow2Lend-8"
       refX="0"
       refY="0"
       orient="auto"
       inkscape:stockid="Arrow2Lend"
       inkscape:isstock="true">
      <path
         transform="matrix(-1.1,0,0,-1.1,-1.1,0)"
         d="M 8.7185878,4.0337352 -2.2072895,0.01601326 8.7185884,-4.0017078 c -1.7454984,2.3720609 -1.7354408,5.6174519 -6e-7,8.035443 z"
         style="fill:context-stroke;fill-rule:evenodd;stroke:context-stroke;stroke-width:0.625;stroke-linejoin:round"
         id="path7011-6" />
    </marker>
    <marker
       style="overflow:visible"
       id="Arrow1Lend-9"
       refX="0"
       refY="0"
       orient="auto"
       inkscape:stockid="Arrow1Lend"
       inkscape:isstock="true">
      <path
         transform="matrix(-0.8,0,0,-0.8,-10,0)"
         style="fill:context-stroke;fill-rule:evenodd;stroke:context-stroke;stroke-width:1pt"
         d="M 0,0 5,-5 -12.5,0 5,5 Z"
         id="path6993-3" />
    </marker>
    <inkscape:path-effect
       effect="fillet_chamfer"
       id="path-effect373-5"
       is_visible="true"
       lpeversion="1"
       satellites_param="F,0,0,1,0,0,0,1 @ F,0,0,1,0,8,0,1 @ F,0,0,1,0,0,0,1"
       unit="px"
       method="auto"
       mode="F"
       radius="0"
       chamfer_steps="1"
       flexible="false"
       use_knot_distance="true"
       apply_no_radius="true"
       apply_with_radius="true"
       only_selected="false"
       hide_knots="false"
       nodesatellites_param="F,0,0,1,0,0,0,1 @ F,0,0,1,0,8,0,1 @ F,0,0,1,0,0,0,1" />
    <inkscape:path-effect
       effect="fillet_chamfer"
       id="path-effect267-9"
       is_visible="true"
       lpeversion="1"
       satellites_param="F,0,0,1,0,0,0,1 @ F,0,0,1,0,8,0,1 @ F,0,0,1,0,0,0,1"
       unit="px"
       method="auto"
       mode="F"
       radius="0"
       chamfer_steps="1"
       flexible="false"
       use_knot_distance="true"
       apply_no_radius="true"
       apply_with_radius="true"
       only_selected="false"
       hide_knots="false"
       nodesatellites_param="F,0,0,1,0,0,0,1 @ F,0,0,1,0,8,0,1 @ F,0,0,1,0,0,0,1" />
    <inkscape:path-effect
       effect="fillet_chamfer"
       id="path-effect1677-0"
       is_visible="true"
       lpeversion="1"
       satellites_param="F,0,0,1,0,8,0,1 @ F,0,0,1,0,0,0,1 @ F,0,0,1,0,8,0,1 @ F,0,0,1,0,0,0,1 @ F,0,0,1,0,8,0,1 @ F,0,0,1,0,0,0,1"
       unit="px"
       method="auto"
       mode="F"
       radius="0"
       chamfer_steps="1"
       flexible="false"
       use_knot_distance="true"
       apply_no_radius="true"
       apply_with_radius="true"
       only_selected="false"
       hide_knots="false"
       nodesatellites_param="F,0,0,1,0,8,0,1 @ F,0,0,1,0,0,0,1 @ F,0,0,1,0,8,0,1 @ F,0,0,1,0,0,0,1 @ F,0,0,1,0,8,0,1 @ F,0,0,1,0,0,0,1" />
    <inkscape:path-effect
       effect="fillet_chamfer"
       id="path-effect1669-8"
       is_visible="true"
       lpeversion="1"
       satellites_param="F,0,0,1,0,8,0,1 @ F,0,0,1,0,0,0,1 @ F,0,0,1,0,8,0,1 @ F,0,0,1,0,0,0,1 @ F,0,0,1,0,8,0,1 @ F,0,0,1,0,0,0,1"
       unit="px"
       method="auto"
       mode="F"
       radius="0"
       chamfer_steps="1"
       flexible="false"
       use_knot_distance="true"
       apply_no_radius="true"
       apply_with_radius="true"
       only_selected="false"
       hide_knots="false"
       nodesatellites_param="F,0,0,1,0,8,0,1 @ F,0,0,1,0,0,0,1 @ F,0,0,1,0,8,0,1 @ F,0,0,1,0,0,0,1 @ F,0,0,1,0,8,0,1 @ F,0,0,1,0,0,0,1" />
    <inkscape:path-effect
       effect="fillet_chamfer"
       id="path-effect2694-2"
       is_visible="true"
       lpeversion="1"
       satellites_param="F,0,0,1,0,0,0,1 @ F,0,0,1,0,8,0,1 @ F,0,0,1,0,0,0,1"
       unit="px"
       method="auto"
       mode="F"
       radius="0"
       chamfer_steps="1"
       flexible="false"
       use_knot_distance="true"
       apply_no_radius="true"
       apply_with_radius="true"
       only_selected="false"
       hide_knots="false"
       nodesatellites_param="F,0,0,1,0,0,0,1 @ F,0,0,1,0,8,0,1 @ F,0,0,1,0,0,0,1" />
    <inkscape:path-effect
       effect="fillet_chamfer"
       id="path-effect2056-6"
       is_visible="true"
       lpeversion="1"
       satellites_param="F,0,0,1,0,0,0,1 @ F,0,0,1,0,0,0,1 @ F,0,0,1,0,0,0,1"
       unit="px"
       method="auto"
       mode="F"
       radius="0"
       chamfer_steps="1"
       flexible="false"
       use_knot_distance="true"
       apply_no_radius="true"
       apply_with_radius="true"
       only_selected="false"
       hide_knots="false"
       nodesatellites_param="F,0,0,1,0,0,0,1 @ F,0,0,1,0,0,0,1 @ F,0,0,1,0,0,0,1" />
    <marker
       style="overflow:visible"
       id="TriangleOutL-43"
       refX="0"
       refY="0"
       orient="auto"
       inkscape:stockid="TriangleOutL"
       inkscape:isstock="true">
      <path
         transform="scale(0.8)"
         style="fill:context-stroke;fill-rule:evenodd;stroke:context-stroke;stroke-width:1pt"
         d="M 5.77,0 -2.88,5 V -5 Z"
         id="path28414-0" />
    </marker>
    <marker
       style="overflow:visible"
       id="marker28855-0"
       refX="0"
       refY="0"
       orient="auto"
       inkscape:stockid="TriangleOutL"
       inkscape:isstock="true">
      <path
         transform="scale(0.8)"
         style="fill:context-stroke;fill-rule:evenodd;stroke:context-stroke;stroke-width:1pt"
         d="M 5.77,0 -2.88,5 V -5 Z"
         id="path28853-7" />
    </marker>
    <marker
       style="overflow:visible"
       id="marker28859-71"
       refX="0"
       refY="0"
       orient="auto"
       inkscape:stockid="TriangleOutL"
       inkscape:isstock="true">
      <path
         transform="scale(0.8)"
         style="fill:context-stroke;fill-rule:evenodd;stroke:context-stroke;stroke-width:1pt"
         d="M 5.77,0 -2.88,5 V -5 Z"
         id="path28857-6" />
    </marker>
    <marker
       style="overflow:visible"
       id="TriangleOutL-0-0"
       refX="0"
       refY="0"
       orient="auto"
       inkscape:stockid="TriangleOutL"
       inkscape:isstock="true">
      <path
         transform="scale(0.8)"
         style="fill:context-stroke;fill-rule:evenodd;stroke:context-stroke;stroke-width:1pt"
         d="M 5.77,0 -2.88,5 V -5 Z"
         id="path28414-5-3" />
    </marker>
    <marker
       style="overflow:visible"
       id="marker28855-1-4"
       refX="0"
       refY="0"
       orient="auto"
       inkscape:stockid="TriangleOutL"
       inkscape:isstock="true">
      <path
         transform="scale(0.8)"
         style="fill:context-stroke;fill-rule:evenodd;stroke:context-stroke;stroke-width:1pt"
         d="M 5.77,0 -2.88,5 V -5 Z"
         id="path28853-0-1" />
    </marker>
    <marker
       style="overflow:visible"
       id="marker28859-7-4"
       refX="0"
       refY="0"
       orient="auto"
       inkscape:stockid="TriangleOutL"
       inkscape:isstock="true">
      <path
         transform="scale(0.8)"
         style="fill:context-stroke;fill-rule:evenodd;stroke:context-stroke;stroke-width:1pt"
         d="M 5.77,0 -2.88,5 V -5 Z"
         id="path28857-5-8" />
    </marker>
    <marker
       style="overflow:visible"
       id="TriangleOutL-4-2"
       refX="0"
       refY="0"
       orient="auto"
       inkscape:stockid="TriangleOutL"
       inkscape:isstock="true">
      <path
         transform="scale(0.8)"
         style="fill:context-stroke;fill-rule:evenodd;stroke:context-stroke;stroke-width:1pt"
         d="M 5.77,0 -2.88,5 V -5 Z"
         id="path28414-1-1" />
    </marker>
    <marker
       style="overflow:visible"
       id="marker29508-4"
       refX="0"
       refY="0"
       orient="auto"
       inkscape:stockid="TriangleOutL"
       inkscape:isstock="true">
      <path
         transform="scale(0.8)"
         style="fill:context-stroke;fill-rule:evenodd;stroke:context-stroke;stroke-width:1pt"
         d="M 5.77,0 -2.88,5 V -5 Z"
         id="path29506-8" />
    </marker>
    <marker
       style="overflow:visible"
       id="marker29512-0"
       refX="0"
       refY="0"
       orient="auto"
       inkscape:stockid="TriangleOutL"
       inkscape:isstock="true">
      <path
         transform="scale(0.8)"
         style="fill:context-stroke;fill-rule:evenodd;stroke:context-stroke;stroke-width:1pt"
         d="M 5.77,0 -2.88,5 V -5 Z"
         id="path29510-2" />
    </marker>
    <marker
       style="overflow:visible"
       id="TriangleOutL-4-6-6"
       refX="0"
       refY="0"
       orient="auto"
       inkscape:stockid="TriangleOutL"
       inkscape:isstock="true">
      <path
         transform="scale(0.8)"
         style="fill:context-stroke;fill-rule:evenodd;stroke:context-stroke;stroke-width:1pt"
         d="M 5.77,0 -2.88,5 V -5 Z"
         id="path28414-1-0-1" />
    </marker>
    <marker
       style="overflow:visible"
       id="marker29653-7"
       refX="0"
       refY="0"
       orient="auto"
       inkscape:stockid="TriangleOutL"
       inkscape:isstock="true">
      <path
         transform="scale(0.8)"
         style="fill:context-stroke;fill-rule:evenodd;stroke:context-stroke;stroke-width:1pt"
         d="M 5.77,0 -2.88,5 V -5 Z"
         id="path29651-6" />
    </marker>
    <marker
       style="overflow:visible"
       id="marker29657-8"
       refX="0"
       refY="0"
       orient="auto"
       inkscape:stockid="TriangleOutL"
       inkscape:isstock="true">
      <path
         transform="scale(0.8)"
         style="fill:context-stroke;fill-rule:evenodd;stroke:context-stroke;stroke-width:1pt"
         d="M 5.77,0 -2.88,5 V -5 Z"
         id="path29655-9" />
    </marker>
    <marker
       style="overflow:visible"
       id="marker22815-9"
       refX="0"
       refY="0"
       orient="auto"
       inkscape:stockid="Arrow2Lend"
       inkscape:isstock="true">
      <path
         transform="matrix(-1.1,0,0,-1.1,-1.1,0)"
         d="M 8.7185878,4.0337352 -2.2072895,0.01601326 8.7185884,-4.0017078 c -1.7454984,2.3720609 -1.7354408,5.6174519 -6e-7,8.035443 z"
         style="fill:context-stroke;fill-rule:evenodd;stroke:context-stroke;stroke-width:0.625;stroke-linejoin:round"
         id="path22813-0" />
    </marker>
    <marker
       style="overflow:visible"
       id="Arrow2Lend-1"
       refX="0"
       refY="0"
       orient="auto"
       inkscape:stockid="Arrow2Lend"
       inkscape:isstock="true">
      <path
         transform="matrix(-1.1,0,0,-1.1,-1.1,0)"
         d="M 8.7185878,4.0337352 -2.2072895,0.01601326 8.7185884,-4.0017078 c -1.7454984,2.3720609 -1.7354408,5.6174519 -6e-7,8.035443 z"
         style="fill:context-stroke;fill-rule:evenodd;stroke:context-stroke;stroke-width:0.625;stroke-linejoin:round"
         id="path7011-3" />
    </marker>
    <marker
       style="overflow:visible"
       id="Arrow1Lend-4"
       refX="0"
       refY="0"
       orient="auto"
       inkscape:stockid="Arrow1Lend"
       inkscape:isstock="true">
      <path
         transform="matrix(-0.8,0,0,-0.8,-10,0)"
         style="fill:context-stroke;fill-rule:evenodd;stroke:context-stroke;stroke-width:1pt"
         d="M 0,0 5,-5 -12.5,0 5,5 Z"
         id="path6993-1" />
    </marker>
    <inkscape:path-effect
       effect="fillet_chamfer"
       id="path-effect373-66"
       is_visible="true"
       lpeversion="1"
       satellites_param="F,0,0,1,0,0,0,1 @ F,0,0,1,0,8,0,1 @ F,0,0,1,0,0,0,1"
       unit="px"
       method="auto"
       mode="F"
       radius="0"
       chamfer_steps="1"
       flexible="false"
       use_knot_distance="true"
       apply_no_radius="true"
       apply_with_radius="true"
       only_selected="false"
       hide_knots="false"
       nodesatellites_param="F,0,0,1,0,0,0,1 @ F,0,0,1,0,8,0,1 @ F,0,0,1,0,0,0,1" />
    <inkscape:path-effect
       effect="fillet_chamfer"
       id="path-effect267-4"
       is_visible="true"
       lpeversion="1"
       satellites_param="F,0,0,1,0,0,0,1 @ F,0,0,1,0,8,0,1 @ F,0,0,1,0,0,0,1"
       unit="px"
       method="auto"
       mode="F"
       radius="0"
       chamfer_steps="1"
       flexible="false"
       use_knot_distance="true"
       apply_no_radius="true"
       apply_with_radius="true"
       only_selected="false"
       hide_knots="false"
       nodesatellites_param="F,0,0,1,0,0,0,1 @ F,0,0,1,0,8,0,1 @ F,0,0,1,0,0,0,1" />
    <inkscape:path-effect
       effect="fillet_chamfer"
       id="path-effect1677-7"
       is_visible="true"
       lpeversion="1"
       satellites_param="F,0,0,1,0,8,0,1 @ F,0,0,1,0,0,0,1 @ F,0,0,1,0,8,0,1 @ F,0,0,1,0,0,0,1 @ F,0,0,1,0,8,0,1 @ F,0,0,1,0,0,0,1"
       unit="px"
       method="auto"
       mode="F"
       radius="0"
       chamfer_steps="1"
       flexible="false"
       use_knot_distance="true"
       apply_no_radius="true"
       apply_with_radius="true"
       only_selected="false"
       hide_knots="false"
       nodesatellites_param="F,0,0,1,0,8,0,1 @ F,0,0,1,0,0,0,1 @ F,0,0,1,0,8,0,1 @ F,0,0,1,0,0,0,1 @ F,0,0,1,0,8,0,1 @ F,0,0,1,0,0,0,1" />
    <inkscape:path-effect
       effect="fillet_chamfer"
       id="path-effect1669-4"
       is_visible="true"
       lpeversion="1"
       satellites_param="F,0,0,1,0,8,0,1 @ F,0,0,1,0,0,0,1 @ F,0,0,1,0,8,0,1 @ F,0,0,1,0,0,0,1 @ F,0,0,1,0,8,0,1 @ F,0,0,1,0,0,0,1"
       unit="px"
       method="auto"
       mode="F"
       radius="0"
       chamfer_steps="1"
       flexible="false"
       use_knot_distance="true"
       apply_no_radius="true"
       apply_with_radius="true"
       only_selected="false"
       hide_knots="false"
       nodesatellites_param="F,0,0,1,0,8,0,1 @ F,0,0,1,0,0,0,1 @ F,0,0,1,0,8,0,1 @ F,0,0,1,0,0,0,1 @ F,0,0,1,0,8,0,1 @ F,0,0,1,0,0,0,1" />
    <inkscape:path-effect
       effect="fillet_chamfer"
       id="path-effect2694-4"
       is_visible="true"
       lpeversion="1"
       satellites_param="F,0,0,1,0,0,0,1 @ F,0,0,1,0,8,0,1 @ F,0,0,1,0,0,0,1"
       unit="px"
       method="auto"
       mode="F"
       radius="0"
       chamfer_steps="1"
       flexible="false"
       use_knot_distance="true"
       apply_no_radius="true"
       apply_with_radius="true"
       only_selected="false"
       hide_knots="false"
       nodesatellites_param="F,0,0,1,0,0,0,1 @ F,0,0,1,0,8,0,1 @ F,0,0,1,0,0,0,1" />
    <inkscape:path-effect
       effect="fillet_chamfer"
       id="path-effect2056-3"
       is_visible="true"
       lpeversion="1"
       satellites_param="F,0,0,1,0,0,0,1 @ F,0,0,1,0,0,0,1 @ F,0,0,1,0,0,0,1"
       unit="px"
       method="auto"
       mode="F"
       radius="0"
       chamfer_steps="1"
       flexible="false"
       use_knot_distance="true"
       apply_no_radius="true"
       apply_with_radius="true"
       only_selected="false"
       hide_knots="false"
       nodesatellites_param="F,0,0,1,0,0,0,1 @ F,0,0,1,0,0,0,1 @ F,0,0,1,0,0,0,1" />
    <marker
       style="overflow:visible"
       id="TriangleOutL-2"
       refX="0"
       refY="0"
       orient="auto"
       inkscape:stockid="TriangleOutL"
       inkscape:isstock="true">
      <path
         transform="scale(0.8)"
         style="fill:context-stroke;fill-rule:evenodd;stroke:context-stroke;stroke-width:1pt"
         d="M 5.77,0 -2.88,5 V -5 Z"
         id="path28414-6" />
    </marker>
    <marker
       style="overflow:visible"
       id="marker28855-6"
       refX="0"
       refY="0"
       orient="auto"
       inkscape:stockid="TriangleOutL"
       inkscape:isstock="true">
      <path
         transform="scale(0.8)"
         style="fill:context-stroke;fill-rule:evenodd;stroke:context-stroke;stroke-width:1pt"
         d="M 5.77,0 -2.88,5 V -5 Z"
         id="path28853-73" />
    </marker>
    <marker
       style="overflow:visible"
       id="marker28859-4"
       refX="0"
       refY="0"
       orient="auto"
       inkscape:stockid="TriangleOutL"
       inkscape:isstock="true">
      <path
         transform="scale(0.8)"
         style="fill:context-stroke;fill-rule:evenodd;stroke:context-stroke;stroke-width:1pt"
         d="M 5.77,0 -2.88,5 V -5 Z"
         id="path28857-8" />
    </marker>
    <marker
       style="overflow:visible"
       id="TriangleOutL-0-4"
       refX="0"
       refY="0"
       orient="auto"
       inkscape:stockid="TriangleOutL"
       inkscape:isstock="true">
      <path
         transform="scale(0.8)"
         style="fill:context-stroke;fill-rule:evenodd;stroke:context-stroke;stroke-width:1pt"
         d="M 5.77,0 -2.88,5 V -5 Z"
         id="path28414-5-1" />
    </marker>
    <marker
       style="overflow:visible"
       id="marker28855-1-0"
       refX="0"
       refY="0"
       orient="auto"
       inkscape:stockid="TriangleOutL"
       inkscape:isstock="true">
      <path
         transform="scale(0.8)"
         style="fill:context-stroke;fill-rule:evenodd;stroke:context-stroke;stroke-width:1pt"
         d="M 5.77,0 -2.88,5 V -5 Z"
         id="path28853-0-5" />
    </marker>
    <marker
       style="overflow:visible"
       id="marker28859-7-7"
       refX="0"
       refY="0"
       orient="auto"
       inkscape:stockid="TriangleOutL"
       inkscape:isstock="true">
      <path
         transform="scale(0.8)"
         style="fill:context-stroke;fill-rule:evenodd;stroke:context-stroke;stroke-width:1pt"
         d="M 5.77,0 -2.88,5 V -5 Z"
         id="path28857-5-3" />
    </marker>
    <marker
       style="overflow:visible"
       id="TriangleOutL-4-0"
       refX="0"
       refY="0"
       orient="auto"
       inkscape:stockid="TriangleOutL"
       inkscape:isstock="true">
      <path
         transform="scale(0.8)"
         style="fill:context-stroke;fill-rule:evenodd;stroke:context-stroke;stroke-width:1pt"
         d="M 5.77,0 -2.88,5 V -5 Z"
         id="path28414-1-2" />
    </marker>
    <marker
       style="overflow:visible"
       id="marker29508-49"
       refX="0"
       refY="0"
       orient="auto"
       inkscape:stockid="TriangleOutL"
       inkscape:isstock="true">
      <path
         transform="scale(0.8)"
         style="fill:context-stroke;fill-rule:evenodd;stroke:context-stroke;stroke-width:1pt"
         d="M 5.77,0 -2.88,5 V -5 Z"
         id="path29506-0" />
    </marker>
    <marker
       style="overflow:visible"
       id="marker29512-1"
       refX="0"
       refY="0"
       orient="auto"
       inkscape:stockid="TriangleOutL"
       inkscape:isstock="true">
      <path
         transform="scale(0.8)"
         style="fill:context-stroke;fill-rule:evenodd;stroke:context-stroke;stroke-width:1pt"
         d="M 5.77,0 -2.88,5 V -5 Z"
         id="path29510-1" />
    </marker>
    <marker
       style="overflow:visible"
       id="TriangleOutL-4-6-2"
       refX="0"
       refY="0"
       orient="auto"
       inkscape:stockid="TriangleOutL"
       inkscape:isstock="true">
      <path
         transform="scale(0.8)"
         style="fill:context-stroke;fill-rule:evenodd;stroke:context-stroke;stroke-width:1pt"
         d="M 5.77,0 -2.88,5 V -5 Z"
         id="path28414-1-0-4" />
    </marker>
    <marker
       style="overflow:visible"
       id="marker29653-1"
       refX="0"
       refY="0"
       orient="auto"
       inkscape:stockid="TriangleOutL"
       inkscape:isstock="true">
      <path
         transform="scale(0.8)"
         style="fill:context-stroke;fill-rule:evenodd;stroke:context-stroke;stroke-width:1pt"
         d="M 5.77,0 -2.88,5 V -5 Z"
         id="path29651-2" />
    </marker>
    <marker
       style="overflow:visible"
       id="marker29657-9"
       refX="0"
       refY="0"
       orient="auto"
       inkscape:stockid="TriangleOutL"
       inkscape:isstock="true">
      <path
         transform="scale(0.8)"
         style="fill:context-stroke;fill-rule:evenodd;stroke:context-stroke;stroke-width:1pt"
         d="M 5.77,0 -2.88,5 V -5 Z"
         id="path29655-7" />
    </marker>
    <inkscape:path-effect
       effect="fillet_chamfer"
       id="path-effect267-4-5"
       is_visible="true"
       lpeversion="1"
       satellites_param="F,0,0,1,0,0,0,1 @ F,0,0,1,0,8,0,1 @ F,0,0,1,0,0,0,1"
       unit="px"
       method="auto"
       mode="F"
       radius="0"
       chamfer_steps="1"
       flexible="false"
       use_knot_distance="true"
       apply_no_radius="true"
       apply_with_radius="true"
       only_selected="false"
       hide_knots="false"
       nodesatellites_param="F,0,0,1,0,0,0,1 @ F,0,0,1,0,8,0,1 @ F,0,0,1,0,0,0,1" />
    <inkscape:path-effect
       effect="fillet_chamfer"
       id="path-effect1677-81"
       is_visible="true"
       lpeversion="1"
       satellites_param="F,0,0,1,0,8,0,1 @ F,0,0,1,0,0,0,1 @ F,0,0,1,0,8,0,1 @ F,0,0,1,0,0,0,1 @ F,0,0,1,0,8,0,1 @ F,0,0,1,0,0,0,1"
       unit="px"
       method="auto"
       mode="F"
       radius="0"
       chamfer_steps="1"
       flexible="false"
       use_knot_distance="true"
       apply_no_radius="true"
       apply_with_radius="true"
       only_selected="false"
       hide_knots="false"
       nodesatellites_param="F,0,0,1,0,8,0,1 @ F,0,0,1,0,0,0,1 @ F,0,0,1,0,8,0,1 @ F,0,0,1,0,0,0,1 @ F,0,0,1,0,8,0,1 @ F,0,0,1,0,0,0,1" />
    <inkscape:path-effect
       effect="fillet_chamfer"
       id="path-effect1677-2"
       is_visible="true"
       lpeversion="1"
       satellites_param="F,0,0,1,0,8,0,1 @ F,0,0,1,0,0,0,1 @ F,0,0,1,0,8,0,1 @ F,0,0,1,0,0,0,1 @ F,0,0,1,0,8,0,1 @ F,0,0,1,0,0,0,1"
       unit="px"
       method="auto"
       mode="F"
       radius="0"
       chamfer_steps="1"
       flexible="false"
       use_knot_distance="true"
       apply_no_radius="true"
       apply_with_radius="true"
       only_selected="false"
       hide_knots="false"
       nodesatellites_param="F,0,0,1,0,8,0,1 @ F,0,0,1,0,0,0,1 @ F,0,0,1,0,8,0,1 @ F,0,0,1,0,0,0,1 @ F,0,0,1,0,8,0,1 @ F,0,0,1,0,0,0,1" />
  </defs>
  <g
     inkscape:groupmode="layer"
     id="g8"
     inkscape:label="Arrows_Copy"
     style="display:none"
     transform="translate(-81.207178,-97.210527)">
    <path
       id="path4"
       style="display:inline;fill:#ffffff;fill-opacity:1;stroke:#000000;stroke-width:0.556919;stroke-linejoin:round;stroke-dasharray:none;stroke-opacity:1"
       d="m 99.564231,130.33325 c 9.067979,0 16.419049,-7.35106 16.419049,-16.41903 h -6.5678 c -1e-4,5.44063 -4.4106,9.85114 -9.851249,9.85123 -5.114036,-9e-5 -8.248246,-3.63693 -9.284133,-6.54916 l 2.239929,-0.53572 -6.090942,-2.76635 -5.033217,4.63771 2.293674,-0.42913 c 0.505797,1.91292 1.658874,4.79563 4.264677,7.40143 1.485633,1.48563 3.254636,2.68789 5.218982,3.51874 1.964347,0.83084 4.124035,1.29028 6.39103,1.29028 z"
       sodipodi:nodetypes="cccccccccssc"
       inkscape:label="Lower" />
    <path
       id="path7"
       style="display:inline;fill:#000000;stroke:#ffffff;stroke-width:0.555857;stroke-linejoin:round;stroke-opacity:1"
       d="m 99.564234,97.489419 c -9.067979,0 -16.419046,7.351091 -16.419045,16.419061 h 6.567797 c 9.9e-5,-5.44063 4.410601,-9.85114 9.851248,-9.85124 5.114036,1e-4 8.248246,3.63694 9.284136,6.54917 l -2.23993,0.53572 6.09094,2.76635 5.03322,-4.63771 -2.29367,0.42913 c -0.5058,-1.91292 -1.65888,-4.79563 -4.26468,-7.40144 -1.48563,-1.48564 -3.25464,-2.687907 -5.21898,-3.518753 -1.96435,-0.830849 -4.12404,-1.290288 -6.391036,-1.290288 z"
       sodipodi:nodetypes="cccccccccssc"
       inkscape:label="Upper" />
    <path
       style="fill:#ffffff;stroke:#000000;stroke-width:0.556919"
       d="m 85.853051,114.44428 0.581638,-0.52961 1.519634,0.69414"
       id="path8"
       sodipodi:nodetypes="ccc"
       inkscape:label="Lower (Tip)" />
  </g>
  <g
     inkscape:groupmode="layer"
     id="layer1"
     inkscape:label="Text_Object"
     style="display:none"
     transform="translate(-0.63504478,-4.761428)">
    <text
       xml:space="preserve"
       style="font-size:2.82222px;font-family:Constantia;-inkscape-font-specification:Constantia;letter-spacing:0.0370417px;display:inline;fill:#8c8c8c;fill-opacity:1;stroke:none;stroke-width:0.635"
       x="9.5495329"
       y="40.787979"
       id="text7"
       inkscape:label="Caption: Ages of Heaven"><tspan
         sodipodi:role="line"
         id="tspan7"
         style="font-size:2.82222px;letter-spacing:0.0370417px;fill:#8c8c8c;fill-opacity:1;stroke:none;stroke-width:0.635"
         x="9.5495329"
         y="40.787979">Ages of Heaven</tspan></text>
    <path
       style="display:inline;fill:none;fill-opacity:1;stroke:none;stroke-width:0.232049;stroke-opacity:1"
       d="m 15.483774,35.28522 c 1.309489,0.668821 2.366196,0.800736 3.809805,0.811348 1.438204,0.01053 3.089658,-0.290413 4.314661,-0.916996"
       id="path6"
       sodipodi:nodetypes="csc"
       inkscape:label="Text Lower Curve" />
    <text
       xml:space="preserve"
       style="font-style:normal;font-variant:normal;font-weight:normal;font-stretch:normal;font-size:4.5861px;font-family:Constantia;-inkscape-font-specification:Constantia;letter-spacing:0.325437px;display:inline;fill:#1a1a1a;fill-opacity:1;stroke:none;stroke-width:0.264583;stroke-opacity:1"
       id="text6"
       transform="translate(2.5278744,-0.13920004)"
       inkscape:label="Evil"><textPath
         xlink:href="#path6"
         id="textPath6"
         style="letter-spacing:0.325437px">Evil</textPath></text>
    <path
       style="display:inline;fill:none;fill-opacity:1;stroke:none;stroke-width:0.232049;stroke-opacity:1"
       d="m 14.800868,11.129013 c 1.30949,-0.668816 3.049102,-1.047145 4.492711,-1.057757 1.438204,-0.01052 3.089658,0.290413 4.314661,0.916991"
       id="path5"
       sodipodi:nodetypes="csc"
       inkscape:label="Text Upper Curve" />
    <text
       xml:space="preserve"
       style="font-style:normal;font-variant:normal;font-weight:normal;font-stretch:normal;font-size:4.58611px;font-family:Constantia;-inkscape-font-specification:Constantia;display:inline;fill:#ffffff;fill-opacity:1;stroke:none;stroke-width:0.264583;stroke-opacity:1"
       id="text3"
       transform="translate(2.0731404)"
       inkscape:label="Good"><textPath
         xlink:href="#path5"
         id="textPath5"><tspan
           id="tspan3"
           style="font-style:normal;font-variant:normal;font-weight:normal;font-stretch:normal;font-size:4.58611px;font-family:Constantia;-inkscape-font-specification:Constantia;stroke:none;stroke-width:0.264583;stroke-opacity:1">Good</tspan></textPath></text>
    <text
       xml:space="preserve"
       style="font-size:4.02219px;font-family:Constantia;-inkscape-font-specification:Constantia;letter-spacing:0.032487px;display:inline;fill:#010101;fill-opacity:1;stroke:none;stroke-width:0.556919"
       x="1.6257472"
       y="19.72613"
       id="text17"
       inkscape:label="1970-##20"><tspan
         sodipodi:role="line"
         id="tspan16"
         style="font-style:normal;font-variant:normal;font-weight:bold;font-stretch:normal;font-size:4.02219px;font-family:Constantia;-inkscape-font-specification:'Constantia Bold';fill:#010101;fill-opacity:1;stroke-width:0.556919"
         x="1.6257472"
         y="19.72613">1970-</tspan><tspan
         sodipodi:role="line"
         style="font-style:normal;font-variant:normal;font-weight:bold;font-stretch:normal;font-size:4.02219px;font-family:Constantia;-inkscape-font-specification:'Constantia Bold';fill:#010101;fill-opacity:1;stroke-width:0.556919"
         x="1.6257472"
         y="24.753868"
         id="tspan17">##20</tspan></text>
    <text
       xml:space="preserve"
       style="font-size:4.02219px;font-family:Constantia;-inkscape-font-specification:Constantia;letter-spacing:0.032487px;display:inline;fill:#010101;fill-opacity:1;stroke:none;stroke-width:0.556919"
       x="27.151218"
       y="19.72613"
       id="text19"
       inkscape:label="2020"><tspan
         sodipodi:role="line"
         style="font-style:normal;font-variant:normal;font-weight:bold;font-stretch:normal;font-size:4.02219px;font-family:Constantia;-inkscape-font-specification:'Constantia Bold';fill:#010101;fill-opacity:1;stroke-width:0.556919"
         x="27.151218"
         y="19.72613"
         id="tspan18">2020-</tspan><tspan
         sodipodi:role="line"
         style="font-style:normal;font-variant:normal;font-weight:bold;font-stretch:normal;font-size:4.02219px;font-family:Constantia;-inkscape-font-specification:'Constantia Bold';fill:#010101;fill-opacity:1;stroke-width:0.556919"
         x="27.151218"
         y="24.753868"
         id="tspan19">...</tspan></text>
  </g>
  <g
     inkscape:groupmode="layer"
     id="g11"
     inkscape:label="Arrows"
     style="display:inline"
     transform="translate(-81.207177,-97.210527)">
    <path
       id="path10"
       style="display:inline;fill:#000000;stroke:#ffffff;stroke-width:0.555857;stroke-linejoin:round;stroke-opacity:1"
       inkscape:label="Upper"
       d="m 99.564219,97.489212 c -8.41884,0 -15.353481,6.337908 -16.303755,14.501778 0.0081,0.007 0.01754,0.0122 0.02946,0.0154 l 0.312271,0.0807 0.0059,0.0943 c -0.139507,-0.003 -0.249924,-0.003 -0.371189,-0.004 -0.05959,0.56879 -0.09155,1.14582 -0.09155,1.7304 h 6.567641 c 9.9e-5,-5.44064 4.410598,-9.85114 9.851234,-9.85124 4.947279,9e-5 8.035679,3.40188 9.170039,6.26036 0.16022,0.0173 0.29697,0.067 0.40881,0.15273 0.14009,0.10605 0.21029,0.23765 0.21029,0.39476 0,0.0956 -0.0216,0.17953 -0.0648,0.25154 -0.0419,0.072 -0.1062,0.14221 -0.19262,0.2103 -0.0851,0.0667 -0.19217,0.13652 -0.32178,0.20984 -0.12963,0.072 -0.28181,0.15595 -0.45595,0.25153 l 0.003,0.01 h 0.95631 l 0.14548,-0.30456 0.11376,-0.0159 -0.0395,0.68935 -0.0136,0.014 c -0.18226,-0.003 -0.39014,-0.004 -0.59553,-0.004 l 3.81205,1.73131 1.92846,-1.77709 c -0.0855,-0.0389 -0.16153,-0.0898 -0.22797,-0.15273 -0.17414,-0.16497 -0.26106,-0.3938 -0.26106,-0.68708 0,-0.30507 0.0918,-0.54468 0.27511,-0.71881 0.18462,-0.17545 0.436,-0.26333 0.75417,-0.26333 0.30637,0 0.54598,0.08 0.7188,0.23976 0.078,0.072 0.13714,0.15766 0.17993,0.25607 l 1.66559,-1.53461 -2.29376,0.4292 c -0.50579,-1.91292 -1.65856,-4.79577 -4.26436,-7.40158 -1.48563,-1.48564 -3.25496,-2.687987 -5.21931,-3.518831 -1.96434,-0.830849 -4.12388,-1.290324 -6.390877,-1.290323 z m 16.502721,13.316138 -0.51033,0.47045 c -8.8e-4,0.25683 -0.033,0.44835 -0.0961,0.57333 -0.0629,0.127 -0.16598,0.1908 -0.31001,0.1908 -0.11293,0 -0.20363,-0.0468 -0.27238,-0.13868 l -0.25019,0.23023 c 0.1386,0.0632 0.30216,0.0947 0.49085,0.0947 0.3103,0 0.55922,-0.0884 0.74645,-0.26514 0.18723,-0.17806 0.281,-0.42406 0.281,-0.7383 0,-0.15885 -0.0272,-0.29763 -0.0793,-0.41742 z m -1.1888,1.0959 0.67847,-0.62545 c 10e-6,-0.004 4.5e-4,-0.008 4.5e-4,-0.0118 0,-0.26711 -0.0363,-0.463 -0.10832,-0.58738 -0.072,-0.12439 -0.17711,-0.18628 -0.31589,-0.18628 -0.13748,0 -0.23961,0.058 -0.30638,0.17449 -0.0654,0.11522 -0.0983,0.30719 -0.0983,0.57559 0,0.26056 0.0359,0.45892 0.10787,0.59509 0.0129,0.0243 0.0272,0.0457 0.0422,0.0657 z m -5.99069,0.27601 -0.85478,-0.38841 c -0.0754,0.0497 -0.15048,0.0989 -0.23069,0.15273 l 0.0136,0.23976 c 0.27495,-0.004 0.55137,-0.006 0.82894,-0.006 0.0876,0 0.15915,0.002 0.24293,0.002 z m -0.85478,-0.38841 c 0.0292,-0.0193 0.0608,-0.0407 0.0893,-0.0594 0.10213,-0.0681 0.19101,-0.12896 0.26696,-0.18264 0.0812,-0.0563 0.1489,-0.10882 0.20258,-0.15727 0.0537,-0.0497 0.0959,-0.0974 0.12736,-0.14322 0.0314,-0.0471 0.0539,-0.0928 0.0671,-0.13733 0.0131,-0.0459 0.0195,-0.0939 0.0195,-0.14367 0,-0.11521 -0.0432,-0.20607 -0.12962,-0.27283 -0.0159,-0.0125 -0.0333,-0.0225 -0.0508,-0.0326 l -2.01638,0.48223 z m 0.59236,-1.12898 0.22344,-0.0535 c -0.0338,-0.095 -0.076,-0.19235 -0.11421,-0.2887 -0.0405,-0.004 -0.0815,-0.008 -0.12509,-0.008 -0.25925,0 -0.51159,0.083 -0.75643,0.24927 l 0.0748,0.15727 c 0.15188,-0.0824 0.29379,-0.12374 0.42603,-0.12374 0.10546,0 0.19548,0.0233 0.27148,0.0675 z m -25.388133,1.51829 c 0.0066,-0.0628 0.01628,-0.12459 0.02357,-0.18717 -0.01498,-0.0125 -0.02414,-0.0306 -0.02584,-0.0553 -0.0013,-0.0537 -0.0023,-0.11506 -0.0036,-0.18445 v -0.23387 -0.48313 c 0,-0.24222 0.0079,-0.47841 0.02357,-0.70884 l -0.01767,-0.0159 c -0.307687,0.0446 -0.630734,0.0877 -0.968535,0.12963 l 0.01,0.0983 0.402461,0.0389 c 0.0026,0.10213 0.0046,0.21162 0.0059,0.32814 0.0013,0.11522 0.0023,0.23895 0.0023,0.37119 v 0.31408 c 0,0.0654 -9.65e-4,0.12781 -0.0023,0.18673 0,0.0576 -5.03e-4,0.11311 -0.0018,0.16679 0,0.0314 -0.01767,0.0525 -0.05303,0.063 l -0.319975,0.0807 0.0077,0.0943 c 0.240912,-0.004 0.455488,-0.006 0.644028,-0.006 0.0794,0 0.184009,0.002 0.273293,0.003 z m 1.550472,-1.86863 c 0.297213,0 0.540241,0.10213 0.728781,0.30638 0.189849,0.20425 0.284624,0.46597 0.284624,0.78544 0,0.46741 -0.151226,0.85039 -0.453675,1.14891 -0.301141,0.29983 -0.743537,0.47609 -1.327488,0.52846 l -0.02584,-0.17857 c 0.7175,-0.10474 1.117645,-0.4774 1.200132,-1.11765 l -0.0018,-0.002 c -0.15057,0.17021 -0.354823,0.25517 -0.612756,0.25517 -0.212108,0 -0.395713,-0.0722 -0.550212,-0.21619 -0.153188,-0.14533 -0.229784,-0.34173 -0.229784,-0.58919 0,-0.27233 0.09623,-0.4933 0.288703,-0.66352 0.193777,-0.17151 0.426986,-0.25743 0.699322,-0.25743 z m 4.201368,0 c 0.306378,0 0.545982,0.08 0.71881,0.23976 0.172829,0.15973 0.259243,0.38413 0.259243,0.67348 0,0.31424 -0.09377,0.56024 -0.280998,0.7383 -0.18723,0.17676 -0.436151,0.26514 -0.746456,0.26514 -0.305068,0 -0.544673,-0.0825 -0.71881,-0.24747 -0.174138,-0.16497 -0.261056,-0.3938 -0.261056,-0.68708 0,-0.30507 0.0918,-0.54467 0.275106,-0.71881 0.184612,-0.17544 0.436,-0.26332 0.754161,-0.26332 z m 21.903763,0 c 0.30638,0 0.54598,0.08 0.71881,0.23976 0.17283,0.15973 0.25925,0.38413 0.25925,0.67348 0,0.31424 -0.0938,0.56024 -0.281,0.7383 -0.18724,0.17676 -0.43615,0.26514 -0.74646,0.26514 -0.30507,0 -0.54467,-0.0825 -0.71881,-0.24747 -0.17414,-0.16497 -0.26106,-0.3938 -0.26106,-0.68708 0,-0.30507 0.0918,-0.54467 0.27511,-0.71881 0.18461,-0.17544 0.436,-0.26332 0.75416,-0.26332 z m 1.99237,0 c 0.21603,0 0.39425,0.0535 0.53434,0.16089 0.1401,0.10605 0.20984,0.23764 0.20984,0.39476 0,0.0956 -0.0216,0.17953 -0.0648,0.25154 -0.0419,0.072 -0.10575,0.14221 -0.19217,0.2103 -0.0851,0.0667 -0.19262,0.13652 -0.32224,0.20984 -0.12962,0.072 -0.28135,0.15595 -0.45549,0.25153 l 0.002,0.01 h 0.9563 l 0.14548,-0.30456 0.11376,-0.0159 -0.0389,0.68936 -0.014,0.014 c -0.25662,-0.004 -0.53602,-0.006 -0.83846,-0.006 -0.27757,0 -0.55399,0.002 -0.82895,0.006 l -0.0136,-0.23976 c 0.11129,-0.0746 0.21785,-0.14533 0.31998,-0.21211 0.10212,-0.0681 0.19146,-0.12896 0.2674,-0.18264 0.0812,-0.0563 0.14845,-0.10882 0.20213,-0.15727 0.0537,-0.0497 0.0964,-0.0974 0.12781,-0.14322 0.0314,-0.0471 0.0535,-0.0928 0.0666,-0.13733 0.0131,-0.0459 0.0195,-0.0939 0.0195,-0.14367 0,-0.11521 -0.0432,-0.20607 -0.12962,-0.27283 -0.0851,-0.0667 -0.19217,-0.10017 -0.32179,-0.10017 -0.13224,0 -0.2746,0.0412 -0.42648,0.12373 l -0.0743,-0.15727 c 0.24484,-0.16628 0.49674,-0.24927 0.75598,-0.24927 z m -26.902354,0.0431 c 0.154498,0.003 0.305219,0.004 0.451862,0.006 0.146642,8.8e-4 0.290515,0.003 0.431921,0.003 h 0.110132 c 0.141406,0 0.283315,-8.7e-4 0.426029,-0.003 0.142715,-8.8e-4 0.2743,-0.004 0.394756,-0.006 l 0.0082,0.30049 c -0.111291,0.20033 -0.219309,0.40161 -0.324054,0.60324 -0.103435,0.20032 -0.200627,0.39868 -0.290968,0.59508 -0.09034,0.19509 -0.17283,0.38559 -0.247459,0.57151 -0.07332,0.18723 -0.134708,0.36646 -0.184462,0.53798 l -0.522565,0.0195 -0.0095,-0.0136 1.217354,-2.09751 H 86.25768 l -0.127808,0.40065 -0.127355,0.0136 -0.03354,-0.91506 z m -1.238203,0.12781 c -0.119146,0 -0.21095,0.0531 -0.275106,0.15909 -0.06415,0.10474 -0.09608,0.24861 -0.09608,0.43191 0,0.23699 0.04125,0.41964 0.12373,0.54795 0.08379,0.127 0.18985,0.19081 0.318161,0.19081 0.121766,0 0.218001,-0.0491 0.288703,-0.1473 0.0707,-0.0995 0.106054,-0.23698 0.106054,-0.41244 0,-0.25138 -0.04125,-0.44284 -0.12373,-0.57377 -0.08118,-0.13093 -0.195086,-0.19625 -0.341729,-0.19625 z m 4.209073,0.01 c -0.137477,0 -0.239604,0.058 -0.306378,0.17449 -0.06546,0.11522 -0.09835,0.30719 -0.09835,0.57559 0,0.26056 0.03585,0.45892 0.107867,0.59509 0.07201,0.13616 0.177058,0.2044 0.314536,0.2044 0.144023,0 0.247157,-0.0638 0.310004,-0.19081 0.06415,-0.127 0.09654,-0.32194 0.09654,-0.58511 0,-0.2671 -0.03631,-0.46299 -0.10832,-0.58737 -0.07201,-0.12439 -0.177109,-0.18628 -0.315896,-0.18628 z m 21.903764,0 c -0.13748,0 -0.2396,0.058 -0.30638,0.17449 -0.0654,0.11522 -0.0984,0.30719 -0.0984,0.57559 0,0.26056 0.0359,0.45892 0.10787,0.59509 0.072,0.13616 0.17706,0.2044 0.31454,0.2044 0.14402,0 0.24716,-0.0638 0.31,-0.19081 0.0642,-0.127 0.0965,-0.32194 0.0965,-0.58511 0,-0.2671 -0.0363,-0.46299 -0.10832,-0.58737 -0.072,-0.12439 -0.17711,-0.18628 -0.3159,-0.18628 z m -20.543645,0.56562 v 0.28644 h 1.091812 v -0.28644 z m 26.179465,0 v 0.28644 h 1.0918 v -0.28644 z m -33.503532,3.60584 -0.114213,0.75008 h -0.43192 v 0.28462 h 0.388864 l -0.07478,0.49311 H 82.32139 v 0.28462 h 0.392943 l -0.113758,0.74827 h 0.249271 l 0.113759,-0.74827 h 0.528457 l -0.113759,0.74827 h 0.249273 l 0.111946,-0.74827 h 0.434186 v -0.28462 h -0.391131 l 0.07478,-0.49311 h 0.437813 v -0.28462 h -0.394756 l 0.114211,-0.75008 h -0.247459 l -0.114211,0.75008 h -0.528004 l 0.113759,-0.75008 z m 2.251607,0 -0.113759,0.75008 h -0.432374 v 0.28462 h 0.388864 l -0.07433,0.49311 h -0.435999 v 0.28462 h 0.39249 l -0.113759,0.74827 h 0.249272 l 0.114212,-0.74827 h 0.528003 l -0.113758,0.74827 h 0.249272 l 0.111946,-0.74827 h 0.434187 v -0.28462 h -0.390678 l 0.07433,-0.49311 h 0.438266 v -0.28462 h -0.394756 l 0.113759,-0.75008 h -0.24746 l -0.113759,0.75008 h -0.528456 l 0.113758,-0.75008 z m 2.34633,0.6753 c -0.259243,0 -0.511588,0.0834 -0.756428,0.24972 l 0.07479,0.15681 c 0.15188,-0.0824 0.293789,-0.12372 0.426029,-0.12372 0.129621,0 0.237136,0.0334 0.322241,0.10016 0.08641,0.0667 0.129622,0.15807 0.129622,0.27329 0,0.0497 -0.0064,0.0974 -0.01949,0.14322 -0.01309,0.0446 -0.03565,0.0902 -0.06708,0.13733 -0.03142,0.0459 -0.07367,0.0939 -0.127355,0.14367 -0.05368,0.0484 -0.121414,0.10051 -0.202591,0.15681 -0.07594,0.0537 -0.164822,0.11457 -0.266948,0.18265 -0.102125,0.0667 -0.208683,0.13748 -0.319975,0.21211 l 0.01359,0.23975 c 0.274955,-0.004 0.551371,-0.006 0.828944,-0.006 0.30245,0 0.581836,0.002 0.83846,0.006 l 0.01359,-0.0136 0.03943,-0.68936 -0.113759,0.0154 -0.145485,0.30457 h -0.956287 l -0.0023,-0.01 c 0.174138,-0.0956 0.32632,-0.17907 0.455942,-0.25109 0.129621,-0.0733 0.236682,-0.14351 0.321787,-0.21029 0.08641,-0.0681 0.150721,-0.13828 0.192619,-0.2103 0.0432,-0.072 0.06481,-0.1555 0.06481,-0.25108 0,-0.15712 -0.0702,-0.2887 -0.210295,-0.39475 -0.140095,-0.10737 -0.31786,-0.16135 -0.533895,-0.16135 z m 2.282879,0 c -0.318162,0 -0.569549,0.0879 -0.754161,0.26332 -0.183304,0.17414 -0.274653,0.41374 -0.274653,0.71881 0,0.29328 0.08692,0.52257 0.261056,0.68754 0.174138,0.16497 0.413741,0.24746 0.71881,0.24746 0.310306,0 0.559226,-0.0884 0.746457,-0.26514 0.187231,-0.17807 0.280544,-0.42451 0.280544,-0.73875 0,-0.28936 -0.08641,-0.51375 -0.259242,-0.67348 -0.17283,-0.15974 -0.412433,-0.23976 -0.718811,-0.23976 z m -0.03535,0.18084 c 0.138786,0 0.244337,0.0623 0.316349,0.18672 0.07201,0.12439 0.107867,0.31983 0.107867,0.58692 0,0.26317 -0.03192,0.45856 -0.09608,0.58556 -0.06285,0.12701 -0.166433,0.19036 -0.310457,0.19036 -0.137477,0 -0.242071,-0.0682 -0.314083,-0.20441 -0.07201,-0.13617 -0.107867,-0.33453 -0.107867,-0.59508 0,-0.2684 0.03243,-0.45991 0.0979,-0.57513 0.06678,-0.11653 0.168901,-0.17494 0.306378,-0.17494 z m -6.753461,0.17856 H 83.6099 l -0.07479,0.49311 h -0.528004 z m 2.25206,0 h 0.528004 l -0.07433,0.49311 H 85.25872 Z m 22.976997,0.94678 c -0.093,0 -0.1681,0.028 -0.22571,0.0843 -0.0576,0.055 -0.0866,0.12862 -0.0866,0.22027 0,0.0904 0.0289,0.16402 0.0866,0.22163 0.0576,0.0576 0.13274,0.0866 0.22571,0.0866 0.089,0 0.1622,-0.0289 0.21981,-0.0866 0.0589,-0.0576 0.0884,-0.13128 0.0884,-0.22163 0,-0.0917 -0.0295,-0.16528 -0.0884,-0.22027 -0.0576,-0.0563 -0.13078,-0.0843 -0.21981,-0.0843 z m 1.18336,0 c -0.093,0 -0.1681,0.028 -0.22571,0.0843 -0.0576,0.055 -0.0866,0.12862 -0.0866,0.22027 0,0.0904 0.0289,0.16402 0.0866,0.22163 0.0576,0.0576 0.13274,0.0866 0.22571,0.0866 0.089,0 0.16266,-0.0289 0.22026,-0.0866 0.0589,-0.0576 0.0884,-0.13128 0.0884,-0.22163 0,-0.0917 -0.0295,-0.16528 -0.0884,-0.22027 -0.0576,-0.0563 -0.13123,-0.0843 -0.22026,-0.0843 z m 1.18336,0 c -0.093,0 -0.16809,0.028 -0.2257,0.0843 -0.0576,0.055 -0.0866,0.12862 -0.0866,0.22027 0,0.0904 0.0289,0.16402 0.0866,0.22163 0.0576,0.0576 0.13274,0.0866 0.2257,0.0866 0.089,0 0.16266,-0.0289 0.22027,-0.0866 0.0589,-0.0576 0.0884,-0.13128 0.0884,-0.22163 0,-0.0917 -0.0295,-0.16528 -0.0884,-0.22027 -0.0576,-0.0563 -0.13124,-0.0843 -0.22027,-0.0843 z" />
  </g>
  <g
     inkscape:groupmode="layer"
     id="g25"
     inkscape:label="Text_Path"
     style="display:inline"
     transform="translate(-0.63504488,-4.761428)">
    <path
       d="m 10.588573,38.829788 0.611848,1.68534 q 0.03445,0.09508 0.06201,0.129535 0.02894,0.03307 0.0813,0.04961 l 0.129536,0.03858 0.0028,0.05926 q -0.180523,-0.0041 -0.334863,-0.0041 -0.157096,0 -0.370692,0.0041 l -0.0055,-0.05926 0.130913,-0.03858 q 0.02756,-0.0096 0.03858,-0.02067 0.0124,-0.0124 0.0124,-0.03721 0,-0.02756 -0.01516,-0.07166 -0.01378,-0.04548 -0.03996,-0.119889 l -0.129579,-0.36931 H 10.097992 L 9.9532978,40.44347 q -0.028939,0.07717 -0.045475,0.122645 -0.016536,0.04547 -0.016536,0.07166 0,0.02343 0.012402,0.03583 0.01378,0.01102 0.039963,0.01929 l 0.1281572,0.03721 0.0028,0.06201 q -0.1956809,-0.0041 -0.3197043,-0.0041 -0.1240233,0 -0.2769854,0.0041 l -0.00689,-0.05926 0.1391817,-0.04272 q 0.052365,-0.01654 0.07717,-0.05099 0.024805,-0.03445 0.055122,-0.107487 l 0.704177,-1.681205 z m -0.439594,1.120345 h 0.567751 l -0.268717,-0.759299 z m 1.736161,-0.01792 q 0,0.179145 0.07166,0.276986 0.07304,0.09784 0.21084,0.09784 0.132292,0 0.198437,-0.09095 0.06752,-0.09233 0.06752,-0.268718 0,-0.169498 -0.07166,-0.267339 -0.07028,-0.09784 -0.210839,-0.09784 -0.132292,0 -0.199816,0.08957 -0.06615,0.08957 -0.06615,0.260449 z m -0.01791,0.910883 q -0.09371,0.140559 -0.09371,0.259071 0,0.121267 0.09784,0.188791 0.09784,0.06752 0.265961,0.06752 0.199816,0 0.350022,-0.08957 0.150206,-0.08819 0.150206,-0.248047 0,-0.08682 -0.07441,-0.135047 -0.07304,-0.04685 -0.276986,-0.04685 -0.07304,0 -0.159852,0.0041 -0.08544,0.0041 -0.165364,0.0041 -0.0441,0 -0.09371,-0.0041 z m 0.719335,-1.190624 q 0.103353,0.114377 0.103353,0.272851 0,0.221864 -0.15434,0.354155 -0.15434,0.130914 -0.387228,0.130914 -0.132292,0 -0.237023,-0.04134 -0.07441,0.119889 -0.07441,0.188791 0,0.03721 0.03721,0.05099 0.03858,0.0124 0.14056,0.0124 0.07717,0 0.180523,-0.0041 0.103353,-0.0041 0.192925,-0.0041 0.219108,0 0.345887,0.08406 0.128158,0.08268 0.128158,0.246668 0,0.248047 -0.234267,0.391363 -0.232888,0.143316 -0.530544,0.143316 -0.243912,0 -0.389984,-0.08268 -0.144694,-0.08131 -0.144694,-0.212218 0,-0.158474 0.22462,-0.355534 -0.141938,-0.05374 -0.141938,-0.143316 0,-0.125401 0.197059,-0.350021 -0.214973,-0.130914 -0.214973,-0.37896 0,-0.214974 0.151584,-0.345888 0.152962,-0.130913 0.394118,-0.130913 0.06339,0 0.172255,0.01654 0.103353,0.01929 0.16123,0.01929 0.208084,0 0.383095,-0.0041 l 0.0069,0.0565 z m 1.547371,1.037661 q -0.117133,0.07304 -0.241157,0.104731 -0.124023,0.03169 -0.230132,0.03169 -0.303168,0 -0.483691,-0.172254 -0.180523,-0.173633 -0.180523,-0.480935 0,-0.305925 0.172255,-0.500228 0.173633,-0.194303 0.46302,-0.194303 0.242535,0 0.377583,0.146072 0.135047,0.144694 0.135047,0.401009 0,0.03858 -0.0041,0.07855 h -0.873675 q 0,0.296278 0.139181,0.424435 0.139182,0.12678 0.43546,0.12678 0.132292,0 0.282498,-0.02481 z m -0.261827,-0.700042 v -0.04134 q 0,-0.195682 -0.06339,-0.279742 -0.06201,-0.08406 -0.186035,-0.08406 -0.163986,0 -0.250803,0.118511 -0.08682,0.118511 -0.09784,0.286632 z m 1.194593,-0.37207 q -0.07993,-0.02205 -0.173633,-0.02205 -0.129535,0 -0.209462,0.05099 -0.07855,0.04961 -0.07855,0.136426 0,0.08406 0.05099,0.132292 0.05236,0.04823 0.192925,0.09508 l 0.112999,0.03859 q 0.190169,0.06477 0.278363,0.148828 0.08957,0.08268 0.08957,0.21773 0,0.191547 -0.148828,0.30179 -0.148828,0.108865 -0.376204,0.108865 -0.209462,0 -0.42857,-0.08544 0.04685,-0.179145 0.07579,-0.350022 l 0.05374,-0.0083 0.09922,0.296278 q 0.07855,0.03032 0.199816,0.03032 0.128157,0 0.203949,-0.05237 0.07717,-0.05237 0.07717,-0.14745 0,-0.08819 -0.05236,-0.139182 -0.05099,-0.05099 -0.163987,-0.0882 l -0.143315,-0.04823 q -0.186035,-0.06201 -0.257693,-0.148828 -0.07028,-0.08819 -0.07028,-0.21773 0,-0.180523 0.136425,-0.283875 0.137804,-0.104731 0.362424,-0.104731 0.209462,0 0.380338,0.06063 -0.03859,0.157097 -0.07028,0.332107 l -0.05237,0.0096 z m 1.401133,0.51952 q 0,0.257693 0.09646,0.420301 0.09646,0.16123 0.286631,0.16123 0.177767,0 0.270096,-0.141938 0.09371,-0.143315 0.09371,-0.423057 0,-0.263205 -0.09784,-0.414789 -0.09784,-0.151584 -0.283876,-0.151584 -0.176389,0 -0.271473,0.136425 -0.09371,0.136426 -0.09371,0.413412 z m 1.028016,-0.0124 q 0,0.314193 -0.190169,0.508496 -0.188791,0.192925 -0.480935,0.192925 -0.285254,0 -0.461643,-0.181901 -0.17501,-0.183279 -0.17501,-0.478179 0,-0.303168 0.183278,-0.494715 0.184657,-0.192925 0.487826,-0.192925 0.286631,0 0.461642,0.177767 0.175011,0.176388 0.175011,0.468532 z m 0.677829,-0.464398 v 0.748274 q 0,0.129535 0.0028,0.227376 0.0028,0.03721 0.03583,0.04685 l 0.17501,0.05237 0.0041,0.0565 q -0.208083,-0.0041 -0.341753,-0.0041 -0.136425,0 -0.321082,0.0041 l -0.0069,-0.0565 0.154341,-0.0441 q 0.03859,-0.0124 0.03996,-0.04548 0.0028,-0.08544 0.0028,-0.180523 v -0.811663 l -0.187413,-0.04685 -0.0096,-0.05788 0.198438,-0.01654 v -0.0055 q 0,-0.388606 0.16812,-0.602202 0.169499,-0.213596 0.453374,-0.213596 0.139182,0 0.268718,0.03445 -0.04685,0.168121 -0.07993,0.345887 l -0.05788,0.01103 -0.08957,-0.275608 q -0.03169,-0.0041 -0.07993,-0.0041 -0.158474,0 -0.243912,0.141938 -0.08544,0.141938 -0.08544,0.51952 v 0.04548 h 0.343131 v 0.130914 z m 1.809032,0.173632 v 0.530545 q 0,0.162608 0.0028,0.272851 0.0014,0.03721 0.03583,0.04685 l 0.152962,0.04823 0.0041,0.05926 q -0.163987,-0.0041 -0.327973,-0.0041 -0.163986,0 -0.341753,0.0041 l -0.0055,-0.05926 0.169498,-0.05099 q 0.03583,-0.01102 0.03721,-0.04272 0.0028,-0.111621 0.0028,-0.274229 v -1.117588 q 0,-0.137804 -0.0028,-0.228755 -0.0014,-0.03583 -0.03307,-0.04685 l -0.170876,-0.05374 -0.0028,-0.05926 q 0.177766,0.0055 0.341753,0.0055 0.165364,0 0.326595,-0.0055 l 0.0069,0.05926 -0.157096,0.04823 q -0.03445,0.0083 -0.03583,0.04272 -0.0028,0.09922 -0.0028,0.232888 v 0.467155 h 1.003211 v -0.467155 q 0,-0.133669 -0.0028,-0.232888 -0.0014,-0.03445 -0.03583,-0.04272 l -0.152963,-0.04823 -0.0028,-0.05926 q 0.168121,0.0055 0.332107,0.0055 0.163987,0 0.336241,-0.0055 l 0.0055,0.05926 -0.173633,0.05374 q -0.03169,0.01102 -0.03307,0.04685 -0.0028,0.09095 -0.0028,0.228755 v 1.117588 q 0,0.162608 0.0028,0.274229 0.0014,0.03169 0.03721,0.04272 l 0.166742,0.05099 0.0028,0.05926 q -0.181901,-0.0041 -0.347266,-0.0041 -0.163986,0 -0.321082,0.0041 l -0.0055,-0.05926 0.155719,-0.04823 q 0.03445,-0.0096 0.03583,-0.04685 0.0028,-0.110243 0.0028,-0.272851 v -0.530545 z m 2.842725,0.855761 q -0.117133,0.07304 -0.241157,0.104731 -0.124023,0.03169 -0.230132,0.03169 -0.303168,0 -0.483691,-0.172254 -0.180523,-0.173633 -0.180523,-0.480935 0,-0.305925 0.172255,-0.500228 0.173632,-0.194303 0.46302,-0.194303 0.242535,0 0.377582,0.146072 0.135048,0.144694 0.135048,0.401009 0,0.03858 -0.0041,0.07855 h -0.873676 q 0,0.296278 0.139182,0.424435 0.139182,0.12678 0.43546,0.12678 0.132291,0 0.282498,-0.02481 z M 22.56361,39.990094 v -0.04134 q 0,-0.195682 -0.06339,-0.279742 -0.06201,-0.08406 -0.186035,-0.08406 -0.163986,0 -0.250803,0.118511 -0.08682,0.118511 -0.09784,0.286632 z m 1.257983,0.173632 q -0.30179,0 -0.412033,0.05926 -0.110243,0.05926 -0.110243,0.199815 0,0.130914 0.07304,0.186035 0.07304,0.05374 0.198437,0.05374 0.141938,0 0.248047,-0.04823 z m -0.668348,-0.567751 q 0.268717,-0.117133 0.475423,-0.117133 0.21084,0 0.327973,0.110243 0.118511,0.110243 0.117133,0.318326 l -0.0069,0.573264 q -0.0014,0.07028 0.0028,0.112999 0.0055,0.04272 0.0248,0.06615 0.02067,0.02205 0.06063,0.03169 0.03996,0.0083 0.107487,0.0096 l 0.0069,0.05374 q -0.05926,0.02343 -0.144694,0.04685 -0.08544,0.02343 -0.115755,0.02343 -0.133669,0 -0.183279,-0.137804 -0.192925,0.139182 -0.363802,0.139182 -0.191547,0 -0.30868,-0.09371 -0.115755,-0.09508 -0.115755,-0.26734 0,-0.212217 0.188791,-0.312814 0.190169,-0.100597 0.595312,-0.100597 l 0.0014,-0.107487 q 0.0014,-0.15434 -0.07855,-0.228754 -0.07993,-0.07441 -0.245291,-0.07441 -0.125401,0 -0.314192,0.04685 z m 1.09813,-0.08544 q 0.173633,0.0041 0.30868,0.0041 0.124024,0 0.297656,-0.0041 l 0.0055,0.0565 -0.159853,0.0441 q 0.112999,0.321083 0.261827,0.682129 0.03859,0.09508 0.0689,0.181901 0.03032,-0.08682 0.07028,-0.180523 0.125401,-0.30868 0.263205,-0.683507 l -0.157096,-0.0441 -0.0055,-0.0565 q 0.111621,0.0041 0.232888,0.0041 0.124023,0 0.239779,-0.0041 l 0.0055,0.0565 -0.137804,0.03996 q -0.03169,0.01103 -0.05374,0.05374 -0.108865,0.252181 -0.253559,0.600824 -0.143316,0.347265 -0.216352,0.536056 l -0.117133,0.0124 q -0.07579,-0.199816 -0.219108,-0.547081 -0.141938,-0.347265 -0.243913,-0.595312 -0.02205,-0.04823 -0.06063,-0.06201 l -0.12678,-0.03859 z m 2.616728,1.179599 q -0.117133,0.07304 -0.241156,0.104731 -0.124024,0.03169 -0.230133,0.03169 -0.303168,0 -0.483691,-0.172254 -0.180522,-0.173633 -0.180522,-0.480935 0,-0.305925 0.172254,-0.500228 0.173633,-0.194303 0.463021,-0.194303 0.242534,0 0.377582,0.146072 0.135048,0.144694 0.135048,0.401009 0,0.03858 -0.0041,0.07855 h -0.873675 q 0,0.296278 0.139182,0.424435 0.139181,0.12678 0.435459,0.12678 0.132292,0 0.282498,-0.02481 z m -0.261827,-0.700042 v -0.04134 q 0,-0.195682 -0.06339,-0.279742 -0.06201,-0.08406 -0.186035,-0.08406 -0.163986,0 -0.250802,0.118511 -0.08682,0.118511 -0.09784,0.286632 z m 0.487659,-0.41479 q 0.23151,-0.0441 0.436838,-0.09646 l 0.01378,0.0096 v 0.159852 q 0.239778,-0.169498 0.446484,-0.169498 0.195681,0 0.305924,0.110243 0.111621,0.108865 0.111621,0.310058 v 0.486447 q 0,0.172255 0.0028,0.254937 0.0014,0.03721 0.03583,0.04823 l 0.152962,0.04685 0.0028,0.0565 q -0.181901,-0.0041 -0.316949,-0.0041 -0.135048,0 -0.300412,0.0041 l -0.0055,-0.0565 0.137803,-0.03996 q 0.03169,-0.01102 0.03445,-0.04272 0.0014,-0.01929 0.0014,-0.08682 v -0.600824 q 0,-0.169499 -0.0813,-0.242535 -0.0813,-0.07441 -0.239778,-0.07441 -0.139182,0 -0.28801,0.07993 v 0.602202 q 0,0.172254 0.0028,0.31557 0.0014,0.03721 0.03169,0.04685 l 0.143316,0.04272 0.0028,0.0565 q -0.170877,-0.0041 -0.305924,-0.0041 -0.135048,0 -0.319705,0.0041 l -0.0055,-0.0565 0.162608,-0.04685 q 0.03032,-0.0124 0.03169,-0.04272 0.0014,-0.08819 0.0014,-0.169498 v -0.469911 q 0,-0.180523 -0.0055,-0.334863 l -0.183279,-0.04961 z"
       id="text20"
       style="font-size:2.82222px;font-family:Constantia;-inkscape-font-specification:Constantia;letter-spacing:0.0370417px;fill:#8c8c8c;stroke-width:0.635"
       inkscape:label="Caption: Ages of Heaven"
       aria-label="Ages of Heaven" />
    <g
       id="g1"
       transform="matrix(0.87703814,0,0,0.87703814,2.2951278,4.7623877)">
      <path
         id="path9"
         style="display:inline;fill:#ffffff;fill-opacity:1;stroke:#000000;stroke-width:0.635;stroke-linejoin:round;stroke-dasharray:none;stroke-opacity:1"
         d="M 102.31356,92.765995 C 91.974234,92.765994 83.592539,101.14769 83.59254,111.487 h 7.48861 c 1.13e-4,-6.20342 5.028973,-11.23228 11.23241,-11.23239 5.83103,1.1e-4 9.40466,4.14684 10.58578,7.46736 l -2.55397,0.61083 6.9449,3.1542 5.73888,-5.28792 -2.61525,0.48929 c -0.57671,-2.18111 -1.89145,-5.46798 -4.86259,-8.439119 -1.69392,-1.693919 -3.71094,-3.064734 -5.95069,-4.012068 -2.23975,-0.947335 -4.70223,-1.471189 -7.28706,-1.471188 z"
         sodipodi:nodetypes="cccccccccssc"
         inkscape:label="Lower"
         transform="rotate(180,60.675734,65.265721)" />
      <path
         style="display:inline;fill:#ffffff;stroke:#000000;stroke-width:0.635"
         d="m 83.976535,112.09792 0.663185,-0.60386 1.732688,0.79145"
         id="path11"
         sodipodi:nodetypes="ccc"
         inkscape:label="Lower (Tip)"
         transform="translate(-80.572132,-92.4491)" />
      <path
         style="display:inline;fill:none;fill-opacity:1;stroke:none;stroke-width:0.264583;stroke-opacity:1"
         d="m 95.609843,127.25127 c 1.493082,0.76259 2.69794,0.913 4.343945,0.9251 1.639842,0.012 3.522832,-0.33113 4.919582,-1.04556"
         id="path20"
         sodipodi:nodetypes="csc"
         inkscape:label="Text Lower Curve"
         transform="translate(-80.572132,-92.449101)" />
      <path
         d="m 16.713498,32.173856 0.516866,0.170149 q 0.476453,0.156845 1.008881,0.322687 l 0.0072,0.02122 -0.33973,0.616638 -0.08998,-0.01312 0.02987,-0.534754 -0.982684,-0.323493 -0.38511,1.16986 0.193559,0.06372 q 0.22121,0.07282 0.494869,0.158192 0.056,0.01608 0.09052,-0.0315 l 0.168973,-0.262641 0.11626,0.03356 q -0.104409,0.295682 -0.151323,0.438192 -0.04551,0.138257 -0.13646,0.436013 l -0.11766,-0.0293 0.01936,-0.316609 q 0.0012,-0.0609 -0.04703,-0.07914 -0.275112,-0.09528 -0.498449,-0.168802 l -0.191432,-0.06302 -0.254873,0.774235 q -0.07772,0.236099 -0.14909,0.467218 l 1.020969,0.336097 0.437348,-0.454839 0.101317,0.01449 -0.290464,0.724798 -0.01979,0.01 Q 16.716618,35.465974 16.2508,35.31263 l -0.50623,-0.166648 q -0.25737,-0.08472 -0.529602,-0.167269 l 0.0216,-0.09426 0.287531,0.0074 q 0.05808,0.0026 0.07914,-0.04703 0.03013,-0.08438 0.06444,-0.188604 0.03714,-0.105651 0.07915,-0.233272 l 0.567864,-1.725013 q 0.03571,-0.108478 0.06229,-0.196386 0.02871,-0.08721 0.04969,-0.1581 0.01608,-0.056 -0.02724,-0.08912 l -0.236442,-0.169779 0.02585,-0.09286 q 0.271585,0.09883 0.5247,0.182158 z m 1.062948,1.431455 q 0.281782,0.01595 0.501116,0.02314 0.20143,0.0066 0.483651,0.0091 l 0.0059,0.09205 -0.261966,0.06312 q 0.166443,0.52749 0.388951,1.121792 0.05761,0.156482 0.102228,0.299095 0.05386,-0.139388 0.123747,-0.289453 0.22009,-0.494664 0.463841,-1.096098 l -0.252798,-0.07998 -0.0059,-0.09206 q 0.181067,0.01265 0.37802,0.0191 0.20143,0.0066 0.38965,0.006 l 0.0059,0.09206 -0.225937,0.05757 q -0.05206,0.01622 -0.09014,0.08443 -0.190226,0.403781 -0.443775,0.962325 -0.251238,0.556378 -0.379901,0.859113 l -0.190899,0.01391 q -0.112465,-0.328558 -0.326754,-0.900185 -0.212051,-0.571554 -0.364474,-0.979838 -0.03324,-0.07951 -0.09518,-0.10394 l -0.203853,-0.06941 z m 3.06862,-0.898232 q 0.01447,0.117798 -0.04959,0.202376 -0.06434,0.08236 -0.179912,0.09655 -0.11113,0.01365 -0.190717,-0.04651 -0.07736,-0.06044 -0.09129,-0.17379 -0.01474,-0.12002 0.05014,-0.197931 0.06461,-0.08013 0.18463,-0.09488 0.108907,-0.01338 0.185726,0.04261 0.07654,0.05377 0.09101,0.171567 z m -0.635479,1.034664 q 0.379946,-0.121125 0.701012,-0.244041 l 0.02191,0.0131 q 0.02216,0.290576 0.06475,0.637302 l 0.10484,0.853479 q 0.03276,0.266712 0.04977,0.368406 0.01182,0.05946 0.06512,0.07097 l 0.267105,0.0439 0.01564,0.09058 q -0.307538,0.03101 -0.525353,0.05776 -0.217815,0.02676 -0.517047,0.07028 l -0.02008,-0.09003 0.248539,-0.107239 q 0.04894,-0.02406 0.0471,-0.07573 -0.0062,-0.08723 -0.03132,-0.291707 l -0.09119,-0.742349 q -0.03577,-0.29116 -0.07496,-0.536777 l -0.305435,-0.0437 z m 1.04048,-1.314575 -0.02972,-0.06858 q 0.363718,-0.174942 0.665102,-0.340348 l 0.02406,0.01217 q 0.08033,0.356311 0.246363,0.984127 l 0.37271,1.409338 q 0.102481,0.387514 0.169216,0.622341 0.0231,0.06106 0.08123,0.06191 l 0.254865,0.009 0.02997,0.08704 q -0.293976,0.0708 -0.506135,0.126903 -0.212158,0.05611 -0.500535,0.139319 l -0.03213,-0.08647 0.225739,-0.136136 q 0.04954,-0.03163 0.04013,-0.08473 -0.06037,-0.245777 -0.139945,-0.546695 L 21.915681,33.72659 q -0.212977,-0.805336 -0.350454,-1.290145 z"
         id="text21"
         style="font-size:4.5861px;font-family:Constantia;-inkscape-font-specification:Constantia;letter-spacing:0.325437px;fill:#1a1a1a;stroke-width:0.264583"
         inkscape:label="Evil"
         aria-label="Evil"
         transform="translate(1e-6,-0.13920004)" />
      <path
         style="display:inline;fill:none;fill-opacity:1;stroke:none;stroke-width:0.264583;stroke-opacity:1"
         d="m 94.831193,99.708334 c 1.493082,-0.762584 3.47659,-1.193955 5.122595,-1.206055 1.639842,-0.012 3.522832,0.33113 4.919582,1.045554"
         id="path21"
         sodipodi:nodetypes="csc"
         inkscape:label="Text Upper Curve"
         transform="translate(-80.572132,-92.449101)" />
      <path
         d="m 16.003644,4.093103 -0.08094,0.040648 -0.329449,-0.5094643 q -0.281929,0.016934 -0.509633,0.091512 -0.53202,0.1742476 -0.711463,0.6335997 -0.180139,0.4572241 0.02756,1.0913916 0.209794,0.6405518 0.659454,0.9127104 0.448964,0.2700304 1.000136,0.08951 0.185143,-0.060638 0.348568,-0.1660031 L 16.221782,5.7088104 q -0.03485,-0.1064039 -0.06555,-0.1929582 -0.02858,-0.087251 -0.0544,-0.1589089 -0.02025,-0.054633 -0.07408,-0.053499 l -0.291064,0.00343 -0.03423,-0.090113 q 0.276613,-0.083528 0.527727,-0.1657724 0.255369,-0.083639 0.491623,-0.168086 l 0.04061,0.088022 -0.209657,0.1440705 q -0.0455,0.033752 -0.03372,0.084092 0.02575,0.08582 0.0529,0.1758965 0.02858,0.087251 0.06203,0.189399 l 0.223037,0.6809853 -0.0079,0.019078 q -0.399975,0.246462 -0.763877,0.3656474 -0.746955,0.2446436 -1.319236,-0.00621 -0.570153,-0.2515457 -0.802251,-0.960196 -0.246734,-0.75334 0.06928,-1.3281118 0.317441,-0.5775969 1.111215,-0.8375743 0.342621,-0.1122155 0.747867,-0.1483316 l 0.01835,0.012843 z m 1.83145,0.998322 q 0.03478,0.4173047 0.212931,0.6676127 0.177969,0.2480764 0.485927,0.2224124 0.287873,-0.02399 0.418234,-0.2663026 0.132406,-0.24473 0.09465,-0.6977399 -0.03552,-0.426231 -0.21442,-0.6585004 -0.178898,-0.2322694 -0.480161,-0.2071633 -0.285642,0.023804 -0.421209,0.2575623 -0.133336,0.233572 -0.09596,0.6821188 z m 1.663082,-0.1588186 q 0.0424,0.5087993 -0.239334,0.8491156 -0.27969,0.3378986 -0.752785,0.3773245 -0.461936,0.038496 -0.772126,-0.2322678 -0.308144,-0.2731813 -0.347942,-0.7507385 -0.04091,-0.4909467 0.230036,-0.8258699 0.272995,-0.3373408 0.763942,-0.3782544 0.464168,-0.038682 0.771568,0.225573 0.307215,0.2620234 0.346641,0.7351175 z m 1.032809,0.093265 q -0.05246,0.4154527 0.06996,0.6972462 0.122697,0.2795719 0.429288,0.3182835 0.286595,0.036187 0.464341,-0.1738506 0.180247,-0.2119786 0.237192,-0.662978 0.05358,-0.4243394 -0.0733,-0.6886401 Q 21.53158,4.2516319 21.231654,4.2137619 20.94728,4.1778556 20.766214,4.3784453 20.587369,4.5793156 20.530985,5.0258714 Z m 1.659891,0.1892717 q -0.06396,0.5065412 -0.410102,0.7810854 -0.343641,0.272603 -0.814636,0.2131331 -0.459886,-0.058067 -0.707231,-0.3872343 -0.244844,-0.3311082 -0.184813,-0.806546 0.06171,-0.4887678 0.396189,-0.7602712 0.336976,-0.2734446 0.825744,-0.2117306 0.462108,0.058348 0.708073,0.3805693 0.246246,0.3199999 0.186776,0.7909943 z m 2.345306,-0.089698 q -0.124322,-0.096259 -0.298588,-0.1608839 -0.361129,-0.1339222 -0.626396,0.00176 -0.264489,0.1335845 -0.418655,0.549303 -0.133144,0.3590296 -0.04537,0.6375766 0.08855,0.2764474 0.395088,0.3901255 0.197361,0.07319 0.452007,0.04343 z m 0.161715,-1.3634756 q 0.400199,0.067208 0.739747,0.1047584 l 0.01267,0.023804 Q 25.27109,4.3351724 25.07955,4.8516712 l -0.423567,1.1421761 q -0.10745,0.2897432 -0.210463,0.5739663 -0.03971,0.107079 -0.05755,0.1745021 -0.01574,0.068202 4.19e-4,0.1147953 0.01694,0.044494 0.06895,0.078114 0.05412,0.034399 0.158318,0.075429 l -0.01987,0.085777 Q 24.490168,7.097861 24.346757,7.085284 24.205446,7.073481 24.159255,7.056352 23.947197,6.977712 23.962473,6.711107 23.547496,6.831874 23.240956,6.718197 22.852532,6.5741529 22.721477,6.2126803 22.5933,5.8498867 22.742797,5.4467657 22.935894,4.9260678 23.350426,4.7549805 23.764957,4.5838932 24.319248,4.7894485 24.453622,4.8392805 24.608589,4.930185 24.780667,4.4661743 24.935,4.0242459 L 24.6827,3.835149 Z"
         id="text22"
         style="font-size:4.58611px;font-family:Constantia;-inkscape-font-specification:Constantia;fill:#ffffff;stroke-width:0.264583"
         inkscape:label="Good"
         aria-label="Good"
         transform="translate(-0.454733)" />
      <g
         id="text23"
         style="font-size:4.58611px;font-family:Constantia;-inkscape-font-specification:Constantia;letter-spacing:0.0370417px;fill:#010101;stroke-width:0.635"
         inkscape:label="1970-##20"
         aria-label="1970-&#10;##20">
        <path
           style="font-weight:bold;-inkscape-font-specification:'Constantia Bold'"
           d="m -0.67141676,15.194088 -0.0111966,-0.111965 q 0.57774239,-0.07166 1.10398061,-0.147795 l 0.0201538,0.01791 q -0.0268717,0.394118 -0.0268717,0.808391 V 16.3115 q 0,0.147794 0,0.266478 0.002239,0.118683 0.004479,0.210495 0.004479,0.06494 0.0627007,0.08061 l 0.35605054,0.09181 0.006718,0.107487 q -0.41427264,-0.0067 -0.7344942,-0.0067 -0.32246087,0 -0.7344942,0.0067 l -0.008957,-0.107487 0.36500778,-0.09181 q 0.0604614,-0.01791 0.0604614,-0.07166 0.002239,-0.09181 0.002239,-0.190341 0.002239,-0.100769 0.002239,-0.212735 v -0.35829 q 0,-0.22617 -0.002239,-0.423229 -0.002239,-0.199299 -0.006718,-0.373966 z M 1.284715,17.88798 q 1.2271427,-0.179145 1.3682193,-1.274168 l -0.00224,-0.0022 q -0.2575208,0.291111 -0.6986652,0.291111 -0.3627685,0 -0.6270072,-0.246324 -0.2619995,-0.248564 -0.2619995,-0.671794 0,-0.465777 0.3291788,-0.756887 0.3314181,-0.29335 0.7971949,-0.29335 0.5083238,0 0.8307846,0.349333 0.3247002,0.349332 0.3247002,0.895724 0,0.799435 -0.517281,1.309998 -0.5150416,0.512802 -1.5137746,0.602374 z m 0.4321871,-2.084799 q 0,0.405315 0.1410766,0.624768 0.143316,0.217213 0.3627685,0.217213 0.208256,0 0.3291788,-0.167948 0.1209228,-0.170188 0.1209228,-0.470256 0,-0.429947 -0.1410766,-0.653879 -0.1388373,-0.223931 -0.3896402,-0.223931 -0.2037774,0 -0.3135036,0.181384 -0.1097263,0.179145 -0.1097263,0.492649 z m 2.1128838,2.160936 1.3883732,-2.391585 H 3.8656149 l -0.1455552,0.456819 -0.1455553,0.01568 -0.038068,-1.04352 0.015675,-0.01791 q 0.2642388,0.0045 0.5150417,0.0067 0.2508028,0.0022 0.4926485,0.0022 H 4.685203 q 0.2418457,0 0.4859307,-0.0022 0.2440849,-0.0022 0.4501016,-0.0067 l 0.00896,0.342615 q -0.1903444,0.342606 -0.3694893,0.68746 -0.1769056,0.342615 -0.3314181,0.678512 -0.1545125,0.333657 -0.2821533,0.651639 -0.1254014,0.320222 -0.2104952,0.613572 l -0.5956569,0.02239 z m 2.6480788,-1.968355 q 0,0.445623 0.1231621,0.678511 0.1231622,0.232889 0.3582899,0.232889 0.2463243,0 0.3538112,-0.217214 0.1097263,-0.217213 0.1097263,-0.667314 0,-0.45682 -0.1231621,-0.669555 -0.1231622,-0.212734 -0.3605292,-0.212734 -0.2351277,0 -0.3493326,0.199299 -0.1119656,0.197059 -0.1119656,0.656118 z m 1.616783,-0.02015 q 0,0.537435 -0.3202216,0.841981 -0.3202215,0.302307 -0.8509384,0.302307 -0.5217596,0 -0.819588,-0.282153 -0.2978285,-0.282153 -0.2978285,-0.783759 0,-0.52176 0.3135037,-0.819588 0.3157429,-0.300068 0.8598956,-0.300068 0.5239989,0 0.819588,0.273196 0.2955892,0.273196 0.2955892,0.768084 z m 0.395332,-0.190341 H 9.7350369 V 16.11221 H 8.4899797 Z"
           id="path31" />
        <path
           style="font-weight:bold;-inkscape-font-specification:'Constantia Bold'"
           d="M 1.3081347,19.896643 1.1782546,20.75206 h 0.4501016 v 0.3247 H 1.1289897 l -0.085094,0.562067 h 0.445623 v 0.3247 H 0.99463105 L 0.86699029,22.816705 H 0.58259772 L 0.7124778,21.963527 H 0.11010298 l -0.12988007,0.853178 h -0.28439257 l 0.12988007,-0.853178 h -0.44786232 v -0.3247 h 0.49712717 L -0.0399309,21.07676 h -0.44338369 v -0.3247 H 0.00933396 L 0.13921403,19.896643 H 0.4236066 L 0.29372653,20.75206 H 0.89610134 L 1.0259814,19.896643 Z M 0.15936784,21.638827 H 0.76174265 L 0.84683649,21.07676 H 0.24446168 Z M 3.8755983,19.896643 3.7457182,20.75206 h 0.4501017 v 0.3247 H 3.6964534 l -0.085094,0.562067 h 0.445623 v 0.3247 H 3.5620947 L 3.4344539,22.816705 H 3.1500614 l 0.12988,-0.853178 H 2.6775666 L 2.5476865,22.816705 H 2.263294 l 0.12988,-0.853178 H 1.9453117 v -0.3247 H 2.4424389 L 2.5275327,21.07676 H 2.084149 v -0.3247 h 0.4926486 l 0.1298801,-0.855417 h 0.2843925 l -0.12988,0.855417 H 3.463565 L 3.5934451,19.896643 Z M 2.7268315,21.638827 H 3.3292063 L 3.4143001,21.07676 H 2.8119253 Z m 3.5818718,0.378444 0.12988,-0.01792 -0.044786,0.785999 -0.015675,0.01568 q -0.4389051,-0.0067 -0.956186,-0.0067 -0.4747341,0 -0.9449895,0.0067 l -0.015675,-0.273196 q 0.1903415,-0.127641 0.3650078,-0.241846 0.1746663,-0.116444 0.3045464,-0.208256 0.1388373,-0.09629 0.2306491,-0.179145 0.091812,-0.08509 0.1455552,-0.16347 0.053743,-0.08061 0.076137,-0.156751 0.022393,-0.07838 0.022393,-0.16347 0,-0.19706 -0.1477945,-0.311264 -0.1455553,-0.114205 -0.3672471,-0.114205 -0.2261705,0 -0.4859307,0.141076 L 4.519494,20.951358 q 0.4187513,-0.284392 0.862135,-0.284392 0.3694864,0 0.6090927,0.183623 0.2396063,0.181385 0.2396063,0.450102 0,0.16347 -0.073897,0.286632 -0.071658,0.123162 -0.2194526,0.239606 -0.1455552,0.114205 -0.3672471,0.239606 -0.2216918,0.123163 -0.5195203,0.286632 l 0.00224,0.0112 h 1.0905447 z m 1.1746121,-0.288872 q 0,0.445623 0.1231622,0.678512 0.1231621,0.232888 0.3582898,0.232888 0.2463243,0 0.3538112,-0.217213 0.1097263,-0.217213 0.1097263,-0.667315 0,-0.456819 -0.1231621,-0.669554 -0.1231622,-0.212735 -0.3605292,-0.212735 -0.2351277,0 -0.3493326,0.199299 -0.1119656,0.19706 -0.1119656,0.656118 z m 1.616783,-0.02015 q 0,0.537434 -0.3202216,0.841981 -0.3202215,0.302307 -0.8509384,0.302307 -0.5217596,0 -0.819588,-0.282153 Q 6.811522,22.28823 6.811522,21.786625 q 0,-0.52176 0.3135036,-0.819588 0.3157429,-0.300068 0.8598956,-0.300068 0.5239989,0 0.8195881,0.273196 0.2955891,0.273196 0.2955891,0.768084 z"
           id="path32" />
      </g>
      <g
         id="text25"
         style="font-size:4.58611px;font-family:Constantia;-inkscape-font-specification:Constantia;letter-spacing:0.0370417px;fill:#010101;stroke-width:0.635"
         inkscape:label="2020"
         aria-label="2020-&#10;...">
        <path
           style="font-weight:bold;-inkscape-font-specification:'Constantia Bold'"
           d="m 30.277949,16.284633 0.12988,-0.01791 -0.04479,0.785998 -0.01568,0.01567 q -0.438905,-0.0067 -0.956186,-0.0067 -0.474734,0 -0.944989,0.0067 l -0.01568,-0.273196 q 0.190341,-0.127641 0.365008,-0.241846 0.174666,-0.116444 0.304546,-0.208256 0.138837,-0.09629 0.230649,-0.179145 0.09181,-0.08509 0.145555,-0.163469 0.05374,-0.08061 0.07614,-0.156752 0.02239,-0.07838 0.02239,-0.16347 0,-0.197059 -0.147795,-0.311264 -0.145555,-0.114205 -0.367247,-0.114205 -0.22617,0 -0.48593,0.141077 L 28.48873,15.21872 q 0.418751,-0.284393 0.862135,-0.284393 0.369486,0 0.609093,0.183624 0.239606,0.181384 0.239606,0.450101 0,0.16347 -0.0739,0.286632 -0.07166,0.123162 -0.219453,0.239607 -0.145555,0.114204 -0.367247,0.239606 -0.221692,0.123162 -0.51952,0.286632 l 0.0022,0.0112 h 1.090545 z m 1.174612,-0.288871 q 0,0.445623 0.123162,0.678511 0.123162,0.232889 0.35829,0.232889 0.246324,0 0.353811,-0.217214 0.109726,-0.217213 0.109726,-0.667314 0,-0.45682 -0.123162,-0.669555 -0.123162,-0.212734 -0.360529,-0.212734 -0.235128,0 -0.349333,0.199299 -0.111965,0.197059 -0.111965,0.656118 z m 1.616783,-0.02015 q 0,0.537435 -0.320222,0.841981 -0.320221,0.302307 -0.850938,0.302307 -0.52176,0 -0.819588,-0.282153 -0.297829,-0.282153 -0.297829,-0.783759 0,-0.52176 0.313504,-0.819588 0.315743,-0.300068 0.859896,-0.300068 0.523998,0 0.819588,0.273196 0.295589,0.273196 0.295589,0.768084 z m 2.083772,0.309025 0.12988,-0.01791 -0.04479,0.785998 -0.01568,0.01567 q -0.438905,-0.0067 -0.956186,-0.0067 -0.474734,0 -0.94499,0.0067 l -0.01568,-0.273196 q 0.190342,-0.127641 0.365008,-0.241846 0.174666,-0.116444 0.304546,-0.208256 0.138838,-0.09629 0.230649,-0.179145 0.09181,-0.08509 0.145556,-0.163469 0.05374,-0.08061 0.07614,-0.156752 0.02239,-0.07838 0.02239,-0.16347 0,-0.197059 -0.147794,-0.311264 -0.145555,-0.114205 -0.367247,-0.114205 -0.226171,0 -0.485931,0.141077 l -0.08509,-0.179145 q 0.418751,-0.284393 0.862135,-0.284393 0.369487,0 0.609093,0.183624 0.239606,0.181384 0.239606,0.450101 0,0.16347 -0.0739,0.286632 -0.07166,0.123162 -0.219453,0.239607 -0.145555,0.114204 -0.367247,0.239606 -0.221691,0.123162 -0.51952,0.286632 l 0.0022,0.0112 h 1.090545 z m 1.174612,-0.288871 q 0,0.445623 0.123162,0.678511 0.123163,0.232889 0.35829,0.232889 0.246325,0 0.353812,-0.217214 0.109726,-0.217213 0.109726,-0.667314 0,-0.45682 -0.123162,-0.669555 -0.123162,-0.212734 -0.360529,-0.212734 -0.235128,0 -0.349333,0.199299 -0.111966,0.197059 -0.111966,0.656118 z m 1.616783,-0.02015 q 0,0.537435 -0.320221,0.841981 -0.320222,0.302307 -0.850939,0.302307 -0.521759,0 -0.819588,-0.282153 -0.297828,-0.282153 -0.297828,-0.783759 0,-0.52176 0.313503,-0.819588 0.315743,-0.300068 0.859896,-0.300068 0.523999,0 0.819588,0.273196 0.295589,0.273196 0.295589,0.768084 z m 0.395332,-0.190341 H 39.5849 v 0.326939 h -1.245057 z"
           id="path33" />
        <path
           style="font-weight:bold;-inkscape-font-specification:'Constantia Bold'"
           d="m 29.010498,22.156108 q 0.152274,0 0.250803,0.09629 0.100769,0.09405 0.100769,0.250803 0,0.154513 -0.100769,0.253042 -0.09853,0.09853 -0.250803,0.09853 -0.158991,0 -0.25752,-0.09853 -0.09853,-0.09853 -0.09853,-0.253042 0,-0.156752 0.09853,-0.250803 0.09853,-0.09629 0.25752,-0.09629 z m 1.349279,0 q 0.152273,0 0.250803,0.09629 0.100769,0.09405 0.100769,0.250803 0,0.154513 -0.100769,0.253042 -0.09853,0.09853 -0.250803,0.09853 -0.158991,0 -0.257521,-0.09853 -0.09853,-0.09853 -0.09853,-0.253042 0,-0.156752 0.09853,-0.250803 0.09853,-0.09629 0.257521,-0.09629 z m 1.349278,0 q 0.152273,0 0.250803,0.09629 0.100769,0.09405 0.100769,0.250803 0,0.154513 -0.100769,0.253042 -0.09853,0.09853 -0.250803,0.09853 -0.158991,0 -0.257521,-0.09853 -0.09853,-0.09853 -0.09853,-0.253042 0,-0.156752 0.09853,-0.250803 0.09853,-0.09629 0.257521,-0.09629 z"
           id="path34" />
      </g>
    </g>
  </g>
</svg>
