<?xml version="1.0" encoding="UTF-8" standalone="no"?>
<!-- Created with Inkscape (http://www.inkscape.org/) -->

<svg
   width="0.71617055in"
   height="0.62095267in"
   viewBox="0 0 18.190732 15.772198"
   version="1.1"
   id="svg1"
   inkscape:version="1.4 (86a8ad7, 2024-10-11)"
   sodipodi:docname="13_power-structure.svg"
   xmlns:inkscape="http://www.inkscape.org/namespaces/inkscape"
   xmlns:sodipodi="http://sodipodi.sourceforge.net/DTD/sodipodi-0.dtd"
   xmlns="http://www.w3.org/2000/svg"
   xmlns:svg="http://www.w3.org/2000/svg">
  <sodipodi:namedview
     id="namedview1"
     pagecolor="#ffffff"
     bordercolor="#000000"
     borderopacity="0.25"
     inkscape:showpageshadow="2"
     inkscape:pageopacity="0.0"
     inkscape:pagecheckerboard="true"
     inkscape:deskcolor="#d1d1d1"
     inkscape:document-units="in"
     inkscape:zoom="14.661611"
     inkscape:cx="34.375485"
     inkscape:cy="29.805728"
     inkscape:window-width="1920"
     inkscape:window-height="1017"
     inkscape:window-x="-8"
     inkscape:window-y="-8"
     inkscape:window-maximized="1"
     inkscape:current-layer="layer1" />
  <defs
     id="defs1">
    <inkscape:path-effect
       effect="fillet_chamfer"
       id="path-effect105"
       is_visible="true"
       lpeversion="1"
       nodesatellites_param="F,0,0,1,0,0.56553041,0,1 @ F,0,0,1,0,0.51905847,0,1 @ F,0,0,1,0,0.38163022,0,1"
       radius="0"
       unit="px"
       method="auto"
       mode="F"
       chamfer_steps="1"
       flexible="false"
       use_knot_distance="true"
       apply_no_radius="true"
       apply_with_radius="true"
       only_selected="false"
       hide_knots="false" />
  </defs>
  <g
     inkscape:label="Layer 1"
     inkscape:groupmode="layer"
     id="layer1"
     transform="translate(-133.08542,-99.218749)">
    <g
       id="g108"
       inkscape:label="power-structure"
       style="display:inline"
       transform="translate(-1.15368,28.372253)">
      <path
         id="path104"
         style="fill:#ffffff;stroke:#000000;stroke-width:0.0485068;stroke-linecap:round"
         inkscape:transform-center-x="6.3657611e-06"
         inkscape:transform-center-y="2.7260165"
         transform="matrix(2.0945519,0,0,2.0945519,-146.28478,-77.485442)"
         d="m 137.9609,78.161337 -3.96615,-6.869584 a 0.29967858,0.29967858 120 0 1 0.25953,-0.449518 h 8.11621 a 0.22033433,0.22033433 59.999998 0 1 0.19081,0.330501 l -4.03486,6.988601 a 0.32650907,0.32650907 0 0 1 -0.56554,0 z"
         inkscape:path-effect="#path-effect105"
         inkscape:original-d="m 138.24367,78.651101 -4.50845,-7.808866 h 9.0169 z"
         inkscape:label="triangle-outer" />
      <path
         sodipodi:type="star"
         style="fill:#ffffff;fill-opacity:1;stroke:#000000;stroke-width:0.0669874;stroke-linecap:round;stroke-dasharray:none;stroke-dashoffset:0;stroke-opacity:1"
         id="path101"
         inkscape:flatsided="true"
         sodipodi:sides="3"
         sodipodi:cx="141.72151"
         sodipodi:cy="69.891609"
         sodipodi:r1="3.6257997"
         sodipodi:r2="1.8128998"
         sodipodi:arg1="0.52359878"
         sodipodi:arg2="1.5707963"
         inkscape:rounded="-3.469447e-18"
         inkscape:randomized="0"
         d="m 144.86155,71.704509 -6.28007,0 3.14003,-5.438699 z"
         inkscape:transform-center-y="-1.349874"
         transform="matrix(-1.4891899,0,0,1.4891899,354.324,-27.736121)"
         inkscape:transform-center-x="3.6776e-05"
         inkscape:label="triangle-inner" />
      <g
         id="g138"
         inkscape:label="font_as_objects"
         style="display:none">
        <text
           xml:space="preserve"
           style="font-size:2.82223px;line-height:1.2;font-family:Lora;-inkscape-font-specification:Lora;text-align:start;writing-mode:lr-tb;direction:ltr;text-anchor:start;fill:#000000;fill-opacity:1;stroke:none;stroke-width:0.1016;stroke-linecap:round;stroke-dasharray:none;stroke-dashoffset:0;stroke-opacity:1"
           x="137.38008"
           y="74.68531"
           id="text135"
           inkscape:label="N"><tspan
             sodipodi:role="line"
             id="tspan135"
             style="fill:#000000;fill-opacity:1;stroke:none;stroke-width:0.1016"
             x="137.38008"
             y="74.68531">N</tspan></text>
        <text
           xml:space="preserve"
           style="font-size:2.82223px;line-height:1.2;font-family:Lora;-inkscape-font-specification:Lora;text-align:start;writing-mode:lr-tb;direction:ltr;text-anchor:start;fill:#000000;fill-opacity:1;stroke:none;stroke-width:0.1016;stroke-linecap:round;stroke-dasharray:none;stroke-dashoffset:0;stroke-opacity:1"
           x="147.07904"
           y="74.68531"
           id="text136"
           inkscape:label="N"><tspan
             sodipodi:role="line"
             id="tspan136"
             style="stroke-width:0.1016"
             x="147.07904"
             y="74.68531">N</tspan></text>
        <text
           xml:space="preserve"
           style="font-size:2.82223px;line-height:1.2;font-family:Lora;-inkscape-font-specification:Lora;text-align:start;writing-mode:lr-tb;direction:ltr;text-anchor:start;fill:#000000;fill-opacity:1;stroke:none;stroke-width:0.1016;stroke-linecap:round;stroke-dasharray:none;stroke-dashoffset:0;stroke-opacity:1"
           x="142.17873"
           y="77.137955"
           id="text137"
           inkscape:label="N"><tspan
             sodipodi:role="line"
             id="tspan137"
             style="stroke-width:0.1016"
             x="142.17873"
             y="77.137955">N</tspan></text>
        <text
           xml:space="preserve"
           style="font-size:2.82223px;line-height:1.2;font-family:Lora;-inkscape-font-specification:Lora;text-align:start;writing-mode:lr-tb;direction:ltr;text-anchor:start;fill:#000000;fill-opacity:1;stroke:none;stroke-width:0.1016;stroke-linecap:round;stroke-dasharray:none;stroke-dashoffset:0;stroke-opacity:1"
           x="141.96423"
           y="82.742897"
           id="text138"
           inkscape:label="M"><tspan
             sodipodi:role="line"
             id="tspan138"
             style="stroke-width:0.1016"
             x="141.96423"
             y="82.742897">M</tspan></text>
      </g>
      <g
         id="g109"
         inkscape:label="font_as_path"
         style="display:inline">
        <path
           d="m 139.07906,74.730466 -1.12607,-1.512715 q -0.0254,-0.03387 -0.0508,-0.06491 -0.0226,-0.03387 -0.048,-0.06773 h -0.003 l 0.008,1.207914 q 0,0.07056 0,0.141112 0,0.07056 -0.006,0.138289 0.0508,-0.0028 0.1016,-0.0056 0.0508,-0.0028 0.1016,-0.0056 v 0.124178 h -0.51647 v -0.09313 q 0.0875,0 0.12418,-0.03669 0.0395,-0.03951 0.0508,-0.09031 0.0113,-0.05362 0.0113,-0.09596 l 0.003,-1.357493 v -0.18909 q -0.0452,0.0028 -0.0931,0.0056 -0.048,0.0028 -0.0959,0.0056 v -0.124178 h 0.33584 l 1.05834,1.41676 q 0.0367,0.04798 0.0706,0.09596 0.0367,0.04798 0.0734,0.09596 h 0.003 l 0.003,-1.292581 q 0,-0.118534 0.008,-0.203201 -0.0508,0.0028 -0.1016,0.0056 -0.0508,0.0028 -0.1016,0.0056 v -0.124178 h 0.51929 v 0.09313 q -0.10442,0.0028 -0.14393,0.04798 -0.0395,0.04516 -0.0423,0.121356 -0.003,0.0762 -0.003,0.1778 l -0.006,1.580449 z"
           id="text105"
           style="font-size:2.82223px;line-height:1.2;font-family:Lora;-inkscape-font-specification:Lora;stroke-width:0.1016;stroke-linecap:round"
           inkscape:label="N"
           aria-label="N" />
        <path
           d="m 148.77802,74.730466 -1.12607,-1.512715 q -0.0254,-0.03387 -0.0508,-0.06491 -0.0226,-0.03387 -0.048,-0.06773 h -0.003 l 0.008,1.207914 q 0,0.07056 0,0.141112 0,0.07056 -0.006,0.138289 0.0508,-0.0028 0.1016,-0.0056 0.0508,-0.0028 0.1016,-0.0056 v 0.124178 h -0.51647 v -0.09313 q 0.0875,0 0.12418,-0.03669 0.0395,-0.03951 0.0508,-0.09031 0.0113,-0.05362 0.0113,-0.09596 l 0.003,-1.357493 v -0.18909 q -0.0452,0.0028 -0.0931,0.0056 -0.048,0.0028 -0.0959,0.0056 v -0.124178 h 0.33584 l 1.05834,1.41676 q 0.0367,0.04798 0.0706,0.09596 0.0367,0.04798 0.0734,0.09596 h 0.003 l 0.003,-1.292581 q 0,-0.118534 0.008,-0.203201 -0.0508,0.0028 -0.1016,0.0056 -0.0508,0.0028 -0.1016,0.0056 v -0.124178 h 0.51929 v 0.09313 q -0.10442,0.0028 -0.14393,0.04798 -0.0395,0.04516 -0.0423,0.121356 -0.003,0.0762 -0.003,0.1778 l -0.006,1.580449 z"
           id="text106"
           style="font-size:2.82223px;line-height:1.2;font-family:Lora;-inkscape-font-specification:Lora;stroke-width:0.1016;stroke-linecap:round"
           inkscape:label="N"
           aria-label="N" />
        <path
           d="m 143.87771,77.18311 -1.12607,-1.512715 q -0.0254,-0.03387 -0.0508,-0.06491 -0.0226,-0.03387 -0.048,-0.06773 h -0.003 l 0.008,1.207915 q 0,0.07055 0,0.141111 0,0.07056 -0.006,0.13829 0.0508,-0.0028 0.1016,-0.0056 0.0508,-0.0028 0.1016,-0.0056 v 0.124178 h -0.51647 v -0.09313 q 0.0875,0 0.12418,-0.03669 0.0395,-0.03951 0.0508,-0.09031 0.0113,-0.05362 0.0113,-0.09596 l 0.003,-1.357493 v -0.189089 q -0.0452,0.0028 -0.0931,0.0056 -0.048,0.0028 -0.096,0.0056 v -0.124178 h 0.33585 l 1.05833,1.416759 q 0.0367,0.04798 0.0706,0.09596 0.0367,0.04798 0.0734,0.09596 h 0.003 l 0.003,-1.292582 q 0,-0.118533 0.008,-0.2032 -0.0508,0.0028 -0.1016,0.0056 -0.0508,0.0028 -0.1016,0.0056 v -0.124178 h 0.51929 v 0.09313 q -0.10442,0.0028 -0.14393,0.04798 -0.0395,0.04516 -0.0423,0.121356 -0.003,0.0762 -0.003,0.177801 l -0.006,1.580448 z"
           id="text107"
           style="font-size:2.82223px;line-height:1.2;font-family:Lora;-inkscape-font-specification:Lora;stroke-width:0.1016;stroke-linecap:round"
           inkscape:label="N"
           aria-label="N" />
        <path
           d="m 143.18344,82.771119 q -0.12418,-0.282223 -0.25118,-0.561623 -0.127,-0.282223 -0.24836,-0.570091 -0.0593,-0.135467 -0.11571,-0.273756 -0.0536,-0.13829 -0.10724,-0.279401 0,0.03104 -0.003,0.06209 0,0.03105 0,0.06209 -0.003,0.1016 -0.008,0.245534 -0.003,0.141112 -0.008,0.304801 -0.006,0.160867 -0.008,0.324556 -0.003,0.160868 -0.006,0.304801 -0.003,0.06209 -0.006,0.124178 0,0.06209 -0.006,0.115712 0.0536,-0.0028 0.10442,-0.0056 0.0536,-0.0028 0.10725,-0.0056 v 0.124178 h -0.53905 v -0.09313 q 0.0875,-0.0028 0.127,-0.03669 0.0423,-0.03669 0.0536,-0.09596 0.0113,-0.05927 0.0141,-0.127001 l 0.0536,-1.286937 q 0.003,-0.05644 0.003,-0.112889 0.003,-0.05644 0.006,-0.110067 -0.0508,0.0028 -0.1016,0.0056 -0.0508,0 -0.1016,0.0028 v -0.121356 h 0.43181 l 0.48542,1.120425 q 0.0536,0.127001 0.10724,0.254001 0.0564,0.124178 0.11289,0.256823 h 0.006 q 0.031,-0.0762 0.0734,-0.180623 0.0423,-0.107245 0.0705,-0.183445 0.12418,-0.310445 0.25682,-0.62089 0.13547,-0.313268 0.26529,-0.646291 h 0.41769 v 0.09313 q -0.10442,-0.0028 -0.15522,0.06491 -0.0508,0.06773 -0.0395,0.242712 l 0.0734,1.284114 q 0.006,0.04798 0.006,0.09313 0,0.04516 0,0.08185 0.0508,-0.0028 0.1016,-0.0028 0.0536,-0.0028 0.10442,-0.0056 v 0.124178 h -0.63217 v -0.09313 q 0.13264,-0.0056 0.16368,-0.09031 0.031,-0.08467 0.0226,-0.245534 l -0.0564,-0.931336 q -0.003,-0.06773 -0.008,-0.135467 -0.003,-0.06773 -0.008,-0.135467 -0.008,0.01976 -0.0197,0.04233 -0.008,0.02258 -0.0169,0.04798 l -0.63501,1.56916 z"
           id="text108"
           style="font-size:2.82223px;line-height:1.2;font-family:Lora;-inkscape-font-specification:Lora;stroke-width:0.1016;stroke-linecap:round"
           inkscape:label="M"
           aria-label="M" />
      </g>
    </g>
  </g>
</svg>
