<?xml version="1.0" encoding="UTF-8" standalone="no"?>
<!-- Created with Inkscape (http://www.inkscape.org/) -->

<svg
   width="0.95168155in"
   height="1.4504905in"
   viewBox="0 0 24.172713 36.842459"
   version="1.1"
   id="svg1"
   sodipodi:docname="15_hebrew-code.svg"
   inkscape:version="1.3 (0e150ed6c4, 2023-07-21)"
   xmlns:inkscape="http://www.inkscape.org/namespaces/inkscape"
   xmlns:sodipodi="http://sodipodi.sourceforge.net/DTD/sodipodi-0.dtd"
   xmlns="http://www.w3.org/2000/svg"
   xmlns:svg="http://www.w3.org/2000/svg">
  <sodipodi:namedview
     id="namedview1"
     pagecolor="#ffffff"
     bordercolor="#000000"
     borderopacity="0.25"
     inkscape:showpageshadow="2"
     inkscape:pageopacity="0.0"
     inkscape:pagecheckerboard="0"
     inkscape:deskcolor="#d1d1d1"
     inkscape:document-units="in"
     inkscape:zoom="6.0397781"
     inkscape:cx="48.015009"
     inkscape:cy="69.290625"
     inkscape:window-width="1920"
     inkscape:window-height="1017"
     inkscape:window-x="-8"
     inkscape:window-y="-8"
     inkscape:window-maximized="1"
     inkscape:current-layer="svg1" />
  <defs
     id="defs1" />
  <text
     xml:space="preserve"
     style="font-size:2.82222px;line-height:0;display:none;fill:#000000;stroke-width:0.264583"
     x="1.2959905"
     y="3.2821946"
     id="text2"
     inkscape:label="fonts_as_objects"><tspan
       sodipodi:role="line"
       id="tspan2"
       style="font-style:normal;font-variant:normal;font-weight:normal;font-stretch:normal;font-size:2.82222px;line-height:1.2;font-family:Constantia;-inkscape-font-specification:Constantia;stroke-width:0.264583"
       x="-60.212292"
       y="-56.228943">Jew</tspan><tspan
       sodipodi:role="line"
       style="font-style:normal;font-variant:normal;font-weight:normal;font-stretch:normal;font-size:2.82222px;line-height:1.2;font-family:Constantia;-inkscape-font-specification:Constantia;stroke-width:0.264583"
       x="-60.212292"
       y="-56.228943"
       id="tspan11">Satan(<tspan
   style="stroke:#000000;stroke-opacity:1"
   id="tspan36">♂</tspan> and <tspan
   style="stroke:#000000;stroke-opacity:1"
   id="tspan37">♀</tspan>) /</tspan><tspan
       sodipodi:role="line"
       style="font-style:normal;font-variant:normal;font-weight:normal;font-stretch:normal;font-size:2.82222px;line-height:1.2;font-family:Constantia;-inkscape-font-specification:Constantia;stroke-width:0.264583"
       x="-60.212292"
       y="-56.228943"
       id="tspan38">  or Samaritan</tspan><tspan
       sodipodi:role="line"
       style="font-style:normal;font-variant:normal;font-weight:normal;font-stretch:normal;font-size:2.82222px;line-height:1.1;font-family:Constantia;-inkscape-font-specification:Constantia;fill:#ff0000;stroke-width:0.264583"
       x="-60.212292"
       y="-56.228943"
       id="tspan13">Red-Herring</tspan><tspan
       style="font-style:normal;font-variant:normal;font-weight:normal;font-stretch:normal;font-size:1.41111px;line-height:1.1;font-family:Constantia;-inkscape-font-specification:Constantia;stroke-width:0.264583"
       sodipodi:role="line"
       id="tspan23"
       x="-60.212292"
       y="-56.228943">(Realm Selector Today, was Heaven)</tspan><tspan
       style="font-style:normal;font-variant:normal;font-weight:normal;font-stretch:normal;font-size:2.82222px;line-height:1.2;font-family:Constantia;-inkscape-font-specification:Constantia;stroke-width:0.264583"
       sodipodi:role="line"
       id="tspan24"
       x="-60.212292"
       y="-56.228943">7-or-Gold</tspan><tspan
       style="font-style:normal;font-variant:normal;font-weight:normal;font-stretch:normal;font-size:2.82222px;line-height:1.2;font-family:Constantia;-inkscape-font-specification:Constantia;stroke-width:0.264583"
       sodipodi:role="line"
       id="tspan25"
       x="-60.212292"
       y="-56.228943">Pariah</tspan><tspan
       style="font-style:normal;font-variant:normal;font-weight:normal;font-stretch:normal;font-size:2.82222px;line-height:1.2;font-family:Constantia;-inkscape-font-specification:Constantia;stroke-width:0.264583"
       sodipodi:role="line"
       id="tspan26"
       x="-60.212292"
       y="-56.228943">Eden</tspan><tspan
       style="font-style:normal;font-variant:normal;font-weight:normal;font-stretch:normal;font-size:2.82222px;line-height:1.2;font-family:Constantia;-inkscape-font-specification:Constantia;stroke-width:0.264583"
       sodipodi:role="line"
       id="tspan27"
       x="-60.212292"
       y="-56.228943">aNgel</tspan><tspan
       style="font-style:normal;font-variant:normal;font-weight:normal;font-stretch:normal;font-size:2.82222px;line-height:1.2;font-family:Constantia;-inkscape-font-specification:Constantia;stroke-width:0.264583"
       sodipodi:role="line"
       id="tspan28"
       x="-60.212292"
       y="-56.228943">Messiah</tspan><tspan
       style="font-style:normal;font-variant:normal;font-weight:normal;font-stretch:normal;font-size:2.82222px;line-height:1.2;font-family:Constantia;-inkscape-font-specification:Constantia;stroke-width:0.264583"
       sodipodi:role="line"
       id="tspan29"
       x="-60.212292"
       y="-56.228943">Beauty</tspan></text>
  <g
     id="text16"
     style="font-size:2.82222px;line-height:0;stroke-width:0.264583"
     inkscape:label="fonts_as_path"
     transform="translate(-60.212291,-56.228944)"
     aria-label="Jew&#10;Satan(♂ and ♀) /&#10;  or Samaritan&#10;Red-Herring&#10;(Realm Selector Today, was Heaven)&#10;7-or-Gold&#10;Pariah&#10;Eden&#10;aNgel&#10;Messiah&#10;Beauty">
    <path
       style="line-height:1.2;font-family:Constantia;-inkscape-font-specification:Constantia"
       d="m 61.622659,57.581887 q 0.177767,0.0055 0.341753,0.0055 0.163986,0 0.340375,-0.0055 l 0.0069,0.05926 -0.170876,0.05099 q -0.03445,0.0083 -0.03721,0.04272 -0.0014,0.04823 -0.0028,0.106109 0,0.0565 0,0.124023 v 1.248502 q 0,0.135048 -0.01103,0.246669 -0.0096,0.110243 -0.03583,0.197059 -0.02618,0.08682 -0.07441,0.15434 -0.04685,0.0689 -0.119889,0.121267 -0.07304,0.05374 -0.176389,0.09371 -0.103352,0.03996 -0.24529,0.07304 l -0.02067,-0.0689 q 0.143316,-0.06063 0.22462,-0.13367 0.08268,-0.07304 0.124024,-0.166742 0.04272,-0.09371 0.05374,-0.21084 0.0124,-0.117133 0.0124,-0.264583 V 57.97051 q 0,-0.07028 -0.0014,-0.126779 0,-0.0565 -0.0014,-0.101975 -0.0014,-0.03583 -0.03307,-0.04685 l -0.170876,-0.05374 z m 1.969215,1.831411 q -0.117133,0.07304 -0.241157,0.104731 -0.124023,0.03169 -0.230132,0.03169 -0.303168,0 -0.483691,-0.172255 -0.180523,-0.173632 -0.180523,-0.480935 0,-0.305924 0.172255,-0.500227 0.173633,-0.194303 0.46302,-0.194303 0.242535,0 0.377583,0.146072 0.135047,0.144693 0.135047,0.401008 0,0.03858 -0.0041,0.07855 h -0.873675 q 0,0.296278 0.139181,0.424436 0.139182,0.126779 0.43546,0.126779 0.132292,0 0.282498,-0.0248 z m -0.261827,-0.700043 v -0.04134 q 0,-0.195681 -0.06339,-0.279741 -0.06201,-0.08406 -0.186035,-0.08406 -0.163986,0 -0.250803,0.118512 -0.08682,0.118511 -0.09784,0.286631 z m 0.347265,-0.479557 q 0.19706,0.0041 0.292144,0.0041 0.136426,0 0.30868,-0.0041 l 0.0055,0.0565 -0.162609,0.0441 q 0.09233,0.307302 0.232889,0.691775 0.03032,0.0813 0.0565,0.166742 0.02618,-0.08406 0.0565,-0.165364 0.110243,-0.2949 0.166742,-0.460265 0.0565,-0.165364 0.108865,-0.323838 l 0.100597,-0.01102 q 0.05237,0.166743 0.107487,0.333485 0.05512,0.166743 0.158474,0.460265 0.03307,0.08819 0.05512,0.166742 0.02618,-0.07993 0.05926,-0.165364 0.152962,-0.387229 0.253559,-0.694531 l -0.155718,-0.0441 -0.0055,-0.0565 q 0.110243,0.0041 0.234267,0.0041 0.122645,0 0.223242,-0.0041 l 0.0069,0.0565 -0.110243,0.03032 q -0.04685,0.01378 -0.0689,0.06615 -0.129535,0.312814 -0.230132,0.564995 -0.100597,0.250803 -0.21773,0.563617 l -0.124023,0.0124 q -0.08406,-0.242534 -0.14056,-0.394118 -0.05512,-0.152962 -0.119889,-0.332107 -0.02756,-0.07304 -0.04685,-0.14056 -0.02205,0.06615 -0.04961,0.136426 -0.07028,0.183279 -0.130913,0.337619 -0.05926,0.15434 -0.139182,0.380338 l -0.121267,0.0124 q -0.117134,-0.325216 -0.213596,-0.576019 -0.09646,-0.250803 -0.21773,-0.566373 -0.01929,-0.05099 -0.07028,-0.06477 l -0.09922,-0.02894 z"
       id="path16" />
    <path
       style="line-height:1.2;font-family:Constantia;-inkscape-font-specification:Constantia"
       d="m 62.55559,61.126815 q -0.144694,-0.04823 -0.265961,-0.04823 -0.181901,0 -0.290766,0.08819 -0.107487,0.08819 -0.107487,0.245291 0,0.08957 0.03721,0.157096 0.03858,0.06752 0.101975,0.118511 0.06477,0.05099 0.146072,0.09095 0.0813,0.03996 0.16812,0.07855 0.09509,0.04134 0.184657,0.08819 0.08957,0.04548 0.161231,0.107487 0.07304,0.06201 0.115755,0.148828 0.0441,0.08682 0.0441,0.202572 0,0.274229 -0.192925,0.418923 -0.191547,0.144694 -0.531923,0.144694 -0.219108,0 -0.485069,-0.07441 l -0.0083,-0.01102 0.06752,-0.468533 0.06201,-0.0096 0.09646,0.391362 q 0.146072,0.05788 0.299034,0.05788 0.205328,0 0.319705,-0.09095 0.115755,-0.09095 0.115755,-0.259071 0,-0.08819 -0.03721,-0.15434 -0.03721,-0.06752 -0.100597,-0.115755 -0.06201,-0.04823 -0.141938,-0.08682 -0.07993,-0.03996 -0.165364,-0.07855 -0.09646,-0.04134 -0.187413,-0.08957 -0.09095,-0.04823 -0.165365,-0.111621 -0.07304,-0.06477 -0.117133,-0.157096 -0.0441,-0.09371 -0.0441,-0.21773 0,-0.249425 0.186035,-0.38585 0.187413,-0.136426 0.496093,-0.136426 0.21773,0 0.456131,0.05099 l 0.0096,0.0096 -0.0813,0.429947 -0.05512,0.0096 z m 1.241611,1.1796 q -0.30179,0 -0.412033,0.05926 -0.110243,0.05926 -0.110243,0.199815 0,0.130914 0.07304,0.186035 0.07304,0.05374 0.198438,0.05374 0.141937,0 0.248046,-0.04823 z m -0.668348,-0.567751 q 0.268718,-0.117133 0.475423,-0.117133 0.21084,0 0.327973,0.110243 0.118511,0.110243 0.117133,0.318326 l -0.0069,0.573264 q -0.0014,0.07028 0.0028,0.112999 0.0055,0.04272 0.02481,0.06615 0.02067,0.02205 0.06063,0.03169 0.03996,0.0083 0.107487,0.0096 l 0.0069,0.05374 q -0.05926,0.02343 -0.144693,0.04685 -0.08544,0.02343 -0.115756,0.02343 -0.133669,0 -0.183279,-0.137804 -0.192925,0.139182 -0.363801,0.139182 -0.191547,0 -0.308681,-0.09371 -0.115755,-0.09508 -0.115755,-0.267339 0,-0.212218 0.188791,-0.312814 0.190169,-0.100597 0.595312,-0.100597 l 0.0014,-0.107487 q 0.0014,-0.15434 -0.07855,-0.228754 -0.07993,-0.07441 -0.24529,-0.07441 -0.125402,0 -0.314193,0.04685 z m 1.666047,0.06477 q -0.0083,0.465777 -0.0083,0.751031 0,0.143316 0.04272,0.198437 0.04272,0.05374 0.162609,0.05374 0.09508,0 0.248046,-0.02481 l 0.0083,0.06201 q -0.238401,0.119889 -0.425814,0.119889 -0.150206,0 -0.223242,-0.07993 -0.07304,-0.08131 -0.07304,-0.243913 0,-0.267339 0.0096,-0.844737 l -0.190169,-0.04685 -0.0083,-0.0565 0.212218,-0.01791 0.09508,-0.333485 q 0.07717,-0.02067 0.14056,-0.03996 l 0.01378,0.0096 q -0.0041,0.166743 -0.0041,0.311437 v 0.05099 h 0.41479 v 0.130913 z m 1.353233,0.502984 q -0.30179,0 -0.412033,0.05926 -0.110243,0.05926 -0.110243,0.199815 0,0.130914 0.07304,0.186035 0.07304,0.05374 0.198437,0.05374 0.141938,0 0.248047,-0.04823 z m -0.668348,-0.567751 q 0.268717,-0.117133 0.475423,-0.117133 0.210839,0 0.327973,0.110243 0.118511,0.110243 0.117133,0.318326 l -0.0069,0.573264 q -0.0014,0.07028 0.0028,0.112999 0.0055,0.04272 0.0248,0.06615 0.02067,0.02205 0.06063,0.03169 0.03996,0.0083 0.107487,0.0096 l 0.0069,0.05374 q -0.05926,0.02343 -0.144694,0.04685 -0.08544,0.02343 -0.115755,0.02343 -0.13367,0 -0.183279,-0.137804 -0.192925,0.139182 -0.363802,0.139182 -0.191547,0 -0.30868,-0.09371 -0.115755,-0.09508 -0.115755,-0.267339 0,-0.212218 0.188791,-0.312814 0.190169,-0.100597 0.595312,-0.100597 l 0.0014,-0.107487 q 0.0014,-0.15434 -0.07855,-0.228754 -0.07993,-0.07441 -0.245291,-0.07441 -0.125401,0 -0.314192,0.04685 z m 1.252636,-0.02067 q 0.23151,-0.0441 0.436837,-0.09646 l 0.01378,0.0096 v 0.159852 q 0.239778,-0.169498 0.446484,-0.169498 0.195681,0 0.305924,0.110243 0.111621,0.108864 0.111621,0.310058 v 0.486447 q 0,0.172255 0.0028,0.254937 0.0014,0.03721 0.03583,0.04823 l 0.152962,0.04685 0.0028,0.0565 q -0.181901,-0.0041 -0.316948,-0.0041 -0.135048,0 -0.300412,0.0041 l -0.0055,-0.0565 0.137804,-0.03996 q 0.03169,-0.01102 0.03445,-0.04272 0.0014,-0.01929 0.0014,-0.08682 v -0.600824 q 0,-0.169499 -0.0813,-0.242535 -0.0813,-0.07441 -0.239779,-0.07441 -0.139181,0 -0.288009,0.07993 v 0.602203 q 0,0.172254 0.0028,0.31557 0.0014,0.03721 0.03169,0.04685 l 0.143316,0.04272 0.0028,0.0565 q -0.170877,-0.0041 -0.305925,-0.0041 -0.135047,0 -0.319704,0.0041 l -0.0055,-0.0565 0.162608,-0.04685 q 0.03032,-0.0124 0.03169,-0.04272 0.0014,-0.08819 0.0014,-0.169499 v -0.46991 q 0,-0.180523 -0.0055,-0.334863 l -0.183279,-0.04961 z m 2.406052,1.732193 Q 68.5156,62.922398 68.5156,62.110734 q 0,-0.817176 0.622873,-1.344965 l 0.05926,0.05237 q -0.439594,0.489203 -0.439594,1.287087 0,0.803395 0.439594,1.292598 z"
       id="path17" />
    <path
       style="stroke:#000000"
       d="m 71.011226,60.698246 0.04961,0.02205 0.22462,0.917773 -0.07855,0.02067 -0.195681,-0.80064 -0.493337,1.058333 q 0.203949,0.103352 0.30868,0.278363 0.104731,0.175011 0.104731,0.374826 0,0.187413 -0.09508,0.359668 -0.09508,0.170876 -0.267339,0.265961 -0.170877,0.09646 -0.359668,0.09646 -0.187413,0 -0.359667,-0.09646 -0.170877,-0.09508 -0.265962,-0.265961 -0.09508,-0.172255 -0.09508,-0.359668 0,-0.299034 0.210839,-0.509874 0.212218,-0.210839 0.514008,-0.210839 0.107487,0 0.228754,0.03721 l 0.496094,-1.062467 -0.740006,0.36518 -0.03307,-0.07304 z m -0.802018,1.225075 q -0.162608,0 -0.318326,0.08406 -0.154341,0.08268 -0.241157,0.2384 -0.08682,0.155719 -0.08682,0.323839 0,0.268717 0.188791,0.457508 0.190169,0.19017 0.457508,0.19017 0.268717,0 0.457509,-0.19017 0.190169,-0.188791 0.190169,-0.457508 0,-0.16812 -0.08682,-0.323839 -0.08682,-0.155718 -0.242534,-0.2384 -0.15434,-0.08406 -0.318327,-0.08406 z"
       id="path18" />
    <path
       style="line-height:1.2;font-family:Constantia;-inkscape-font-specification:Constantia"
       d="m 72.941856,62.306415 q -0.30179,0 -0.412033,0.05926 -0.110243,0.05926 -0.110243,0.199815 0,0.130914 0.07304,0.186035 0.07304,0.05374 0.198437,0.05374 0.141938,0 0.248047,-0.04823 z m -0.668348,-0.567751 q 0.268717,-0.117133 0.475423,-0.117133 0.210839,0 0.327973,0.110243 0.118511,0.110243 0.117133,0.318326 l -0.0069,0.573264 q -0.0014,0.07028 0.0028,0.112999 0.0055,0.04272 0.0248,0.06615 0.02067,0.02205 0.06063,0.03169 0.03996,0.0083 0.107487,0.0096 l 0.0069,0.05374 q -0.05926,0.02343 -0.144694,0.04685 -0.08544,0.02343 -0.115755,0.02343 -0.13367,0 -0.183279,-0.137804 -0.192925,0.139182 -0.363802,0.139182 -0.191547,0 -0.30868,-0.09371 -0.115755,-0.09508 -0.115755,-0.267339 0,-0.212218 0.188791,-0.312814 0.190169,-0.100597 0.595312,-0.100597 l 0.0014,-0.107487 q 0.0014,-0.15434 -0.07855,-0.228754 -0.07993,-0.07441 -0.245291,-0.07441 -0.125401,0 -0.314192,0.04685 z m 1.252636,-0.02067 q 0.23151,-0.0441 0.436837,-0.09646 l 0.01378,0.0096 v 0.159852 q 0.239778,-0.169498 0.446484,-0.169498 0.195681,0 0.305924,0.110243 0.111621,0.108864 0.111621,0.310058 v 0.486447 q 0,0.172255 0.0028,0.254937 0.0014,0.03721 0.03583,0.04823 l 0.152962,0.04685 0.0028,0.0565 q -0.181901,-0.0041 -0.316948,-0.0041 -0.135048,0 -0.300412,0.0041 l -0.0055,-0.0565 0.137803,-0.03996 q 0.03169,-0.01102 0.03445,-0.04272 0.0014,-0.01929 0.0014,-0.08682 v -0.600824 q 0,-0.169499 -0.0813,-0.242535 -0.0813,-0.07441 -0.239778,-0.07441 -0.139182,0 -0.28801,0.07993 v 0.602203 q 0,0.172254 0.0028,0.31557 0.0014,0.03721 0.03169,0.04685 l 0.143316,0.04272 0.0028,0.0565 q -0.170877,-0.0041 -0.305925,-0.0041 -0.135047,0 -0.319704,0.0041 l -0.0055,-0.0565 0.162608,-0.04685 q 0.03032,-0.0124 0.03169,-0.04272 0.0014,-0.08819 0.0014,-0.169499 v -0.46991 q 0,-0.180523 -0.0055,-0.334863 l -0.183279,-0.04961 z m 2.633428,0.05512 q -0.09233,-0.02894 -0.206705,-0.02894 -0.237022,0 -0.361046,0.135048 -0.124023,0.133669 -0.124023,0.40652 0,0.235645 0.110243,0.377583 0.110243,0.140559 0.311436,0.140559 0.129536,0 0.270095,-0.07166 z m -0.198437,-0.82131 q 0.245291,-0.04685 0.44924,-0.09784 l 0.0124,0.01102 q -0.0083,0.2949 -0.0083,0.633897 v 0.749652 q 0,0.19017 0.0014,0.376205 0,0.07028 0.0041,0.112999 0.0055,0.04272 0.0248,0.06614 0.01929,0.02205 0.0565,0.03032 0.03858,0.0083 0.107487,0.0096 l 0.0069,0.05374 q -0.06063,0.02343 -0.146072,0.04685 -0.08406,0.02343 -0.114377,0.02343 -0.139182,0 -0.187413,-0.157096 -0.213596,0.158474 -0.414789,0.158474 -0.254937,0 -0.407899,-0.180523 -0.151585,-0.181901 -0.151585,-0.446484 0,-0.341753 0.202572,-0.529166 0.202571,-0.187413 0.566373,-0.187413 0.08819,0 0.197059,0.01929 0,-0.304546 -0.0055,-0.592556 l -0.186035,-0.05512 z"
       id="path19" />
    <path
       style="stroke:#000000"
       d="m 78.495346,62.295391 v 0.553971 h 0.632519 v 0.0813 h -0.632519 v 0.604958 h -0.08131 v -0.604958 h -0.633897 v -0.0813 h 0.633897 v -0.553971 q -0.141937,0 -0.311436,-0.08957 -0.168121,-0.09095 -0.268717,-0.263205 -0.09922,-0.173632 -0.09922,-0.366558 0,-0.187413 0.09508,-0.359667 0.09646,-0.172255 0.267339,-0.26734 0.170876,-0.09508 0.359667,-0.09508 0.187414,0 0.35829,0.09646 0.172255,0.09508 0.267339,0.26734 0.09508,0.170876 0.09508,0.358289 0,0.28801 -0.198437,0.497472 -0.19706,0.208083 -0.483691,0.221864 z m -0.03996,-1.364257 q -0.162608,0 -0.318326,0.08406 -0.15434,0.08268 -0.241157,0.238401 -0.08682,0.155718 -0.08682,0.323838 0,0.268718 0.188791,0.458887 0.190169,0.188791 0.457508,0.188791 0.268718,0 0.457509,-0.188791 0.190169,-0.190169 0.190169,-0.458887 0,-0.16812 -0.08682,-0.323838 -0.08682,-0.155719 -0.242535,-0.238401 -0.15434,-0.08406 -0.318327,-0.08406 z"
       id="path20" />
    <path
       style="line-height:1.2;font-family:Constantia;-inkscape-font-specification:Constantia"
       d="m 79.712152,60.765769 q 0.622873,0.527789 0.622873,1.339453 0,0.817176 -0.622873,1.344964 l -0.05926,-0.05237 q 0.439593,-0.489203 0.439593,-1.287086 0,-0.803396 -0.439593,-1.292599 z m 1.703255,2.476333 0.695908,-2.276517 h 0.165365 l -0.695909,2.276517 z"
       id="path21" />
    <path
       style="line-height:1.2;font-family:Constantia;-inkscape-font-specification:Constantia"
       d="m 63.243231,65.666897 q 0,0.257693 0.09646,0.420301 0.09646,0.16123 0.286632,0.16123 0.177767,0 0.270095,-0.141938 0.09371,-0.143315 0.09371,-0.423057 0,-0.263205 -0.09784,-0.414789 -0.09784,-0.151584 -0.283876,-0.151584 -0.176388,0 -0.271473,0.136425 -0.09371,0.136426 -0.09371,0.413412 z m 1.028015,-0.0124 q 0,0.314193 -0.190169,0.508496 -0.188791,0.192925 -0.480935,0.192925 -0.285254,0 -0.461642,-0.181901 -0.175011,-0.183279 -0.175011,-0.478179 0,-0.303168 0.183279,-0.494715 0.184657,-0.192925 0.487825,-0.192925 0.286632,0 0.461643,0.177767 0.17501,0.176388 0.17501,0.468532 z m 0.190169,-0.549837 q 0.230133,-0.0441 0.436838,-0.09646 l 0.01378,0.0096 v 0.16123 q 0.254936,-0.170876 0.500227,-0.170876 l 0.0069,0.0083 q -0.03996,0.205328 -0.07855,0.425814 l -0.05512,0.0096 q -0.03858,-0.117133 -0.07441,-0.187413 -0.03583,-0.07166 -0.112999,-0.07166 -0.07441,0 -0.186035,0.0689 v 0.59669 q 0,0.214974 0.0028,0.307302 0.0014,0.03721 0.03445,0.04685 l 0.183279,0.05237 0.0041,0.0565 q -0.214974,-0.0041 -0.350022,-0.0041 -0.135047,0 -0.319704,0.0041 l -0.0055,-0.0565 0.159853,-0.04685 q 0.03307,-0.01102 0.03445,-0.04272 0.0014,-0.05926 0.0014,-0.169498 v -0.469911 q 0,-0.22462 -0.0055,-0.334863 l -0.183279,-0.04961 z m 2.66099,-0.591178 q -0.144694,-0.04823 -0.265961,-0.04823 -0.181901,0 -0.290766,0.08819 -0.107487,0.08819 -0.107487,0.24529 0,0.08957 0.03721,0.157096 0.03859,0.06752 0.101975,0.118512 0.06477,0.05099 0.146072,0.09095 0.0813,0.03996 0.168121,0.07855 0.09508,0.04134 0.184657,0.08819 0.08957,0.04548 0.16123,0.107486 0.07304,0.06201 0.115755,0.148828 0.0441,0.08682 0.0441,0.202572 0,0.274229 -0.192925,0.418923 -0.191547,0.144694 -0.531922,0.144694 -0.219108,0 -0.485069,-0.07441 l -0.0083,-0.01102 0.06752,-0.468533 0.06201,-0.0096 0.09646,0.391362 q 0.146071,0.05788 0.299034,0.05788 0.205327,0 0.319704,-0.09095 0.115755,-0.09095 0.115755,-0.259071 0,-0.08819 -0.03721,-0.154341 -0.03721,-0.06752 -0.100596,-0.115755 -0.06201,-0.04823 -0.141938,-0.08682 -0.07993,-0.03996 -0.165365,-0.07855 -0.09646,-0.04134 -0.187413,-0.08957 -0.09095,-0.04823 -0.165364,-0.111621 -0.07304,-0.06477 -0.117133,-0.157096 -0.0441,-0.09371 -0.0441,-0.21773 0,-0.249424 0.186035,-0.38585 0.187414,-0.136426 0.496094,-0.136426 0.21773,0 0.45613,0.05099 l 0.0096,0.0096 -0.0813,0.429947 -0.05512,0.0096 z m 1.241612,1.1796 q -0.30179,0 -0.412033,0.05926 -0.110243,0.05925 -0.110243,0.199815 0,0.130914 0.07304,0.186035 0.07304,0.05374 0.198437,0.05374 0.141938,0 0.248047,-0.04823 z m -0.668348,-0.567751 q 0.268717,-0.117133 0.475422,-0.117133 0.21084,0 0.327973,0.110243 0.118511,0.110243 0.117133,0.318326 l -0.0069,0.573264 q -0.0014,0.07028 0.0028,0.112999 0.0055,0.04272 0.02481,0.06615 0.02067,0.02205 0.06063,0.03169 0.03996,0.0083 0.107487,0.0096 l 0.0069,0.05374 q -0.05926,0.02343 -0.144694,0.04685 -0.08544,0.02343 -0.115755,0.02343 -0.13367,0 -0.183279,-0.137804 -0.192925,0.139182 -0.363802,0.139182 -0.191547,0 -0.30868,-0.09371 -0.115755,-0.09508 -0.115755,-0.26734 0,-0.212217 0.188791,-0.312814 0.190169,-0.100597 0.595312,-0.100597 l 0.0014,-0.107487 q 0.0014,-0.15434 -0.07855,-0.228754 -0.07993,-0.07441 -0.245291,-0.07441 -0.125401,0 -0.314193,0.04685 z m 2.517673,0.151584 q 0.01929,0.06615 0.01929,0.148828 v 0.491959 q 0,0.161231 0.0028,0.259071 0.0028,0.03721 0.03583,0.04823 l 0.139182,0.03996 0.0028,0.0565 q -0.168121,-0.0041 -0.303168,-0.0041 -0.135048,0 -0.300412,0.0041 l -0.0055,-0.0565 0.130914,-0.03858 q 0.03996,-0.01378 0.04134,-0.0441 0.0014,-0.01929 0.0014,-0.08682 v -0.600824 q 0,-0.169499 -0.07717,-0.242535 -0.07717,-0.07441 -0.228754,-0.07441 -0.13367,0 -0.272852,0.07993 v 0.602202 q 0,0.172254 0.0028,0.31557 0.0014,0.04134 0.02894,0.04685 l 0.146072,0.04272 0.0028,0.0565 q -0.170876,-0.0041 -0.305924,-0.0041 -0.135048,0 -0.319705,0.0041 l -0.0055,-0.0565 0.158475,-0.04685 q 0.03445,-0.0096 0.03583,-0.04272 0.0014,-0.07304 0.0014,-0.169498 v -0.469911 q 0,-0.180523 -0.0055,-0.334863 l -0.183278,-0.04961 -0.0069,-0.04685 q 0.227376,-0.0441 0.43546,-0.09646 l 0.01378,0.0096 v 0.159852 q 0.225999,-0.169498 0.42857,-0.169498 0.248047,0 0.35829,0.191547 0.21773,-0.191547 0.472666,-0.191547 0.191548,0 0.299034,0.108865 0.108865,0.107487 0.108865,0.30868 v 0.487825 q 0,0.173633 0.0028,0.256315 0.0028,0.03721 0.03721,0.04823 l 0.152963,0.04685 0.0028,0.0565 q -0.181901,-0.0041 -0.316949,-0.0041 -0.136426,0 -0.300412,0.0041 l -0.0055,-0.0565 0.136426,-0.03996 q 0.03169,-0.01103 0.03583,-0.04272 0.0014,-0.01929 0.0014,-0.08682 v -0.600824 q 0,-0.169499 -0.07855,-0.242535 -0.07855,-0.07441 -0.23151,-0.07441 -0.15434,0 -0.28801,0.09922 z m 1.949923,0.416167 q -0.30179,0 -0.412033,0.05926 -0.110243,0.05925 -0.110243,0.199815 0,0.130914 0.07304,0.186035 0.07304,0.05374 0.198437,0.05374 0.141938,0 0.248047,-0.04823 z m -0.668348,-0.567751 q 0.268717,-0.117133 0.475423,-0.117133 0.210839,0 0.327973,0.110243 0.118511,0.110243 0.117133,0.318326 l -0.0069,0.573264 q -0.0014,0.07028 0.0028,0.112999 0.0055,0.04272 0.0248,0.06615 0.02067,0.02205 0.06063,0.03169 0.03996,0.0083 0.107487,0.0096 l 0.0069,0.05374 q -0.05926,0.02343 -0.144694,0.04685 -0.08544,0.02343 -0.115755,0.02343 -0.13367,0 -0.183279,-0.137804 -0.192925,0.139182 -0.363802,0.139182 -0.191547,0 -0.30868,-0.09371 -0.115755,-0.09508 -0.115755,-0.26734 0,-0.212217 0.188791,-0.312814 0.190169,-0.100597 0.595312,-0.100597 l 0.0014,-0.107487 q 0.0014,-0.15434 -0.07855,-0.228754 -0.07993,-0.07441 -0.245291,-0.07441 -0.125401,0 -0.314192,0.04685 z m 1.252636,-0.02067 q 0.230132,-0.0441 0.436837,-0.09646 l 0.01378,0.0096 v 0.16123 q 0.254937,-0.170876 0.500227,-0.170876 l 0.0069,0.0083 q -0.03996,0.205328 -0.07855,0.425814 l -0.05512,0.0096 q -0.03858,-0.117133 -0.07441,-0.187413 -0.03583,-0.07166 -0.112999,-0.07166 -0.07441,0 -0.186035,0.0689 v 0.59669 q 0,0.214974 0.0028,0.307302 0.0014,0.03721 0.03445,0.04685 l 0.183279,0.05237 0.0041,0.0565 q -0.214974,-0.0041 -0.350022,-0.0041 -0.135047,0 -0.319704,0.0041 l -0.0055,-0.0565 0.159852,-0.04685 q 0.03307,-0.01102 0.03445,-0.04272 0.0014,-0.05926 0.0014,-0.169498 v -0.469911 q 0,-0.22462 -0.0055,-0.334863 l -0.183279,-0.04961 z m 1.547536,-0.584287 q 0,0.07304 -0.04548,0.119889 -0.04547,0.04547 -0.117133,0.04547 -0.0689,0 -0.112999,-0.04272 -0.04272,-0.04272 -0.04272,-0.112999 0,-0.07441 0.04548,-0.117133 0.04547,-0.0441 0.119889,-0.0441 0.06752,0 0.110243,0.03996 0.04272,0.03858 0.04272,0.111621 z m -0.465777,0.584287 q 0.241156,-0.04547 0.446484,-0.09646 l 0.0124,0.0096 q -0.0083,0.179145 -0.0083,0.394119 v 0.529166 q 0,0.165364 0.0028,0.228754 0.0028,0.03721 0.03445,0.04823 l 0.159852,0.04685 0.0028,0.0565 q -0.19017,-0.0041 -0.325217,-0.0041 -0.135048,0 -0.321083,0.0041 l -0.0055,-0.0565 0.159852,-0.04685 q 0.03169,-0.01102 0.03445,-0.04272 0.0028,-0.05374 0.0028,-0.180523 v -0.460264 q 0,-0.180523 -0.0055,-0.333485 l -0.183279,-0.04961 z m 1.212673,0.08544 q -0.0083,0.465776 -0.0083,0.75103 0,0.143316 0.04272,0.198437 0.04272,0.05374 0.162608,0.05374 0.09508,0 0.248047,-0.02481 l 0.0083,0.06201 q -0.2384,0.119889 -0.425813,0.119889 -0.150206,0 -0.223242,-0.07993 -0.07304,-0.0813 -0.07304,-0.243913 0,-0.267339 0.0096,-0.844737 l -0.190169,-0.04685 -0.0083,-0.0565 0.212218,-0.01792 0.09508,-0.333485 q 0.07717,-0.02067 0.14056,-0.03996 l 0.01378,0.0096 q -0.0041,0.166743 -0.0041,0.311437 v 0.05099 h 0.414789 v 0.130914 z m 1.353233,0.502983 q -0.301791,0 -0.412034,0.05926 -0.110243,0.05925 -0.110243,0.199815 0,0.130914 0.07304,0.186035 0.07304,0.05374 0.198438,0.05374 0.141938,0 0.248046,-0.04823 z M 75.72687,65.125328 q 0.268717,-0.117133 0.475422,-0.117133 0.21084,0 0.327973,0.110243 0.118511,0.110243 0.117133,0.318326 l -0.0069,0.573264 q -0.0014,0.07028 0.0028,0.112999 0.0055,0.04272 0.02481,0.06615 0.02067,0.02205 0.06063,0.03169 0.03996,0.0083 0.107486,0.0096 l 0.0069,0.05374 q -0.05926,0.02343 -0.144694,0.04685 -0.08544,0.02343 -0.115755,0.02343 -0.13367,0 -0.183279,-0.137804 -0.192926,0.139182 -0.363802,0.139182 -0.191547,0 -0.30868,-0.09371 -0.115756,-0.09508 -0.115756,-0.26734 0,-0.212217 0.188791,-0.312814 0.19017,-0.100597 0.595313,-0.100597 l 0.0014,-0.107487 q 0.0014,-0.15434 -0.07855,-0.228754 -0.07993,-0.07441 -0.24529,-0.07441 -0.125402,0 -0.314193,0.04685 z m 1.252635,-0.02067 q 0.23151,-0.0441 0.436838,-0.09646 l 0.01378,0.0096 v 0.159852 q 0.239779,-0.169498 0.446484,-0.169498 0.195682,0 0.305925,0.110243 0.111621,0.108865 0.111621,0.310058 V 65.9149 q 0,0.172255 0.0028,0.254937 0.0014,0.03721 0.03583,0.04823 l 0.152962,0.04685 0.0028,0.0565 q -0.181901,-0.0041 -0.316949,-0.0041 -0.135047,0 -0.300412,0.0041 l -0.0055,-0.0565 0.137804,-0.03996 q 0.03169,-0.01103 0.03445,-0.04272 0.0014,-0.01929 0.0014,-0.08682 v -0.600824 q 0,-0.169499 -0.0813,-0.242535 -0.0813,-0.07441 -0.239779,-0.07441 -0.139182,0 -0.28801,0.07993 v 0.602202 q 0,0.172254 0.0028,0.31557 0.0014,0.03721 0.03169,0.04685 l 0.143316,0.04272 0.0028,0.0565 q -0.170876,-0.0041 -0.305924,-0.0041 -0.135048,0 -0.319705,0.0041 l -0.0055,-0.0565 0.162609,-0.04685 q 0.03032,-0.0124 0.03169,-0.04272 0.0014,-0.08819 0.0014,-0.169498 v -0.469911 q 0,-0.180523 -0.0055,-0.334863 l -0.183279,-0.04961 z"
       id="path22" />
    <path
       style="line-height:1.1;font-family:Constantia;-inkscape-font-specification:Constantia;fill:#ff0000"
       d="m 62.122886,69.139826 q 0,0.08268 0,0.148828 0.0014,0.06615 0.0028,0.119889 0.0014,0.04272 0.03583,0.05374 l 0.152962,0.04547 0.0041,0.05926 q -0.163987,-0.0041 -0.327973,-0.0041 -0.166743,0 -0.341754,0.0041 l -0.0055,-0.05926 0.169499,-0.05099 q 0.03445,-0.0096 0.03721,-0.04272 0.0014,-0.05512 0.0014,-0.122645 0.0014,-0.0689 0.0014,-0.151584 v -1.117588 q 0,-0.07028 -0.0014,-0.12678 0,-0.0565 -0.0014,-0.101974 -0.0014,-0.03583 -0.03307,-0.04685 l -0.170877,-0.05374 -0.0028,-0.05926 q 0.177767,0.0055 0.345888,0.0055 0.03307,0 0.08406,-0.0014 0.05099,-0.0028 0.124023,-0.0055 0.07441,-0.0028 0.124024,-0.0041 0.04961,-0.0014 0.07855,-0.0014 0.314192,0 0.471288,0.118511 0.157097,0.118511 0.157097,0.345888 0,0.205327 -0.107487,0.333485 -0.107487,0.126779 -0.327973,0.195681 0.08682,0.132291 0.159852,0.256315 0.07304,0.122645 0.135048,0.225998 0.06339,0.101975 0.115755,0.180523 0.05236,0.07855 0.09784,0.124023 0.02343,0.02343 0.04685,0.04134 0.02343,0.01654 0.04823,0.02756 0.02618,0.01102 0.05374,0.01929 0.02894,0.0083 0.06339,0.01654 l 0.0041,0.06063 q -0.09922,0.0124 -0.166742,0.0124 -0.0565,0 -0.09922,-0.0028 -0.04272,-0.0028 -0.07579,-0.01102 -0.03307,-0.0083 -0.06063,-0.02067 -0.02618,-0.01378 -0.05237,-0.03445 -0.0565,-0.04272 -0.111621,-0.122645 -0.05374,-0.0813 -0.112999,-0.183279 -0.05788,-0.101975 -0.121267,-0.216352 -0.06339,-0.115755 -0.13367,-0.225998 -0.02067,-0.03307 -0.03583,-0.05237 -0.01378,-0.01929 -0.0317,-0.03032 -0.01654,-0.01103 -0.03996,-0.01516 -0.02205,-0.0041 -0.05788,-0.0055 l -0.09508,-0.0028 z m 0,-0.581532 q 0.08406,0.0041 0.155718,0.0041 0.238401,0 0.348644,-0.100596 0.111621,-0.101975 0.111621,-0.318327 0,-0.209462 -0.106109,-0.305924 -0.106109,-0.09646 -0.332107,-0.09646 -0.03858,0 -0.08268,0.0028 -0.0441,0.0028 -0.09508,0.0083 z m 2.368846,0.906749 q -0.117133,0.07304 -0.241156,0.10473 -0.124024,0.03169 -0.230133,0.03169 -0.303168,0 -0.483691,-0.172254 -0.180523,-0.173633 -0.180523,-0.480935 0,-0.305925 0.172255,-0.500228 0.173633,-0.194303 0.463021,-0.194303 0.242534,0 0.377582,0.146072 0.135047,0.144694 0.135047,0.401009 0,0.03859 -0.0041,0.07855 h -0.873675 q 0,0.296278 0.139182,0.424435 0.139181,0.12678 0.435459,0.12678 0.132292,0 0.282498,-0.02481 z M 64.229905,68.765 v -0.04134 q 0,-0.195682 -0.06339,-0.279742 -0.06201,-0.08406 -0.186035,-0.08406 -0.163986,0 -0.250802,0.118511 -0.08682,0.118511 -0.09784,0.286632 z m 1.441427,-0.359668 q -0.09233,-0.02894 -0.206706,-0.02894 -0.237022,0 -0.361046,0.135048 -0.124023,0.13367 -0.124023,0.406521 0,0.235644 0.110243,0.377582 0.110243,0.14056 0.311436,0.14056 0.129536,0 0.270096,-0.07166 z m -0.198438,-0.82131 q 0.245291,-0.04685 0.449241,-0.09784 l 0.0124,0.01103 q -0.0083,0.2949 -0.0083,0.633897 v 0.749652 q 0,0.190169 0.0014,0.376204 0,0.07028 0.0041,0.112999 0.0055,0.04272 0.0248,0.06615 0.01929,0.02205 0.0565,0.03032 0.03858,0.0083 0.107487,0.0096 l 0.0069,0.05374 q -0.06063,0.02343 -0.146072,0.04685 -0.08406,0.02343 -0.114377,0.02343 -0.139182,0 -0.187413,-0.157096 -0.213596,0.158474 -0.414789,0.158474 -0.254937,0 -0.407899,-0.180523 -0.151584,-0.1819 -0.151584,-0.446484 0,-0.341753 0.202571,-0.529166 0.202572,-0.187413 0.566373,-0.187413 0.08819,0 0.19706,0.01929 0,-0.304547 -0.0055,-0.592556 l -0.186035,-0.05512 z m 0.853006,1.204404 h 0.766188 v 0.179145 H 66.3259 Z m 1.504816,-0.179144 v 0.530544 q 0,0.162608 0.0028,0.272851 0.0014,0.03721 0.03583,0.04685 l 0.152962,0.04823 0.0041,0.05926 q -0.163987,-0.0041 -0.327973,-0.0041 -0.163987,0 -0.341754,0.0041 l -0.0055,-0.05926 0.169499,-0.05099 q 0.03583,-0.01102 0.03721,-0.04272 0.0028,-0.111621 0.0028,-0.274229 V 68.02223 q 0,-0.137804 -0.0028,-0.228754 -0.0014,-0.03583 -0.03307,-0.04685 l -0.170877,-0.05374 -0.0028,-0.05926 q 0.177767,0.0055 0.341754,0.0055 0.165364,0 0.326594,-0.0055 l 0.0069,0.05926 -0.157097,0.04823 q -0.03445,0.0083 -0.03583,0.04272 -0.0028,0.09922 -0.0028,0.232889 v 0.467154 h 1.003211 v -0.467154 q 0,-0.13367 -0.0028,-0.232889 -0.0014,-0.03445 -0.03583,-0.04272 l -0.152962,-0.04823 -0.0028,-0.05926 q 0.168121,0.0055 0.332107,0.0055 0.163986,0 0.336241,-0.0055 l 0.0055,0.05926 -0.173632,0.05374 q -0.03169,0.01103 -0.03307,0.04685 -0.0028,0.09095 -0.0028,0.228754 v 1.117588 q 0,0.162608 0.0028,0.274229 0.0014,0.03169 0.03721,0.04272 l 0.166742,0.05099 0.0028,0.05926 q -0.181901,-0.0041 -0.347265,-0.0041 -0.163987,0 -0.321083,0.0041 l -0.0055,-0.05926 0.155718,-0.04823 q 0.03445,-0.0096 0.03583,-0.04685 0.0028,-0.110243 0.0028,-0.272851 v -0.530544 z m 2.805684,0.855761 q -0.117133,0.07304 -0.241157,0.10473 -0.124023,0.03169 -0.230132,0.03169 -0.303168,0 -0.483691,-0.172254 -0.180523,-0.173633 -0.180523,-0.480935 0,-0.305925 0.172255,-0.500228 0.173632,-0.194303 0.46302,-0.194303 0.242535,0 0.377582,0.146072 0.135048,0.144694 0.135048,0.401009 0,0.03859 -0.0041,0.07855 h -0.873676 q 0,0.296278 0.139182,0.424435 0.139182,0.12678 0.43546,0.12678 0.132291,0 0.282497,-0.02481 z M 70.374573,68.765 v -0.04134 q 0,-0.195682 -0.06339,-0.279742 -0.06201,-0.08406 -0.186035,-0.08406 -0.163986,0 -0.250803,0.118511 -0.08682,0.118511 -0.09784,0.286632 z m 0.450618,-0.414789 q 0.230132,-0.0441 0.436838,-0.09646 l 0.01378,0.0096 v 0.161231 q 0.254937,-0.170877 0.500228,-0.170877 l 0.0069,0.0083 q -0.03996,0.205328 -0.07855,0.425814 l -0.05512,0.0096 q -0.03859,-0.117133 -0.07441,-0.187413 -0.03583,-0.07166 -0.112999,-0.07166 -0.07441,0 -0.186035,0.0689 v 0.59669 q 0,0.214974 0.0028,0.307302 0.0014,0.03721 0.03445,0.04685 l 0.183279,0.05237 0.0041,0.0565 q -0.214973,-0.0041 -0.350021,-0.0041 -0.135048,0 -0.319705,0.0041 l -0.0055,-0.0565 0.159852,-0.04685 q 0.03307,-0.01103 0.03445,-0.04272 0.0014,-0.05926 0.0014,-0.169498 v -0.469911 q 0,-0.22462 -0.0055,-0.334863 l -0.183279,-0.04961 z m 1.08176,0 q 0.230132,-0.0441 0.436837,-0.09646 l 0.01378,0.0096 v 0.161231 q 0.254937,-0.170877 0.500227,-0.170877 l 0.0069,0.0083 q -0.03996,0.205328 -0.07855,0.425814 l -0.05512,0.0096 q -0.03858,-0.117133 -0.07441,-0.187413 -0.03583,-0.07166 -0.112999,-0.07166 -0.07441,0 -0.186035,0.0689 v 0.59669 q 0,0.214974 0.0028,0.307302 0.0014,0.03721 0.03445,0.04685 l 0.183279,0.05237 0.0041,0.0565 q -0.214974,-0.0041 -0.350022,-0.0041 -0.135047,0 -0.319704,0.0041 l -0.0055,-0.0565 0.159852,-0.04685 q 0.03307,-0.01103 0.03445,-0.04272 0.0014,-0.05926 0.0014,-0.169498 v -0.469911 q 0,-0.22462 -0.0055,-0.334863 l -0.183279,-0.04961 z m 1.547535,-0.584288 q 0,0.07304 -0.04548,0.119889 -0.04547,0.04547 -0.117133,0.04547 -0.0689,0 -0.112999,-0.04272 -0.04272,-0.04272 -0.04272,-0.112999 0,-0.07441 0.04547,-0.117133 0.04548,-0.0441 0.11989,-0.0441 0.06752,0 0.110243,0.03996 0.04272,0.03858 0.04272,0.111621 z m -0.465777,0.584288 q 0.241157,-0.04548 0.446484,-0.09646 l 0.0124,0.0096 q -0.0083,0.179145 -0.0083,0.394119 v 0.529166 q 0,0.165365 0.0028,0.228754 0.0028,0.03721 0.03445,0.04823 l 0.159853,0.04685 0.0028,0.0565 q -0.190169,-0.0041 -0.325217,-0.0041 -0.135048,0 -0.321083,0.0041 l -0.0055,-0.0565 0.159852,-0.04685 q 0.03169,-0.01103 0.03445,-0.04272 0.0028,-0.05374 0.0028,-0.180522 v -0.460265 q 0,-0.180523 -0.0055,-0.333485 l -0.183279,-0.04961 z m 0.799262,0 q 0.23151,-0.0441 0.436838,-0.09646 l 0.01378,0.0096 v 0.159853 q 0.239779,-0.169499 0.446484,-0.169499 0.195682,0 0.305925,0.110243 0.111621,0.108865 0.111621,0.310058 v 0.486447 q 0,0.172255 0.0028,0.254937 0.0014,0.03721 0.03583,0.04823 l 0.152962,0.04685 0.0028,0.0565 q -0.181901,-0.0041 -0.316949,-0.0041 -0.135047,0 -0.300412,0.0041 l -0.0055,-0.0565 0.137804,-0.03996 q 0.03169,-0.01102 0.03445,-0.04272 0.0014,-0.01929 0.0014,-0.08682 v -0.600824 q 0,-0.169498 -0.0813,-0.242534 -0.08131,-0.07441 -0.239779,-0.07441 -0.139182,0 -0.28801,0.07993 v 0.602202 q 0,0.172255 0.0028,0.31557 0.0014,0.03721 0.03169,0.04685 l 0.143316,0.04272 0.0028,0.0565 q -0.170876,-0.0041 -0.305924,-0.0041 -0.135048,0 -0.319705,0.0041 l -0.0055,-0.0565 0.162609,-0.04685 q 0.03032,-0.0124 0.03169,-0.04272 0.0014,-0.08819 0.0014,-0.169498 v -0.469911 q 0,-0.180523 -0.0055,-0.334863 l -0.183279,-0.04961 z m 1.958191,0.356911 q 0,0.179145 0.07166,0.276986 0.07304,0.09784 0.210839,0.09784 0.132292,0 0.198438,-0.09095 0.06752,-0.09233 0.06752,-0.268717 0,-0.169499 -0.07166,-0.26734 -0.07028,-0.09784 -0.21084,-0.09784 -0.132292,0 -0.199815,0.08957 -0.06615,0.08957 -0.06615,0.260449 z m -0.01792,0.910883 q -0.09371,0.14056 -0.09371,0.259071 0,0.121267 0.09784,0.188791 0.09784,0.06752 0.265962,0.06752 0.199815,0 0.350021,-0.08957 0.150206,-0.08819 0.150206,-0.248046 0,-0.08682 -0.07441,-0.135048 -0.07304,-0.04685 -0.276985,-0.04685 -0.07304,0 -0.159853,0.0041 -0.08544,0.0041 -0.165364,0.0041 -0.0441,0 -0.09371,-0.0041 z m 0.719336,-1.190624 q 0.103352,0.114377 0.103352,0.272851 0,0.221864 -0.15434,0.354156 -0.15434,0.130913 -0.387228,0.130913 -0.132292,0 -0.237023,-0.04134 -0.07441,0.119889 -0.07441,0.188791 0,0.03721 0.03721,0.05099 0.03859,0.0124 0.14056,0.0124 0.07717,0 0.180523,-0.0041 0.103353,-0.0041 0.192925,-0.0041 0.219108,0 0.345888,0.08406 0.128157,0.08268 0.128157,0.246669 0,0.248046 -0.234266,0.391362 -0.232888,0.143316 -0.530545,0.143316 -0.243912,0 -0.389984,-0.08268 -0.144694,-0.08131 -0.144694,-0.212218 0,-0.158474 0.22462,-0.355534 -0.141938,-0.05374 -0.141938,-0.143315 0,-0.125402 0.19706,-0.350022 -0.214974,-0.130913 -0.214974,-0.37896 0,-0.214974 0.151584,-0.345887 0.152962,-0.130914 0.394119,-0.130914 0.06339,0 0.172254,0.01654 0.103353,0.01929 0.161231,0.01929 0.208083,0 0.383094,-0.0041 l 0.0069,0.0565 z"
       id="path23" />
    <path
       style="font-size:1.41111px;line-height:1.1;font-family:Constantia;-inkscape-font-specification:Constantia"
       d="m 61.929961,71.796819 q -0.311436,-0.263894 -0.311436,-0.669726 0,-0.408588 0.311436,-0.672482 l 0.02963,0.02618 q -0.219797,0.244601 -0.219797,0.643543 0,0.401698 0.219797,0.6463 z m 0.405832,-0.471288 q 0,0.04134 0,0.07441 6.89e-4,0.03307 0.0014,0.05994 6.89e-4,0.02136 0.01792,0.02687 l 0.07648,0.02274 0.0021,0.02963 q -0.08199,-0.0021 -0.163987,-0.0021 -0.08337,0 -0.170876,0.0021 l -0.0028,-0.02963 0.08475,-0.02549 q 0.01722,-0.0048 0.0186,-0.02136 6.89e-4,-0.02756 6.89e-4,-0.06132 6.89e-4,-0.03445 6.89e-4,-0.07579 v -0.558794 q 0,-0.03514 -6.89e-4,-0.06339 0,-0.02825 -6.89e-4,-0.05099 -6.89e-4,-0.01792 -0.01654,-0.02343 l -0.08544,-0.02687 -0.0014,-0.02963 q 0.08888,0.0028 0.172943,0.0028 0.01654,0 0.04203,-6.89e-4 0.02549,-0.0014 0.06201,-0.0028 0.03721,-0.0014 0.06201,-0.0021 0.0248,-6.89e-4 0.03927,-6.89e-4 0.157096,0 0.235644,0.05926 0.07855,0.05926 0.07855,0.172944 0,0.102663 -0.05374,0.166742 -0.05374,0.06339 -0.163987,0.09784 0.04341,0.06615 0.07993,0.128157 0.03652,0.06132 0.06752,0.112999 0.03169,0.05099 0.05788,0.09026 0.02618,0.03927 0.04892,0.06201 0.01171,0.01171 0.02343,0.02067 0.01171,0.0083 0.02412,0.01378 0.01309,0.0055 0.02687,0.0096 0.01447,0.0041 0.03169,0.0083 l 0.0021,0.03032 q -0.04961,0.0062 -0.08337,0.0062 -0.02825,0 -0.04961,-0.0014 -0.02136,-0.0014 -0.0379,-0.0055 -0.01654,-0.0041 -0.03032,-0.01034 -0.01309,-0.0069 -0.02618,-0.01722 -0.02825,-0.02136 -0.05581,-0.06132 -0.02687,-0.04065 -0.0565,-0.09164 -0.02894,-0.05099 -0.06063,-0.108176 -0.03169,-0.05788 -0.06683,-0.112999 -0.01034,-0.01654 -0.01791,-0.02618 -0.0069,-0.0096 -0.01585,-0.01516 -0.0083,-0.0055 -0.01998,-0.0076 -0.01102,-0.0021 -0.02894,-0.0028 l -0.04754,-0.0014 z m 0,-0.290766 q 0.04203,0.0021 0.07786,0.0021 0.1192,0 0.174322,-0.0503 0.05581,-0.05099 0.05581,-0.159164 0,-0.104731 -0.05305,-0.152962 -0.05306,-0.04823 -0.166054,-0.04823 -0.01929,0 -0.04134,0.0014 -0.02205,0.0014 -0.04754,0.0041 z m 1.184423,0.453374 q -0.05857,0.03652 -0.120578,0.05236 -0.06201,0.01585 -0.115066,0.01585 -0.151584,0 -0.241846,-0.08613 -0.09026,-0.08682 -0.09026,-0.240468 0,-0.152962 0.08613,-0.250114 0.08682,-0.09715 0.23151,-0.09715 0.121267,0 0.188791,0.07304 0.06752,0.07235 0.06752,0.200504 0,0.01929 -0.0021,0.03927 h -0.436838 q 0,0.148139 0.06959,0.212218 0.06959,0.06339 0.21773,0.06339 0.06615,0 0.141249,-0.0124 z m -0.130914,-0.350021 v -0.02067 q 0,-0.09784 -0.03169,-0.139871 -0.03101,-0.04203 -0.09302,-0.04203 -0.08199,0 -0.125401,0.05926 -0.04341,0.05925 -0.04892,0.143316 z m 0.610471,0.08682 q -0.150895,0 -0.206017,0.02963 -0.05512,0.02963 -0.05512,0.09991 0,0.06546 0.03652,0.09302 0.03652,0.02687 0.09922,0.02687 0.07097,0 0.124024,-0.02412 z m -0.334174,-0.283876 q 0.134358,-0.05857 0.237711,-0.05857 0.10542,0 0.163987,0.05512 0.05926,0.05512 0.05857,0.159164 l -0.0034,0.286631 q -6.89e-4,0.03514 0.0014,0.0565 0.0028,0.02136 0.0124,0.03307 0.01033,0.01102 0.03032,0.01585 0.01998,0.0041 0.05374,0.0048 l 0.0034,0.02687 q -0.02963,0.01171 -0.07235,0.02343 -0.04272,0.01171 -0.05788,0.01171 -0.06683,0 -0.09164,-0.0689 -0.09646,0.06959 -0.181901,0.06959 -0.09577,0 -0.15434,-0.04685 -0.05788,-0.04754 -0.05788,-0.13367 0,-0.106109 0.0944,-0.156407 0.09508,-0.0503 0.297656,-0.0503 l 6.89e-4,-0.05374 q 6.89e-4,-0.07717 -0.03927,-0.114377 -0.03996,-0.03721 -0.122646,-0.03721 -0.0627,0 -0.157096,0.02343 z m 0.62494,-0.370692 -0.0034,-0.02274 q 0.121956,-0.02343 0.22462,-0.04892 l 0.0062,0.0055 q -0.0041,0.11231 -0.0041,0.312125 v 0.448551 q 0,0.123334 0.0014,0.198437 0.0021,0.01998 0.01929,0.02481 l 0.0751,0.02274 0.0021,0.02825 q -0.09302,-0.0021 -0.160541,-0.0021 -0.06752,0 -0.159852,0.0021 l -0.0028,-0.02825 0.07786,-0.02274 q 0.01722,-0.0055 0.0186,-0.02205 0.0014,-0.07786 0.0014,-0.173632 v -0.283187 q 0,-0.256315 -0.0028,-0.411344 z m 1.030082,0.446484 q 0.0096,0.03307 0.0096,0.07441 v 0.24598 q 0,0.08062 0.0014,0.129535 0.0014,0.0186 0.01791,0.02412 l 0.06959,0.01998 0.0014,0.02825 q -0.08406,-0.0021 -0.151584,-0.0021 -0.06752,0 -0.150206,0.0021 l -0.0028,-0.02825 0.06546,-0.01929 q 0.01998,-0.0069 0.02067,-0.02205 6.89e-4,-0.0096 6.89e-4,-0.04341 v -0.300412 q 0,-0.08475 -0.03858,-0.121267 -0.03858,-0.03721 -0.114377,-0.03721 -0.06683,0 -0.136426,0.03996 v 0.301101 q 0,0.08613 0.0014,0.157785 6.89e-4,0.02067 0.01447,0.02343 l 0.07304,0.02136 0.0014,0.02825 q -0.08544,-0.0021 -0.152962,-0.0021 -0.06752,0 -0.159853,0.0021 l -0.0028,-0.02825 0.07924,-0.02343 q 0.01723,-0.0048 0.01791,-0.02136 6.89e-4,-0.03652 6.89e-4,-0.08475 v -0.234955 q 0,-0.09026 -0.0028,-0.167432 l -0.09164,-0.0248 -0.0034,-0.02343 q 0.113688,-0.02205 0.21773,-0.04823 l 0.0069,0.0048 v 0.07993 q 0.112999,-0.08475 0.214285,-0.08475 0.124023,0 0.179145,0.09577 0.108865,-0.09577 0.236333,-0.09577 0.09577,0 0.149517,0.05443 0.05443,0.05374 0.05443,0.15434 v 0.243913 q 0,0.08682 0.0014,0.128157 0.0014,0.0186 0.0186,0.02412 l 0.07648,0.02343 0.0014,0.02825 q -0.09095,-0.0021 -0.158474,-0.0021 -0.06821,0 -0.150206,0.0021 l -0.0028,-0.02825 0.06821,-0.01998 q 0.01585,-0.0055 0.01791,-0.02136 6.89e-4,-0.0096 6.89e-4,-0.04341 v -0.300412 q 0,-0.08475 -0.03927,-0.121267 -0.03927,-0.03721 -0.115755,-0.03721 -0.07717,0 -0.144005,0.04961 z m 1.406976,-0.381716 q -0.07235,-0.02412 -0.13298,-0.02412 -0.09095,0 -0.145383,0.0441 -0.05374,0.0441 -0.05374,0.122645 0,0.04479 0.0186,0.07855 0.01929,0.03376 0.05099,0.05926 0.03238,0.02549 0.07304,0.04547 0.04065,0.01998 0.08406,0.03927 0.04754,0.02067 0.09233,0.0441 0.04479,0.02274 0.08061,0.05374 0.03652,0.031 0.05788,0.07441 0.02205,0.04341 0.02205,0.101285 0,0.137115 -0.09646,0.209462 -0.09577,0.07235 -0.265961,0.07235 -0.109554,0 -0.242535,-0.03721 l -0.0041,-0.0055 0.03376,-0.234267 0.03101,-0.0048 0.04823,0.195682 q 0.07304,0.02894 0.149517,0.02894 0.102664,0 0.159852,-0.04547 0.05788,-0.04548 0.05788,-0.129535 0,-0.0441 -0.0186,-0.07717 -0.0186,-0.03376 -0.0503,-0.05788 -0.03101,-0.02412 -0.07097,-0.04341 -0.03996,-0.01998 -0.08268,-0.03927 -0.04823,-0.02067 -0.09371,-0.04479 -0.04547,-0.02412 -0.08268,-0.05581 -0.03652,-0.03238 -0.05857,-0.07855 -0.02205,-0.04685 -0.02205,-0.108865 0,-0.124712 0.09302,-0.192925 0.09371,-0.06821 0.248047,-0.06821 0.108865,0 0.228065,0.02549 l 0.0048,0.0048 -0.04065,0.214974 -0.02756,0.0048 z m 0.817177,0.853005 q -0.05857,0.03652 -0.120579,0.05236 -0.06201,0.01585 -0.115066,0.01585 -0.151584,0 -0.241845,-0.08613 -0.09026,-0.08682 -0.09026,-0.240468 0,-0.152962 0.08613,-0.250114 0.08682,-0.09715 0.23151,-0.09715 0.121267,0 0.188791,0.07304 0.06752,0.07235 0.06752,0.200504 0,0.01929 -0.0021,0.03927 H 67.11207 q 0,0.148139 0.06959,0.212218 0.06959,0.06339 0.21773,0.06339 0.06615,0 0.141248,-0.0124 z M 67.41386,71.138118 v -0.02067 q 0,-0.09784 -0.03169,-0.139871 -0.03101,-0.04203 -0.09302,-0.04203 -0.08199,0 -0.125402,0.05926 -0.04341,0.05925 -0.04892,0.143316 z m 0.223931,-0.567752 -0.0034,-0.02274 q 0.121956,-0.02343 0.22462,-0.04892 l 0.0062,0.0055 q -0.0041,0.11231 -0.0041,0.312125 v 0.448551 q 0,0.123334 0.0014,0.198437 0.0021,0.01998 0.01929,0.02481 l 0.0751,0.02274 0.0021,0.02825 q -0.09302,-0.0021 -0.160542,-0.0021 -0.06752,0 -0.159852,0.0021 l -0.0028,-0.02825 0.07786,-0.02274 q 0.01723,-0.0055 0.0186,-0.02205 0.0014,-0.07786 0.0014,-0.173632 V 71.00926 q 0,-0.256315 -0.0028,-0.411344 z m 0.979095,0.917773 q -0.05857,0.03652 -0.120578,0.05236 -0.06201,0.01585 -0.115066,0.01585 -0.151584,0 -0.241846,-0.08613 -0.09026,-0.08682 -0.09026,-0.240468 0,-0.152962 0.08613,-0.250114 0.08682,-0.09715 0.23151,-0.09715 0.121268,0 0.188791,0.07304 0.06752,0.07235 0.06752,0.200504 0,0.01929 -0.0021,0.03927 h -0.436838 q 0,0.148139 0.06959,0.212218 0.06959,0.06339 0.21773,0.06339 0.06615,0 0.141249,-0.0124 z m -0.130913,-0.350021 v -0.02067 q 0,-0.09784 -0.03169,-0.139871 -0.03101,-0.04203 -0.09302,-0.04203 -0.08199,0 -0.125401,0.05926 -0.04341,0.05925 -0.04892,0.143316 z m 0.791682,0.350021 q -0.04272,0.02894 -0.106109,0.04892 -0.0627,0.01929 -0.124712,0.01929 -0.148828,0 -0.235645,-0.08682 -0.08682,-0.08751 -0.08682,-0.232889 0,-0.157785 0.09853,-0.255626 0.09853,-0.09853 0.254936,-0.09853 0.101286,0 0.196371,0.04134 -0.02274,0.09233 -0.04065,0.188791 l -0.02687,0.0041 -0.05581,-0.165364 q -0.03169,-0.01102 -0.07166,-0.01102 -0.102664,0 -0.160542,0.07166 -0.05788,0.07166 -0.05788,0.18948 0,0.138493 0.06546,0.204639 0.06546,0.06615 0.207395,0.06615 0.06546,0 0.139871,-0.01309 z m 0.291455,-0.514697 q -0.0041,0.232888 -0.0041,0.375515 0,0.07166 0.02136,0.09922 0.02136,0.02687 0.0813,0.02687 0.04754,0 0.124024,-0.0124 l 0.0041,0.03101 q -0.1192,0.05994 -0.212907,0.05994 -0.0751,0 -0.111621,-0.03996 -0.03652,-0.04065 -0.03652,-0.121957 0,-0.133669 0.0048,-0.422368 l -0.09508,-0.02343 -0.0041,-0.02825 0.106108,-0.009 0.04754,-0.166742 q 0.03858,-0.01034 0.07028,-0.01998 l 0.0069,0.0048 q -0.0021,0.08337 -0.0021,0.155718 v 0.02549 h 0.207394 v 0.06546 z m 0.424436,0.238401 q 0,0.128846 0.04823,0.21015 0.04823,0.08061 0.143316,0.08061 0.08888,0 0.135048,-0.07097 0.04685,-0.07166 0.04685,-0.211529 0,-0.131603 -0.04892,-0.207395 -0.04892,-0.07579 -0.141937,-0.07579 -0.08819,0 -0.135737,0.06821 -0.04685,0.06821 -0.04685,0.206706 z m 0.514008,-0.0062 q 0,0.157097 -0.09508,0.254248 -0.0944,0.09646 -0.240467,0.09646 -0.142627,0 -0.230822,-0.09095 -0.08751,-0.09164 -0.08751,-0.239089 0,-0.151584 0.09164,-0.247358 0.09233,-0.09646 0.243913,-0.09646 0.143316,0 0.230821,0.08888 0.08751,0.08819 0.08751,0.234266 z m 0.09508,-0.274918 q 0.115066,-0.02205 0.218418,-0.04823 l 0.0069,0.0048 v 0.08061 q 0.127468,-0.08544 0.250113,-0.08544 l 0.0034,0.0041 q -0.01998,0.102664 -0.03928,0.212907 l -0.02756,0.0048 q -0.01929,-0.05857 -0.03721,-0.09371 -0.01792,-0.03583 -0.0565,-0.03583 -0.03721,0 -0.09302,0.03445 v 0.298345 q 0,0.107487 0.0014,0.153651 6.89e-4,0.0186 0.01722,0.02343 l 0.09164,0.02618 0.0021,0.02825 q -0.107487,-0.0021 -0.175011,-0.0021 -0.06752,0 -0.159852,0.0021 l -0.0028,-0.02825 0.07993,-0.02343 q 0.01654,-0.0055 0.01722,-0.02136 6.89e-4,-0.02963 6.89e-4,-0.08475 v -0.234955 q 0,-0.11231 -0.0028,-0.167432 l -0.09164,-0.0248 z M 71.816,71.537059 q -0.08475,0 -0.187413,0.0021 l -0.0028,-0.02963 0.101974,-0.03032 q 0.01723,-0.0048 0.01792,-0.02136 0.0014,-0.05236 0.0014,-0.133669 v -0.687641 h -0.243224 l -0.06132,0.183279 -0.02756,0.0048 -0.01792,-0.246668 0.0048,-0.0055 q 0.169499,0.0028 0.324528,0.0028 h 0.183968 q 0.15434,0 0.325906,-0.0028 l 0.0041,0.0055 -0.04341,0.241845 -0.02756,0.0048 -0.0441,-0.188102 h -0.243224 v 0.687641 q 0,0.0813 0.0014,0.133669 6.89e-4,0.01654 0.01792,0.02136 l 0.101975,0.03032 0.0014,0.02963 q -0.106798,-0.0021 -0.188791,-0.0021 z m 0.500916,-0.325216 q 0,0.128846 0.04823,0.21015 0.04823,0.08061 0.143316,0.08061 0.08888,0 0.135048,-0.07097 0.04685,-0.07166 0.04685,-0.211529 0,-0.131603 -0.04892,-0.207395 -0.04892,-0.07579 -0.141937,-0.07579 -0.08819,0 -0.135737,0.06821 -0.04685,0.06821 -0.04685,0.206706 z m 0.514008,-0.0062 q 0,0.157097 -0.09508,0.254248 -0.0944,0.09646 -0.240467,0.09646 -0.142627,0 -0.230822,-0.09095 -0.0875,-0.09164 -0.0875,-0.239089 0,-0.151584 0.09164,-0.247358 0.09233,-0.09646 0.243913,-0.09646 0.143316,0 0.230821,0.08888 0.08751,0.08819 0.08751,0.234266 z m 0.590489,-0.247357 q -0.04616,-0.01447 -0.103353,-0.01447 -0.118511,0 -0.180523,0.06752 -0.06201,0.06684 -0.06201,0.203261 0,0.117822 0.05512,0.188791 0.05512,0.07028 0.155718,0.07028 0.06477,0 0.135048,-0.03583 z m -0.09922,-0.410655 q 0.122646,-0.02343 0.22462,-0.04892 l 0.0062,0.0055 q -0.0041,0.14745 -0.0041,0.316948 v 0.374826 q 0,0.09508 6.89e-4,0.188102 0,0.03514 0.0021,0.0565 0.0028,0.02136 0.0124,0.03307 0.0096,0.01102 0.02825,0.01516 0.01929,0.0041 0.05374,0.0048 l 0.0034,0.02687 q -0.03032,0.01171 -0.07304,0.02343 -0.04203,0.01171 -0.05719,0.01171 -0.06959,0 -0.09371,-0.07855 -0.106798,0.07924 -0.207395,0.07924 -0.127468,0 -0.203949,-0.09026 -0.07579,-0.09095 -0.07579,-0.223242 0,-0.170876 0.101286,-0.264583 0.101285,-0.09371 0.283186,-0.09371 0.0441,0 0.09853,0.0096 0,-0.152273 -0.0028,-0.296278 l -0.09302,-0.02756 z m 0.789615,0.677305 q -0.150895,0 -0.206016,0.02963 -0.05512,0.02963 -0.05512,0.09991 0,0.06546 0.03652,0.09302 0.03652,0.02687 0.09922,0.02687 0.07097,0 0.124023,-0.02412 z M 73.777634,70.94106 q 0.134359,-0.05857 0.237711,-0.05857 0.10542,0 0.163987,0.05512 0.05925,0.05512 0.05857,0.159164 l -0.0034,0.286631 q -6.89e-4,0.03514 0.0014,0.0565 0.0028,0.02136 0.0124,0.03307 0.01034,0.01102 0.03032,0.01585 0.01998,0.0041 0.05374,0.0048 l 0.0034,0.02687 q -0.02963,0.01171 -0.07235,0.02343 -0.04272,0.01171 -0.05788,0.01171 -0.06683,0 -0.09164,-0.0689 -0.09646,0.06959 -0.181901,0.06959 -0.09577,0 -0.15434,-0.04685 -0.05788,-0.04754 -0.05788,-0.13367 0,-0.106109 0.0944,-0.156407 0.09508,-0.0503 0.297656,-0.0503 l 6.89e-4,-0.05374 q 6.89e-4,-0.07717 -0.03927,-0.114377 -0.03996,-0.03721 -0.122645,-0.03721 -0.0627,0 -0.157097,0.02343 z m 0.534679,-0.04272 q 0.08682,0.0021 0.15434,0.0021 0.04616,0 0.14745,-0.0021 l 0.0028,0.02825 -0.08062,0.02205 q 0.02549,0.07235 0.05926,0.159852 0.03376,0.08682 0.07166,0.181212 0.01585,0.03927 0.03445,0.09026 0.01929,-0.05168 0.04134,-0.10542 0.03238,-0.07993 0.0627,-0.157096 0.03032,-0.07786 0.0627,-0.168809 l -0.07855,-0.02205 -0.0028,-0.02825 q 0.05099,0.0021 0.1192,0.0021 0.06132,0 0.1192,-0.0021 l 0.0034,0.02825 -0.06408,0.01791 q -0.02136,0.0069 -0.03101,0.02825 -0.02549,0.05857 -0.05512,0.128158 -0.09095,0.213595 -0.137803,0.350021 -0.03169,0.09233 -0.05719,0.188791 -0.02549,0.09715 -0.03927,0.166743 -0.0062,0.03376 -0.02549,0.05099 -0.0186,0.01791 -0.08819,0.01791 -0.07097,0 -0.137804,-0.0048 l -0.0034,-0.02687 q 0.07579,-0.01171 0.11231,-0.04892 0.0441,-0.04754 0.136426,-0.252869 l 0.0055,-0.01309 -0.0096,-0.0028 q -0.126091,-0.314192 -0.228066,-0.552593 -0.009,-0.02067 -0.03169,-0.02825 l -0.06063,-0.0186 z m 0.642165,0.830957 q 0.09784,-0.07993 0.09784,-0.156408 0,-0.06683 -0.07028,-0.107487 0,-0.03927 0.02274,-0.06201 0.02343,-0.02343 0.06063,-0.02343 0.04065,0 0.06546,0.03169 0.02549,0.03101 0.02549,0.07924 0,0.07441 -0.0441,0.14056 -0.04341,0.06615 -0.131603,0.128157 z m 0.606337,-0.830957 q 0.09853,0.0021 0.146071,0.0021 0.06821,0 0.154341,-0.0021 l 0.0028,0.02825 -0.0813,0.02205 q 0.04616,0.153651 0.116444,0.345887 0.01516,0.04065 0.02825,0.08337 0.01309,-0.04203 0.02825,-0.08268 0.05512,-0.14745 0.08337,-0.230132 0.02825,-0.08268 0.05443,-0.16192 l 0.0503,-0.0055 q 0.02618,0.08337 0.05374,0.166743 0.02756,0.08337 0.07924,0.230132 0.01654,0.0441 0.02756,0.08337 0.01309,-0.03996 0.02963,-0.08268 0.07648,-0.193614 0.12678,-0.347266 l -0.07786,-0.02205 -0.0028,-0.02825 q 0.05512,0.0021 0.117133,0.0021 0.06132,0 0.111621,-0.0021 l 0.0034,0.02825 -0.05512,0.01516 q -0.02343,0.0069 -0.03445,0.03307 -0.06477,0.156407 -0.115066,0.282498 -0.0503,0.125401 -0.108865,0.281808 l -0.06201,0.0062 q -0.04203,-0.121268 -0.07028,-0.19706 -0.02756,-0.07648 -0.05994,-0.166053 -0.01378,-0.03652 -0.02343,-0.07028 -0.01102,0.03307 -0.0248,0.06821 -0.03514,0.09164 -0.06546,0.168809 -0.02963,0.07717 -0.06959,0.190169 l -0.06063,0.0062 q -0.05857,-0.162609 -0.106798,-0.28801 -0.04823,-0.125402 -0.108865,-0.283187 -0.0096,-0.02549 -0.03514,-0.03238 l -0.04961,-0.01447 z m 1.455896,0.326595 q -0.150896,0 -0.206017,0.02963 -0.05512,0.02963 -0.05512,0.09991 0,0.06546 0.03652,0.09302 0.03652,0.02687 0.09922,0.02687 0.07097,0 0.124023,-0.02412 z m -0.334174,-0.283876 q 0.134358,-0.05857 0.237711,-0.05857 0.10542,0 0.163986,0.05512 0.05926,0.05512 0.05857,0.159164 l -0.0034,0.286631 q -6.89e-4,0.03514 0.0014,0.0565 0.0028,0.02136 0.0124,0.03307 0.01033,0.01102 0.03032,0.01585 0.01998,0.0041 0.05374,0.0048 l 0.0034,0.02687 q -0.02963,0.01171 -0.07235,0.02343 -0.04272,0.01171 -0.05788,0.01171 -0.06683,0 -0.09164,-0.0689 -0.09646,0.06959 -0.181901,0.06959 -0.09577,0 -0.15434,-0.04685 -0.05788,-0.04754 -0.05788,-0.13367 0,-0.106109 0.0944,-0.156407 0.09508,-0.0503 0.297656,-0.0503 l 6.89e-4,-0.05374 q 6.89e-4,-0.07717 -0.03928,-0.114377 -0.03996,-0.03721 -0.122645,-0.03721 -0.0627,0 -0.157096,0.02343 z m 0.979784,0.01103 q -0.03996,-0.01103 -0.08682,-0.01103 -0.06477,0 -0.104731,0.02549 -0.03927,0.02481 -0.03927,0.06821 0,0.04203 0.02549,0.06615 0.02618,0.02412 0.09646,0.04754 l 0.0565,0.01929 q 0.09508,0.03238 0.139182,0.07441 0.04479,0.04134 0.04479,0.108865 0,0.09577 -0.07441,0.150895 -0.07441,0.05443 -0.188102,0.05443 -0.10473,0 -0.214284,-0.04272 0.02343,-0.08957 0.0379,-0.175011 l 0.02687,-0.0041 0.04961,0.148139 q 0.03927,0.01516 0.09991,0.01516 0.06408,0 0.101975,-0.02618 0.03859,-0.02618 0.03859,-0.07372 0,-0.0441 -0.02618,-0.06959 -0.02549,-0.02549 -0.08199,-0.0441 l -0.07166,-0.02412 q -0.09302,-0.03101 -0.128846,-0.07441 -0.03514,-0.0441 -0.03514,-0.108865 0,-0.09026 0.06821,-0.141938 0.0689,-0.05236 0.181212,-0.05236 0.10473,0 0.190169,0.03032 -0.01929,0.07855 -0.03514,0.166053 l -0.02618,0.0048 z m 0.811663,0.108176 v 0.265272 q 0,0.0813 0.0014,0.136425 6.89e-4,0.0186 0.01791,0.02343 l 0.07648,0.02412 0.0021,0.02963 q -0.08199,-0.0021 -0.163986,-0.0021 -0.08199,0 -0.170877,0.0021 l -0.0028,-0.02963 0.08475,-0.02549 q 0.01792,-0.0055 0.0186,-0.02136 0.0014,-0.05581 0.0014,-0.137114 v -0.558794 q 0,-0.0689 -0.0014,-0.114377 -6.89e-4,-0.01792 -0.01654,-0.02343 l -0.08544,-0.02687 -0.0014,-0.02963 q 0.08888,0.0028 0.170877,0.0028 0.08268,0 0.163297,-0.0028 l 0.0034,0.02963 -0.07855,0.02412 q -0.01723,0.0041 -0.01791,0.02136 -0.0014,0.04961 -0.0014,0.116445 v 0.233577 h 0.501606 v -0.233577 q 0,-0.06683 -0.0014,-0.116445 -6.89e-4,-0.01722 -0.01792,-0.02136 l -0.07648,-0.02412 -0.0014,-0.02963 q 0.08406,0.0028 0.166054,0.0028 0.08199,0 0.16812,-0.0028 l 0.0028,0.02963 -0.08682,0.02687 q -0.01585,0.0055 -0.01654,0.02343 -0.0014,0.04547 -0.0014,0.114377 v 0.558794 q 0,0.0813 0.0014,0.137114 6.89e-4,0.01585 0.0186,0.02136 l 0.08337,0.02549 0.0014,0.02963 q -0.09095,-0.0021 -0.173632,-0.0021 -0.08199,0 -0.160542,0.0021 l -0.0028,-0.02963 0.07786,-0.02412 q 0.01723,-0.0048 0.01792,-0.02343 0.0014,-0.05512 0.0014,-0.136425 v -0.265272 z m 1.402843,0.42788 q -0.05857,0.03652 -0.120579,0.05236 -0.06201,0.01585 -0.115066,0.01585 -0.151584,0 -0.241845,-0.08613 -0.09026,-0.08682 -0.09026,-0.240468 0,-0.152962 0.08613,-0.250114 0.08682,-0.09715 0.23151,-0.09715 0.121267,0 0.188791,0.07304 0.06752,0.07235 0.06752,0.200504 0,0.01929 -0.0021,0.03927 H 79.44409 q 0,0.148139 0.06959,0.212218 0.06959,0.06339 0.21773,0.06339 0.06615,0 0.141249,-0.0124 z m -0.130914,-0.350021 v -0.02067 q 0,-0.09784 -0.03169,-0.139871 -0.03101,-0.04203 -0.09302,-0.04203 -0.08199,0 -0.125402,0.05926 -0.04341,0.05925 -0.04892,0.143316 z m 0.610472,0.08682 q -0.150896,0 -0.206017,0.02963 -0.05512,0.02963 -0.05512,0.09991 0,0.06546 0.03652,0.09302 0.03652,0.02687 0.09922,0.02687 0.07097,0 0.124023,-0.02412 z m -0.334174,-0.283876 q 0.134358,-0.05857 0.237711,-0.05857 0.10542,0 0.163986,0.05512 0.05926,0.05512 0.05857,0.159164 l -0.0034,0.286631 q -6.89e-4,0.03514 0.0014,0.0565 0.0028,0.02136 0.0124,0.03307 0.01033,0.01102 0.03032,0.01585 0.01998,0.0041 0.05374,0.0048 l 0.0034,0.02687 q -0.02963,0.01171 -0.07235,0.02343 -0.04272,0.01171 -0.05788,0.01171 -0.06683,0 -0.09164,-0.0689 -0.09646,0.06959 -0.181901,0.06959 -0.09577,0 -0.15434,-0.04685 -0.05788,-0.04754 -0.05788,-0.13367 0,-0.106109 0.0944,-0.156407 0.09508,-0.0503 0.297657,-0.0503 l 6.89e-4,-0.05374 q 6.89e-4,-0.07717 -0.03927,-0.114377 -0.03996,-0.03721 -0.122645,-0.03721 -0.0627,0 -0.157096,0.02343 z m 0.530542,-0.04272 q 0.08682,0.0021 0.15434,0.0021 0.06201,0 0.148828,-0.0021 l 0.0028,0.02825 -0.07993,0.02205 q 0.0565,0.160541 0.130914,0.341064 0.01929,0.04754 0.03445,0.09095 0.01516,-0.04341 0.03514,-0.09026 0.0627,-0.15434 0.131602,-0.341753 l -0.07855,-0.02205 -0.0028,-0.02825 q 0.05581,0.0021 0.116444,0.0021 0.06201,0 0.119889,-0.0021 l 0.0028,0.02825 -0.0689,0.01998 q -0.01585,0.0055 -0.02687,0.02687 -0.05443,0.126091 -0.126779,0.300412 -0.07166,0.173633 -0.108176,0.268029 l -0.05857,0.0062 q -0.0379,-0.09991 -0.109554,-0.273541 -0.07097,-0.173632 -0.121956,-0.297656 -0.01102,-0.02412 -0.03032,-0.03101 l -0.06339,-0.01929 z m 1.289844,0.5898 q -0.05857,0.03652 -0.120578,0.05236 -0.06201,0.01585 -0.115066,0.01585 -0.151584,0 -0.241845,-0.08613 -0.09026,-0.08682 -0.09026,-0.240468 0,-0.152962 0.08613,-0.250114 0.08682,-0.09715 0.231511,-0.09715 0.121267,0 0.188791,0.07304 0.06752,0.07235 0.06752,0.200504 0,0.01929 -0.0021,0.03927 h -0.436838 q 0,0.148139 0.06959,0.212218 0.06959,0.06339 0.21773,0.06339 0.06615,0 0.141248,-0.0124 z m -0.130913,-0.350021 v -0.02067 q 0,-0.09784 -0.03169,-0.139871 -0.03101,-0.04203 -0.09302,-0.04203 -0.08199,0 -0.125402,0.05926 -0.04341,0.05925 -0.04892,0.143316 z m 0.225308,-0.207395 q 0.115755,-0.02205 0.218419,-0.04823 l 0.0069,0.0048 v 0.07993 q 0.119889,-0.08475 0.223242,-0.08475 0.09784,0 0.152962,0.05512 0.05581,0.05443 0.05581,0.155029 v 0.243224 q 0,0.08613 0.0014,0.127468 6.89e-4,0.0186 0.01791,0.02412 l 0.07648,0.02343 0.0014,0.02825 q -0.09095,-0.0021 -0.158474,-0.0021 -0.06752,0 -0.150206,0.0021 l -0.0028,-0.02825 0.0689,-0.01998 q 0.01585,-0.0055 0.01723,-0.02136 6.89e-4,-0.0096 6.89e-4,-0.04341 v -0.300412 q 0,-0.08475 -0.04065,-0.121267 -0.04065,-0.03721 -0.119889,-0.03721 -0.06959,0 -0.144005,0.03996 v 0.301101 q 0,0.08613 0.0014,0.157785 6.89e-4,0.0186 0.01585,0.02343 l 0.07166,0.02136 0.0014,0.02825 q -0.08544,-0.0021 -0.152962,-0.0021 -0.06752,0 -0.159852,0.0021 l -0.0028,-0.02825 0.0813,-0.02343 q 0.01516,-0.0062 0.01585,-0.02136 6.89e-4,-0.0441 6.89e-4,-0.08475 v -0.234955 q 0,-0.09026 -0.0028,-0.167432 l -0.09164,-0.0248 z m 0.879877,-0.476112 q 0.311436,0.263894 0.311436,0.669726 0,0.408588 -0.311436,0.672482 l -0.02963,-0.02618 q 0.219797,-0.244602 0.219797,-0.643544 0,-0.401698 -0.219797,-0.646299 z"
       id="path24" />
    <path
       style="line-height:1.2;font-family:Constantia;-inkscape-font-specification:Constantia"
       d="m 61.816962,74.916007 0.806152,-1.61506 h -0.880566 l -0.07993,0.272851 -0.05512,0.0096 -0.02343,-0.490582 0.0096,-0.01102 q 0.162608,0.0028 0.316949,0.0041 0.15434,0.0014 0.303168,0.0014 h 0.07717 q 0.148828,0 0.285254,-0.0014 0.136425,-0.0014 0.263205,-0.0041 l 0.0055,0.05926 q -0.07166,0.14745 -0.144694,0.303168 -0.07166,0.155718 -0.141938,0.31557 -0.0689,0.158475 -0.135048,0.315571 -0.06615,0.155718 -0.124023,0.303168 -0.05788,0.148828 -0.107487,0.283876 -0.04823,0.135047 -0.08406,0.249424 l -0.283876,0.01378 z m 1.1796,-1.329806 h 0.766188 v 0.179145 h -0.766188 z m 1.318781,0.124023 q 0,0.257693 0.09646,0.420301 0.09646,0.161231 0.286632,0.161231 0.177766,0 0.270095,-0.141938 0.09371,-0.143316 0.09371,-0.423058 0,-0.263205 -0.09784,-0.414789 -0.09784,-0.151584 -0.283876,-0.151584 -0.176389,0 -0.271473,0.136426 -0.09371,0.136426 -0.09371,0.413411 z m 1.028016,-0.0124 q 0,0.314192 -0.190169,0.508495 -0.188791,0.192926 -0.480935,0.192926 -0.285254,0 -0.461642,-0.181901 -0.175011,-0.183279 -0.175011,-0.478179 0,-0.303168 0.183279,-0.494716 0.184657,-0.192925 0.487825,-0.192925 0.286632,0 0.461642,0.177767 0.175011,0.176389 0.175011,0.468533 z m 0.190169,-0.549837 q 0.230132,-0.0441 0.436838,-0.09646 l 0.01378,0.0096 v 0.16123 q 0.254937,-0.170877 0.500228,-0.170877 l 0.0069,0.0083 q -0.03996,0.205327 -0.07855,0.425813 l -0.05512,0.0096 q -0.03859,-0.117133 -0.07441,-0.187413 -0.03583,-0.07166 -0.112999,-0.07166 -0.07441,0 -0.186035,0.0689 v 0.59669 q 0,0.214974 0.0028,0.307302 0.0014,0.03721 0.03445,0.04685 l 0.183279,0.05236 0.0041,0.0565 q -0.214973,-0.0041 -0.350021,-0.0041 -0.135048,0 -0.319705,0.0041 l -0.0055,-0.0565 0.159853,-0.04685 q 0.03307,-0.01102 0.03445,-0.04272 0.0014,-0.05926 0.0014,-0.169499 v -0.46991 q 0,-0.224621 -0.0055,-0.334864 l -0.183279,-0.04961 z m 1.098296,0.438216 h 0.766189 v 0.179145 h -0.766189 z m 2.561771,-0.67386 -0.05512,0.0083 -0.09508,-0.361046 q -0.168121,-0.0441 -0.315571,-0.0441 -0.344509,0 -0.537434,0.234266 -0.192925,0.232888 -0.192925,0.643544 0,0.414789 0.210839,0.660079 0.21084,0.243913 0.567752,0.243913 0.119889,0 0.235644,-0.03032 v -0.367936 q 0,-0.0689 -0.0014,-0.125401 0,-0.0565 -0.0014,-0.103353 -0.0014,-0.03583 -0.03307,-0.04547 l -0.170877,-0.05374 -0.0028,-0.05926 q 0.177767,0.0041 0.340375,0.0041 0.165365,0 0.319705,-0.0041 l 0.0069,0.05926 -0.150206,0.0441 q -0.03307,0.01103 -0.03583,0.04272 -0.0014,0.05512 -0.0028,0.112999 0,0.0565 0,0.122645 v 0.440972 l -0.0083,0.0096 q -0.28112,0.06752 -0.516764,0.06752 -0.483691,0 -0.770323,-0.256315 -0.285253,-0.256315 -0.285253,-0.715201 0,-0.487825 0.2949,-0.763433 0.296278,-0.276985 0.810285,-0.276985 0.221864,0 0.465777,0.0565 l 0.0083,0.01103 z m 0.734494,0.797883 q 0,0.257693 0.09646,0.420301 0.09646,0.161231 0.286632,0.161231 0.177767,0 0.270095,-0.141938 0.09371,-0.143316 0.09371,-0.423058 0,-0.263205 -0.09784,-0.414789 -0.09784,-0.151584 -0.283876,-0.151584 -0.176388,0 -0.271473,0.136426 -0.09371,0.136426 -0.09371,0.413411 z m 1.028015,-0.0124 q 0,0.314192 -0.190169,0.508495 -0.188791,0.192926 -0.480935,0.192926 -0.285253,0 -0.461642,-0.181901 -0.175011,-0.183279 -0.175011,-0.478179 0,-0.303168 0.183279,-0.494716 0.184657,-0.192925 0.487825,-0.192925 0.286632,0 0.461643,0.177767 0.17501,0.176389 0.17501,0.468533 z m 0.187413,-1.270551 -0.0069,-0.04548 q 0.243913,-0.04685 0.44924,-0.09784 l 0.0124,0.01102 q -0.0083,0.22462 -0.0083,0.624251 v 0.897102 q 0,0.246669 0.0028,0.396875 0.0041,0.03996 0.03858,0.04961 l 0.150206,0.04547 0.0041,0.0565 q -0.186036,-0.0041 -0.321083,-0.0041 -0.135048,0 -0.319705,0.0041 l -0.0055,-0.0565 0.155718,-0.04547 q 0.03445,-0.01102 0.03721,-0.0441 0.0028,-0.155718 0.0028,-0.347266 v -0.566373 q 0,-0.51263 -0.0055,-0.822688 z m 1.785937,0.775835 q -0.09233,-0.02894 -0.206706,-0.02894 -0.237022,0 -0.361046,0.135047 -0.124023,0.13367 -0.124023,0.406521 0,0.235645 0.110243,0.377582 0.110243,0.14056 0.311436,0.14056 0.129536,0 0.270096,-0.07166 z M 72.731016,72.3818 q 0.245291,-0.04685 0.449241,-0.09784 l 0.0124,0.01102 q -0.0083,0.2949 -0.0083,0.633897 v 0.749652 q 0,0.190169 0.0014,0.376204 0,0.07028 0.0041,0.112999 0.0055,0.04272 0.0248,0.06615 0.01929,0.02205 0.0565,0.03032 0.03858,0.0083 0.107487,0.0096 l 0.0069,0.05374 q -0.06063,0.02343 -0.146072,0.04685 -0.08406,0.02343 -0.114377,0.02343 -0.139182,0 -0.187413,-0.157097 -0.213596,0.158475 -0.414789,0.158475 -0.254937,0 -0.407899,-0.180523 -0.151584,-0.181901 -0.151584,-0.446484 0,-0.341753 0.202571,-0.529167 0.202572,-0.187413 0.566373,-0.187413 0.08819,0 0.19706,0.01929 0,-0.304546 -0.0055,-0.592556 l -0.186035,-0.05512 z"
       id="path25" />
    <path
       style="line-height:1.2;font-family:Constantia;-inkscape-font-specification:Constantia"
       d="m 62.122886,76.815769 q 0.09646,0.01654 0.190169,0.01654 0.220486,0 0.334863,-0.112999 0.115756,-0.114377 0.115756,-0.348643 0,-0.22462 -0.110243,-0.334863 -0.108865,-0.110243 -0.34451,-0.110243 -0.09233,0 -0.186035,0.01102 z m 0,0.508495 q 0,0.08268 0,0.148828 0.0014,0.06615 0.0028,0.118512 0.0014,0.03169 0.03583,0.04272 l 0.190169,0.05788 0.0028,0.05926 q -0.199816,-0.0041 -0.363802,-0.0041 -0.166743,0 -0.341754,0.0041 l -0.0055,-0.05926 0.169499,-0.05099 q 0.03583,-0.01102 0.03721,-0.04272 0.0014,-0.05512 0.0014,-0.122645 0.0014,-0.0689 0.0014,-0.151585 v -1.117588 q 0,-0.07028 -0.0014,-0.126779 0,-0.0565 -0.0014,-0.101975 -0.0014,-0.03583 -0.03307,-0.04685 l -0.170877,-0.05374 -0.0028,-0.05925 q 0.177767,0.0055 0.345888,0.0055 0.112999,0 0.21773,-0.0055 0.106108,-0.0055 0.192925,-0.0055 0.323838,0 0.489203,0.128157 0.166742,0.12678 0.166742,0.37896 0,0.296278 -0.191547,0.460265 -0.191547,0.163986 -0.537434,0.163986 -0.09508,0 -0.20395,-0.0124 z m 1.842436,-0.201193 q -0.30179,0 -0.412033,0.05926 -0.110243,0.05925 -0.110243,0.199815 0,0.130914 0.07304,0.186035 0.07304,0.05374 0.198437,0.05374 0.141938,0 0.248047,-0.04823 z M 63.296974,76.55532 q 0.268717,-0.117133 0.475423,-0.117133 0.210839,0 0.327973,0.110243 0.118511,0.110242 0.117133,0.318326 l -0.0069,0.573264 q -0.0014,0.07028 0.0028,0.112999 0.0055,0.04272 0.0248,0.06614 0.02067,0.02205 0.06063,0.03169 0.03996,0.0083 0.107487,0.0096 l 0.0069,0.05374 q -0.05926,0.02343 -0.144694,0.04685 -0.08544,0.02343 -0.115755,0.02343 -0.13367,0 -0.183279,-0.137804 -0.192925,0.139182 -0.363802,0.139182 -0.191547,0 -0.30868,-0.09371 -0.115755,-0.09508 -0.115755,-0.267339 0,-0.212218 0.188791,-0.312814 0.190169,-0.100597 0.595312,-0.100597 l 0.0014,-0.107487 q 0.0014,-0.15434 -0.07855,-0.228754 -0.07993,-0.07441 -0.245291,-0.07441 -0.125401,0 -0.314192,0.04685 z m 1.252636,-0.02067 q 0.230132,-0.0441 0.436838,-0.09646 l 0.01378,0.0096 v 0.16123 q 0.254937,-0.170876 0.500227,-0.170876 l 0.0069,0.0083 q -0.03996,0.205327 -0.07855,0.425813 l -0.05512,0.0096 q -0.03858,-0.117133 -0.07441,-0.187413 -0.03583,-0.07166 -0.112999,-0.07166 -0.07441,0 -0.186035,0.0689 v 0.59669 q 0,0.214974 0.0028,0.307303 0.0014,0.03721 0.03445,0.04685 l 0.183279,0.05237 0.0041,0.0565 q -0.214974,-0.0041 -0.350021,-0.0041 -0.135048,0 -0.319705,0.0041 l -0.0055,-0.0565 0.159852,-0.04685 q 0.03307,-0.01102 0.03445,-0.04272 0.0014,-0.05926 0.0014,-0.169499 v -0.46991 q 0,-0.22462 -0.0055,-0.334863 L 64.5565,76.581502 Z m 1.547536,-0.584288 q 0,0.07304 -0.04547,0.11989 -0.04548,0.04547 -0.117134,0.04547 -0.0689,0 -0.112999,-0.04272 -0.04272,-0.04272 -0.04272,-0.112999 0,-0.07441 0.04547,-0.117134 0.04548,-0.0441 0.11989,-0.0441 0.06752,0 0.110243,0.03996 0.04272,0.03858 0.04272,0.111621 z m -0.465777,0.584288 q 0.241157,-0.04547 0.446484,-0.09646 l 0.0124,0.0096 q -0.0083,0.179145 -0.0083,0.394118 v 0.529167 q 0,0.165364 0.0028,0.228754 0.0028,0.03721 0.03445,0.04823 l 0.159853,0.04685 0.0028,0.0565 q -0.190169,-0.0041 -0.325217,-0.0041 -0.135048,0 -0.321083,0.0041 l -0.0055,-0.0565 0.159853,-0.04685 q 0.03169,-0.01102 0.03445,-0.04272 0.0028,-0.05374 0.0028,-0.180523 v -0.460264 q 0,-0.180523 -0.0055,-0.333485 l -0.183279,-0.04961 z m 1.569584,0.588422 q -0.30179,0 -0.412033,0.05926 -0.110243,0.05925 -0.110243,0.199815 0,0.130914 0.07304,0.186035 0.07304,0.05374 0.198437,0.05374 0.141938,0 0.248047,-0.04823 z M 66.532605,76.55532 q 0.268717,-0.117133 0.475423,-0.117133 0.21084,0 0.327973,0.110243 0.118511,0.110242 0.117133,0.318326 l -0.0069,0.573264 q -0.0014,0.07028 0.0028,0.112999 0.0055,0.04272 0.0248,0.06614 0.02067,0.02205 0.06063,0.03169 0.03996,0.0083 0.107487,0.0096 l 0.0069,0.05374 q -0.05925,0.02343 -0.144694,0.04685 -0.08544,0.02343 -0.115755,0.02343 -0.133669,0 -0.183279,-0.137804 -0.192925,0.139182 -0.363802,0.139182 -0.191547,0 -0.30868,-0.09371 -0.115755,-0.09508 -0.115755,-0.267339 0,-0.212218 0.188791,-0.312814 0.190169,-0.100597 0.595312,-0.100597 l 0.0014,-0.107487 q 0.0014,-0.15434 -0.07855,-0.228754 -0.07993,-0.07441 -0.245291,-0.07441 -0.125401,0 -0.314192,0.04685 z m 1.24299,-0.78686 q 0.22462,-0.0441 0.44924,-0.09784 l 0.0124,0.01102 q -0.0069,0.129536 -0.0083,0.369314 0,0.239779 0,0.541569 0.239779,-0.15434 0.446484,-0.15434 0.191547,0 0.304546,0.107486 0.113,0.106109 0.113,0.312815 v 0.486447 q 0,0.158474 0.0028,0.254937 0.0014,0.03583 0.03445,0.04823 l 0.15434,0.04685 0.0028,0.0565 q -0.181901,-0.0041 -0.316949,-0.0041 -0.135047,0 -0.300412,0.0041 l -0.0055,-0.0565 0.136426,-0.03996 q 0.03307,-0.01102 0.03583,-0.04272 0.0014,-0.01929 0.0014,-0.08682 v -0.600824 q 0,-0.169499 -0.08131,-0.242535 -0.0813,-0.07441 -0.239778,-0.07441 -0.136426,0 -0.28801,0.06615 v 0.618739 q 0,0.170876 0.0028,0.312814 0.0014,0.03858 0.03445,0.04823 l 0.143316,0.04134 0.0028,0.0565 q -0.173633,-0.0041 -0.30868,-0.0041 -0.135048,0 -0.319705,0.0041 l -0.0055,-0.0565 0.155718,-0.04548 q 0.03583,-0.01102 0.03721,-0.0441 0.0028,-0.132292 0.0028,-0.337619 v -0.57602 q 0,-0.281119 -0.0014,-0.497471 0,-0.216352 -0.0041,-0.325217 l -0.186035,-0.05512 z"
       id="path26" />
    <path
       style="line-height:1.2;font-family:Constantia;-inkscape-font-specification:Constantia"
       d="m 61.985083,79.210246 h 0.334863 q 0.30868,0 0.651811,-0.0055 l 0.0083,0.01102 -0.07993,0.425814 -0.05512,0.0096 -0.08544,-0.318326 h -0.636653 v 0.75792 h 0.125402 q 0.143316,0 0.319704,-0.0028 0.03583,-0.0014 0.04685,-0.03583 l 0.04823,-0.186035 0.07441,-0.0028 q -0.0041,0.192925 -0.0041,0.285253 0,0.08957 0.0041,0.28112 l -0.07441,0.0055 -0.04961,-0.188791 q -0.01102,-0.03583 -0.04272,-0.03721 -0.179144,-0.0028 -0.323838,-0.0028 h -0.124024 v 0.501606 q 0,0.152962 0.0028,0.30179 H 62.7871 l 0.168121,-0.350022 0.06201,-0.01102 -0.03032,0.479557 -0.0096,0.0096 q -0.356911,-0.0041 -0.658701,-0.0041 h -0.327973 q -0.166743,0 -0.341754,0.0041 l -0.0055,-0.05926 0.169499,-0.05099 q 0.03445,-0.0096 0.03721,-0.04272 0.0014,-0.05512 0.0014,-0.122645 0.0014,-0.0689 0.0014,-0.151584 v -1.117588 q 0,-0.07028 -0.0014,-0.12678 0,-0.0565 -0.0014,-0.101975 -0.0014,-0.03583 -0.03307,-0.04685 l -0.170877,-0.05374 -0.0028,-0.05926 q 0.177767,0.0055 0.341754,0.0055 z m 2.23242,0.766189 q -0.09233,-0.02894 -0.206706,-0.02894 -0.237022,0 -0.361046,0.135048 -0.124023,0.133669 -0.124023,0.406521 0,0.235644 0.110243,0.377582 0.110243,0.14056 0.311436,0.14056 0.129536,0 0.270096,-0.07166 z m -0.198438,-0.82131 q 0.245291,-0.04685 0.44924,-0.09784 l 0.0124,0.01102 q -0.0083,0.2949 -0.0083,0.633897 v 0.749653 q 0,0.190169 0.0014,0.376204 0,0.07028 0.0041,0.112999 0.0055,0.04272 0.0248,0.06615 0.01929,0.02205 0.0565,0.03032 0.03858,0.0083 0.107487,0.0096 l 0.0069,0.05374 q -0.06063,0.02343 -0.146072,0.04685 -0.08406,0.02343 -0.114377,0.02343 -0.139182,0 -0.187413,-0.157096 -0.213596,0.158474 -0.414789,0.158474 -0.254937,0 -0.407899,-0.180523 -0.151584,-0.181901 -0.151584,-0.446484 0,-0.341753 0.202571,-0.529166 0.202572,-0.187413 0.566373,-0.187413 0.08819,0 0.19706,0.01929 0,-0.304546 -0.0055,-0.592556 L 64.025956,79.2006 Z m 1.971971,1.88102 q -0.117133,0.07304 -0.241156,0.104731 -0.124023,0.03169 -0.230132,0.03169 -0.303168,0 -0.483691,-0.172255 -0.180523,-0.173632 -0.180523,-0.480935 0,-0.305924 0.172254,-0.500227 0.173633,-0.194303 0.463021,-0.194303 0.242534,0 0.377582,0.146072 0.135048,0.144694 0.135048,0.401009 0,0.03858 -0.0041,0.07855 h -0.873676 q 0,0.296278 0.139182,0.424435 0.139182,0.126779 0.43546,0.126779 0.132291,0 0.282497,-0.0248 z m -0.261827,-0.700042 v -0.04134 q 0,-0.195681 -0.06339,-0.279741 -0.06201,-0.08406 -0.186035,-0.08406 -0.163987,0 -0.250803,0.118511 -0.08682,0.118511 -0.09784,0.286632 z m 0.450618,-0.41479 q 0.231511,-0.0441 0.436838,-0.09646 l 0.01378,0.0096 v 0.159852 q 0.239778,-0.169498 0.446484,-0.169498 0.195681,0 0.305924,0.110243 0.111621,0.108865 0.111621,0.310058 v 0.486447 q 0,0.172255 0.0028,0.254937 0.0014,0.03721 0.03583,0.04823 l 0.152962,0.04685 0.0028,0.0565 q -0.181901,-0.0041 -0.316949,-0.0041 -0.135047,0 -0.300412,0.0041 l -0.0055,-0.0565 0.137804,-0.03996 q 0.03169,-0.01103 0.03445,-0.04272 0.0014,-0.01929 0.0014,-0.08682 v -0.600824 q 0,-0.169499 -0.0813,-0.242535 -0.0813,-0.07441 -0.239779,-0.07441 -0.139181,0 -0.288009,0.07993 v 0.602203 q 0,0.172254 0.0028,0.31557 0.0014,0.03721 0.03169,0.04685 l 0.143316,0.04272 0.0028,0.0565 q -0.170876,-0.0041 -0.305924,-0.0041 -0.135048,0 -0.319704,0.0041 l -0.0055,-0.0565 0.162609,-0.04685 q 0.03032,-0.0124 0.03169,-0.04272 0.0014,-0.08819 0.0014,-0.169498 v -0.469911 q 0,-0.180523 -0.0055,-0.334863 l -0.183278,-0.04961 z"
       id="path27" />
    <path
       style="line-height:1.2;font-family:Constantia;-inkscape-font-specification:Constantia"
       d="m 62.358531,83.896399 q -0.301791,0 -0.412033,0.05926 -0.110243,0.05926 -0.110243,0.199815 0,0.130914 0.07304,0.186035 0.07303,0.05374 0.198437,0.05374 0.141938,0 0.248047,-0.04823 z m -0.668348,-0.567751 q 0.268717,-0.117133 0.475422,-0.117133 0.21084,0 0.327973,0.110243 0.118511,0.110243 0.117133,0.318327 l -0.0069,0.573263 q -0.0014,0.07028 0.0028,0.112999 0.0055,0.04272 0.02481,0.06615 0.02067,0.02205 0.06063,0.03169 0.03996,0.0083 0.107487,0.0096 l 0.0069,0.05374 q -0.05926,0.02343 -0.144694,0.04685 -0.08544,0.02343 -0.115755,0.02343 -0.13367,0 -0.183279,-0.137803 -0.192925,0.139181 -0.363802,0.139181 -0.191547,0 -0.30868,-0.09371 -0.115756,-0.09508 -0.115756,-0.267339 0,-0.212218 0.188792,-0.312815 0.190169,-0.100597 0.595312,-0.100597 l 0.0014,-0.107486 q 0.0014,-0.154341 -0.07855,-0.228755 -0.07993,-0.07441 -0.245291,-0.07441 -0.125401,0 -0.314193,0.04685 z m 1.64262,-0.344509 v 1.113454 q 0,0.162608 0.0028,0.270095 0.0014,0.03858 0.03445,0.04685 l 0.163986,0.04823 0.0028,0.06201 q -0.172254,-0.0041 -0.282497,-0.0041 -0.107487,0 -0.285254,0.0041 l -0.0055,-0.05925 0.169499,-0.05099 q 0.03583,-0.01102 0.03721,-0.04272 0.0028,-0.111621 0.0028,-0.274229 v -1.117588 q 0,-0.137804 -0.0028,-0.228754 -0.0014,-0.03583 -0.03307,-0.04685 l -0.170877,-0.05374 -0.0028,-0.05926 q 0.177767,0.0055 0.28112,0.0055 0.06201,0 0.125401,-0.0055 l 1.157551,1.445561 v -1.062466 q 0,-0.13367 -0.0028,-0.230133 -0.0014,-0.03169 -0.03583,-0.04272 l -0.162608,-0.04685 -0.0028,-0.06339 q 0.176388,0.0055 0.285253,0.0055 0.110243,0 0.282498,-0.0055 l 0.0055,0.05926 -0.173633,0.05374 q -0.03169,0.01103 -0.03307,0.04685 -0.0028,0.09095 -0.0028,0.228754 v 1.540645 l -0.115755,0.01103 z m 1.998154,0.68075 q 0,0.179145 0.07166,0.276986 0.07304,0.09784 0.210839,0.09784 0.132292,0 0.198438,-0.09095 0.06752,-0.09233 0.06752,-0.268717 0,-0.169499 -0.07166,-0.26734 -0.07028,-0.09784 -0.21084,-0.09784 -0.132292,0 -0.199815,0.08957 -0.06615,0.08957 -0.06615,0.260449 z m -0.01792,0.910883 q -0.09371,0.14056 -0.09371,0.259071 0,0.121267 0.09784,0.188791 0.09784,0.06752 0.265962,0.06752 0.199815,0 0.350021,-0.08957 0.150206,-0.08819 0.150206,-0.248046 0,-0.08682 -0.07441,-0.135048 -0.07304,-0.04685 -0.276985,-0.04685 -0.07304,0 -0.159853,0.0041 -0.08544,0.0041 -0.165364,0.0041 -0.0441,0 -0.09371,-0.0041 z m 0.719336,-1.190624 q 0.103352,0.114377 0.103352,0.272851 0,0.221864 -0.15434,0.354156 -0.15434,0.130913 -0.387228,0.130913 -0.132292,0 -0.237023,-0.04134 -0.07441,0.119889 -0.07441,0.188791 0,0.03721 0.03721,0.05099 0.03859,0.0124 0.14056,0.0124 0.07717,0 0.180523,-0.0041 0.103353,-0.0041 0.192925,-0.0041 0.219108,0 0.345888,0.08406 0.128157,0.08268 0.128157,0.246669 0,0.248046 -0.234266,0.391362 -0.232889,0.143316 -0.530545,0.143316 -0.243912,0 -0.389984,-0.08268 -0.144694,-0.08131 -0.144694,-0.212218 0,-0.158474 0.22462,-0.355534 -0.141938,-0.05374 -0.141938,-0.143315 0,-0.125402 0.19706,-0.350022 -0.214974,-0.130913 -0.214974,-0.37896 0,-0.214974 0.151584,-0.345887 0.152962,-0.130914 0.394119,-0.130914 0.06339,0 0.172254,0.01654 0.103353,0.01929 0.161231,0.01929 0.208083,0 0.383094,-0.0041 l 0.0069,0.0565 z m 1.510328,1.037662 q -0.117133,0.07304 -0.241156,0.10473 -0.124023,0.03169 -0.230132,0.03169 -0.303168,0 -0.483691,-0.172254 -0.180523,-0.173633 -0.180523,-0.480935 0,-0.305925 0.172254,-0.500228 0.173633,-0.194303 0.463021,-0.194303 0.242535,0 0.377582,0.146072 0.135048,0.144694 0.135048,0.401009 0,0.03858 -0.0041,0.07855 h -0.873676 q 0,0.296278 0.139182,0.424435 0.139182,0.12678 0.43546,0.12678 0.132291,0 0.282497,-0.02481 z m -0.261827,-0.700043 v -0.04134 q 0,-0.195682 -0.06339,-0.279742 -0.06201,-0.08406 -0.186035,-0.08406 -0.163987,0 -0.250803,0.118511 -0.08682,0.118511 -0.09784,0.286632 z m 0.447862,-1.135503 -0.0069,-0.04548 q 0.243913,-0.04685 0.44924,-0.09784 l 0.0124,0.01102 q -0.0083,0.22462 -0.0083,0.62425 v 0.897103 q 0,0.246668 0.0028,0.396874 0.0041,0.03996 0.03859,0.04961 l 0.150206,0.04547 0.0041,0.0565 q -0.186035,-0.0041 -0.321083,-0.0041 -0.135048,0 -0.319705,0.0041 l -0.0055,-0.0565 0.155718,-0.04547 q 0.03445,-0.01103 0.03721,-0.0441 0.0028,-0.155718 0.0028,-0.347265 v -0.566373 q 0,-0.51263 -0.0055,-0.822688 z"
       id="path28" />
    <path
       style="line-height:1.2;font-family:Constantia;-inkscape-font-specification:Constantia"
       d="m 63.414107,85.978063 q 0.129536,0.0055 0.234266,0.0055 0.101975,0 0.27423,-0.0055 l 0.0055,0.05925 -0.173633,0.05374 q -0.0317,0.01102 -0.03307,0.04685 -0.0028,0.09095 -0.0028,0.228754 v 1.117588 q 0,0.162609 0.0028,0.27423 0.0014,0.03169 0.03858,0.04272 l 0.165365,0.05099 0.0028,0.05926 q -0.181901,-0.0041 -0.347265,-0.0041 -0.162609,0 -0.321083,0.0041 l -0.0055,-0.05926 0.158474,-0.04823 q 0.03307,-0.0096 0.03445,-0.04823 0.0028,-0.108864 0.0028,-0.271473 v -1.19338 l -0.683506,1.616438 -0.100597,0.01102 -0.687641,-1.627462 v 1.19338 q 0,0.162609 0.0028,0.271473 0.0014,0.03858 0.03583,0.04823 l 0.154341,0.04823 0.0028,0.05926 q -0.163987,-0.0041 -0.27423,-0.0041 -0.107487,0 -0.285253,0.0041 l -0.0055,-0.05926 0.169499,-0.05099 q 0.03583,-0.01102 0.03721,-0.04272 0.0028,-0.111621 0.0028,-0.27423 v -1.117588 q 0,-0.137804 -0.0028,-0.228754 -0.0014,-0.03583 -0.03307,-0.04685 l -0.170877,-0.05374 -0.0028,-0.05925 q 0.177767,0.0055 0.28112,0.0055 0.118511,0 0.246669,-0.0055 l 0.639409,1.511706 z m 1.836924,1.831411 q -0.117134,0.07304 -0.241157,0.104731 -0.124023,0.03169 -0.230132,0.03169 -0.303168,0 -0.483691,-0.172255 -0.180523,-0.173633 -0.180523,-0.480935 0,-0.305924 0.172255,-0.500228 0.173632,-0.194303 0.46302,-0.194303 0.242535,0 0.377582,0.146072 0.135048,0.144694 0.135048,0.401009 0,0.03859 -0.0041,0.07855 h -0.873676 q 0,0.296278 0.139182,0.424436 0.139182,0.126779 0.43546,0.126779 0.132291,0 0.282497,-0.02481 z m -0.261827,-0.700043 v -0.04134 q 0,-0.195681 -0.06339,-0.279742 -0.06201,-0.08406 -0.186035,-0.08406 -0.163987,0 -0.250803,0.118511 -0.08682,0.118511 -0.09784,0.286632 z m 1.157551,-0.37207 q -0.07993,-0.02205 -0.173633,-0.02205 -0.129535,0 -0.209461,0.05099 -0.07855,0.04961 -0.07855,0.136425 0,0.08406 0.05099,0.132292 0.05237,0.04823 0.192925,0.09508 l 0.112999,0.03859 q 0.190169,0.06477 0.278364,0.148828 0.08957,0.08268 0.08957,0.21773 0,0.191547 -0.148828,0.30179 -0.148828,0.108865 -0.376204,0.108865 -0.209462,0 -0.42857,-0.08544 0.04685,-0.179145 0.07579,-0.350021 l 0.05374,-0.0083 0.09922,0.296278 q 0.07855,0.03032 0.199816,0.03032 0.128157,0 0.203949,-0.05236 0.07717,-0.05237 0.07717,-0.14745 0,-0.08819 -0.05237,-0.139182 -0.05099,-0.05099 -0.163986,-0.08819 l -0.143316,-0.04823 q -0.186035,-0.06201 -0.257693,-0.148828 -0.07028,-0.08819 -0.07028,-0.21773 0,-0.180523 0.136426,-0.283876 0.137803,-0.104731 0.362423,-0.104731 0.209462,0 0.380339,0.06063 -0.03858,0.157096 -0.07028,0.332107 l -0.05237,0.0096 z m 1.142393,0 q -0.07993,-0.02205 -0.173633,-0.02205 -0.129536,0 -0.209462,0.05099 -0.07855,0.04961 -0.07855,0.136425 0,0.08406 0.05099,0.132292 0.05237,0.04823 0.192926,0.09508 l 0.112999,0.03859 q 0.190169,0.06477 0.278363,0.148828 0.08957,0.08268 0.08957,0.21773 0,0.191547 -0.148828,0.30179 -0.148828,0.108865 -0.376205,0.108865 -0.209461,0 -0.428569,-0.08544 0.04685,-0.179145 0.07579,-0.350021 l 0.05374,-0.0083 0.09922,0.296278 q 0.07855,0.03032 0.199815,0.03032 0.128158,0 0.20395,-0.05236 0.07717,-0.05237 0.07717,-0.14745 0,-0.08819 -0.05237,-0.139182 -0.05099,-0.05099 -0.163987,-0.08819 l -0.143316,-0.04823 q -0.186035,-0.06201 -0.257693,-0.148828 -0.07028,-0.08819 -0.07028,-0.21773 0,-0.180523 0.136425,-0.283876 0.137804,-0.104731 0.362424,-0.104731 0.209462,0 0.380338,0.06063 -0.03858,0.157096 -0.07028,0.332107 l -0.05236,0.0096 z m 0.901236,-0.627007 q 0,0.07304 -0.04548,0.119889 -0.04547,0.04548 -0.117133,0.04548 -0.0689,0 -0.112999,-0.04272 -0.04272,-0.04272 -0.04272,-0.112999 0,-0.07441 0.04547,-0.117133 0.04548,-0.0441 0.11989,-0.0441 0.06752,0 0.110243,0.03996 0.04272,0.03858 0.04272,0.111621 z m -0.465777,0.584288 q 0.241157,-0.04547 0.446484,-0.09646 l 0.0124,0.0096 q -0.0083,0.179144 -0.0083,0.394118 v 0.529166 q 0,0.165365 0.0028,0.228755 0.0028,0.03721 0.03445,0.04823 l 0.159853,0.04685 0.0028,0.0565 q -0.190169,-0.0041 -0.325217,-0.0041 -0.135048,0 -0.321083,0.0041 l -0.0055,-0.0565 0.159852,-0.04685 q 0.03169,-0.01102 0.03445,-0.04272 0.0028,-0.05374 0.0028,-0.180523 v -0.460265 q 0,-0.180522 -0.0055,-0.333485 l -0.183279,-0.04961 z m 1.569584,0.588422 q -0.30179,0 -0.412033,0.05926 -0.110243,0.05926 -0.110243,0.199816 0,0.130913 0.07304,0.186035 0.07304,0.05374 0.198438,0.05374 0.141938,0 0.248046,-0.04823 z m -0.668348,-0.567752 q 0.268718,-0.117133 0.475423,-0.117133 0.21084,0 0.327973,0.110243 0.118511,0.110243 0.117133,0.318327 l -0.0069,0.573263 q -0.0014,0.07028 0.0028,0.112999 0.0055,0.04272 0.02481,0.06615 0.02067,0.02205 0.06063,0.03169 0.03996,0.0083 0.107487,0.0096 l 0.0069,0.05374 q -0.05926,0.02343 -0.144694,0.04685 -0.08544,0.02343 -0.115755,0.02343 -0.13367,0 -0.183279,-0.137804 -0.192926,0.139182 -0.363802,0.139182 -0.191547,0 -0.308681,-0.09371 -0.115755,-0.09508 -0.115755,-0.267339 0,-0.212218 0.188791,-0.312815 0.19017,-0.100596 0.595312,-0.100596 l 0.0014,-0.107487 q 0.0014,-0.15434 -0.07855,-0.228754 -0.07993,-0.07441 -0.24529,-0.07441 -0.125402,0 -0.314193,0.04685 z m 1.24299,-0.786859 q 0.22462,-0.0441 0.44924,-0.09784 l 0.0124,0.01102 q -0.0069,0.129535 -0.0083,0.369314 0,0.239778 0,0.541568 0.239778,-0.15434 0.446484,-0.15434 0.191547,0 0.304546,0.107487 0.112999,0.106109 0.112999,0.312815 v 0.486447 q 0,0.158474 0.0028,0.254937 0.0014,0.03583 0.03445,0.04823 l 0.15434,0.04685 0.0028,0.0565 q -0.181901,-0.0041 -0.316948,-0.0041 -0.135048,0 -0.300413,0.0041 l -0.0055,-0.0565 0.136426,-0.03996 q 0.03307,-0.01102 0.03583,-0.04272 0.0014,-0.01929 0.0014,-0.08682 v -0.600825 q 0,-0.169498 -0.0813,-0.242534 -0.0813,-0.07441 -0.239779,-0.07441 -0.136425,0 -0.288009,0.06615 v 0.618738 q 0,0.170877 0.0028,0.312815 0.0014,0.03858 0.03445,0.04823 l 0.143315,0.04134 0.0028,0.0565 q -0.173633,-0.0041 -0.308681,-0.0041 -0.135047,0 -0.319704,0.0041 l -0.0055,-0.0565 0.155719,-0.04548 q 0.03583,-0.01102 0.03721,-0.0441 0.0028,-0.132292 0.0028,-0.337619 v -0.57602 q 0,-0.281119 -0.0014,-0.497471 0,-0.216352 -0.0041,-0.325217 l -0.186035,-0.05512 z"
       id="path29" />
    <path
       style="line-height:1.2;font-family:Constantia;-inkscape-font-specification:Constantia"
       d="m 61.643329,89.364727 q 0.177767,0.0055 0.345888,0.0055 0.06339,-0.0028 0.205327,-0.0083 0.141938,-0.0055 0.191547,-0.0055 0.297656,0 0.44924,0.112999 0.152963,0.111621 0.152963,0.32246 0,0.338997 -0.36518,0.461643 0.213596,0.03583 0.334863,0.158474 0.122645,0.122645 0.122645,0.312814 0,0.275608 -0.199815,0.427192 -0.199816,0.150206 -0.553971,0.150206 -0.07028,0 -0.152962,-0.0041 -0.08131,-0.0041 -0.183279,-0.0041 -0.166743,0 -0.341754,0.0041 l -0.0055,-0.05926 0.169499,-0.05099 q 0.03445,-0.0096 0.03721,-0.04272 0.0014,-0.05512 0.0014,-0.122646 0.0014,-0.0689 0.0014,-0.151584 v -1.117588 q 0,-0.07028 -0.0014,-0.126779 0,-0.0565 -0.0014,-0.101975 -0.0014,-0.03583 -0.03307,-0.04685 l -0.170877,-0.05374 z m 0.476801,0.970138 v 0.836468 q 0.04134,0.01516 0.09508,0.01929 0.05512,0.0041 0.100596,0.0041 0.228755,0 0.347266,-0.112999 0.119889,-0.112999 0.119889,-0.327973 0,-0.214974 -0.121267,-0.318326 -0.119889,-0.104731 -0.388607,-0.104731 -0.07855,0 -0.152962,0.0041 z m 0,-0.110243 q 0.08544,0.0014 0.173633,0.0014 0.203949,0 0.307302,-0.09784 0.104731,-0.09922 0.104731,-0.286631 0,-0.19706 -0.107487,-0.282498 -0.106109,-0.08682 -0.307302,-0.08682 -0.03583,0 -0.07855,0.0028 -0.04272,0.0014 -0.09233,0.0069 z m 2.316481,0.971516 q -0.117133,0.07304 -0.241157,0.104731 -0.124023,0.03169 -0.230132,0.03169 -0.303168,0 -0.483691,-0.172255 -0.180523,-0.173633 -0.180523,-0.480935 0,-0.305924 0.172255,-0.500227 0.173632,-0.194304 0.46302,-0.194304 0.242535,0 0.377582,0.146072 0.135048,0.144694 0.135048,0.401009 0,0.03858 -0.0041,0.07855 h -0.873676 q 0,0.296278 0.139182,0.424436 0.139182,0.126779 0.43546,0.126779 0.132291,0 0.282497,-0.0248 z m -0.261827,-0.700043 v -0.04134 q 0,-0.195681 -0.06339,-0.279741 -0.06201,-0.08406 -0.186035,-0.08406 -0.163987,0 -0.250803,0.118512 -0.08682,0.118511 -0.09784,0.286631 z m 1.22094,0.173633 q -0.30179,0 -0.412033,0.05926 -0.110243,0.05926 -0.110243,0.199815 0,0.130913 0.07304,0.186035 0.07304,0.05374 0.198438,0.05374 0.141937,0 0.248046,-0.04823 z m -0.668348,-0.567751 q 0.268718,-0.117134 0.475423,-0.117134 0.21084,0 0.327973,0.110243 0.118511,0.110243 0.117133,0.318327 l -0.0069,0.573263 q -0.0014,0.07028 0.0028,0.113 0.0055,0.04272 0.02481,0.06614 0.02067,0.02205 0.06063,0.03169 0.03996,0.0083 0.107487,0.0096 l 0.0069,0.05374 q -0.05926,0.02343 -0.144693,0.04685 -0.08544,0.02343 -0.115756,0.02343 -0.133669,0 -0.183278,-0.137804 -0.192926,0.139182 -0.363802,0.139182 -0.191547,0 -0.308681,-0.09371 -0.115755,-0.09508 -0.115755,-0.267339 0,-0.212218 0.188791,-0.312814 0.190169,-0.100597 0.595312,-0.100597 l 0.0014,-0.107487 q 0.0014,-0.15434 -0.07855,-0.228754 -0.07993,-0.07441 -0.24529,-0.07441 -0.125402,0 -0.314193,0.04685 z m 2.269628,1.070735 q -0.214974,0.159852 -0.429948,0.159852 -0.216351,0 -0.325216,-0.110243 -0.107487,-0.110243 -0.107487,-0.310059 v -0.292143 q 0,-0.2949 -0.0055,-0.44235 l -0.183279,-0.04961 -0.0069,-0.04685 q 0.241157,-0.0441 0.446484,-0.09646 l 0.0124,0.0096 q -0.0083,0.16123 -0.0083,0.414789 v 0.438216 q 0,0.166742 0.07855,0.242534 0.07855,0.07441 0.221864,0.07441 0.143316,0 0.293522,-0.07579 v -0.587044 q 0,-0.192925 -0.0055,-0.323838 l -0.1819,-0.04961 -0.0069,-0.04685 q 0.239779,-0.0441 0.445106,-0.09646 l 0.0124,0.0096 q -0.0083,0.165364 -0.0083,0.423057 0,0.500228 0.0028,0.610471 0.0014,0.0565 0.0083,0.09095 0.0069,0.03445 0.02618,0.05374 0.01929,0.01791 0.0565,0.02618 0.03858,0.0069 0.101975,0.0083 l 0.0069,0.05374 q -0.06339,0.02481 -0.146072,0.04685 -0.08268,0.02343 -0.112999,0.02343 -0.139182,0 -0.184657,-0.158474 z m 1.003211,-1.005968 q -0.0083,0.465777 -0.0083,0.751031 0,0.143316 0.04272,0.198437 0.04272,0.05374 0.162608,0.05374 0.09509,0 0.248047,-0.0248 l 0.0083,0.06201 q -0.2384,0.11989 -0.425814,0.11989 -0.150206,0 -0.223242,-0.07993 -0.07304,-0.08131 -0.07304,-0.243913 0,-0.267339 0.0096,-0.844737 l -0.190169,-0.04685 -0.0083,-0.0565 0.212218,-0.01791 0.09508,-0.333485 q 0.07717,-0.02067 0.140559,-0.03996 l 0.01378,0.0096 q -0.0041,0.166743 -0.0041,0.311436 v 0.05099 h 0.414789 v 0.130913 z m 0.454752,-0.150206 q 0.173633,0.0041 0.308681,0.0041 0.09233,0 0.2949,-0.0041 l 0.0055,0.0565 -0.161231,0.0441 q 0.05099,0.144694 0.118512,0.319705 0.06752,0.173632 0.143315,0.362423 0.0317,0.07855 0.0689,0.180523 0.03858,-0.103352 0.08268,-0.210839 0.06477,-0.159853 0.125401,-0.314193 0.06063,-0.155718 0.125401,-0.337619 l -0.157096,-0.0441 -0.0055,-0.0565 q 0.101975,0.0041 0.2384,0.0041 0.122646,0 0.238401,-0.0041 l 0.0069,0.0565 -0.128157,0.03583 q -0.04272,0.01378 -0.06201,0.0565 -0.05099,0.117134 -0.110243,0.256315 -0.181901,0.427192 -0.275608,0.700043 -0.06339,0.184657 -0.114377,0.377582 -0.05099,0.194304 -0.07855,0.333485 -0.0124,0.06752 -0.05099,0.101975 -0.03721,0.03583 -0.176389,0.03583 -0.141938,0 -0.275607,-0.0096 l -0.0069,-0.05374 q 0.151585,-0.02343 0.224621,-0.09784 0.08819,-0.09508 0.272851,-0.50574 l 0.01102,-0.02618 -0.01929,-0.0055 q -0.252181,-0.628385 -0.456131,-1.105186 -0.01791,-0.04134 -0.06339,-0.0565 l -0.121268,-0.03721 z"
       id="path30" />
  </g>
  <rect
     style="display:inline;fill:none;fill-opacity:0.301695;stroke:#000000;stroke-width:0.4572;stroke-dasharray:0.4572, 0.4572;stroke-dashoffset:0.4572;stroke-opacity:1"
     id="rect11"
     width="23.714764"
     height="36.382935"
     x="-23.943363"
     y="-36.613297"
     ry="1.0529222"
     inkscape:label="Text Box"
     transform="scale(-1)" />
</svg>
