<?xml version="1.0" encoding="UTF-8" standalone="no"?>
<!-- Created with Inkscape (http://www.inkscape.org/) -->

<svg
   width="0.65407085in"
   height="1.3192304in"
   viewBox="0 0 16.613401 33.508454"
   version="1.1"
   id="svg1"
   sodipodi:docname="jewish-code.svg"
   inkscape:version="1.3-alpha (4127b5831, 2023-04-12)"
   xmlns:inkscape="http://www.inkscape.org/namespaces/inkscape"
   xmlns:sodipodi="http://sodipodi.sourceforge.net/DTD/sodipodi-0.dtd"
   xmlns="http://www.w3.org/2000/svg"
   xmlns:svg="http://www.w3.org/2000/svg">
  <sodipodi:namedview
     id="namedview1"
     pagecolor="#ffffff"
     bordercolor="#000000"
     borderopacity="0.25"
     inkscape:showpageshadow="2"
     inkscape:pageopacity="0.0"
     inkscape:pagecheckerboard="0"
     inkscape:deskcolor="#d1d1d1"
     inkscape:document-units="in"
     inkscape:zoom="5.8979886"
     inkscape:cx="21.44799"
     inkscape:cy="59.427039"
     inkscape:window-width="1920"
     inkscape:window-height="1017"
     inkscape:window-x="-8"
     inkscape:window-y="-8"
     inkscape:window-maximized="1"
     inkscape:current-layer="layer1" />
  <defs
     id="defs1" />
  <g
     inkscape:label="Layer 1"
     inkscape:groupmode="layer"
     id="layer1"
     transform="translate(-60.208638,-56.225907)">
    <text
       xml:space="preserve"
       style="font-size:2.82222px;line-height:1.2;display:none;fill:#000000;stroke-width:0.264583"
       x="61.508282"
       y="59.511139"
       id="text2"
       inkscape:label="Jew Code"><tspan
         sodipodi:role="line"
         id="tspan2"
         style="font-style:normal;font-variant:normal;font-weight:normal;font-stretch:normal;font-size:2.82222px;font-family:Constantia;-inkscape-font-specification:Constantia;stroke-width:0.264583"
         x="61.508282"
         y="59.511139">Jew</tspan><tspan
         sodipodi:role="line"
         style="font-style:normal;font-variant:normal;font-weight:normal;font-stretch:normal;font-size:2.82222px;font-family:Constantia;-inkscape-font-specification:Constantia;stroke-width:0.264583"
         x="61.508282"
         y="63.000401"
         id="tspan11">Satan/Saint</tspan><tspan
         sodipodi:role="line"
         style="font-style:normal;font-variant:normal;font-weight:normal;font-stretch:normal;font-size:2.82222px;font-family:Constantia;-inkscape-font-specification:Constantia;stroke-width:0.264583"
         x="61.508282"
         y="66.489662"
         id="tspan4">Heaven</tspan><tspan
         sodipodi:role="line"
         style="font-style:normal;font-variant:normal;font-weight:normal;font-stretch:normal;font-size:2.82222px;font-family:Constantia;-inkscape-font-specification:Constantia;stroke-width:0.264583"
         x="61.508282"
         y="69.978928"
         id="tspan5">Gold</tspan><tspan
         sodipodi:role="line"
         style="font-style:normal;font-variant:normal;font-weight:normal;font-stretch:normal;font-size:2.82222px;font-family:Constantia;-inkscape-font-specification:Constantia;stroke-width:0.264583"
         x="61.508282"
         y="73.468185"
         id="tspan6">Pariah</tspan><tspan
         sodipodi:role="line"
         style="font-style:normal;font-variant:normal;font-weight:normal;font-stretch:normal;font-size:2.82222px;font-family:Constantia;-inkscape-font-specification:Constantia;stroke-width:0.264583"
         x="61.508282"
         y="76.957451"
         id="tspan7">Eden</tspan><tspan
         sodipodi:role="line"
         style="font-style:normal;font-variant:normal;font-weight:normal;font-stretch:normal;font-size:2.82222px;font-family:Constantia;-inkscape-font-specification:Constantia;stroke-width:0.264583"
         x="61.508282"
         y="80.446716"
         id="tspan8">Angel</tspan><tspan
         sodipodi:role="line"
         style="font-style:normal;font-variant:normal;font-weight:normal;font-stretch:normal;font-size:2.82222px;font-family:Constantia;-inkscape-font-specification:Constantia;stroke-width:0.264583"
         x="61.508282"
         y="83.935974"
         id="tspan9">Messiah</tspan><tspan
         sodipodi:role="line"
         style="font-style:normal;font-variant:normal;font-weight:normal;font-stretch:normal;font-size:2.82222px;font-family:Constantia;-inkscape-font-specification:Constantia;stroke-width:0.264583"
         x="61.508282"
         y="87.42524"
         id="tspan10">Beauty</tspan></text>
    <g
       aria-label="Jew
Satan/Saint
Heaven
Gold
Pariah
Eden
Angel
Messiah
Beauty"
       id="text18"
       style="font-size:2.82222px;line-height:1.2;stroke-width:0.264583"
       inkscape:label="Jew Code (Object to Path)">
      <path
         d="m 61.622659,57.581887 q 0.177767,0.0055 0.341753,0.0055 0.163986,0 0.340375,-0.0055 l 0.0069,0.05926 -0.170876,0.05099 q -0.03445,0.0083 -0.03721,0.04272 -0.0014,0.04823 -0.0028,0.106109 0,0.0565 0,0.124023 v 1.248502 q 0,0.135048 -0.01103,0.246669 -0.0096,0.110243 -0.03583,0.197059 -0.02618,0.08682 -0.07441,0.15434 -0.04685,0.0689 -0.119889,0.121267 -0.07304,0.05374 -0.176389,0.09371 -0.103352,0.03996 -0.24529,0.07304 l -0.02067,-0.0689 q 0.143316,-0.06063 0.22462,-0.13367 0.08268,-0.07304 0.124024,-0.166742 0.04272,-0.09371 0.05374,-0.21084 0.0124,-0.117133 0.0124,-0.264583 v -1.284331 q 0,-0.07028 -0.0014,-0.126779 0,-0.0565 -0.0014,-0.101975 -0.0014,-0.03583 -0.03307,-0.04685 l -0.170876,-0.05374 z"
         style="font-family:Constantia;-inkscape-font-specification:Constantia"
         id="path18" />
      <path
         d="m 63.591874,59.413298 q -0.117133,0.07304 -0.241157,0.104731 -0.124023,0.03169 -0.230132,0.03169 -0.303168,0 -0.483691,-0.172255 -0.180523,-0.173632 -0.180523,-0.480935 0,-0.305924 0.172255,-0.500227 0.173633,-0.194303 0.46302,-0.194303 0.242535,0 0.377583,0.146072 0.135047,0.144693 0.135047,0.401008 0,0.03858 -0.0041,0.07855 h -0.873675 q 0,0.296278 0.139181,0.424436 0.139182,0.126779 0.43546,0.126779 0.132292,0 0.282498,-0.0248 z m -0.261827,-0.700043 v -0.04134 q 0,-0.195681 -0.06339,-0.279741 -0.06201,-0.08406 -0.186035,-0.08406 -0.163986,0 -0.250803,0.118512 -0.08682,0.118511 -0.09784,0.286631 z"
         style="font-family:Constantia;-inkscape-font-specification:Constantia"
         id="path19" />
      <path
         d="m 63.677312,58.233698 q 0.19706,0.0041 0.292144,0.0041 0.136426,0 0.30868,-0.0041 l 0.0055,0.0565 -0.162609,0.0441 q 0.09233,0.307302 0.232889,0.691775 0.03032,0.0813 0.0565,0.166742 0.02618,-0.08406 0.0565,-0.165364 0.110243,-0.2949 0.166742,-0.460265 0.0565,-0.165364 0.108865,-0.323838 l 0.100597,-0.01102 q 0.05237,0.166743 0.107487,0.333485 0.05512,0.166743 0.158474,0.460265 0.03307,0.08819 0.05512,0.166742 0.02618,-0.07993 0.05926,-0.165364 0.152962,-0.387229 0.253559,-0.694531 l -0.155718,-0.0441 -0.0055,-0.0565 q 0.110243,0.0041 0.234267,0.0041 0.122645,0 0.223242,-0.0041 l 0.0069,0.0565 -0.110243,0.03032 q -0.04685,0.01378 -0.0689,0.06615 -0.129535,0.312814 -0.230132,0.564995 -0.100597,0.250803 -0.21773,0.563617 l -0.124023,0.0124 q -0.08406,-0.242534 -0.14056,-0.394118 -0.05512,-0.152962 -0.119889,-0.332107 -0.02756,-0.07304 -0.04685,-0.14056 -0.02205,0.06615 -0.04961,0.136426 -0.07028,0.183279 -0.130913,0.337619 -0.05926,0.15434 -0.139182,0.380338 l -0.121267,0.0124 q -0.117134,-0.325216 -0.213596,-0.576019 -0.09646,-0.250803 -0.21773,-0.566373 -0.01929,-0.05099 -0.07028,-0.06477 l -0.09922,-0.02894 z"
         style="font-family:Constantia;-inkscape-font-specification:Constantia"
         id="path20" />
      <path
         d="m 62.55559,61.196551 q -0.144694,-0.04823 -0.265961,-0.04823 -0.181901,0 -0.290766,0.08819 -0.107487,0.08819 -0.107487,0.245291 0,0.08957 0.03721,0.157096 0.03858,0.06752 0.101975,0.118511 0.06477,0.05099 0.146072,0.09095 0.0813,0.03996 0.16812,0.07855 0.09509,0.04134 0.184657,0.08819 0.08957,0.04548 0.161231,0.107487 0.07304,0.06201 0.115755,0.148828 0.0441,0.08682 0.0441,0.202571 0,0.27423 -0.192925,0.418924 -0.191547,0.144693 -0.531923,0.144693 -0.219108,0 -0.485069,-0.07441 l -0.0083,-0.01102 0.06752,-0.468532 0.06201,-0.0096 0.09646,0.391363 q 0.146072,0.05788 0.299034,0.05788 0.205328,0 0.319705,-0.09095 0.115755,-0.09095 0.115755,-0.259071 0,-0.08819 -0.03721,-0.15434 -0.03721,-0.06752 -0.100597,-0.115755 -0.06201,-0.04823 -0.141938,-0.08682 -0.07993,-0.03996 -0.165364,-0.07855 -0.09646,-0.04134 -0.187413,-0.08957 -0.09095,-0.04823 -0.165365,-0.111621 -0.07304,-0.06477 -0.117133,-0.157096 -0.0441,-0.09371 -0.0441,-0.21773 0,-0.249425 0.186035,-0.385851 0.187413,-0.136425 0.496093,-0.136425 0.21773,0 0.456131,0.05099 l 0.0096,0.0096 -0.0813,0.429948 -0.05512,0.0096 z"
         style="font-family:Constantia;-inkscape-font-specification:Constantia"
         id="path21" />
      <path
         d="m 63.797201,62.376151 q -0.30179,0 -0.412033,0.05926 -0.110243,0.05926 -0.110243,0.199816 0,0.130913 0.07304,0.186035 0.07304,0.05374 0.198438,0.05374 0.141937,0 0.248046,-0.04823 z m -0.668348,-0.567752 q 0.268718,-0.117133 0.475423,-0.117133 0.21084,0 0.327973,0.110243 0.118511,0.110243 0.117133,0.318327 l -0.0069,0.573263 q -0.0014,0.07028 0.0028,0.112999 0.0055,0.04272 0.02481,0.06615 0.02067,0.02205 0.06063,0.03169 0.03996,0.0083 0.107487,0.0096 l 0.0069,0.05374 q -0.05926,0.02343 -0.144693,0.04685 -0.08544,0.02343 -0.115756,0.02343 -0.133669,0 -0.183279,-0.137803 -0.192925,0.139181 -0.363801,0.139181 -0.191547,0 -0.308681,-0.09371 -0.115755,-0.09508 -0.115755,-0.267339 0,-0.212218 0.188791,-0.312815 0.190169,-0.100596 0.595312,-0.100596 l 0.0014,-0.107487 q 0.0014,-0.15434 -0.07855,-0.228754 -0.07993,-0.07441 -0.24529,-0.07441 -0.125402,0 -0.314193,0.04685 z"
         style="font-family:Constantia;-inkscape-font-specification:Constantia"
         id="path22" />
      <path
         d="m 64.7949,61.873167 q -0.0083,0.465777 -0.0083,0.75103 0,0.143316 0.04272,0.198438 0.04272,0.05374 0.162609,0.05374 0.09508,0 0.248046,-0.02481 l 0.0083,0.06201 q -0.238401,0.119889 -0.425814,0.119889 -0.150206,0 -0.223242,-0.07993 -0.07304,-0.0813 -0.07304,-0.243912 0,-0.26734 0.0096,-0.844737 l -0.190169,-0.04685 -0.0083,-0.0565 0.212218,-0.01791 0.09508,-0.333485 q 0.07717,-0.02067 0.14056,-0.03996 l 0.01378,0.0096 q -0.0041,0.166742 -0.0041,0.311436 v 0.05099 h 0.41479 v 0.130913 z"
         style="font-family:Constantia;-inkscape-font-specification:Constantia"
         id="path23" />
      <path
         d="m 66.148133,62.376151 q -0.30179,0 -0.412033,0.05926 -0.110243,0.05926 -0.110243,0.199816 0,0.130913 0.07304,0.186035 0.07304,0.05374 0.198437,0.05374 0.141938,0 0.248047,-0.04823 z m -0.668348,-0.567752 q 0.268717,-0.117133 0.475423,-0.117133 0.210839,0 0.327973,0.110243 0.118511,0.110243 0.117133,0.318327 l -0.0069,0.573263 q -0.0014,0.07028 0.0028,0.112999 0.0055,0.04272 0.0248,0.06615 0.02067,0.02205 0.06063,0.03169 0.03996,0.0083 0.107487,0.0096 l 0.0069,0.05374 q -0.05926,0.02343 -0.144694,0.04685 -0.08544,0.02343 -0.115755,0.02343 -0.13367,0 -0.183279,-0.137803 -0.192925,0.139181 -0.363802,0.139181 -0.191547,0 -0.30868,-0.09371 -0.115755,-0.09508 -0.115755,-0.267339 0,-0.212218 0.188791,-0.312815 0.190169,-0.100596 0.595312,-0.100596 l 0.0014,-0.107487 q 0.0014,-0.15434 -0.07855,-0.228754 -0.07993,-0.07441 -0.245291,-0.07441 -0.125401,0 -0.314192,0.04685 z"
         style="font-family:Constantia;-inkscape-font-specification:Constantia"
         id="path24" />
      <path
         d="m 66.732421,61.787729 q 0.23151,-0.0441 0.436837,-0.09646 l 0.01378,0.0096 v 0.159853 q 0.239778,-0.169499 0.446484,-0.169499 0.195681,0 0.305924,0.110243 0.111621,0.108865 0.111621,0.310058 v 0.486448 q 0,0.172254 0.0028,0.254936 0.0014,0.03721 0.03583,0.04823 l 0.152962,0.04685 0.0028,0.0565 q -0.181901,-0.0041 -0.316948,-0.0041 -0.135048,0 -0.300412,0.0041 l -0.0055,-0.0565 0.137804,-0.03996 q 0.03169,-0.01102 0.03445,-0.04272 0.0014,-0.01929 0.0014,-0.08682 v -0.600824 q 0,-0.169498 -0.0813,-0.242534 -0.0813,-0.07441 -0.239779,-0.07441 -0.139181,0 -0.288009,0.07993 v 0.602202 q 0,0.172255 0.0028,0.315571 0.0014,0.03721 0.03169,0.04685 l 0.143316,0.04272 0.0028,0.0565 q -0.170877,-0.0041 -0.305925,-0.0041 -0.135047,0 -0.319704,0.0041 l -0.0055,-0.0565 0.162608,-0.04685 q 0.03032,-0.0124 0.03169,-0.04272 0.0014,-0.08819 0.0014,-0.169499 v -0.469911 q 0,-0.180522 -0.0055,-0.334863 l -0.183279,-0.04961 z"
         style="font-family:Constantia;-inkscape-font-specification:Constantia"
         id="path25" />
      <path
         d="m 68.446699,63.311838 0.695908,-2.276518 h 0.165365 l -0.695909,2.276518 z"
         style="font-family:Constantia;-inkscape-font-specification:Constantia"
         id="path26" />
      <path
         d="m 70.479304,61.196551 q -0.144694,-0.04823 -0.265962,-0.04823 -0.1819,0 -0.290765,0.08819 -0.107487,0.08819 -0.107487,0.245291 0,0.08957 0.03721,0.157096 0.03859,0.06752 0.101974,0.118511 0.06477,0.05099 0.146072,0.09095 0.08131,0.03996 0.168121,0.07855 0.09509,0.04134 0.184657,0.08819 0.08957,0.04548 0.16123,0.107487 0.07304,0.06201 0.115755,0.148828 0.0441,0.08682 0.0441,0.202571 0,0.27423 -0.192926,0.418924 -0.191547,0.144693 -0.531922,0.144693 -0.219108,0 -0.485069,-0.07441 l -0.0083,-0.01102 0.06752,-0.468532 0.06201,-0.0096 0.09646,0.391363 q 0.146072,0.05788 0.299034,0.05788 0.205327,0 0.319705,-0.09095 0.115755,-0.09095 0.115755,-0.259071 0,-0.08819 -0.03721,-0.15434 -0.03721,-0.06752 -0.100597,-0.115755 -0.06201,-0.04823 -0.141938,-0.08682 -0.07993,-0.03996 -0.165364,-0.07855 -0.09646,-0.04134 -0.187413,-0.08957 -0.09095,-0.04823 -0.165365,-0.111621 -0.07304,-0.06477 -0.117133,-0.157096 -0.0441,-0.09371 -0.0441,-0.21773 0,-0.249425 0.186035,-0.385851 0.187413,-0.136425 0.496093,-0.136425 0.21773,0 0.45613,0.05099 l 0.0096,0.0096 -0.0813,0.429948 -0.05512,0.0096 z"
         style="font-family:Constantia;-inkscape-font-specification:Constantia"
         id="path27" />
      <path
         d="m 71.720915,62.376151 q -0.30179,0 -0.412033,0.05926 -0.110243,0.05926 -0.110243,0.199816 0,0.130913 0.07304,0.186035 0.07304,0.05374 0.198438,0.05374 0.141937,0 0.248046,-0.04823 z m -0.668348,-0.567752 q 0.268718,-0.117133 0.475423,-0.117133 0.21084,0 0.327973,0.110243 0.118511,0.110243 0.117133,0.318327 l -0.0069,0.573263 q -0.0014,0.07028 0.0028,0.112999 0.0055,0.04272 0.02481,0.06615 0.02067,0.02205 0.06063,0.03169 0.03996,0.0083 0.107487,0.0096 l 0.0069,0.05374 q -0.05926,0.02343 -0.144694,0.04685 -0.08544,0.02343 -0.115756,0.02343 -0.133669,0 -0.183278,-0.137803 -0.192926,0.139181 -0.363802,0.139181 -0.191547,0 -0.308681,-0.09371 -0.115755,-0.09508 -0.115755,-0.267339 0,-0.212218 0.188791,-0.312815 0.19017,-0.100596 0.595312,-0.100596 l 0.0014,-0.107487 q 0.0014,-0.15434 -0.07855,-0.228754 -0.07993,-0.07441 -0.24529,-0.07441 -0.125402,0 -0.314193,0.04685 z"
         style="font-family:Constantia;-inkscape-font-specification:Constantia"
         id="path28" />
      <path
         d="m 72.77098,61.203441 q 0,0.07304 -0.04548,0.119889 -0.04547,0.04548 -0.117133,0.04548 -0.0689,0 -0.112999,-0.04272 -0.04272,-0.04272 -0.04272,-0.112999 0,-0.07441 0.04547,-0.117133 0.04548,-0.0441 0.11989,-0.0441 0.06752,0 0.110243,0.03996 0.04272,0.03859 0.04272,0.111621 z m -0.465777,0.584288 q 0.241157,-0.04547 0.446484,-0.09646 l 0.0124,0.0096 q -0.0083,0.179145 -0.0083,0.394119 v 0.529166 q 0,0.165365 0.0028,0.228754 0.0028,0.03721 0.03445,0.04823 l 0.159853,0.04685 0.0028,0.0565 q -0.190169,-0.0041 -0.325217,-0.0041 -0.135048,0 -0.321083,0.0041 l -0.0055,-0.0565 0.159852,-0.04685 q 0.03169,-0.01103 0.03445,-0.04272 0.0028,-0.05374 0.0028,-0.180523 v -0.460265 q 0,-0.180523 -0.0055,-0.333485 l -0.183279,-0.04961 z"
         style="font-family:Constantia;-inkscape-font-specification:Constantia"
         id="path29" />
      <path
         d="m 73.104464,61.787729 q 0.23151,-0.0441 0.436838,-0.09646 l 0.01378,0.0096 v 0.159853 q 0.239779,-0.169499 0.446484,-0.169499 0.195682,0 0.305925,0.110243 0.111621,0.108865 0.111621,0.310058 v 0.486448 q 0,0.172254 0.0028,0.254936 0.0014,0.03721 0.03583,0.04823 l 0.152962,0.04685 0.0028,0.0565 q -0.181901,-0.0041 -0.316949,-0.0041 -0.135047,0 -0.300412,0.0041 l -0.0055,-0.0565 0.137804,-0.03996 q 0.0317,-0.01102 0.03445,-0.04272 0.0014,-0.01929 0.0014,-0.08682 v -0.600824 q 0,-0.169498 -0.0813,-0.242534 -0.08131,-0.07441 -0.239779,-0.07441 -0.139182,0 -0.28801,0.07993 v 0.602202 q 0,0.172255 0.0028,0.315571 0.0014,0.03721 0.03169,0.04685 l 0.143316,0.04272 0.0028,0.0565 q -0.170876,-0.0041 -0.305924,-0.0041 -0.135048,0 -0.319705,0.0041 l -0.0055,-0.0565 0.162609,-0.04685 q 0.03032,-0.0124 0.03169,-0.04272 0.0014,-0.08819 0.0014,-0.169499 v -0.469911 q 0,-0.180522 -0.0055,-0.334863 l -0.183279,-0.04961 z"
         style="font-family:Constantia;-inkscape-font-specification:Constantia"
         id="path30" />
      <path
         d="m 75.160495,61.873167 q -0.0083,0.465777 -0.0083,0.75103 0,0.143316 0.04272,0.198438 0.04272,0.05374 0.162609,0.05374 0.09508,0 0.248046,-0.02481 l 0.0083,0.06201 q -0.238401,0.119889 -0.425814,0.119889 -0.150206,0 -0.223242,-0.07993 -0.07304,-0.0813 -0.07304,-0.243912 0,-0.26734 0.0096,-0.844737 l -0.190169,-0.04685 -0.0083,-0.0565 0.212218,-0.01791 0.09508,-0.333485 q 0.07717,-0.02067 0.14056,-0.03996 l 0.01378,0.0096 q -0.0041,0.166742 -0.0041,0.311436 v 0.05099 h 0.41479 v 0.130913 z"
         style="font-family:Constantia;-inkscape-font-specification:Constantia"
         id="path31" />
      <path
         d="m 62.122886,65.536062 v 0.530545 q 0,0.162608 0.0028,0.272851 0.0014,0.03721 0.03583,0.04685 l 0.152962,0.04823 0.0041,0.05926 q -0.163987,-0.0041 -0.327973,-0.0041 -0.163987,0 -0.341754,0.0041 l -0.0055,-0.05926 0.169499,-0.05099 q 0.03583,-0.01102 0.03721,-0.04272 0.0028,-0.111621 0.0028,-0.274229 v -1.117589 q 0,-0.137803 -0.0028,-0.228754 -0.0014,-0.03583 -0.03307,-0.04685 l -0.170877,-0.05374 -0.0028,-0.05926 q 0.177767,0.0055 0.341754,0.0055 0.165364,0 0.326594,-0.0055 l 0.0069,0.05926 -0.157097,0.04823 q -0.03445,0.0083 -0.03583,0.04272 -0.0028,0.09922 -0.0028,0.232888 v 0.467155 h 1.003211 v -0.467155 q 0,-0.133669 -0.0028,-0.232888 -0.0014,-0.03445 -0.03583,-0.04272 l -0.152962,-0.04823 -0.0028,-0.05926 q 0.168121,0.0055 0.332107,0.0055 0.163986,0 0.336241,-0.0055 l 0.0055,0.05926 -0.173632,0.05374 q -0.0317,0.01102 -0.03307,0.04685 -0.0028,0.09095 -0.0028,0.228754 v 1.117589 q 0,0.162608 0.0028,0.274229 0.0014,0.03169 0.03721,0.04272 l 0.166742,0.05099 0.0028,0.05926 q -0.181901,-0.0041 -0.347265,-0.0041 -0.163987,0 -0.321083,0.0041 l -0.0055,-0.05926 0.155718,-0.04823 q 0.03445,-0.0096 0.03583,-0.04685 0.0028,-0.110243 0.0028,-0.272851 v -0.530545 z"
         style="font-family:Constantia;-inkscape-font-specification:Constantia"
         id="path32" />
      <path
         d="m 64.92857,66.391823 q -0.117133,0.07304 -0.241156,0.104731 -0.124024,0.03169 -0.230133,0.03169 -0.303168,0 -0.483691,-0.172255 -0.180523,-0.173632 -0.180523,-0.480935 0,-0.305924 0.172255,-0.500227 0.173633,-0.194303 0.463021,-0.194303 0.242534,0 0.377582,0.146072 0.135047,0.144694 0.135047,0.401008 0,0.03858 -0.0041,0.07855 h -0.873675 q 0,0.296278 0.139181,0.424435 0.139182,0.126779 0.43546,0.126779 0.132292,0 0.282498,-0.0248 z M 64.666743,65.69178 v -0.04134 q 0,-0.195681 -0.06339,-0.279741 -0.06201,-0.08406 -0.186035,-0.08406 -0.163986,0 -0.250803,0.118511 -0.08682,0.118511 -0.09784,0.286631 z"
         style="font-family:Constantia;-inkscape-font-specification:Constantia"
         id="path33" />
      <path
         d="m 65.887684,65.865413 q -0.30179,0 -0.412033,0.05926 -0.110243,0.05926 -0.110243,0.199815 0,0.130914 0.07304,0.186035 0.07304,0.05374 0.198437,0.05374 0.141938,0 0.248047,-0.04823 z m -0.668348,-0.567751 q 0.268717,-0.117133 0.475423,-0.117133 0.210839,0 0.327973,0.110243 0.118511,0.110243 0.117133,0.318326 l -0.0069,0.573264 q -0.0014,0.07028 0.0028,0.112999 0.0055,0.04272 0.0248,0.06615 0.02067,0.02205 0.06063,0.03169 0.03996,0.0083 0.107487,0.0096 l 0.0069,0.05374 q -0.05926,0.02343 -0.144694,0.04685 -0.08544,0.02343 -0.115755,0.02343 -0.13367,0 -0.183279,-0.137804 -0.192925,0.139182 -0.363802,0.139182 -0.191547,0 -0.30868,-0.09371 -0.115755,-0.09508 -0.115755,-0.267339 0,-0.212217 0.188791,-0.312814 0.190169,-0.100597 0.595312,-0.100597 l 0.0014,-0.107487 q 0.0014,-0.15434 -0.07855,-0.228754 -0.07993,-0.07441 -0.245291,-0.07441 -0.125401,0 -0.314192,0.04685 z"
         style="font-family:Constantia;-inkscape-font-specification:Constantia"
         id="path34" />
      <path
         d="m 66.280424,65.212224 q 0.173633,0.0041 0.308681,0.0041 0.124023,0 0.297656,-0.0041 l 0.0055,0.0565 -0.159852,0.0441 q 0.112999,0.321083 0.261827,0.682129 0.03858,0.09508 0.0689,0.181901 0.03032,-0.08682 0.07028,-0.180523 0.125402,-0.308681 0.263205,-0.683507 l -0.157096,-0.0441 -0.0055,-0.0565 q 0.111621,0.0041 0.232888,0.0041 0.124024,0 0.239779,-0.0041 l 0.0055,0.0565 -0.137804,0.03996 q -0.03169,0.01102 -0.05374,0.05374 -0.108865,0.25218 -0.253559,0.600824 -0.143316,0.347265 -0.216352,0.536056 l -0.117133,0.0124 q -0.07579,-0.199816 -0.219108,-0.547081 -0.141938,-0.347266 -0.243913,-0.595312 -0.02205,-0.04823 -0.06063,-0.06201 l -0.12678,-0.03859 z"
         style="font-family:Constantia;-inkscape-font-specification:Constantia"
         id="path35" />
      <path
         d="m 68.86011,66.391823 q -0.117133,0.07304 -0.241156,0.104731 -0.124024,0.03169 -0.230132,0.03169 -0.303169,0 -0.483691,-0.172255 -0.180523,-0.173632 -0.180523,-0.480935 0,-0.305924 0.172254,-0.500227 0.173633,-0.194303 0.463021,-0.194303 0.242534,0 0.377582,0.146072 0.135048,0.144694 0.135048,0.401008 0,0.03858 -0.0041,0.07855 h -0.873675 q 0,0.296278 0.139182,0.424435 0.139181,0.126779 0.435459,0.126779 0.132292,0 0.282498,-0.0248 z M 68.598283,65.69178 v -0.04134 q 0,-0.195681 -0.06339,-0.279741 -0.06201,-0.08406 -0.186035,-0.08406 -0.163986,0 -0.250802,0.118511 -0.08682,0.118511 -0.09784,0.286631 z"
         style="font-family:Constantia;-inkscape-font-specification:Constantia"
         id="path36" />
      <path
         d="m 69.048901,65.276991 q 0.23151,-0.0441 0.436838,-0.09646 l 0.01378,0.0096 v 0.159852 q 0.239779,-0.169498 0.446484,-0.169498 0.195682,0 0.305925,0.110243 0.111621,0.108865 0.111621,0.310058 v 0.486447 q 0,0.172255 0.0028,0.254937 0.0014,0.03721 0.03583,0.04823 l 0.152962,0.04685 0.0028,0.0565 q -0.181901,-0.0041 -0.316949,-0.0041 -0.135047,0 -0.300412,0.0041 l -0.0055,-0.0565 0.137804,-0.03996 q 0.03169,-0.01102 0.03445,-0.04272 0.0014,-0.01929 0.0014,-0.08682 v -0.600824 q 0,-0.169499 -0.0813,-0.242535 -0.08131,-0.07441 -0.239779,-0.07441 -0.139182,0 -0.28801,0.07993 v 0.602203 q 0,0.172254 0.0028,0.31557 0.0014,0.03721 0.03169,0.04685 l 0.143316,0.04272 0.0028,0.0565 q -0.170876,-0.0041 -0.305924,-0.0041 -0.135048,0 -0.319705,0.0041 l -0.0055,-0.0565 0.162609,-0.04685 q 0.03032,-0.0124 0.03169,-0.04272 0.0014,-0.08819 0.0014,-0.169498 v -0.469911 q 0,-0.180523 -0.0055,-0.334863 l -0.183279,-0.04961 z"
         style="font-family:Constantia;-inkscape-font-specification:Constantia"
         id="path37" />
      <path
         d="m 63.1385,68.530609 -0.05512,0.0083 -0.09508,-0.361046 q -0.168121,-0.0441 -0.315571,-0.0441 -0.344509,0 -0.537434,0.234266 -0.192926,0.232888 -0.192926,0.643543 0,0.41479 0.21084,0.66008 0.21084,0.243913 0.567751,0.243913 0.11989,0 0.235645,-0.03032 v -0.367936 q 0,-0.0689 -0.0014,-0.125401 0,-0.0565 -0.0014,-0.103353 -0.0014,-0.03583 -0.03307,-0.04547 l -0.170877,-0.05374 -0.0028,-0.05926 q 0.177767,0.0041 0.340375,0.0041 0.165365,0 0.319705,-0.0041 l 0.0069,0.05926 -0.150206,0.0441 q -0.03307,0.01103 -0.03583,0.04272 -0.0014,0.05512 -0.0028,0.112999 0,0.0565 0,0.122645 v 0.440972 l -0.0083,0.0096 q -0.28112,0.06752 -0.516764,0.06752 -0.483691,0 -0.770323,-0.256315 -0.285254,-0.256315 -0.285254,-0.715201 0,-0.487825 0.2949,-0.763433 0.296278,-0.276985 0.810286,-0.276985 0.221864,0 0.465777,0.0565 l 0.0083,0.01102 z"
         style="font-family:Constantia;-inkscape-font-specification:Constantia"
         id="path38" />
      <path
         d="m 63.872993,69.328493 q 0,0.257693 0.09646,0.420301 0.09646,0.161231 0.286632,0.161231 0.177767,0 0.270095,-0.141938 0.09371,-0.143316 0.09371,-0.423058 0,-0.263205 -0.09784,-0.414789 -0.09784,-0.151584 -0.283876,-0.151584 -0.176388,0 -0.271473,0.136426 -0.09371,0.136426 -0.09371,0.413411 z m 1.028016,-0.0124 q 0,0.314192 -0.190169,0.508495 -0.188791,0.192926 -0.480935,0.192926 -0.285254,0 -0.461642,-0.181901 -0.175011,-0.183279 -0.175011,-0.478179 0,-0.303168 0.183279,-0.494716 0.184657,-0.192925 0.487825,-0.192925 0.286632,0 0.461642,0.177767 0.175011,0.176389 0.175011,0.468533 z"
         style="font-family:Constantia;-inkscape-font-specification:Constantia"
         id="path39" />
      <path
         d="m 65.088422,68.04554 -0.0069,-0.04547 q 0.243913,-0.04685 0.44924,-0.09784 l 0.0124,0.01102 q -0.0083,0.22462 -0.0083,0.624251 v 0.897102 q 0,0.246668 0.0028,0.396875 0.0041,0.03996 0.03858,0.04961 l 0.150206,0.04548 0.0041,0.0565 q -0.186035,-0.0041 -0.321083,-0.0041 -0.135048,0 -0.319705,0.0041 l -0.0055,-0.0565 0.155718,-0.04548 q 0.03445,-0.01102 0.03721,-0.0441 0.0028,-0.155719 0.0028,-0.347266 V 68.92335 q 0,-0.51263 -0.0055,-0.822688 z"
         style="font-family:Constantia;-inkscape-font-specification:Constantia"
         id="path40" />
      <path
         d="m 66.874359,68.821375 q -0.09233,-0.02894 -0.206706,-0.02894 -0.237022,0 -0.361046,0.135047 -0.124023,0.13367 -0.124023,0.406521 0,0.235644 0.110243,0.377582 0.110243,0.14056 0.311436,0.14056 0.129536,0 0.270096,-0.07166 z m -0.198438,-0.82131 q 0.245291,-0.04685 0.44924,-0.09784 l 0.0124,0.01102 q -0.0083,0.2949 -0.0083,0.633897 v 0.749652 q 0,0.190169 0.0014,0.376204 0,0.07028 0.0041,0.112999 0.0055,0.04272 0.0248,0.06615 0.01929,0.02205 0.0565,0.03032 0.03858,0.0083 0.107487,0.0096 l 0.0069,0.05374 q -0.06063,0.02343 -0.146072,0.04685 -0.08406,0.02343 -0.114377,0.02343 -0.139182,0 -0.187413,-0.157097 -0.213596,0.158475 -0.414789,0.158475 -0.254937,0 -0.407899,-0.180523 -0.151585,-0.181901 -0.151585,-0.446484 0,-0.341754 0.202572,-0.529167 0.202571,-0.187413 0.566373,-0.187413 0.08819,0 0.19706,0.01929 0,-0.304546 -0.0055,-0.592556 l -0.186035,-0.05512 z"
         style="font-family:Constantia;-inkscape-font-specification:Constantia"
         id="path41" />
      <path
         d="m 62.122886,72.536636 q 0.09646,0.01654 0.190169,0.01654 0.220486,0 0.334863,-0.112999 0.115756,-0.114377 0.115756,-0.348643 0,-0.22462 -0.110243,-0.334863 -0.108865,-0.110243 -0.34451,-0.110243 -0.09233,0 -0.186035,0.01102 z m 0,0.508496 q 0,0.08268 0,0.148828 0.0014,0.06614 0.0028,0.118511 0.0014,0.03169 0.03583,0.04272 l 0.190169,0.05788 0.0028,0.05926 q -0.199816,-0.0041 -0.363802,-0.0041 -0.166743,0 -0.341754,0.0041 l -0.0055,-0.05926 0.169499,-0.05099 q 0.03583,-0.01102 0.03721,-0.04272 0.0014,-0.05512 0.0014,-0.122645 0.0014,-0.0689 0.0014,-0.151584 v -1.117588 q 0,-0.07028 -0.0014,-0.12678 0,-0.0565 -0.0014,-0.101975 -0.0014,-0.03583 -0.03307,-0.04685 l -0.170877,-0.05374 -0.0028,-0.05926 q 0.177767,0.0055 0.345888,0.0055 0.112999,0 0.21773,-0.0055 0.106108,-0.0055 0.192925,-0.0055 0.323838,0 0.489203,0.128157 0.166742,0.12678 0.166742,0.378961 0,0.296278 -0.191547,0.460264 -0.191547,0.163986 -0.537434,0.163986 -0.09508,0 -0.20395,-0.0124 z"
         style="font-family:Constantia;-inkscape-font-specification:Constantia"
         id="path42" />
      <path
         d="m 63.965322,72.843938 q -0.30179,0 -0.412033,0.05926 -0.110243,0.05926 -0.110243,0.199815 0,0.130914 0.07304,0.186035 0.07304,0.05374 0.198437,0.05374 0.141938,0 0.248047,-0.04823 z m -0.668348,-0.567751 q 0.268717,-0.117133 0.475423,-0.117133 0.210839,0 0.327973,0.110243 0.118511,0.110243 0.117133,0.318326 l -0.0069,0.573264 q -0.0014,0.07028 0.0028,0.112999 0.0055,0.04272 0.0248,0.06615 0.02067,0.02205 0.06063,0.03169 0.03996,0.0083 0.107487,0.0096 l 0.0069,0.05374 q -0.05926,0.02343 -0.144694,0.04685 -0.08544,0.02343 -0.115755,0.02343 -0.13367,0 -0.183279,-0.137804 -0.192925,0.139182 -0.363802,0.139182 -0.191547,0 -0.30868,-0.09371 -0.115755,-0.09508 -0.115755,-0.26734 0,-0.212217 0.188791,-0.312814 0.190169,-0.100597 0.595312,-0.100597 l 0.0014,-0.107487 q 0.0014,-0.15434 -0.07855,-0.228754 -0.07993,-0.07441 -0.245291,-0.07441 -0.125401,0 -0.314192,0.04685 z"
         style="font-family:Constantia;-inkscape-font-specification:Constantia"
         id="path43" />
      <path
         d="m 64.54961,72.255516 q 0.230132,-0.0441 0.436838,-0.09646 l 0.01378,0.0096 v 0.16123 q 0.254937,-0.170876 0.500227,-0.170876 l 0.0069,0.0083 q -0.03996,0.205328 -0.07855,0.425813 l -0.05512,0.0096 q -0.03858,-0.117133 -0.07441,-0.187413 -0.03583,-0.07166 -0.112999,-0.07166 -0.07441,0 -0.186035,0.0689 v 0.59669 q 0,0.214973 0.0028,0.307302 0.0014,0.03721 0.03445,0.04685 l 0.183279,0.05237 0.0041,0.0565 q -0.214974,-0.0041 -0.350021,-0.0041 -0.135048,0 -0.319705,0.0041 l -0.0055,-0.0565 0.159852,-0.04685 q 0.03307,-0.01102 0.03445,-0.04272 0.0014,-0.05925 0.0014,-0.169498 v -0.469911 q 0,-0.22462 -0.0055,-0.334863 L 64.5565,72.30237 Z"
         style="font-family:Constantia;-inkscape-font-specification:Constantia"
         id="path44" />
      <path
         d="m 66.097146,71.671229 q 0,0.07304 -0.04547,0.119889 -0.04548,0.04547 -0.117134,0.04547 -0.0689,0 -0.112999,-0.04272 -0.04272,-0.04272 -0.04272,-0.112999 0,-0.07441 0.04547,-0.117133 0.04548,-0.0441 0.11989,-0.0441 0.06752,0 0.110243,0.03996 0.04272,0.03858 0.04272,0.111621 z m -0.465777,0.584287 q 0.241157,-0.04547 0.446484,-0.09646 l 0.0124,0.0096 q -0.0083,0.179145 -0.0083,0.394119 v 0.529166 q 0,0.165364 0.0028,0.228754 0.0028,0.03721 0.03445,0.04823 l 0.159853,0.04685 0.0028,0.0565 q -0.190169,-0.0041 -0.325217,-0.0041 -0.135048,0 -0.321083,0.0041 l -0.0055,-0.0565 0.159853,-0.04685 q 0.03169,-0.01102 0.03445,-0.04272 0.0028,-0.05374 0.0028,-0.180523 v -0.460264 q 0,-0.180523 -0.0055,-0.333485 l -0.183279,-0.04961 z"
         style="font-family:Constantia;-inkscape-font-specification:Constantia"
         id="path45" />
      <path
         d="m 67.200953,72.843938 q -0.30179,0 -0.412033,0.05926 -0.110243,0.05926 -0.110243,0.199815 0,0.130914 0.07304,0.186035 0.07304,0.05374 0.198437,0.05374 0.141938,0 0.248047,-0.04823 z m -0.668348,-0.567751 q 0.268717,-0.117133 0.475423,-0.117133 0.21084,0 0.327973,0.110243 0.118511,0.110243 0.117133,0.318326 l -0.0069,0.573264 q -0.0014,0.07028 0.0028,0.112999 0.0055,0.04272 0.0248,0.06615 0.02067,0.02205 0.06063,0.03169 0.03996,0.0083 0.107487,0.0096 l 0.0069,0.05374 q -0.05925,0.02343 -0.144694,0.04685 -0.08544,0.02343 -0.115755,0.02343 -0.133669,0 -0.183279,-0.137804 -0.192925,0.139182 -0.363802,0.139182 -0.191547,0 -0.30868,-0.09371 -0.115755,-0.09508 -0.115755,-0.26734 0,-0.212217 0.188791,-0.312814 0.190169,-0.100597 0.595312,-0.100597 l 0.0014,-0.107487 q 0.0014,-0.15434 -0.07855,-0.228754 -0.07993,-0.07441 -0.245291,-0.07441 -0.125401,0 -0.314192,0.04685 z"
         style="font-family:Constantia;-inkscape-font-specification:Constantia"
         id="path46" />
      <path
         d="m 67.775595,71.489328 q 0.22462,-0.0441 0.44924,-0.09784 l 0.0124,0.01102 q -0.0069,0.129536 -0.0083,0.369314 0,0.239779 0,0.541569 0.239779,-0.15434 0.446484,-0.15434 0.191547,0 0.304546,0.107487 0.113,0.106109 0.113,0.312814 v 0.486447 q 0,0.158474 0.0028,0.254937 0.0014,0.03583 0.03445,0.04823 l 0.15434,0.04685 0.0028,0.0565 q -0.181901,-0.0041 -0.316949,-0.0041 -0.135047,0 -0.300412,0.0041 l -0.0055,-0.0565 0.136426,-0.03996 q 0.03307,-0.01103 0.03583,-0.04272 0.0014,-0.01929 0.0014,-0.08682 v -0.600824 q 0,-0.169499 -0.08131,-0.242535 -0.0813,-0.07441 -0.239778,-0.07441 -0.136426,0 -0.28801,0.06615 v 0.618739 q 0,0.170876 0.0028,0.312814 0.0014,0.03858 0.03445,0.04823 l 0.143316,0.04134 0.0028,0.0565 q -0.173633,-0.0041 -0.30868,-0.0041 -0.135048,0 -0.319705,0.0041 l -0.0055,-0.0565 0.155718,-0.04548 q 0.03583,-0.01102 0.03721,-0.0441 0.0028,-0.132291 0.0028,-0.337619 v -0.576019 q 0,-0.28112 -0.0014,-0.497472 0,-0.216352 -0.0041,-0.325217 l -0.186035,-0.05512 z"
         style="font-family:Constantia;-inkscape-font-specification:Constantia"
         id="path47" />
      <path
         d="m 61.985083,75.033712 h 0.334863 q 0.30868,0 0.651811,-0.0055 l 0.0083,0.01102 -0.07993,0.425813 -0.05512,0.0096 -0.08544,-0.318327 h -0.636653 v 0.75792 h 0.125402 q 0.143316,0 0.319704,-0.0028 0.03583,-0.0014 0.04685,-0.03583 l 0.04823,-0.186035 0.07441,-0.0028 q -0.0041,0.192926 -0.0041,0.285254 0,0.08957 0.0041,0.28112 l -0.07441,0.0055 -0.04961,-0.188791 q -0.01102,-0.03583 -0.04272,-0.03721 -0.179144,-0.0028 -0.323838,-0.0028 h -0.124024 v 0.501605 q 0,0.152962 0.0028,0.30179 H 62.7871 l 0.168121,-0.350021 0.06201,-0.01102 -0.03032,0.479556 -0.0096,0.0096 q -0.356911,-0.0041 -0.658701,-0.0041 h -0.327973 q -0.166743,0 -0.341754,0.0041 l -0.0055,-0.05926 0.169499,-0.05099 q 0.03445,-0.0096 0.03721,-0.04272 0.0014,-0.05512 0.0014,-0.122646 0.0014,-0.0689 0.0014,-0.151584 v -1.117588 q 0,-0.07028 -0.0014,-0.126779 0,-0.0565 -0.0014,-0.101975 -0.0014,-0.03583 -0.03307,-0.04685 l -0.170877,-0.05374 -0.0028,-0.05926 q 0.177767,0.0055 0.341754,0.0055 z"
         style="font-family:Constantia;-inkscape-font-specification:Constantia"
         id="path48" />
      <path
         d="m 64.217503,75.7999 q -0.09233,-0.02894 -0.206706,-0.02894 -0.237022,0 -0.361046,0.135047 -0.124023,0.13367 -0.124023,0.406521 0,0.235645 0.110243,0.377582 0.110243,0.14056 0.311436,0.14056 0.129536,0 0.270096,-0.07166 z m -0.198438,-0.82131 q 0.245291,-0.04685 0.44924,-0.09784 l 0.0124,0.01102 q -0.0083,0.2949 -0.0083,0.633897 v 0.749652 q 0,0.190169 0.0014,0.376204 0,0.07028 0.0041,0.112999 0.0055,0.04272 0.0248,0.06615 0.01929,0.02205 0.0565,0.03032 0.03858,0.0083 0.107487,0.0096 l 0.0069,0.05374 q -0.06063,0.02343 -0.146072,0.04685 -0.08406,0.02343 -0.114377,0.02343 -0.139182,0 -0.187413,-0.157097 -0.213596,0.158475 -0.414789,0.158475 -0.254937,0 -0.407899,-0.180523 -0.151584,-0.181901 -0.151584,-0.446484 0,-0.341753 0.202571,-0.529167 0.202572,-0.187413 0.566373,-0.187413 0.08819,0 0.19706,0.01929 0,-0.304546 -0.0055,-0.592556 l -0.186035,-0.05512 z"
         style="font-family:Constantia;-inkscape-font-specification:Constantia"
         id="path49" />
      <path
         d="m 65.991036,76.859611 q -0.117133,0.07304 -0.241156,0.104731 -0.124023,0.03169 -0.230132,0.03169 -0.303168,0 -0.483691,-0.172255 -0.180523,-0.173633 -0.180523,-0.480935 0,-0.305924 0.172254,-0.500227 0.173633,-0.194304 0.463021,-0.194304 0.242534,0 0.377582,0.146072 0.135048,0.144694 0.135048,0.401009 0,0.03858 -0.0041,0.07855 h -0.873676 q 0,0.296278 0.139182,0.424436 0.139182,0.126779 0.43546,0.126779 0.132291,0 0.282497,-0.02481 z m -0.261827,-0.700043 v -0.04134 q 0,-0.195681 -0.06339,-0.279742 -0.06201,-0.08406 -0.186035,-0.08406 -0.163987,0 -0.250803,0.118511 -0.08682,0.118512 -0.09784,0.286632 z"
         style="font-family:Constantia;-inkscape-font-specification:Constantia"
         id="path50" />
      <path
         d="m 66.179827,75.744779 q 0.231511,-0.0441 0.436838,-0.09646 l 0.01378,0.0096 v 0.159852 q 0.239778,-0.169499 0.446484,-0.169499 0.195681,0 0.305924,0.110243 0.111621,0.108865 0.111621,0.310059 v 0.486447 q 0,0.172254 0.0028,0.254937 0.0014,0.03721 0.03583,0.04823 l 0.152962,0.04685 0.0028,0.0565 q -0.181901,-0.0041 -0.316949,-0.0041 -0.135047,0 -0.300412,0.0041 l -0.0055,-0.0565 0.137804,-0.03996 q 0.03169,-0.01102 0.03445,-0.04272 0.0014,-0.01929 0.0014,-0.08682 v -0.600825 q 0,-0.169498 -0.0813,-0.242534 -0.0813,-0.07441 -0.239779,-0.07441 -0.139181,0 -0.288009,0.07993 v 0.602202 q 0,0.172255 0.0028,0.315571 0.0014,0.03721 0.03169,0.04685 l 0.143316,0.04272 0.0028,0.0565 q -0.170876,-0.0041 -0.305924,-0.0041 -0.135048,0 -0.319704,0.0041 l -0.0055,-0.0565 0.162609,-0.04685 q 0.03032,-0.0124 0.03169,-0.04272 0.0014,-0.08819 0.0014,-0.169499 v -0.46991 q 0,-0.180523 -0.0055,-0.334864 l -0.183278,-0.04961 z"
         style="font-family:Constantia;-inkscape-font-specification:Constantia"
         id="path51" />
      <path
         d="m 62.547322,78.488523 0.611848,1.68534 q 0.03445,0.09508 0.06201,0.129535 0.02894,0.03307 0.0813,0.04961 l 0.129536,0.03858 0.0028,0.05925 q -0.180523,-0.0041 -0.334863,-0.0041 -0.157097,0 -0.370692,0.0041 l -0.0055,-0.05925 0.130914,-0.03858 q 0.02756,-0.0096 0.03858,-0.02067 0.0124,-0.0124 0.0124,-0.03721 0,-0.02756 -0.01516,-0.07166 -0.01378,-0.04547 -0.03996,-0.119889 L 62.720954,79.734269 H 62.05674 l -0.144693,0.367936 q -0.02894,0.07717 -0.04548,0.122645 -0.01654,0.04547 -0.01654,0.07166 0,0.02343 0.0124,0.03583 0.01378,0.01102 0.03996,0.01929 l 0.128158,0.03721 0.0028,0.06201 q -0.195681,-0.0041 -0.319705,-0.0041 -0.124023,0 -0.276985,0.0041 l -0.0069,-0.05925 0.139181,-0.04272 q 0.05237,-0.01654 0.07717,-0.05099 0.02481,-0.03445 0.05512,-0.107487 l 0.704177,-1.681205 z m -0.439594,1.120345 h 0.567751 l -0.268717,-0.759299 z"
         style="font-family:Constantia;-inkscape-font-specification:Constantia"
         id="path52" />
      <path
         d="m 63.491277,79.234041 q 0.23151,-0.0441 0.436838,-0.09646 l 0.01378,0.0096 v 0.159852 q 0.239779,-0.169498 0.446484,-0.169498 0.195682,0 0.305925,0.110243 0.111621,0.108865 0.111621,0.310058 v 0.486447 q 0,0.172255 0.0028,0.254937 0.0014,0.03721 0.03583,0.04823 l 0.152962,0.04685 0.0028,0.0565 q -0.181901,-0.0041 -0.316949,-0.0041 -0.135047,0 -0.300412,0.0041 l -0.0055,-0.0565 0.137804,-0.03996 q 0.03169,-0.01103 0.03445,-0.04272 0.0014,-0.01929 0.0014,-0.08682 v -0.600824 q 0,-0.169499 -0.08131,-0.242535 -0.0813,-0.07441 -0.239778,-0.07441 -0.139182,0 -0.28801,0.07993 v 0.602202 q 0,0.172254 0.0028,0.31557 0.0014,0.03721 0.03169,0.04685 l 0.143316,0.04272 0.0028,0.0565 q -0.170876,-0.0041 -0.305924,-0.0041 -0.135048,0 -0.319705,0.0041 l -0.0055,-0.0565 0.162609,-0.04685 q 0.03032,-0.0124 0.03169,-0.04272 0.0014,-0.08819 0.0014,-0.169498 v -0.469911 q 0,-0.180523 -0.0055,-0.334863 l -0.183279,-0.04961 z"
         style="font-family:Constantia;-inkscape-font-specification:Constantia"
         id="path53" />
      <path
         d="m 65.449468,79.590953 q 0,0.179145 0.07166,0.276986 0.07304,0.09784 0.21084,0.09784 0.132291,0 0.198437,-0.09095 0.06752,-0.09233 0.06752,-0.268718 0,-0.169498 -0.07166,-0.267339 -0.07028,-0.09784 -0.21084,-0.09784 -0.132291,0 -0.199815,0.08957 -0.06615,0.08957 -0.06615,0.260449 z m -0.01792,0.910883 q -0.09371,0.140559 -0.09371,0.259071 0,0.121267 0.09784,0.188791 0.09784,0.06752 0.265961,0.06752 0.199815,0 0.350021,-0.08957 0.150206,-0.08819 0.150206,-0.248047 0,-0.08682 -0.07441,-0.135047 -0.07304,-0.04685 -0.276985,-0.04685 -0.07304,0 -0.159853,0.0041 -0.08544,0.0041 -0.165364,0.0041 -0.0441,0 -0.09371,-0.0041 z m 0.719336,-1.190624 q 0.103353,0.114377 0.103353,0.272851 0,0.221864 -0.154341,0.354155 -0.15434,0.130914 -0.387228,0.130914 -0.132292,0 -0.237022,-0.04134 -0.07441,0.119889 -0.07441,0.188791 0,0.03721 0.03721,0.05099 0.03858,0.0124 0.140559,0.0124 0.07717,0 0.180523,-0.0041 0.103353,-0.0041 0.192926,-0.0041 0.219107,0 0.345887,0.08406 0.128157,0.08268 0.128157,0.246668 0,0.248047 -0.234266,0.391363 -0.232888,0.143316 -0.530544,0.143316 -0.243913,0 -0.389985,-0.08268 -0.144694,-0.08131 -0.144694,-0.212218 0,-0.158474 0.22462,-0.355534 -0.141938,-0.05374 -0.141938,-0.143316 0,-0.125401 0.19706,-0.350021 -0.214974,-0.130914 -0.214974,-0.37896 0,-0.214974 0.151584,-0.345888 0.152962,-0.130913 0.394119,-0.130913 0.06339,0 0.172254,0.01654 0.103353,0.01929 0.161231,0.01929 0.208083,0 0.383094,-0.0041 l 0.0069,0.0565 z"
         style="font-family:Constantia;-inkscape-font-specification:Constantia"
         id="path54" />
      <path
         d="m 67.661218,80.348873 q -0.117133,0.07304 -0.241157,0.104731 -0.124023,0.03169 -0.230132,0.03169 -0.303168,0 -0.483691,-0.172254 -0.180523,-0.173633 -0.180523,-0.480935 0,-0.305925 0.172255,-0.500228 0.173632,-0.194303 0.46302,-0.194303 0.242535,0 0.377582,0.146072 0.135048,0.144694 0.135048,0.401009 0,0.03859 -0.0041,0.07855 H 66.79581 q 0,0.296278 0.139182,0.424435 0.139182,0.12678 0.43546,0.12678 0.132291,0 0.282497,-0.02481 z m -0.261827,-0.700042 v -0.04134 q 0,-0.195681 -0.06339,-0.279741 -0.06201,-0.08406 -0.186035,-0.08406 -0.163987,0 -0.250803,0.118511 -0.08682,0.118511 -0.09784,0.286632 z"
         style="font-family:Constantia;-inkscape-font-specification:Constantia"
         id="path55" />
      <path
         d="m 67.847253,78.513328 -0.0069,-0.04547 q 0.243913,-0.04685 0.44924,-0.09784 l 0.0124,0.01102 q -0.0083,0.22462 -0.0083,0.624251 v 0.897102 q 0,0.246669 0.0028,0.396875 0.0041,0.03996 0.03858,0.04961 l 0.150206,0.04548 0.0041,0.0565 q -0.186035,-0.0041 -0.321083,-0.0041 -0.135047,0 -0.319704,0.0041 l -0.0055,-0.0565 0.155719,-0.04548 q 0.03445,-0.01102 0.03721,-0.0441 0.0028,-0.155718 0.0028,-0.347265 v -0.566373 q 0,-0.51263 -0.0055,-0.822689 z"
         style="font-family:Constantia;-inkscape-font-specification:Constantia"
         id="path56" />
      <path
         d="m 63.414107,82.006725 q 0.129536,0.0055 0.234266,0.0055 0.101975,0 0.27423,-0.0055 l 0.0055,0.05925 -0.173633,0.05374 q -0.0317,0.01102 -0.03307,0.04685 -0.0028,0.09095 -0.0028,0.228754 v 1.117588 q 0,0.162609 0.0028,0.27423 0.0014,0.03169 0.03858,0.04272 l 0.165365,0.05099 0.0028,0.05926 q -0.181901,-0.0041 -0.347265,-0.0041 -0.162609,0 -0.321083,0.0041 l -0.0055,-0.05926 0.158474,-0.04823 q 0.03307,-0.0096 0.03445,-0.04823 0.0028,-0.108865 0.0028,-0.271474 v -1.19338 l -0.683506,1.616438 -0.100597,0.01102 -0.687641,-1.627462 v 1.19338 q 0,0.162609 0.0028,0.271474 0.0014,0.03859 0.03583,0.04823 l 0.154341,0.04823 0.0028,0.05926 q -0.163987,-0.0041 -0.27423,-0.0041 -0.107487,0 -0.285253,0.0041 l -0.0055,-0.05926 0.169499,-0.05099 q 0.03583,-0.01103 0.03721,-0.04272 0.0028,-0.111621 0.0028,-0.27423 v -1.117588 q 0,-0.137804 -0.0028,-0.228754 -0.0014,-0.03583 -0.03307,-0.04685 l -0.170877,-0.05374 -0.0028,-0.05925 q 0.177767,0.0055 0.28112,0.0055 0.118511,0 0.246669,-0.0055 l 0.639409,1.511706 z"
         style="font-family:Constantia;-inkscape-font-specification:Constantia"
         id="path57" />
      <path
         d="m 65.251031,83.838136 q -0.117134,0.07304 -0.241157,0.104731 -0.124023,0.03169 -0.230132,0.03169 -0.303168,0 -0.483691,-0.172255 -0.180523,-0.173633 -0.180523,-0.480935 0,-0.305924 0.172255,-0.500227 0.173632,-0.194304 0.46302,-0.194304 0.242535,0 0.377582,0.146072 0.135048,0.144694 0.135048,0.401009 0,0.03858 -0.0041,0.07855 h -0.873676 q 0,0.296278 0.139182,0.424436 0.139182,0.126779 0.43546,0.126779 0.132291,0 0.282497,-0.02481 z m -0.261827,-0.700043 v -0.04134 q 0,-0.195681 -0.06339,-0.279742 -0.06201,-0.08406 -0.186035,-0.08406 -0.163987,0 -0.250803,0.118511 -0.08682,0.118512 -0.09784,0.286632 z"
         style="font-family:Constantia;-inkscape-font-specification:Constantia"
         id="path58" />
      <path
         d="m 66.146755,82.766023 q -0.07993,-0.02205 -0.173633,-0.02205 -0.129535,0 -0.209461,0.05099 -0.07855,0.04961 -0.07855,0.136426 0,0.08406 0.05099,0.132291 0.05237,0.04823 0.192925,0.09509 l 0.112999,0.03858 q 0.190169,0.06477 0.278364,0.148828 0.08957,0.08268 0.08957,0.21773 0,0.191547 -0.148828,0.30179 -0.148828,0.108865 -0.376204,0.108865 -0.209462,0 -0.42857,-0.08544 0.04685,-0.179144 0.07579,-0.350021 l 0.05374,-0.0083 0.09922,0.296278 q 0.07855,0.03032 0.199816,0.03032 0.128157,0 0.203949,-0.05237 0.07717,-0.05237 0.07717,-0.14745 0,-0.08819 -0.05237,-0.139182 -0.05099,-0.05099 -0.163986,-0.08819 l -0.143316,-0.04823 q -0.186035,-0.06201 -0.257693,-0.148828 -0.07028,-0.08819 -0.07028,-0.21773 0,-0.180523 0.136426,-0.283876 0.137803,-0.104731 0.362423,-0.104731 0.209462,0 0.380339,0.06063 -0.03858,0.157096 -0.07028,0.332107 l -0.05237,0.0096 z"
         style="font-family:Constantia;-inkscape-font-specification:Constantia"
         id="path59" />
      <path
         d="m 67.289148,82.766023 q -0.07993,-0.02205 -0.173633,-0.02205 -0.129536,0 -0.209462,0.05099 -0.07855,0.04961 -0.07855,0.136426 0,0.08406 0.05099,0.132291 0.05237,0.04823 0.192926,0.09509 l 0.112999,0.03858 q 0.190169,0.06477 0.278363,0.148828 0.08957,0.08268 0.08957,0.21773 0,0.191547 -0.148828,0.30179 -0.148828,0.108865 -0.376205,0.108865 -0.209461,0 -0.428569,-0.08544 0.04685,-0.179144 0.07579,-0.350021 l 0.05374,-0.0083 0.09922,0.296278 q 0.07855,0.03032 0.199815,0.03032 0.128158,0 0.20395,-0.05237 0.07717,-0.05237 0.07717,-0.14745 0,-0.08819 -0.05237,-0.139182 -0.05099,-0.05099 -0.163987,-0.08819 l -0.143316,-0.04823 q -0.186035,-0.06201 -0.257693,-0.148828 -0.07028,-0.08819 -0.07028,-0.21773 0,-0.180523 0.136425,-0.283876 0.137804,-0.104731 0.362424,-0.104731 0.209462,0 0.380338,0.06063 -0.03858,0.157096 -0.07028,0.332107 l -0.05236,0.0096 z"
         style="font-family:Constantia;-inkscape-font-specification:Constantia"
         id="path60" />
      <path
         d="m 68.190384,82.139016 q 0,0.07304 -0.04548,0.119889 -0.04547,0.04548 -0.117133,0.04548 -0.0689,0 -0.112999,-0.04272 -0.04272,-0.04272 -0.04272,-0.113 0,-0.07441 0.04547,-0.117133 0.04548,-0.0441 0.11989,-0.0441 0.06752,0 0.110243,0.03996 0.04272,0.03858 0.04272,0.111621 z m -0.465777,0.584288 q 0.241157,-0.04547 0.446484,-0.09646 l 0.0124,0.0096 q -0.0083,0.179144 -0.0083,0.394118 v 0.529167 q 0,0.165364 0.0028,0.228754 0.0028,0.03721 0.03445,0.04823 l 0.159853,0.04685 0.0028,0.0565 q -0.190169,-0.0041 -0.325217,-0.0041 -0.135048,0 -0.321083,0.0041 l -0.0055,-0.0565 0.159852,-0.04685 q 0.03169,-0.01102 0.03445,-0.04272 0.0028,-0.05374 0.0028,-0.180523 v -0.460264 q 0,-0.180523 -0.0055,-0.333485 l -0.183279,-0.04961 z"
         style="font-family:Constantia;-inkscape-font-specification:Constantia"
         id="path61" />
      <path
         d="m 69.294191,83.311726 q -0.30179,0 -0.412033,0.05926 -0.110243,0.05926 -0.110243,0.199816 0,0.130913 0.07304,0.186035 0.07304,0.05374 0.198438,0.05374 0.141938,0 0.248046,-0.04823 z m -0.668348,-0.567751 q 0.268718,-0.117134 0.475423,-0.117134 0.21084,0 0.327973,0.110243 0.118511,0.110243 0.117133,0.318327 l -0.0069,0.573263 q -0.0014,0.07028 0.0028,0.112999 0.0055,0.04272 0.02481,0.06615 0.02067,0.02205 0.06063,0.03169 0.03996,0.0083 0.107487,0.0096 l 0.0069,0.05374 q -0.05926,0.02343 -0.144694,0.04685 -0.08544,0.02343 -0.115755,0.02343 -0.13367,0 -0.183279,-0.137804 -0.192926,0.139182 -0.363802,0.139182 -0.191547,0 -0.308681,-0.09371 -0.115755,-0.09508 -0.115755,-0.267339 0,-0.212218 0.188791,-0.312814 0.19017,-0.100597 0.595312,-0.100597 l 0.0014,-0.107487 q 0.0014,-0.15434 -0.07855,-0.228754 -0.07993,-0.07441 -0.24529,-0.07441 -0.125402,0 -0.314193,0.04685 z"
         style="font-family:Constantia;-inkscape-font-specification:Constantia"
         id="path62" />
      <path
         d="m 69.868833,81.957115 q 0.22462,-0.0441 0.44924,-0.09784 l 0.0124,0.01102 q -0.0069,0.129535 -0.0083,0.369314 0,0.239778 0,0.541569 0.239778,-0.154341 0.446484,-0.154341 0.191547,0 0.304546,0.107487 0.112999,0.106109 0.112999,0.312815 v 0.486447 q 0,0.158474 0.0028,0.254937 0.0014,0.03583 0.03445,0.04823 l 0.15434,0.04685 0.0028,0.0565 q -0.181901,-0.0041 -0.316948,-0.0041 -0.135048,0 -0.300413,0.0041 l -0.0055,-0.0565 0.136426,-0.03996 q 0.03307,-0.01102 0.03583,-0.04272 0.0014,-0.01929 0.0014,-0.08682 v -0.600825 q 0,-0.169498 -0.0813,-0.242534 -0.0813,-0.07441 -0.239779,-0.07441 -0.136425,0 -0.288009,0.06615 v 0.618738 q 0,0.170877 0.0028,0.312815 0.0014,0.03858 0.03445,0.04823 l 0.143315,0.04134 0.0028,0.0565 q -0.173633,-0.0041 -0.308681,-0.0041 -0.135047,0 -0.319704,0.0041 l -0.0055,-0.0565 0.155719,-0.04547 q 0.03583,-0.01102 0.03721,-0.0441 0.0028,-0.132292 0.0028,-0.337619 V 82.8804 q 0,-0.281119 -0.0014,-0.497471 0,-0.216352 -0.0041,-0.325217 l -0.186035,-0.05512 z"
         style="font-family:Constantia;-inkscape-font-specification:Constantia"
         id="path63" />
      <path
         d="m 61.643329,85.495987 q 0.177767,0.0055 0.345888,0.0055 0.06339,-0.0028 0.205327,-0.0083 0.141938,-0.0055 0.191547,-0.0055 0.297656,0 0.44924,0.112999 0.152963,0.111621 0.152963,0.322461 0,0.338997 -0.36518,0.461642 0.213596,0.03583 0.334863,0.158474 0.122645,0.122646 0.122645,0.312815 0,0.275607 -0.199815,0.427191 -0.199816,0.150206 -0.553971,0.150206 -0.07028,0 -0.152962,-0.0041 -0.08131,-0.0041 -0.183279,-0.0041 -0.166743,0 -0.341754,0.0041 l -0.0055,-0.05925 0.169499,-0.05099 q 0.03445,-0.0096 0.03721,-0.04272 0.0014,-0.05512 0.0014,-0.122645 0.0014,-0.0689 0.0014,-0.151584 v -1.117588 q 0,-0.07028 -0.0014,-0.12678 0,-0.0565 -0.0014,-0.101975 -0.0014,-0.03583 -0.03307,-0.04685 l -0.170877,-0.05374 z m 0.476801,0.970138 v 0.836469 q 0.04134,0.01516 0.09508,0.01929 0.05512,0.0041 0.100596,0.0041 0.228755,0 0.347266,-0.113 0.119889,-0.112999 0.119889,-0.327972 0,-0.214974 -0.121267,-0.318327 -0.119889,-0.104731 -0.388607,-0.104731 -0.07855,0 -0.152962,0.0041 z m 0,-0.110243 q 0.08544,0.0014 0.173633,0.0014 0.203949,0 0.307302,-0.09784 0.104731,-0.09922 0.104731,-0.286632 0,-0.197059 -0.107487,-0.282498 -0.106109,-0.08682 -0.307302,-0.08682 -0.03583,0 -0.07855,0.0028 -0.04272,0.0014 -0.09233,0.0069 z"
         style="font-family:Constantia;-inkscape-font-specification:Constantia"
         id="path64" />
      <path
         d="m 64.436611,87.327399 q -0.117133,0.07304 -0.241157,0.10473 -0.124023,0.03169 -0.230132,0.03169 -0.303168,0 -0.483691,-0.172254 -0.180523,-0.173633 -0.180523,-0.480935 0,-0.305925 0.172255,-0.500228 0.173632,-0.194303 0.46302,-0.194303 0.242535,0 0.377582,0.146072 0.135048,0.144694 0.135048,0.401009 0,0.03858 -0.0041,0.07855 h -0.873676 q 0,0.296278 0.139182,0.424435 0.139182,0.12678 0.43546,0.12678 0.132291,0 0.282497,-0.02481 z m -0.261827,-0.700043 v -0.04134 q 0,-0.195682 -0.06339,-0.279742 -0.06201,-0.08406 -0.186035,-0.08406 -0.163987,0 -0.250803,0.118511 -0.08682,0.118511 -0.09784,0.286632 z"
         style="font-family:Constantia;-inkscape-font-specification:Constantia"
         id="path65" />
      <path
         d="m 65.395724,86.800988 q -0.30179,0 -0.412033,0.05926 -0.110243,0.05926 -0.110243,0.199815 0,0.130914 0.07304,0.186035 0.07304,0.05374 0.198438,0.05374 0.141937,0 0.248046,-0.04823 z m -0.668348,-0.567751 q 0.268718,-0.117133 0.475423,-0.117133 0.21084,0 0.327973,0.110243 0.118511,0.110243 0.117133,0.318326 l -0.0069,0.573264 q -0.0014,0.07028 0.0028,0.112999 0.0055,0.04272 0.02481,0.06615 0.02067,0.02205 0.06063,0.03169 0.03996,0.0083 0.107487,0.0096 l 0.0069,0.05374 q -0.05926,0.02343 -0.144693,0.04685 -0.08544,0.02343 -0.115756,0.02343 -0.133669,0 -0.183278,-0.137804 -0.192926,0.139182 -0.363802,0.139182 -0.191547,0 -0.308681,-0.09371 -0.115755,-0.09509 -0.115755,-0.26734 0,-0.212217 0.188791,-0.312814 0.190169,-0.100597 0.595312,-0.100597 l 0.0014,-0.107487 q 0.0014,-0.15434 -0.07855,-0.228754 -0.07993,-0.07441 -0.24529,-0.07441 -0.125402,0 -0.314193,0.04685 z"
         style="font-family:Constantia;-inkscape-font-specification:Constantia"
         id="path66" />
      <path
         d="m 66.997004,87.303972 q -0.214974,0.159852 -0.429948,0.159852 -0.216351,0 -0.325216,-0.110243 -0.107487,-0.110243 -0.107487,-0.310058 v -0.292144 q 0,-0.2949 -0.0055,-0.44235 l -0.183279,-0.04961 -0.0069,-0.04685 q 0.241157,-0.0441 0.446484,-0.09646 l 0.0124,0.0096 q -0.0083,0.161231 -0.0083,0.414789 v 0.438216 q 0,0.166743 0.07855,0.242535 0.07855,0.07441 0.221864,0.07441 0.143316,0 0.293522,-0.07579 v -0.587044 q 0,-0.192925 -0.0055,-0.323839 l -0.1819,-0.04961 -0.0069,-0.04685 q 0.239779,-0.0441 0.445106,-0.09646 l 0.0124,0.0096 q -0.0083,0.165365 -0.0083,0.423058 0,0.500227 0.0028,0.61047 0.0014,0.0565 0.0083,0.09095 0.0069,0.03445 0.02618,0.05374 0.01929,0.01791 0.0565,0.02618 0.03858,0.0069 0.101975,0.0083 l 0.0069,0.05374 q -0.06339,0.02481 -0.146072,0.04685 -0.08268,0.02343 -0.112999,0.02343 -0.139182,0 -0.184657,-0.158474 z"
         style="font-family:Constantia;-inkscape-font-specification:Constantia"
         id="path67" />
      <path
         d="m 68.000215,86.298005 q -0.0083,0.465776 -0.0083,0.75103 0,0.143316 0.04272,0.198437 0.04272,0.05374 0.162608,0.05374 0.09509,0 0.248047,-0.02481 l 0.0083,0.06201 q -0.2384,0.119889 -0.425814,0.119889 -0.150206,0 -0.223242,-0.07993 -0.07304,-0.0813 -0.07304,-0.243913 0,-0.267339 0.0096,-0.844736 l -0.190169,-0.04685 -0.0083,-0.0565 0.212218,-0.01792 0.09508,-0.333485 q 0.07717,-0.02067 0.140559,-0.03996 l 0.01378,0.0096 q -0.0041,0.166742 -0.0041,0.311436 v 0.05099 h 0.414789 v 0.130914 z"
         style="font-family:Constantia;-inkscape-font-specification:Constantia"
         id="path68" />
      <path
         d="m 68.454967,86.147799 q 0.173633,0.0041 0.308681,0.0041 0.09233,0 0.2949,-0.0041 l 0.0055,0.0565 -0.161231,0.0441 q 0.05099,0.144694 0.118512,0.319705 0.06752,0.173633 0.143315,0.362424 0.0317,0.07855 0.0689,0.180523 0.03858,-0.103353 0.08268,-0.21084 0.06477,-0.159852 0.125401,-0.314192 0.06063,-0.155719 0.125401,-0.33762 l -0.157096,-0.0441 -0.0055,-0.0565 q 0.101975,0.0041 0.2384,0.0041 0.122646,0 0.238401,-0.0041 l 0.0069,0.0565 -0.128157,0.03583 q -0.04272,0.01378 -0.06201,0.0565 -0.05099,0.117133 -0.110243,0.256315 -0.181901,0.427191 -0.275608,0.700043 -0.06339,0.184657 -0.114377,0.377582 -0.05099,0.194303 -0.07855,0.333485 -0.0124,0.06752 -0.05099,0.101974 -0.03721,0.03583 -0.176389,0.03583 -0.141938,0 -0.275607,-0.0096 l -0.0069,-0.05374 q 0.151585,-0.02343 0.224621,-0.09784 0.08819,-0.09508 0.272851,-0.50574 l 0.01102,-0.02618 -0.01929,-0.0055 q -0.252181,-0.628385 -0.456131,-1.105186 -0.01791,-0.04134 -0.06339,-0.0565 l -0.121268,-0.03721 z"
         style="font-family:Constantia;-inkscape-font-specification:Constantia"
         id="path69" />
    </g>
    <rect
       style="fill:none;fill-opacity:0.301695;stroke:#000000;stroke-width:0.36685;stroke-dasharray:0.36685, 0.36685;stroke-dashoffset:0;stroke-opacity:1"
       id="rect11"
       width="16.24655"
       height="33.141605"
       x="60.392063"
       y="56.409332"
       ry="0.95911837"
       inkscape:label="Text Box" />
  </g>
</svg>
