<?xml version="1.0" encoding="UTF-8" standalone="no"?>
<!-- Uploaded to: SVG Repo, www.svgrepo.com, Generator: SVG Repo Mixer Tools -->

<svg
   fill="#000000"
   height="800"
   width="765.58984"
   version="1.1"
   id="Capa_1"
   viewBox="0 0 444.9991 465"
   xml:space="preserve"
   sodipodi:docname="ouroboros.svg"
   inkscape:version="1.3.2 (091e20e, 2023-11-25, custom)"
   xmlns:inkscape="http://www.inkscape.org/namespaces/inkscape"
   xmlns:sodipodi="http://sodipodi.sourceforge.net/DTD/sodipodi-0.dtd"
   xmlns="http://www.w3.org/2000/svg"
   xmlns:svg="http://www.w3.org/2000/svg"><defs
   id="defs2" /><sodipodi:namedview
   id="namedview2"
   pagecolor="#ffffff"
   bordercolor="#000000"
   borderopacity="0.25"
   inkscape:showpageshadow="2"
   inkscape:pageopacity="0.0"
   inkscape:pagecheckerboard="0"
   inkscape:deskcolor="#d1d1d1"
   inkscape:zoom="1.03875"
   inkscape:cx="382.67148"
   inkscape:cy="399.51865"
   inkscape:window-width="1920"
   inkscape:window-height="1009"
   inkscape:window-x="-8"
   inkscape:window-y="-8"
   inkscape:window-maximized="1"
   inkscape:current-layer="Capa_1" />
<g
   id="g2"
   transform="translate(-10.000452)">
	<path
   id="path1"
   d="M 232.5,0 C 213.55904,0 195.6609,9.5328718 185.00892,25.086841 136.65502,35.613819 92.699396,62.412592 60.957458,100.79352 28.097524,140.52644 10.000452,190.85255 10.000452,242.50045 c 0,59.43188 23.143199,115.30638 65.168115,157.3303 C 117.19248,441.85467 173.06812,465 232.5,465 c 59.43188,0 115.30753,-23.14533 157.33143,-65.16925 42.02492,-42.02392 65.16812,-97.89842 65.16812,-157.3303 0,-72.69121 -34.91129,-137.1084 -87.3473,-177.18599 -22.31406,-17.054954 -66.14016,-20.237676 -86.91302,-17.072288 0,0 -4.04887,11.005851 -5.10604,13.149819 31.91655,1.090818 60.99978,-0.304052 81.93485,15.528364 50.51677,38.203955 82.4314,98.731005 82.4314,165.580095 0,114.41578 -93.08366,207.49944 -207.49944,207.49944 -114.41578,0 -207.499438,-93.08366 -207.499438,-207.49944 0,-98.3458 69.847622,-183.866476 166.077428,-203.361436 0.098,-0.02 0.19576,-0.04058 0.29176,-0.06358 0.003,0 0.007,-0.0013 0.0113,-0.0023 0.005,-0.003 0.008,-0.0034 0.0125,-0.0034 0.005,-0.002 0.01,-4.12e-4 0.0159,-0.0034 0.004,-10e-4 0.01,0.0025 0.0136,-0.0045 0.005,-10e-4 0.008,-0.0023 0.0136,-0.0023 0.005,-10e-4 0.0128,-5.82e-4 0.0148,-0.0045 0.019,-0.005 0.0378,-0.0088 0.0568,-0.01476 0.019,-0.005 0.0366,-0.0098 0.0556,-0.01476 0.005,10e-4 0.009,-0.0024 0.0136,-0.0034 0.004,-0.002 0.007,-0.0034 0.0102,-0.0034 0.004,-0.001 0.0104,0.0016 0.0114,-0.0034 1.785,-0.487 3.39149,-1.633515 4.42749,-3.336511 0,-0.001 10e-4,-0.0013 10e-4,-0.0023 0.001,-0.003 0.004,-0.0059 0.005,-0.0079 10e-4,-0.003 10e-4,-0.0048 0.003,-0.0068 0.001,-0.002 0.002,-0.0025 0.003,-0.0045 0.002,-0.004 0.005,-0.0086 0.007,-0.01362 7.7713,-12.92609 21.39818,-20.643457 36.45414,-20.643457 10.64798,0 19.68346,3.906069 26.98044,11.617053 -14.35696,5.26599 -24.64068,19.079014 -24.64068,35.218982 0,13.833972 7.48872,26.033848 18.8157,32.531836 -6.357,3.670992 -13.58248,5.631993 -21.15546,5.631993 -11.80098,0 -22.77282,-4.735707 -30.8948,-13.334691 -1.846,-1.953996 -4.59815,-2.771222 -7.21113,-2.142224 -34.82994,8.401984 -66.41048,28.555865 -88.92444,56.746805 -22.872956,28.64194 -35.469874,64.59367 -35.469874,101.23059 0,89.60282 72.897424,162.49911 162.500244,162.49911 89.60282,0 162.50024,-72.89629 162.50024,-162.49911 0,-36.63792 -12.59664,-72.59005 -35.4676,-101.23399 -7.12901,-8.92834 -15.17158,-17.03899 -23.93967,-24.22262 -14.42989,-11.82231 -54.85342,-68.801788 -54.85342,-68.801788 -8.23969,2.374337 -11.15431,-2.06275 -5.10604,13.149819 8.40706,16.533979 36.14536,55.465109 50.04993,66.751919 33.57763,27.25607 54.31669,68.67554 54.31669,114.35666 0,81.33184 -66.16829,147.499 -147.50013,147.499 -81.33184,0 -147.500134,-66.16716 -147.500134,-147.499 0,-67.01386 44.581924,-124.9795 108.920804,-142.37446 10.58398,9.62398 24.12035,14.8741 38.57933,14.8741 14.46098,0 28.00003,-5.25434 38.58501,-14.88432 6.7148,-4.756322 12.31445,-14.156449 12.31445,-14.156449 -3.67027,-0.123209 -9.49539,-1.144525 -13.56891,-1.766625 -11.39696,-1.260998 -19.99182,-10.872577 -19.99182,-22.356555 0,-12.364976 10.05956,-22.457327 22.42354,-22.497327 3.56105,0.09892 6.64299,0.92176 7.16799,0.80376 -0.19752,-12.3649 -2.55286,-15.704083 -2.55286,-15.704083 C 266.0621,8.4346426 250.78296,0 232.5,0 Z"
   sodipodi:nodetypes="sccscscssccsssscccccccccccccccccscscscscccssscsccsssscscccscccs" />
	<path
   d="m 215.979,49.218 c 4.411,0 8,-3.589 8,-8 0,-4.411 -3.589,-8 -8,-8 -4.411,0 -8,3.589 -8,8 0,4.411 3.589,8 8,8 z"
   id="path2" />
</g>
</svg>
