<?xml version="1.0" encoding="UTF-8" standalone="no"?>
<!-- Created with Inkscape (http://www.inkscape.org/) -->

<svg
   width="1.5in"
   height="1.3150001in"
   viewBox="0 0 144 126.24001"
   version="1.1"
   id="svg1"
   inkscape:version="1.3 (0e150ed6c4, 2023-07-21)"
   sodipodi:docname="swords_and_cherubim.svg"
   xmlns:inkscape="http://www.inkscape.org/namespaces/inkscape"
   xmlns:sodipodi="http://sodipodi.sourceforge.net/DTD/sodipodi-0.dtd"
   xmlns:xlink="http://www.w3.org/1999/xlink"
   xmlns="http://www.w3.org/2000/svg"
   xmlns:svg="http://www.w3.org/2000/svg">
  <sodipodi:namedview
     id="namedview1"
     pagecolor="#ffffff"
     bordercolor="#000000"
     borderopacity="0.25"
     inkscape:showpageshadow="2"
     inkscape:pageopacity="0.0"
     inkscape:pagecheckerboard="true"
     inkscape:deskcolor="#d1d1d1"
     inkscape:document-units="in"
     showguides="true"
     inkscape:zoom="31.739562"
     inkscape:cx="49.528094"
     inkscape:cy="23.519543"
     inkscape:window-width="1920"
     inkscape:window-height="1017"
     inkscape:window-x="-8"
     inkscape:window-y="-8"
     inkscape:window-maximized="1"
     inkscape:current-layer="layer1" />
  <defs
     id="defs1">
    <linearGradient
       id="linearGradient3"
       inkscape:collect="always">
      <stop
         style="stop-color:#ffffff;stop-opacity:1;"
         offset="0"
         id="stop3" />
      <stop
         style="stop-color:#d4d4d4;stop-opacity:1;"
         offset="0.5"
         id="stop5" />
      <stop
         style="stop-color:#cdcdcd;stop-opacity:1;"
         offset="0.5"
         id="stop6" />
      <stop
         style="stop-color:#a3a3a3;stop-opacity:1;"
         offset="1"
         id="stop4" />
    </linearGradient>
    <linearGradient
       inkscape:collect="always"
       xlink:href="#linearGradient3"
       id="linearGradient4"
       x1="45.898877"
       y1="54.047957"
       x2="64.388283"
       y2="54.047957"
       gradientUnits="userSpaceOnUse"
       gradientTransform="matrix(0.16725796,0,0,0.16725796,38.221926,9.4117076)" />
  </defs>
  <g
     inkscape:label="Layer 1"
     inkscape:groupmode="layer"
     id="layer1">
    <path
       id="rect2"
       style="fill:url(#linearGradient4);stroke:#000000;stroke-width:0.28800001;stroke-linecap:round;stroke-linejoin:round;stroke-dasharray:none"
       d="m 45.963106,13.295157 1.482023,-1.928865 1.482024,1.928865 v 12.241866 h -2.964047 z"
       sodipodi:nodetypes="cccccc" />
    <path
       id="rect8"
       style="fill:#ffffff;stroke:#000000;stroke-width:0.26947;stroke-linecap:round;stroke-linejoin:round;stroke-dasharray:none"
       d="m 42.390627,24.496095 a 1.638334,1.638334 0 0 0 -1.638672,1.638672 1.638334,1.638334 0 0 0 1.638672,1.638672 1.638334,1.638334 0 0 0 1.074219,-0.400391 h 2.712891 v 4.201172 a 1.638334,1.638334 0 0 0 -0.371094,1.033204 1.638334,1.638334 0 0 0 1.638672,1.638671 1.638334,1.638334 0 0 0 1.638672,-1.638671 1.638334,1.638334 0 0 0 -0.371094,-1.03711 v -4.197266 h 2.605469 a 1.638334,1.638334 0 0 0 1.072266,0.400391 1.638334,1.638334 0 0 0 1.638671,-1.638672 1.638334,1.638334 0 0 0 -1.638671,-1.638672 1.638334,1.638334 0 0 0 -1.072266,0.400391 h -7.855469 a 1.638334,1.638334 0 0 0 -1.072266,-0.400391 z" />
  </g>
  <inkscape:templateinfo>
    <inkscape:name>letter_landscape_inches</inkscape:name>
    <inkscape:date>2024-02-01</inkscape:date>
  </inkscape:templateinfo>
</svg>
